<svg xmlns="http://www.w3.org/2000/svg" viewBox="0 0 406.7 112.6"><defs><style>.cls-1{fill:#24435d;}.cls-10,.cls-11,.cls-12,.cls-13,.cls-14,.cls-15,.cls-16,.cls-17,.cls-18,.cls-19,.cls-2,.cls-20,.cls-3,.cls-4,.cls-5,.cls-6,.cls-7,.cls-8,.cls-9{fill:none;stroke:#24435d;stroke-miterlimit:10;}.cls-3{stroke-dasharray:4.69 0 0 0;}.cls-4{stroke-dasharray:4.69 4.69 4.69 0 0 0;}.cls-5{stroke-dasharray:3.7 0 0 0;}.cls-6{stroke-dasharray:3.7 3.7 3.7 0 0 0;}.cls-7{stroke-dasharray:5.61 0 0 0;}.cls-8{stroke-dasharray:5.61 5.61 5.61 0 0 0;}.cls-9{stroke-dasharray:5.59 0 0 0;}.cls-10{stroke-dasharray:5.59 5.59 5.59 0 0 0;}.cls-11{stroke-dasharray:3.7 0 0 0;}.cls-12{stroke-dasharray:3.7 3.7 3.7 0 0 0;}.cls-13{stroke-dasharray:4.7 0 0 0;}.cls-14{stroke-dasharray:4.7 4.7 4.7 0 0 0;}.cls-15{stroke-dasharray:4.7 0 0 0;}.cls-16{stroke-dasharray:4.7 4.7 4.7 0 0 0;}.cls-17{stroke-dasharray:5.6 0 0 0;}.cls-18{stroke-dasharray:5.6 5.6 5.6 0 0 0;}.cls-19{stroke-dasharray:5.57 0 0 0;}.cls-20{stroke-dasharray:5.57 5.57 5.57 0 0 0;}</style></defs><title>Aktiv 1</title><g id="Lag_2" data-name="Lag 2"><g id="Lag_1-2" data-name="Lag 1"><path class="cls-1" d="M7.5,69.8a6.94,6.94,0,0,1-5.3-2.4A8,8,0,0,1,0,61.7V49.1H23.7V46.6a5.39,5.39,0,0,0-.1-1.8,5,5,0,0,0-1.7-.1H0V36.6H23.7A6.79,6.79,0,0,1,29,39a8.46,8.46,0,0,1,2.2,5.7V69.9H7.5Zm1.9-8.2H23.7V56.3H7.5v3.4a5.39,5.39,0,0,0,.1,1.8A6.27,6.27,0,0,0,9.4,61.6Z"/><path class="cls-1" d="M43,69.8a7.09,7.09,0,0,1-5.3-2.4,8,8,0,0,1-2.2-5.7V60.2H43v.3c0,.6,0,1,.1,1s.4.1,1,.1H58.2c.6,0,.9,0,.9-.1s.1-.4.1-1V58.4c0-.6,0-1-.1-1s-.4-.1-.9-.1H43a7.09,7.09,0,0,1-5.3-2.4,8,8,0,0,1-2.2-5.7V44.7A8,8,0,0,1,37.7,39,6.94,6.94,0,0,1,43,36.6H59.2A6.79,6.79,0,0,1,64.5,39a8,8,0,0,1,2.2,5.7v1.5H59.2v-.3c0-.6,0-1-.1-1s-.4-.1-.9-.1H44.1c-.6,0-.9,0-1,.1s-.1.4-.1,1V48c0,.6,0,1,.1,1s.4.1,1,.1H59.2a6.79,6.79,0,0,1,5.3,2.4,8,8,0,0,1,2.2,5.7v4.5a8,8,0,0,1-2.2,5.7,7.09,7.09,0,0,1-5.3,2.4Z"/><path class="cls-1" d="M79.7,69.8a6.94,6.94,0,0,1-5.3-2.4,8,8,0,0,1-2.2-5.7V26.5h7.5v10H91.4v8.1H79.7v15a5.39,5.39,0,0,0,.1,1.8,5,5,0,0,0,1.7.1h9.9v8.1H79.7Z"/><path class="cls-1" d="M96.2,69.8V44.6a8,8,0,0,1,2.2-5.7,7.09,7.09,0,0,1,5.3-2.4h17.1v8.1H105.6a5,5,0,0,0-1.7.1,5.83,5.83,0,0,0-.1,1.8V69.7H96.2Z"/><path class="cls-1" d="M131.6,69.8a7.09,7.09,0,0,1-5.3-2.4,8,8,0,0,1-2.2-5.7V44.6a8,8,0,0,1,2.2-5.7,6.94,6.94,0,0,1,5.3-2.4h16.3a6.79,6.79,0,0,1,5.3,2.4,8,8,0,0,1,2.2,5.7V61.7a8,8,0,0,1-2.2,5.7,6.94,6.94,0,0,1-5.3,2.4Zm1.9-8.2H146c1.1,0,1.7,0,1.7-.1a5.83,5.83,0,0,0,.1-1.8V46.6a5.39,5.39,0,0,0-.1-1.8,5,5,0,0,0-1.7-.1H133.5a5,5,0,0,0-1.7.1,5.83,5.83,0,0,0-.1,1.8V59.7a5.39,5.39,0,0,0,.1,1.8A5,5,0,0,0,133.5,61.6Z"/><path class="cls-1" d="M239.4,82.9V36.5h23.8a6.79,6.79,0,0,1,5.3,2.4,8,8,0,0,1,2.2,5.7V61.7a8,8,0,0,1-2.2,5.7,6.94,6.94,0,0,1-5.3,2.4H247V83h-7.6Zm9.4-21.3h12.6a5,5,0,0,0,1.7-.1,5.83,5.83,0,0,0,.1-1.8V46.6a5.39,5.39,0,0,0-.1-1.8,5,5,0,0,0-1.7-.1H248.8a5,5,0,0,0-1.7.1,5.83,5.83,0,0,0-.1,1.8V59.7a5.39,5.39,0,0,0,.1,1.8C247.1,61.6,247.7,61.6,248.8,61.6Z"/><path class="cls-1" d="M274.6,69.8V44.6a8,8,0,0,1,2.2-5.7,7.09,7.09,0,0,1,5.3-2.4h17.1v8.1H284a5,5,0,0,0-1.7.1,5.83,5.83,0,0,0-.1,1.8V69.7h-7.6Z"/><path class="cls-1" d="M310.3,69.8a7.09,7.09,0,0,1-5.3-2.4,8,8,0,0,1-2.2-5.7V44.6a8,8,0,0,1,2.2-5.7,6.94,6.94,0,0,1,5.3-2.4h16.3a6.79,6.79,0,0,1,5.3,2.4,8,8,0,0,1,2.2,5.7V57.2H310.4v2.5a5.39,5.39,0,0,0,.1,1.8,5,5,0,0,0,1.7.1h21.9v8.1H310.3Zm0-19.8h16.1V46.6a5.39,5.39,0,0,0-.1-1.8,5,5,0,0,0-1.7-.1H312.1a5,5,0,0,0-1.7.1,5.83,5.83,0,0,0-.1,1.8V50Z"/><path class="cls-1" d="M346.5,69.8a7.09,7.09,0,0,1-5.3-2.4,8,8,0,0,1-2.2-5.7V60.2h7.5v.3c0,.6,0,1,.1,1s.4.1,1,.1h14.1c.6,0,.9,0,.9-.1s.1-.4.1-1V58.4c0-.6,0-1-.1-1s-.4-.1-.9-.1H346.5a7.09,7.09,0,0,1-5.3-2.4,8,8,0,0,1-2.2-5.7V44.7a8,8,0,0,1,2.2-5.7,6.94,6.94,0,0,1,5.3-2.4h16.3a6.79,6.79,0,0,1,5.3,2.4,8,8,0,0,1,2.2,5.7v1.5h-7.6v-.3c0-.6,0-1-.1-1s-.4-.1-.9-.1H347.6c-.6,0-.9,0-1,.1s-.1.4-.1,1V48c0,.6,0,1,.1,1s.4.1,1,.1h15.1a6.79,6.79,0,0,1,5.3,2.4,8,8,0,0,1,2.2,5.7v4.5a8,8,0,0,1-2.2,5.7,7.09,7.09,0,0,1-5.3,2.4Z"/><path class="cls-1" d="M382.9,69.8a7.09,7.09,0,0,1-5.3-2.4,8,8,0,0,1-2.2-5.7V60.2h7.5v.3c0,.6,0,1,.1,1s.4.1,1,.1h14.1c.6,0,.9,0,.9-.1s.1-.4.1-1V58.4c0-.6,0-1-.1-1s-.4-.1-.9-.1H382.9a7.09,7.09,0,0,1-5.3-2.4,8,8,0,0,1-2.2-5.7V44.7a8,8,0,0,1,2.2-5.7,6.94,6.94,0,0,1,5.3-2.4h16.3a6.79,6.79,0,0,1,5.3,2.4,8,8,0,0,1,2.2,5.7v1.5h-7.6v-.3c0-.6,0-1-.1-1s-.4-.1-.9-.1H384c-.6,0-.9,0-1,.1s-.1.4-.1,1V48c0,.6,0,1,.1,1s.4.1,1,.1h15.2a6.79,6.79,0,0,1,5.3,2.4,8,8,0,0,1,2.2,5.7v4.5a8,8,0,0,1-2.2,5.7,7.09,7.09,0,0,1-5.3,2.4Z"/><polyline class="cls-2" points="142.5 112.1 140 112.1 140 109.6"/><line class="cls-3" x1="140.1" y1="105" x2="143.1" y2="101.4"/><line class="cls-4" x1="143.1" y1="101.4" x2="179.2" y2="58.2"/><polyline class="cls-2" points="179.2 58.2 180.8 56.3 179.2 54.4"/><line class="cls-3" x1="176.2" y1="50.8" x2="173.2" y2="47.2"/><polyline class="cls-4" points="173.2 47.2 140 7.5 140 3"/><polyline class="cls-2" points="140 3 140 0.5 142.5 0.5"/><line class="cls-5" x1="146.2" y1="0.5" x2="149.9" y2="0.5"/><line class="cls-6" x1="149.9" y1="0.5" x2="161" y2="0.5"/><polyline class="cls-2" points="161 0.5 163.5 0.5 165.1 2.4"/><line class="cls-7" x1="168.7" y1="6.7" x2="172.3" y2="11"/><line class="cls-8" x1="172.3" y1="11" x2="194" y2="36.7"/><polyline class="cls-2" points="194 36.7 195.6 38.6 197.2 36.7"/><line class="cls-9" x1="200.8" y1="32.4" x2="204.4" y2="28.1"/><line class="cls-10" x1="204.4" y1="28.1" x2="225.9" y2="2.4"/><polyline class="cls-2" points="225.9 2.4 227.5 0.5 230 0.5"/><line class="cls-11" x1="233.7" y1="0.5" x2="237.4" y2="0.5"/><line class="cls-12" x1="237.4" y1="0.5" x2="248.5" y2="0.5"/><polyline class="cls-2" points="248.5 0.5 251 0.5 251 3"/><line class="cls-13" x1="250.9" y1="7.6" x2="247.9" y2="11.2"/><line class="cls-14" x1="247.9" y1="11.2" x2="211.6" y2="54.4"/><polyline class="cls-2" points="211.6 54.4 210 56.3 211.6 58.2"/><line class="cls-15" x1="214.7" y1="61.8" x2="217.7" y2="65.4"/><polyline class="cls-16" points="217.7 65.4 251 105 251 109.6"/><polyline class="cls-2" points="251 109.6 251 112.1 248.5 112.1"/><line class="cls-11" x1="244.8" y1="112.1" x2="241.1" y2="112.1"/><line class="cls-12" x1="241.1" y1="112.1" x2="230" y2="112.1"/><polyline class="cls-2" points="230 112.1 227.5 112.1 225.9 110.2"/><line class="cls-17" x1="222.3" y1="105.9" x2="218.7" y2="101.6"/><line class="cls-18" x1="218.7" y1="101.6" x2="197" y2="76"/><polyline class="cls-2" points="197 76 195.3 74.1 193.7 76"/><line class="cls-19" x1="190.1" y1="80.3" x2="186.6" y2="84.6"/><line class="cls-20" x1="186.6" y1="84.6" x2="165.1" y2="110.2"/><polyline class="cls-2" points="165.1 110.2 163.5 112.1 161 112.1"/><line class="cls-5" x1="157.3" y1="112.1" x2="153.6" y2="112.1"/><line class="cls-6" x1="153.6" y1="112.1" x2="142.5" y2="112.1"/></g></g></svg>