<svg xmlns="http://www.w3.org/2000/svg" viewBox="0 0 206.92 179.27"><defs><style>.cls-1{fill:#f3f3f3;}</style></defs><title>Briefcase</title><g id="Layer_2" data-name="Layer 2"><g id="Layer_1-2" data-name="Layer 1"><polygon class="cls-1" points="43.58 178.04 42.52 177.96 42.18 178.21 43.58 178.04"/><path class="cls-1" d="M38.55,177.12l-1.82.11c1.05.74-.36.53,2.48,1.06,1-.12,3.19-.37,2.9-.67a16.82,16.82,0,0,1-2.83.23c.46-.22,1.6-.19,2.14-.47-1.72-.23-1.08.18-3,.08Z"/><path class="cls-1" d="M36.4,177.86c.17-.13.34-.25.31-.36C36.54,177.63,35.66,177.79,36.4,177.86Z"/><path class="cls-1" d="M35.29,177.94c-1.15,0,0-.27-.1-.32l-1.3.48Z"/><path class="cls-1" d="M30.52,177.91,30,178C30.17,178,30.32,178,30.52,177.91Z"/><path class="cls-1" d="M28.18,178A4.38,4.38,0,0,0,30,178l-.08,0c-.65-.14,0-.48,1-.39,1.11-.07,1,.26,2,0l-1.32-.27A13.16,13.16,0,0,0,28.18,178Z"/><path class="cls-1" d="M30.52,177.91q.3,0,.63,0A1.25,1.25,0,0,0,30.52,177.91Z"/><polygon class="cls-1" points="32.92 177.95 33.52 177.88 33.37 177.73 32.92 177.95"/><path class="cls-1" d="M24.26,178c.28-.46,2.8,0,3.1-.31-1.54,0-2.77-.32-2.43-.57l-1.71.14C22.64,177.42,23.37,177.77,24.26,178Z"/><path class="cls-1" d="M20.91,176.82a2,2,0,0,1-.38.08A1,1,0,0,0,20.91,176.82Z"/><path class="cls-1" d="M12.29,177.54c1.31,0,2.65-.25,4-.39a1.81,1.81,0,0,1-1.14.35c1.77.06,2-.24,3.46-.19.44.43-2.57,0-1.73.42a10.85,10.85,0,0,0,3.39-.4l1.63.29-.55-.47c-.67-.14-1.34.37-1.75,0-.2-.2.46-.24.93-.29-1.06.1-2.89-.37-5-.31S13.77,177.4,12.29,177.54Z"/><polygon class="cls-1" points="12.18 177.01 11.94 176.81 12.1 177.07 12.18 177.01"/><path class="cls-1" d="M7.92,176.87c.34.06.67.14,1,.17l1,0a1.24,1.24,0,0,1,.44.31c-.06-.13.5-.21.43-.32a3.07,3.07,0,0,0-1.66-.38,11,11,0,0,1-1.81-.26,3,3,0,0,1-.71-.38,2.7,2.7,0,0,1-.31-.23c-.1-.09,0-.09.1-.07s.69.14.32-.28a7.51,7.51,0,0,0,1.65.79A46.22,46.22,0,0,1,4.25,174a1.49,1.49,0,0,0,.64.73l-.49-.28c-.15-.1-.29-.23-.44-.35C4.55,175.13,5.33,176,7.92,176.87Z"/><path class="cls-1" d="M11.5,177.59a1.69,1.69,0,0,1-1.09-.2A1.16,1.16,0,0,0,11.5,177.59Z"/><path class="cls-1" d="M3.85,173.59a1.82,1.82,0,0,0,.4.41A2.4,2.4,0,0,0,3.85,173.59Z"/><path class="cls-1" d="M4.27,174.74c-.35-.32-.63-.69-.95-1l.23.54C3.71,174.38,4.21,174.86,4.27,174.74Z"/><path class="cls-1" d="M1.59,120.31c-.18.13-.26.66-.23,1.79-.23-.14-.19-1.6-.32-2.28-.15,1.49-.27,0-.5.36,0,1.65.28,2.39.22,4.16-.06-.08-.17,0-.25.18a58.83,58.83,0,0,1,.17,7.84c-.09,2,0,3.5.12,5.7-.12,7.26.12,14.83-.1,22.63l.45,1.11c-.22.38,0,1.86-.29,1.64a10,10,0,0,0,0-1.35,14.06,14.06,0,0,0-.18,3.11,21.62,21.62,0,0,0,.14,3.28c.05-.23.39-.59.55,0-.26,0-.2.53,0,1.17s.42,1.33.23,1.72c.38.92.49.88.6.85s.2,0,.74.79c.19,0-.08-.39-.31-.86s-.5-1-.42-1.25c.44.45.66,1.61.91,1.36a13.62,13.62,0,0,1-1.72-5.81c0-.3,0-.61,0-.92s0-.26,0-.5,0-.37,0-.56l-.12-2c-.08-1.36-.15-2.7-.19-4l.28.54A40.27,40.27,0,0,1,1.55,150c-.26.49.15-3.87-.46-3.48a9.3,9.3,0,0,0,.17-1.8l-.19-.25c0-1.35.3-1.13.28-2.67-.26,1-.34-.11-.55-.56.29-1.76.54-3.82.78-5.38a1.73,1.73,0,0,0-.29.8c.09-1.07-.16-.89-.25-1.17,0-1,.33-.92.49-.87.11-1.89-.53-2.73-.32-4.14L1,131c-.07-1.94.22-3.58.13-5.72.37-1,.32,1.76.48,2.65a13.86,13.86,0,0,1,.21-1.66c-.18-.91-.44-2.45-.61-3.59C1.58,123.77,1.56,121,1.59,120.31Z"/><path class="cls-1" d="M1.77,126.27c.06.27.11.49.15.62a3.73,3.73,0,0,1,0-.71S1.8,126.19,1.77,126.27Z"/><path class="cls-1" d="M1.59,120.31s0,0,0,0C1.6,120.05,1.59,120.11,1.59,120.31Z"/><path class="cls-1" d="M.65,132.63l0-.27V132Z"/><path class="cls-1" d="M1.86,134.24c-.09.41-.19,1-.28,1.64C1.7,135.69,1.79,135.54,1.86,134.24Z"/><path class="cls-1" d="M1.56,147.33c.05.4.13.17.22.45C1.79,147,1.7,146.67,1.56,147.33Z"/><polygon class="cls-1" points="1.84 123.92 1.76 122.29 1.69 121.69 1.84 123.92"/><path class="cls-1" d="M.46,90.89a34.76,34.76,0,0,0-.19,5.32c.17,3.25.69.41.73,3.5l-.65-.54c0,3.09-.1,7.47.48,10.08-.08.23-.18.78-.28,0,0,2.06.94,1.07.72,3.81-.41-2.56-.39.84-.79.14l0-.4c0,1.74.26,4,.23,5.2.17,0,.43-1,.45.58,0-.62.22-.37.39-.32-.19-1.59-.07-2.46-.29-3.43.22-.89.07.6.29-.29l-.21-1.28c.05-.94.22,1,.27-.49a7.76,7.76,0,0,1-.24-2.51l.08.33c-.09-.88,0-2.12-.35-1.69l.36-1-.24.18c.09-2.41.69-3.31.38-6.41-.08.74-.21.06-.26-.34-.17,1.29.19,1.6.22,2.82-.24.18-.54-1.9-.69-.41.29-1.64,0-3.08.58-3.78,0-2-.26-2.71-.12-4.72l.09.06c-.41-.37.19-1.63-.23-3.11l-.09,1.06c-.17,0-.17-.57-.21-1.28.07.08.07.08.15-.15C.69,91.54.65,89.28.56,89a30.14,30.14,0,0,0,.27,3.22C.65,91.66.41,91.83.46,90.89Z"/><path class="cls-1" d="M1.54,111.21l-.14-.64A1.69,1.69,0,0,0,1.54,111.21Z"/><path class="cls-1" d="M1,82c.06-1.26.25.34.38-.84-.2-1.28-.42,1.47-.73.22A11.14,11.14,0,0,0,.5,78.8c.17.57.56.24.64,0a18.06,18.06,0,0,1,.1-2.4c-.25,2-.15-1.71-.41.12A5.6,5.6,0,0,1,.6,73.71c.17.05.13.68.14,1.2.32.42.17-1.29.46-1.59C.76,71.39.79,65.19.08,67a7.08,7.08,0,0,0,.07,1.94c.14-2,.37,0,.5.16-.12.86.11,2.34-.14,2L.24,69.69C.11,74.06.16,80,.26,85.07V82.89A7.61,7.61,0,0,1,.57,85L1,83.9c0,.63,0,1.23-.13,1.18.2.76.32.41.48,0a13.43,13.43,0,0,0,.2,3.13c.39-2.69-.32-2.27,0-5.37Z"/><polygon class="cls-1" points="1.23 87.87 1 87.22 1.11 88.21 1.23 87.87"/><path class="cls-1" d="M.2,86.84c.1,0,.15.36.25.33C.52,85.91.38,86.06.2,86.84Z"/><path class="cls-1" d="M1.22,71.66,1.14,70,1.05,71.1C1.15,71.07,1.2,71.47,1.22,71.66Z"/><path class="cls-1" d="M0,60.26A38.2,38.2,0,0,1,0,66c.31,1.24.57-.59.85-.05C1,64.73.43,64.88.33,63.57c.27-.49-.06-1.92,0-3.17C.22,60.56.1,60.56,0,60.26Z"/><path class="cls-1" d="M1,52.5a24.08,24.08,0,0,1-.07-2.88c.16.11.23.73.18,1.35.38-.4-.06-1.14.19-2.26,0,.1-.1.51-.18.19.09-2.77-.31-1.56-.1-5.15-.1-.52-.1-1-.35-1,.33-2,.28-1,.62-3.45-.15.08-.52.88-.82.86a22.54,22.54,0,0,0,.34-3.34,10.88,10.88,0,0,1,.5-2.34,6,6,0,0,1-.14,1.13c.24-.11.3-.56.33-1.13a9.78,9.78,0,0,1,.42-1.82l.32.23a8.25,8.25,0,0,1,2-3.84l0,.37a4.53,4.53,0,0,1,.59-.86c.23-.27.45-.57.7-.83a11.24,11.24,0,0,1,1.72-1.35,13,13,0,0,1,1.87-1,19.22,19.22,0,0,1,1.83-.64c.43,0,.87,0,1.29,0,1.6-.32.8-.29-.13-.22s-2,.29-.85-.3c.26.29.66.17,1.27,0A4.88,4.88,0,0,1,14.91,24c.46.13,0,.18-.52.2s-.91.11-.42.24c.4-.35,1-.08,2.07-.19-.23.33,2.16,0,1.52.42L21.2,24a7.83,7.83,0,0,0,2.41.11c-2,0,.54-.5-1.66-.65-1.6.08-3.74.15-6,.17-1.11,0-2.27,0-3.41.1a16.37,16.37,0,0,0-3.19.66c-.29.49-2.42,1.06-2.74,1.76A4.91,4.91,0,0,0,6,26.13c-2,1.75.64-.2.23.35A5.75,5.75,0,0,1,5,27.31c-.31.19-.52.27-.54.17-1.31,1.38-.06.25-.52,1.11a12.19,12.19,0,0,0-1.11.71,18.24,18.24,0,0,0-2.4,9.46c0,.87,0,1.74,0,2.61s0,1.74,0,2.61c0,1.73,0,3.44-.11,5.09l.32-.5c-.18,3,.7,5,0,7.62l.27.91c-.15-.5-.47.51-.68-.27.1.81,0,1.67.08,2.51l.15-1.49a4,4,0,0,1-.13,2.54c.31,2.23.54-1.32.81-1.81-.58-3.13.57-3.15.32-6.16C1.29,50.56,1.18,52.62,1,52.5Z"/><path class="cls-1" d="M.15,56.37a4.16,4.16,0,0,0,.09.46A3.73,3.73,0,0,0,.15,56.37Z"/><path class="cls-1" d="M23.61,24.15l.88,0C24.79,24.05,24.31,24.11,23.61,24.15Z"/><path class="cls-1" d="M.33,60.4h0v0Z"/><polygon class="cls-1" points="1.1 61.89 1.11 61.06 0.97 61.21 1.1 61.89"/><path class="cls-1" d="M32.4,24.55v-.17C32.33,24.43,32.3,24.48,32.4,24.55Z"/><path class="cls-1" d="M42.86,36.55V36A2.86,2.86,0,0,0,42.86,36.55Z"/><path class="cls-1" d="M43.21,93.65a38.63,38.63,0,0,0,.46,4.77l-.16-.12c.08.84.34,3.53.64,1.79L44,99.67c-.24-2,.28-1.43.39-3-.08-1.86-.71-2.92-.56-4.56,0-.72.15-.61.28-.4,0-1.64-.44-2.29-.5-3.42,1.25-.45-.34-5.07.46-7.5-.11-1.55,0-3.61-.24-5.58.31,1.05,0-1.85.38-1.42-.73-.56.32-5.65-.6-6,.26-2.66-.06-.11.16-3.19.1,0,.1.53.12.73.19-1.22-.39-1.87,0-2.88.07-2.47-.25-.42-.5-1.88A7.44,7.44,0,0,1,44,57.33c-.43-.23-.22-1.77-.45-3,0,.31-.11,2.06-.27.91.07-3-.29-2.38-.41-5.17.49-1.41,0,2.78.4.33a22.69,22.69,0,0,0,.55,4c0-2.37-.05-5.26-.25-7.85.06-1.44.23.74.27-.39.21-2.57-.49-3.95-.28-6l.25.43c-.33-1.25.07-4.53-.11-6.91-.12.3-.21.5-.29.19.62,0-.33-3.31.11-5.66-.19.09-.35-.43-.46-1.16-.05-.36-.1-.78-.13-1.19L42.89,25a.8.8,0,0,1,.38-.47,4.67,4.67,0,0,0,.15,2,7.32,7.32,0,0,1,.47,1.9c-.17-1.27-.06-3.08-.16-4.69a8.85,8.85,0,0,0-1.08.12,6.57,6.57,0,0,1,.76-.31,5.66,5.66,0,0,0-2.28.3A4.57,4.57,0,0,1,39,24l.23-.23c-4.54,0-9.88-.38-13.51.13-.32.19,1.51.63,1.61.78,2.17-.16,3.42-.49,5.08-.66l0,.36c.38-.25,2.37-.39,1.27-.58,1.35-.19,1,.31,2.57.11-.12.37-1,.41-1.07.72l1.35-.18c-.42.14.81.13.4.27a10.89,10.89,0,0,1,3-.11c.44,0,.88.09,1.38.11.25,0,.51,0,.79,0h.24l.21,0-.31,0-.68,0c0-.11.21-.15.5-.18l.69-.07a1.48,1.48,0,0,0,.19.18c-.05.17-.08.31-.11.46l0,.23c0,.07,0,.36,0,.58a16.25,16.25,0,0,1,.53,3.32c-.39-.33-.21,2.57-.55,2.86.4.33.14,3,.37,3.21.08.83,0,2-.17,2,0-.12,0-.36-.07-.62v.83c-.05-.08-.08-.06-.09-.15,0,.74.28.74.08,1.69-.1,0-.1-.52-.14-.94-.07,2,.6,3.44.24,5.07.18.31.2,2.58.62,2.09-.15.61-.48.39-.42,2,.35.94-.13,1.84.1,3.09-.38-1.67-.11,0-.46-1.46-.15,1.12.33,2.8.26,4.75-.08.2-.19.2-.27.4a4.3,4.3,0,0,1,.12,2.27l.25-.09c-.13,1.34,0,3.19-.32,4.62l.47,1.67a17.45,17.45,0,0,0,.38,7,7.45,7.45,0,0,1-.21,2.05c0-.19-.1-.51-.17-.89,0,1.21-.29,2.68.1,3.36.13,1.25-.27.91-.33,1.84.55,2.5-.41,7.4.44,8.16,0-1,.17-3,.13-4.94.11.52.27.12.29.84,0,2-.27,3-.13,4.94l-.54-.24C42.7,88,44,91,43.21,93.65Z"/><path class="cls-1" d="M43.22,68.52l-.28,1.42.24-.15A4.44,4.44,0,0,1,43.22,68.52Z"/><path class="cls-1" d="M43.18,69.79a6.94,6.94,0,0,0,.11.83,5.91,5.91,0,0,0,0-.87Z"/><path class="cls-1" d="M43.3,99.32a9.56,9.56,0,0,0,0,1.55A5.38,5.38,0,0,0,43.3,99.32Z"/><polygon class="cls-1" points="43.46 100.98 43.55 100.26 43.48 100.16 43.46 100.98"/><path class="cls-1" d="M43.93,142.63l.33,2.29c-.17.4,0,3-.25,2.15.39,1.36,0,4.32.57,3.22-.19-6.7.14-16-.36-23.72l.22,1.25c-.44-4,.5-5.53-.39-8.77l.45.43c.13-1.85-.66-3.54-.17-5.47l-.19.2c0-.52.08-.72.09-1.24l-.09.21a13.31,13.31,0,0,1,0-3.51c.14-.09.06.63.1,1a19.14,19.14,0,0,0-.16-2.69c.13-.82.21,0,.27.12-.2-3.11.28-4.52-.4-6.72-.13-.21-.23.81-.29-.32a25.51,25.51,0,0,0,.23,5.57v-.52c.66,1.49-.15,1.13.13,3.52a19.44,19.44,0,0,1-.41-2.09c-.5,2.76.39,3.94-.26,5.76l0-.21a9.77,9.77,0,0,0,.12,1.76,9.53,9.53,0,0,0,.19-1.23,2.27,2.27,0,0,0,.48,1.16c-.3.71.14.94,0,2.06-.27.4-.25-.94-.39-1.36l.19,1.35c0,1.24-.3,1.22-.45,1.83.21,1,.15-.61.44.24-.34,1.32-.24,7,0,9.68,0-.93-.29-.32-.25-1.46-.06.42.08,1.86.29,1.87a31.11,31.11,0,0,1-.14,6l.21-.5c.35,1.46-.26,3.7,0,6.28v-.06a12.25,12.25,0,0,1,.45,3.08C44.16,143.37,44.18,142.55,43.93,142.63Z"/><path class="cls-1" d="M44.41,151.73l-.29-.84c-.06.92.31,2.07.5,1.88-.06-.62.07-1.44-.1-1.56C44.48,151.32,44.37,151.31,44.41,151.73Z"/><path class="cls-1" d="M44.46,169c.07.34.18.25.26.39,0-3.66-.15-8.18.07-9.64.09-1.24-.35-1.46-.45-3l.29-.7c-.18-.84.14-3.4-.34-2.5a7.38,7.38,0,0,1,.14,1.46l-.17-.12.06,1.65-.21-.52c-.3,2.25.62,1.58.43,4.35l-.42,0a27.58,27.58,0,0,1-.13,4.42s.21,0,.12-.3.19-.71.32-.5c.33,2.8-.25-.42-.42,1.52.29,2.39.53,6.93.19,8.26.25-1.12.52.54.5,1.88-.15.61-.25-.43-.38-.64a10.22,10.22,0,0,0-.09,1.75c.23-.81.55-.28.69,1.17C45.18,174.75,44.41,172.23,44.46,169Z"/><path class="cls-1" d="M44.81,170a1.4,1.4,0,0,0-.09-.56c0,.44,0,.87,0,1.28Z"/><polygon class="cls-1" points="162.58 177.81 163.64 177.9 163.97 177.65 162.58 177.81"/><path class="cls-1" d="M167.6,178.73l1.83-.1c-1.05-.75.36-.53-2.48-1.06-1,.12-3.2.37-2.91.66a18.29,18.29,0,0,1,2.83-.22c-.45.21-1.6.19-2.13.47,1.72.22,1.08-.18,3-.08Z"/><path class="cls-1" d="M169.76,178c-.17.12-.34.25-.31.35C169.62,178.23,170.5,178.07,169.76,178Z"/><path class="cls-1" d="M170.87,177.92c1.14,0,0,.27.09.31l1.31-.47Z"/><path class="cls-1" d="M175.64,178l.53,0A.7.7,0,0,0,175.64,178Z"/><path class="cls-1" d="M178,177.89a4.59,4.59,0,0,0-1.81,0l.07,0c.66.14,0,.48-1,.39-1.11.07-1-.26-2,0l1.32.27A12.73,12.73,0,0,0,178,177.89Z"/><path class="cls-1" d="M175.64,178l-.63,0A1.17,1.17,0,0,0,175.64,178Z"/><polygon class="cls-1" points="173.24 177.91 172.64 177.98 172.79 178.13 173.24 177.91"/><path class="cls-1" d="M181.9,177.87c-.28.46-2.8-.05-3.11.31,1.54,0,2.78.32,2.44.57l1.71-.14C183.51,178.43,182.79,178.09,181.9,177.87Z"/><path class="cls-1" d="M185.24,179a1.41,1.41,0,0,1,.39-.08A1.1,1.1,0,0,0,185.24,179Z"/><path class="cls-1" d="M193.9,178.17c-1.35.26-2.68.37-4,.54.37-.15.22-.3,1.13-.35-1.76-.06-2,.24-3.45.19-.44-.43,2.57,0,1.73-.42a10.26,10.26,0,0,0-3.39.4l-1.63-.3.55.48c.67.14,1.34-.37,1.75,0,.2.2-.46.24-.93.29,1.06-.1,2.88.37,5,.3S192.41,178.48,193.9,178.17Z"/><polygon class="cls-1" points="194.09 178.68 194.38 178.85 194.17 178.61 194.09 178.68"/><path class="cls-1" d="M198.37,177.29c-.32.15-.63.34-1,.46l-1,.34a1.53,1.53,0,0,1-.54-.13c.1.09-.44.38-.34.45a3.6,3.6,0,0,0,1.83-.25c.65-.23,1.25-.67,1.79-.87A3.88,3.88,0,0,0,200,177l.39-.14c.16,0,.1,0,0,.13s-.63.55,0,.44a10.56,10.56,0,0,1-2.07.66,7.43,7.43,0,0,0,1.52-.3,14.34,14.34,0,0,0,1.4-.76,5.86,5.86,0,0,0,1.12-.94,5,5,0,0,0,.79-.85c-.28.25-.43.21-1,.65l.47-.44c.14-.16.26-.34.4-.51A24.78,24.78,0,0,1,198.37,177.29Z"/><path class="cls-1" d="M194.7,178c.78-.05,1.05-.15,1.14-.08A2,2,0,0,0,194.7,178Z"/><path class="cls-1" d="M203.59,174.74a3,3,0,0,0-.46.5A2.64,2.64,0,0,0,203.59,174.74Z"/><path class="cls-1" d="M202.35,175.27c.39-.31.73-.7,1.09-1.05l-.55.3C202.76,174.68,202.28,175.24,202.35,175.27Z"/><path class="cls-1" d="M206.59,120.31c-.18.13-.26.66-.23,1.79-.23-.14-.19-1.6-.32-2.28-.15,1.49-.27,0-.5.36,0,1.65.28,2.39.22,4.16-.06-.08-.17,0-.25.18a58.83,58.83,0,0,1,.17,7.84c-.09,2,0,3.5.12,5.7-.12,7.26.12,14.83-.1,22.63l.45,1.11c-.22.38,0,1.86-.29,1.64a10,10,0,0,0,0-1.35,10.85,10.85,0,0,0-.13,3.08,9.71,9.71,0,0,1-.06,3.37c.11-.21.55-.51.53.13-.24-.12-.31.49-.51,1.17a2.68,2.68,0,0,1-.84,1.62c-.52.88-.43.94-.34,1s.23.21-.45,1.08c.05.18.42-.22.74-.75a11.62,11.62,0,0,1,.79-1.3c0,.76-1,1.8-.69,1.85a9.83,9.83,0,0,0,.73-1.34,13.59,13.59,0,0,0,.57-1.67,13.92,13.92,0,0,0,.34-3.93c0-.35-.06-.7-.09-1.06,0-.15-.06-.4-.08-.49s0-.3,0-.44l-.12-2c-.08-1.36-.15-2.7-.19-4l.28.54a40.27,40.27,0,0,1,.24-8.95c-.26.49.15-3.87-.46-3.48a9.3,9.3,0,0,0,.17-1.8l-.19-.25c0-1.35.3-1.13.28-2.67-.26,1-.34-.11-.55-.56.29-1.76.54-3.82.78-5.38a1.73,1.73,0,0,0-.29.8c.09-1.07-.16-.89-.25-1.17,0-1,.33-.92.49-.87.11-1.89-.53-2.73-.32-4.14l-.26.5c-.07-1.94.22-3.58.13-5.72.37-1,.32,1.76.48,2.65a13.86,13.86,0,0,1,.21-1.66c-.18-.91-.44-2.45-.61-3.59C206.58,123.77,206.56,121,206.59,120.31Z"/><path class="cls-1" d="M206.77,126.27c.06.27.11.49.15.62a3.73,3.73,0,0,1,0-.71S206.8,126.19,206.77,126.27Z"/><path class="cls-1" d="M206.59,120.31s0,0,0,0C206.6,120.05,206.59,120.11,206.59,120.31Z"/><path class="cls-1" d="M205.65,132.63l0-.27V132Z"/><path class="cls-1" d="M206.86,134.24c-.09.41-.19,1-.28,1.64C206.7,135.69,206.79,135.54,206.86,134.24Z"/><path class="cls-1" d="M206.56,147.33c.05.4.13.17.22.45C206.79,147,206.7,146.67,206.56,147.33Z"/><polygon class="cls-1" points="206.84 123.92 206.76 122.29 206.69 121.69 206.84 123.92"/><path class="cls-1" d="M205.46,90.89a34.76,34.76,0,0,0-.19,5.32c.17,3.25.69.41.73,3.5l-.65-.54c0,3.09-.1,7.47.48,10.08-.08.23-.18.78-.28,0,0,2.06.94,1.07.72,3.81-.41-2.56-.39.84-.79.14l0-.4c0,1.74.26,4,.23,5.2.17,0,.43-1,.45.58,0-.62.22-.37.39-.32-.19-1.59-.07-2.46-.29-3.43.22-.89.07.6.29-.29l-.21-1.28c.05-.94.22,1,.27-.49a7.76,7.76,0,0,1-.24-2.51l.08.33c-.09-.88,0-2.12-.35-1.69l.36-1-.24.18c.09-2.41.69-3.31.38-6.41-.08.74-.21.06-.26-.34-.17,1.29.19,1.6.22,2.82-.24.18-.54-1.9-.69-.41.29-1.64,0-3.08.58-3.78,0-2-.26-2.71-.12-4.72l.09.06c-.41-.37.19-1.63-.23-3.11l-.09,1.06c-.17,0-.17-.57-.21-1.28.07.08.07.08.15-.15-.3-.22-.34-2.48-.43-2.76a30.14,30.14,0,0,0,.27,3.22C205.65,91.66,205.41,91.83,205.46,90.89Z"/><path class="cls-1" d="M206.54,111.21l-.14-.64A1.69,1.69,0,0,0,206.54,111.21Z"/><path class="cls-1" d="M206,82c.06-1.26.25.34.38-.84-.2-1.28-.42,1.47-.73.22a11.14,11.14,0,0,0-.13-2.54c.17.57.56.24.64,0a18.06,18.06,0,0,1,.1-2.4c-.25,2-.15-1.71-.41.12a5.6,5.6,0,0,1-.23-2.82c.17.05.13.68.14,1.2.32.42.17-1.29.46-1.59-.44-1.93-.41-8.13-1.12-6.37a7.08,7.08,0,0,0,.07,1.94c.14-2,.37,0,.5.16-.12.86.11,2.34-.14,2l-.27-1.36c-.13,4.37-.08,10.35,0,15.38V82.89a7.61,7.61,0,0,1,.3,2.08L206,83.9c0,.63,0,1.23-.13,1.18.2.76.32.41.48,0a13.43,13.43,0,0,0,.2,3.13c.39-2.69-.32-2.27,0-5.37Z"/><polygon class="cls-1" points="206.23 87.87 206 87.22 206.11 88.21 206.23 87.87"/><path class="cls-1" d="M205.2,86.84c.1,0,.15.36.25.33C205.52,85.91,205.38,86.06,205.2,86.84Z"/><path class="cls-1" d="M206.22,71.66,206.14,70l-.09,1.06C206.15,71.07,206.2,71.47,206.22,71.66Z"/><path class="cls-1" d="M205,60.26A38.2,38.2,0,0,1,205,66c.31,1.24.57-.59.85-.05.07-1.26-.45-1.11-.55-2.42.27-.49-.06-1.92,0-3.17C205.22,60.56,205.1,60.56,205,60.26Z"/><path class="cls-1" d="M206,52.5a24.08,24.08,0,0,1-.07-2.88c.16.11.23.73.18,1.35.38-.4-.06-1.14.19-2.26,0,.1-.1.51-.18.19.09-2.77-.31-1.56-.1-5.15-.1-.52-.1-1-.35-1a26.18,26.18,0,0,0,.56-3.48c-.13.1-.44.91-.76.89a15.48,15.48,0,0,0,0-3.35,11.17,11.17,0,0,1-.32-2.41,5.63,5.63,0,0,1,.25,1.13c.19-.18.09-.65-.07-1.22a13.53,13.53,0,0,1-.69-1.81H205c-.38-1.13-1.55-2.79-2.22-4.14l.35.17a13.89,13.89,0,0,0-7.71-4.68,13.6,13.6,0,0,0-1.31-.49c-1.79-.07-.9,0,.07.25s2,.64.71.58c-.25-.74-1.78-.17-3.69-.36-.46-.14,0-.16.51-.22s1-.06.45-.24c-.46.35-1,.11-2.08.21.23-.33-2.16-.05-1.52-.42l-3.64.62a7.9,7.9,0,0,0-2.42-.11c2,0-.54.49,1.67.65,1.6-.08,3.74-.15,6-.18a23.38,23.38,0,0,1,3.36.09,11.81,11.81,0,0,1,3,.79c.61-.37,2.31,1,3,1.07,0,.18.19.42.17.61,2,1.52-.3-.57.26-.32a4.76,4.76,0,0,1,1,1c.2.3.25.54.15.55,1.2,1.35.23.07,1.05.59.13.42.19.86.28,1.27a17.13,17.13,0,0,1,2.78,9c.08.85.1,1.72.1,2.59s0,1.74,0,2.61c0,1.73,0,3.44-.11,5.09l.32-.5c-.18,3,.7,5,0,7.62l.27.91c-.15-.5-.47.51-.68-.27.1.81,0,1.67.08,2.51l.15-1.49a4,4,0,0,1-.13,2.54c.31,2.23.54-1.32.81-1.81-.58-3.13.57-3.15.32-6.16C206.29,50.56,206.18,52.62,206,52.5Z"/><path class="cls-1" d="M205.15,56.37a4.16,4.16,0,0,0,.09.46A3.73,3.73,0,0,0,205.15,56.37Z"/><path class="cls-1" d="M182.54,23.71l-.87,0C181.37,23.8,181.85,23.75,182.54,23.71Z"/><path class="cls-1" d="M205.33,60.4h0v0Z"/><polygon class="cls-1" points="206.1 61.89 206.12 61.06 205.97 61.21 206.1 61.89"/><path class="cls-1" d="M173.76,23.31v.17C173.83,23.43,173.86,23.37,173.76,23.31Z"/><path class="cls-1" d="M161.86,36.55V36A2.86,2.86,0,0,0,161.86,36.55Z"/><path class="cls-1" d="M162.21,93.65a38.63,38.63,0,0,0,.46,4.77l-.16-.12c.08.84.34,3.53.64,1.79l-.15-.42c-.24-2,.28-1.43.39-3-.08-1.86-.71-2.92-.56-4.56,0-.72.15-.61.28-.4,0-1.64-.44-2.29-.5-3.42,1.25-.45-.34-5.07.46-7.5-.11-1.55,0-3.61-.24-5.58.31,1.05,0-1.85.38-1.42-.73-.56.32-5.65-.6-6,.26-2.66-.06-.11.16-3.19.1,0,.1.53.12.73.19-1.22-.39-1.87,0-2.88.07-2.47-.25-.42-.5-1.88a7.44,7.44,0,0,1,.61-3.26c-.43-.23-.22-1.77-.45-3,0,.31-.11,2.06-.27.91.07-3-.29-2.38-.41-5.17.49-1.41,0,2.78.4.33a22.69,22.69,0,0,0,.55,4c0-2.37,0-5.26-.25-7.85.06-1.44.23.74.27-.39.21-2.57-.49-3.95-.28-6l.25.43c-.33-1.25.07-4.53-.11-6.91-.12.3-.21.5-.29.19.62,0-.33-3.31.11-5.66-.19.09-.35-.43-.46-1.16-.05-.36-.1-.78-.13-1.19l0-.62q0-.45,0-.87c.11-.7.28-.38.38-.31a5.83,5.83,0,0,0,.15,2.48,7.32,7.32,0,0,1,.47,1.9c-.17-1.23-.06-3.22-.16-4.39.29,0,.55-.07.8-.12a1,1,0,0,0-.3.31A5.22,5.22,0,0,0,165,24a4.4,4.4,0,0,1,2.1-.11l-.22.23c4.54,0,9.87.38,13.51-.14.32-.18-1.51-.63-1.61-.77-2.17.16-3.43.49-5.08.66l0-.36c-.38.24-2.37.39-1.27.58-1.35.18-1-.31-2.57-.11.12-.37,1.05-.41,1.07-.73l-1.35.19c.42-.15-.82-.13-.4-.27a10.47,10.47,0,0,1-3,.1c-.44,0-.89-.08-1.38-.1l-.79,0-.63,0-.72,0,1.89.07c0,.1-.22.15-.5.18l-1.23.07a7.7,7.7,0,0,0-.91-.18,10.28,10.28,0,0,0-.11,1.06c0,.23,0,.48,0,.77s0,.43-.05.7a16.25,16.25,0,0,1,.53,3.32c-.39-.33-.21,2.57-.55,2.86.4.33.14,3,.37,3.21.08.83,0,2-.17,2,0-.12-.05-.36-.07-.62v.83c0-.08-.08-.06-.09-.15,0,.74.28.74.08,1.69-.1,0-.1-.52-.14-.94-.07,2,.6,3.44.24,5.07.18.31.2,2.58.62,2.09-.15.61-.48.39-.42,2,.35.94-.13,1.84.1,3.09-.38-1.67-.11,0-.46-1.46-.15,1.12.33,2.8.26,4.75-.08.2-.19.2-.27.4a4.3,4.3,0,0,1,.12,2.27l.25-.09c-.13,1.34,0,3.19-.32,4.62l.47,1.67a17.45,17.45,0,0,0,.38,7,7.45,7.45,0,0,1-.21,2.05c0-.19-.1-.51-.17-.89,0,1.21-.29,2.68.1,3.36.13,1.25-.27.91-.33,1.84.55,2.5-.41,7.4.44,8.16,0-1,.17-3,.13-4.94.11.52.27.12.29.84,0,2-.27,3-.13,4.94l-.54-.24C161.7,88,163,91,162.21,93.65Z"/><path class="cls-1" d="M162.22,68.52l-.28,1.42.24-.15A4.44,4.44,0,0,1,162.22,68.52Z"/><path class="cls-1" d="M162.18,69.79a6.94,6.94,0,0,0,.11.83,5.91,5.91,0,0,0,0-.87Z"/><path class="cls-1" d="M162.3,99.32a9.56,9.56,0,0,0,0,1.55A5.38,5.38,0,0,0,162.3,99.32Z"/><polygon class="cls-1" points="162.46 100.98 162.54 100.26 162.48 100.16 162.46 100.98"/><path class="cls-1" d="M162.93,142.63l.33,2.29c-.17.4,0,3-.25,2.15.39,1.36,0,4.32.57,3.22-.19-6.7.14-16-.36-23.72l.22,1.25c-.44-4,.5-5.53-.39-8.77l.45.43c.13-1.85-.66-3.54-.17-5.47l-.19.2c0-.52.08-.72.09-1.24l-.09.21a13.31,13.31,0,0,1,0-3.51c.14-.09.06.63.1,1a19.14,19.14,0,0,0-.16-2.69c.13-.82.21,0,.27.12-.2-3.11.28-4.52-.4-6.72-.13-.21-.23.81-.29-.32a25.51,25.51,0,0,0,.23,5.57v-.52c.66,1.49-.15,1.13.13,3.52a19.44,19.44,0,0,1-.41-2.09c-.5,2.76.39,3.94-.26,5.76l0-.21a9.77,9.77,0,0,0,.12,1.76,9.53,9.53,0,0,0,.19-1.23,2.27,2.27,0,0,0,.48,1.16c-.3.71.14.94,0,2.06-.27.4-.25-.94-.39-1.36l.19,1.35c0,1.24-.3,1.22-.45,1.83.21,1,.15-.61.44.24-.34,1.32-.24,7,0,9.68,0-.93-.29-.32-.25-1.46-.06.42.08,1.86.29,1.87a31.11,31.11,0,0,1-.14,6l.21-.5c.35,1.46-.26,3.7,0,6.28v-.06a12.25,12.25,0,0,1,.45,3.08C163.16,143.37,163.18,142.55,162.93,142.63Z"/><path class="cls-1" d="M163.41,151.73l-.29-.84c-.06.92.31,2.07.5,1.88-.06-.62.07-1.44-.1-1.56C163.48,151.32,163.37,151.31,163.41,151.73Z"/><path class="cls-1" d="M163.46,169c.07.34.18.25.26.39,0-3.66-.15-8.18.07-9.64.09-1.24-.35-1.46-.45-3l.29-.7c-.18-.84.14-3.4-.34-2.5a7.38,7.38,0,0,1,.14,1.46l-.17-.12.06,1.65-.21-.52c-.3,2.25.62,1.58.43,4.35l-.42,0a27.58,27.58,0,0,1-.13,4.42s.21,0,.12-.3.19-.71.32-.5c.33,2.8-.25-.42-.42,1.52.29,2.39.53,6.93.19,8.26.25-1.12.52.54.5,1.88-.15.61-.25-.43-.38-.64a10.22,10.22,0,0,0-.09,1.75c.23-.81.55-.28.69,1.17C164.18,174.75,163.41,172.23,163.46,169Z"/><path class="cls-1" d="M163.81,170a1.4,1.4,0,0,0-.09-.56c0,.44,0,.87,0,1.28Z"/><polygon class="cls-1" points="144.46 177.93 144.55 176.49 144.3 176.04 144.46 177.93"/><path class="cls-1" d="M145.38,171.11l-.1-2.47c-.75,1.42-.53-.49-1.06,3.37.12,1.35.37,4.33.66,3.93a33.23,33.23,0,0,1-.22-3.84c.21.62.19,2.17.47,2.9.22-2.33-.18-1.47-.08-4Z"/><path class="cls-1" d="M144.65,168.19c.12.23.25.47.35.42C144.88,168.38,144.72,167.18,144.65,168.19Z"/><path class="cls-1" d="M144.57,166.69c0-1.56.27,0,.31-.13l-.47-1.77Z"/><path class="cls-1" d="M144.6,160.22c0-.25,0-.49,0-.73A1.31,1.31,0,0,0,144.6,160.22Z"/><path class="cls-1" d="M144.54,157a8.38,8.38,0,0,0,0,2.45l0-.1c.14-.89.48,0,.39,1.39.07,1.51-.26,1.37,0,2.67l.27-1.79A22.61,22.61,0,0,0,144.54,157Z"/><path class="cls-1" d="M144.6,160.22c0,.26,0,.55,0,.84A2.06,2.06,0,0,0,144.6,160.22Z"/><polygon class="cls-1" points="144.56 163.47 144.63 164.28 144.78 164.08 144.56 163.47"/><path class="cls-1" d="M144.52,151.73c.46.37-.05,3.79.31,4.21,0-2.09.32-3.77.57-3.31l-.14-2.32C145.08,149.53,144.74,150.52,144.52,151.73Z"/><path class="cls-1" d="M145.69,147.19a2.58,2.58,0,0,1-.08-.53A1.87,1.87,0,0,0,145.69,147.19Z"/><path class="cls-1" d="M144.89,135.47l.47,5.41a2.87,2.87,0,0,1-.35-1.53c-.06,2.39.24,2.7.19,4.68-.43.59,0-3.49-.42-2.35a18.65,18.65,0,0,0,.4,4.6l-.3,2.21.48-.75c.14-.9-.37-1.81,0-2.36.2-.28.24.62.29,1.25-.1-1.43.37-3.91.3-6.81C145.87,136.76,145.12,137.48,144.89,135.47Z"/><polygon class="cls-1" points="145.41 135.26 145.6 134.9 145.35 135.15 145.41 135.26"/><path class="cls-1" d="M144.8,129.35l.29,2.82a2.59,2.59,0,0,1-.22.68c.11-.11.29.64.38.52.43-1.3-.14-3.45-.21-5,.19-4,.23.18.63-1.37,0,1.12-.11,1.16-.14,2.71a27.36,27.36,0,0,0-.08-7.09,6.13,6.13,0,0,0-.14,1.44l-.14-1.63A29.56,29.56,0,0,0,144.8,129.35Z"/><path class="cls-1" d="M144.8,134.39a4.82,4.82,0,0,1,.06-1.53A2.65,2.65,0,0,0,144.8,134.39Z"/><path class="cls-1" d="M145.44,121.81a4.06,4.06,0,0,0,0,.85A4.9,4.9,0,0,0,145.44,121.81Z"/><path class="cls-1" d="M144.93,123.41l0-2-.21.78C144.8,122.49,144.83,123.46,144.93,123.41Z"/><path class="cls-1" d="M145.59,47.86c-.18.18-.26.91-.23,2.43-.23-.18-.19-2.16-.32-3.09-.15,2-.27,0-.5.49,0,2.24.28,3.24.22,5.65-.06-.12-.17-.07-.25.24.15,2.89.37,7.8.17,10.63s0,4.74.12,7.74c-.12,9.84.12,20.11-.1,30.69l.45,1.5c-.22.51,0,2.52-.29,2.22a18.19,18.19,0,0,0,0-1.82c-.4,2.27,0,6-.11,8.72.08-.3.47-.75.54.07-.5-.22,0,3.21-.57,4-.14,2.72.44.11.36,2.94.3.3.14-2.72.37-3.23.24.89-.1,2.56.21,2.44.14-4.54-.47-13-.64-19.91l.28.73a74,74,0,0,1,.24-12.14c-.26.67.15-5.24-.46-4.71a17.12,17.12,0,0,0,.17-2.45l-.19-.34c0-1.83.3-1.53.28-3.62-.26,1.37-.34-.14-.55-.75.29-2.4.54-5.18.78-7.31a3,3,0,0,0-.29,1.09c.09-1.44-.16-1.2-.25-1.59,0-1.39.33-1.24.49-1.18.11-2.55-.53-3.69-.32-5.6l-.26.66c-.07-2.63.22-4.85.13-7.75.37-1.41.32,2.39.48,3.59.07-.59.09-1.84.21-2.25-.18-1.23-.44-3.32-.61-4.87C145.58,52.56,145.56,48.86,145.59,47.86Z"/><path class="cls-1" d="M145.77,56c.06.37.11.67.15.84a6.8,6.8,0,0,1,0-1S145.8,55.85,145.77,56Z"/><path class="cls-1" d="M145.59,47.86s0,0,0-.06C145.6,47.51,145.59,47.6,145.59,47.86Z"/><path class="cls-1" d="M144.65,64.58l0-.37c0-.17,0-.31,0-.49Z"/><path class="cls-1" d="M145.86,66.76c-.09.56-.19,1.34-.28,2.22C145.7,68.73,145.79,68.53,145.86,66.76Z"/><path class="cls-1" d="M145.56,84.52c.05.54.13.23.22.61C145.79,84,145.7,83.62,145.56,84.52Z"/><polygon class="cls-1" points="145.84 52.77 145.76 50.55 145.69 49.74 145.84 52.77"/><path class="cls-1" d="M132.46,20a26.88,26.88,0,0,0-.19,4.28h3.56c4.41-.17.55-.7,4.74-.74l-.72.66h4.51l0,2.21c0,.8.05,1.6.07,2.37a35.34,35.34,0,0,0,.37,4.14c-.08.31-.18,1.05-.28,0,0,2.79.94,1.44.72,5.17-.41-3.48-.39,1.14-.79.18l0-.54c0,2.36.26,5.49.23,7.05.17.07.43-1.3.45.8,0-.85.22-.51.39-.44-.19-2.16-.07-3.34-.29-4.65.22-1.2.07.82.29-.4l-.21-1.73c.05-1.28.22,1.32.27-.67a14.12,14.12,0,0,1-.24-3.4l.08.45c-.09-1.19,0-2.88-.35-2.3l.36-1.41-.24.25c0-1.43.18-2.47.29-3.54.06-.54.11-1.08.14-1.68,0-.16,0-.31,0-.47s0-.46,0-.71c0-.59,0-1.23,0-1.92-.76,0-1.67,0-2.47.08.77,0,.83.09.52.14l-.54.07-.44,0a5.79,5.79,0,0,0,.61.05H144c.45,0,.86,0,1.29-.07l.12,1.27c0,.25,0,.52.05.81l0,.6c-.06.06-.12-.07-.19-.27l-.1-.34q0-.26-.09-.48c-.12-.57-.24-.65-.31.54.06-.56.1-1.17.12-1.75l-1.47,0-1.1,0a3.26,3.26,0,0,1-1.54-.38c-2.68,0-3.68.26-6.4.12l.08-.1a.59.59,0,0,1-.29.12,1.86,1.86,0,0,1-.36,0l-.58-.06a2.35,2.35,0,0,0,0-.53l0-.44c0-.2-.06-.41-.1-.62,0,.48-.06,1-.09,1.26-.09,0-.13-.11-.16-.35s0-.72,0-1.21c.07.11.07.11.15-.2-.3-.3-.34-3.36-.43-3.74-.05,1.28.19,2.86.27,4.37C132.65,21,132.41,21.24,132.46,20Z"/><path class="cls-1" d="M145.54,35.52l-.14-.86A3,3,0,0,0,145.54,35.52Z"/><path class="cls-1" d="M133,7.85c.06-1.71.25.46.38-1.14-.2-1.73-.42,2-.73.3a20.5,20.5,0,0,0-.13-3.45c.17.77.56.33.64,0a7.18,7.18,0,0,1,0-1.16c0-.67.06-1.42.09-2.13l-.88,0,.83.06c0,.57-.07.43-.1.11-.43,0-1.11,0-1.42.08s-.22.08.65.16a6.44,6.44,0,0,1-1.75.27,11.45,11.45,0,0,1-2.24,0c.07-.17.92-.14,1.62-.14.57-.32-1.75-.17-2.14-.47-2.63.45-11,.42-8.65,1.13a14.62,14.62,0,0,0,2.63-.07c-2.72-.14,0-.37.22-.5,1.17.11,3.17-.11,2.72.14l-1.86.27,4.62.07h4.69c0,3.57.07,7.31.1,10.71v-3a13.8,13.8,0,0,1,.3,2.82l.47-1.45c0,.85,0,1.67-.13,1.6.2,1,.32.56.48-.06a24.79,24.79,0,0,0,.2,4.26c.39-3.66-.32-3.09,0-7.29Z"/><polygon class="cls-1" points="133.23 15.87 133 14.98 133.11 16.33 133.23 15.87"/><path class="cls-1" d="M132.2,14.46c.1,0,.15.5.25.46C132.52,13.21,132.38,13.41,132.2,14.46Z"/><path class="cls-1" d="M125.53.28l-2.2.09,1.44.09C124.73.35,125.27.31,125.53.28Z"/><path class="cls-1" d="M110.07,1.51a70.05,70.05,0,0,1,7.83,0c1.69-.31-.79-.58-.06-.86-1.72-.06-1.51.46-3.28.56-.66-.27-2.6.05-4.3,0C110.47,1.28,110.47,1.41,110.07,1.51Z"/><path class="cls-1" d="M99.54.49c-1.39,0-2.8.21-3.91.08A3.71,3.71,0,0,1,97.46.39C96.93,0,95.92.45,94.4.19c.13,0,.69.11.26.19-3.76-.09-2.11.31-7,.09-.71.11-1.41.11-1.29.36C83.61.51,85,.51,81.68.23c.13.15,1.22.49,1.19.8-4.71-.44-4.81.06-7.81-.27A10.07,10.07,0,0,1,76.61.71C76.46.54,76,.51,75.49.54L73.34.69c0,.48,0,.93,0,1.36A3,3,0,0,1,73,1.77c0,.81.08,1.92.14,3.09A21.07,21.07,0,0,1,73,8.08l-.19-.44c.29,3.94.15,8.54.29,11.9l-.23,1.81c.29,4.63.13-4.61.69-1.21-.67.47.17,2.31,0,4.75l-.24,0c-.52-.1-.28-.15,0-.18-.06-.68-.08-1.5-.27-.93a1.31,1.31,0,0,1,.19.85l-.6,0c-.22,0-.44,0-.84,0,.31-.33-2.93-.05-2.07-.42l-4.93.62a7.15,7.15,0,0,0-1.52-.15h-1l-1,0v0c1.53,0,1.29.13,1.2.27s-.06.15.08.21a1.1,1.1,0,0,0,.32.1c.2,0,.47.05.84.07l4.49-.13,2.59,0,2.94,0c0-1.34,0-2.68,0-4s0-2.42.07-3.54c-.46-.59,0-3.49-.37-4.35.15-.13.27-.54.42-.67-.1-3.5-.25.82-.42,0-.06-1.54.22-2.78.38-2.63,0-2.51-.12-.29-.37-1.57l.5-1.64c0-1.7-.08-3.54-.12-5.47l4.85-.11,5.4-.07c3.63,0,7.27,0,10.7.1L94.21.88c4,.17,6.76-.7,10.34,0l1.23-.27c-.68.15.69.47-.37.68,1.1-.11,2.27,0,3.41-.08l-2-.15a7.11,7.11,0,0,1,3.45.13c3-.32-1.8-.55-2.47-.81-4.24.58-4.27-.57-8.35-.33C96.91.22,99.7.33,99.54.49Z"/><path class="cls-1" d="M104.79,1.36l.62-.09C105.2,1.29,105,1.32,104.79,1.36Z"/><path class="cls-1" d="M61.36,24.75c0,.36,0,.8,0,1.38S61.4,25.89,61.36,24.75Z"/><path class="cls-1" d="M110.26,1.17h0Z"/><polygon class="cls-1" points="112.28 0.4 111.16 0.39 111.35 0.54 112.28 0.4"/><path class="cls-1" d="M61,36.88l.17,0C61.08,36.79,61,36.75,61,36.88Z"/><path class="cls-1" d="M60.86,69.16v-.69A5.24,5.24,0,0,0,60.86,69.16Z"/><path class="cls-1" d="M61.21,146.62c.1,2.1.2,4.9.46,6.46l-.16-.15c.08,1.12.34,4.77.64,2.42l-.15-.57c-.24-2.67.28-1.94.39-4-.08-2.52-.71-4-.56-6.18,0-1,.15-.83.28-.54,0-2.24-.44-3.11-.5-4.65,1.25-.61-.34-6.87.46-10.18-.11-2.09,0-4.88-.24-7.56.31,1.42,0-2.51.38-1.93-.73-.75.32-7.66-.6-8.14.26-3.62-.06-.15.16-4.33.1,0,.1.71.12,1,.19-1.66-.39-2.55,0-3.91.07-3.35-.25-.57-.5-2.55A13.31,13.31,0,0,1,62,97.34c-.43-.31-.22-2.39-.45-4.09,0,.42-.11,2.79-.27,1.24.07-4-.29-3.24-.41-7,.49-1.92,0,3.78.4.45a41.58,41.58,0,0,0,.55,5.5c0-3.22-.05-7.14-.25-10.65.06-2,.23,1,.27-.54.21-3.47-.49-5.34-.28-8.13l.25.59c-.33-1.71.07-6.15-.11-9.38-.12.41-.21.68-.29.26.62.05-.33-4.5.11-7.68-.39.25-.62-2.84-.66-4.8.11-.69.28-.54.38-.53-.23,3.2.43,3.11.62,5.64-.21-2.12,0-5.6-.28-7.43l.31.72c0-2.93-.71-2.57-.41-5.62l.23.3c0-6.16.38-13.39-.14-18.32-.18-.44-.63,2-.77,2.18.16,2.94.49,4.64.66,6.89l-.36,0c.24.51.39,3.21.58,1.71.18,1.83-.31,1.38-.11,3.49-.37-.17-.41-1.43-.73-1.45l.19,1.83c-.15-.57-.13,1.11-.27.55.45,3.38-.18,4.73,0,8.24l.07-2c.21,0,.19,1.14.25,2a13.2,13.2,0,0,0-.38,3.33,29.32,29.32,0,0,1,.53,4.51c-.39-.45-.21,3.48-.55,3.87.4.45.14,4.07.37,4.36.08,1.12,0,2.66-.17,2.65,0-.17,0-.5-.07-.85v1.12c-.05-.1-.08-.07-.09-.2a8.79,8.79,0,0,1,.08,2.3c-.1,0-.1-.71-.14-1.27-.07,2.65.6,4.66.24,6.86.18.44.2,3.51.62,2.84a5.52,5.52,0,0,0-.42,2.77c.35,1.28-.13,2.5.1,4.2-.38-2.27-.11,0-.46-2-.15,1.52.33,3.79.26,6.45-.08.27-.19.26-.27.54a7.83,7.83,0,0,1,.12,3.08l.25-.12c-.13,1.81,0,4.33-.32,6.27l.47,2.26a32,32,0,0,0,.38,9.54,13.46,13.46,0,0,1-.21,2.77c0-.25-.1-.69-.17-1.21,0,1.64-.29,3.65.1,4.57.13,1.68-.27,1.23-.33,2.48.55,3.41-.41,10,.44,11.08,0-1.4.17-4,.13-6.7.11.71.27.16.29,1.14,0,2.66-.27,4-.13,6.7l-.54-.32C60.7,138.89,62,143,61.21,146.62Z"/><path class="cls-1" d="M61.22,112.52l-.28,1.93.24-.2A8.21,8.21,0,0,1,61.22,112.52Z"/><path class="cls-1" d="M61.18,114.25c0,.39.06.78.11,1.12a10.52,10.52,0,0,0,0-1.17Z"/><path class="cls-1" d="M61.3,154.3a17.74,17.74,0,0,0,0,2.11A9.94,9.94,0,0,0,61.3,154.3Z"/><polygon class="cls-1" points="61.46 156.56 61.55 155.58 61.48 155.44 61.46 156.56"/><path class="cls-1" d="M96.7,177.58l3.11-.33c.54.16,4,0,2.91.25,1.85-.39,5.87,0,4.38-.58-9.1.2-21.66-.13-32.18.37l1.69-.23c-5.47.45-7.5-.49-11.9.4l.59-.46a14.66,14.66,0,0,0-1.88.05l-.46,0-.2,0a4.45,4.45,0,0,1-.48.1,3.73,3.73,0,0,1-.08-.41l0-.25v-.46a10.23,10.23,0,0,1,.16-1.88l-.19.27c0-.7.08-1,.09-1.68l-.09.28a24.33,24.33,0,0,1,0-4.75c.14-.13.06.84.1,1.4a35.15,35.15,0,0,0-.16-3.65c.13-1.11.21,0,.27.16-.2-4.21.28-6.12-.4-9.11-.13-.29-.23,1.1-.29-.44a47,47,0,0,0,.23,7.57v-.71c.66,2-.15,1.53.13,4.77-.27-.86-.26-2.26-.41-2.83-.5,3.74.39,5.34-.26,7.81l0-.28a17.85,17.85,0,0,0,.12,2.38c.08-.27.13-1.1.19-1.66a3.73,3.73,0,0,0,.48,1.57,2.35,2.35,0,0,0-.07,1.13,2.68,2.68,0,0,1,.08.94h.11c0,.11-.08.17-.33.21-.07-.29-.1-1-.19-1.34,0,.56.11,1,.17,1.36l.16,0a4.05,4.05,0,0,1,1.29.16,6.08,6.08,0,0,0,.93.29c1.41-.21-.83-.15.31-.44,1.8.33,9.48.24,13.14,0-1.27,0-.44.29-2,.24a6.48,6.48,0,0,0,2.53-.28,57.2,57.2,0,0,1,8.1.13l-.68-.21c2-.35,5,.26,8.52.06h-.07a21.77,21.77,0,0,1,4.16-.45C97.7,177.35,96.59,177.33,96.7,177.58Z"/><path class="cls-1" d="M109,177.09l-1.14.29c1.26.07,2.82-.3,2.55-.49a9.9,9.9,0,0,0-2.11.1A1,1,0,0,0,109,177.09Z"/><path class="cls-1" d="M132.52,177.05c.46-.07.34-.18.54-.26-5,0-11.11.15-13.09-.07-1.68-.09-2,.35-4.09.45l-.95-.29c-1.14.18-4.61-.14-3.38.34a11.67,11.67,0,0,1,2-.14l-.16.17,2.24-.06-.71.21c3,.29,2.14-.63,5.9-.43l0,.41a50.65,50.65,0,0,1,6,.14s0-.21-.41-.13-1-.19-.67-.31c3.79-.33-.58.25,2.06.42,3.24-.29,9.4-.53,11.19-.19-1.52-.25.74-.52,2.55-.5.83.15-.57.25-.86.38a17,17,0,0,0,2.37.08c-1.1-.23-.38-.54,1.59-.68C140.26,176.33,136.85,177.1,132.52,177.05Z"/><path class="cls-1" d="M133.81,176.7a2.37,2.37,0,0,0-.75.09h1.72Z"/><polygon class="cls-1" points="127.58 24.05 127.26 23.95 127.16 24.21 127.58 24.05"/><path class="cls-1" d="M126.06,23.12l-.55.11c.31.74-.11.53.75,1.06.3-.12,1-.37.88-.67-.22,0-.54.32-.86.23.14-.22.48-.19.64-.47-.51-.23-.32.18-.89.08Z"/><path class="cls-1" d="M125.41,23.86a.87.87,0,0,0,.09-.36C125.45,23.63,125.18,23.79,125.41,23.86Z"/><path class="cls-1" d="M125.07,23.94c-.35,0,0-.27,0-.32l-.39.48Z"/><path class="cls-1" d="M123.63,23.91l-.16,0C123.52,24,123.57,24,123.63,23.91Z"/><path class="cls-1" d="M122.92,24c.14.17.32.07.55,0l0,0c-.19-.14,0-.48.31-.39.34-.07.31.26.6,0l-.4-.27C123.42,23.34,123.12,23.83,122.92,24Z"/><path class="cls-1" d="M123.63,23.91a.58.58,0,0,1,.19,0A.14.14,0,0,0,123.63,23.91Z"/><polygon class="cls-1" points="124.35 23.95 124.53 23.88 124.49 23.73 124.35 23.95"/><path class="cls-1" d="M121.73,24c.09-.46.85.05.94-.31-.46,0-.84-.32-.74-.57l-.51.14C121.24,23.42,121.46,23.77,121.73,24Z"/><path class="cls-1" d="M120.72,22.82a.25.25,0,0,1-.12.08C120.66,22.88,120.71,22.86,120.72,22.82Z"/><path class="cls-1" d="M118.11,23.61l1.2-.46c-.11.15-.06.29-.34.35.54.06.61-.24,1-.19.13.43-.78,0-.53.42a1.26,1.26,0,0,0,1-.4l.49.29-.16-.47c-.21-.14-.41.37-.53,0s.14-.24.28-.29c-.32.1-.87-.37-1.52-.31S118.56,23.39,118.11,23.61Z"/><polygon class="cls-1" points="118.06 23.09 117.98 22.91 118.04 23.16 118.06 23.09"/><path class="cls-1" d="M116.74,23.71l.63-.3a.54.54,0,0,1,.15.23c0-.11.15-.29.12-.38-.29-.43-.77.13-1.11.21-.89-.2,0-.23-.3-.64.25,0,.26.12.6.15-.54-.49-1.23,0-1.58.08.1,0,.13.17.32.13l-.36.14C115.58,23.67,115.9,23.77,116.74,23.71Z"/><path class="cls-1" d="M117.87,23.71c-.24,0-.32,0-.35-.06C117.59,23.76,117.67,23.85,117.87,23.71Z"/><path class="cls-1" d="M115.06,23.07s.1,0,.19,0A.21.21,0,0,0,115.06,23.07Z"/><path class="cls-1" d="M115.42,23.58l-.44,0,.17.2C115.21,23.71,115.43,23.68,115.42,23.58Z"/><path class="cls-1" d="M98.56,22.92c0,.18.21.26.55.23,0,.23-.49.19-.69.32.45.15,0,.27.1.49.51,0,.73-.27,1.27-.21a.25.25,0,0,0,0,.25,5.48,5.48,0,0,1,2.37-.17,5.44,5.44,0,0,0,1.73-.12c2.19.12,4.48-.12,6.84.09l.34-.45c.11.23.56,0,.49.3-.13-.06-.25,0-.4,0,.5.4,1.34,0,1.94.11-.07-.08-.16-.47,0-.54,0,.5.71,0,.89.57.61.14,0-.44.66-.36.06-.3-.61-.15-.72-.37.19-.24.57.1.54-.21-1-.15-2.89.47-4.44.64l.16-.28a3.86,3.86,0,0,1-2.71-.24c.15.26-1.16-.15-1,.45a1.08,1.08,0,0,0-.54-.16l-.08.19c-.41,0-.34-.3-.81-.28.31.26,0,.33-.17.55-.53-.29-1.15-.54-1.62-.78a.52.52,0,0,0,.24.29c-.32-.09-.27.16-.36.24-.31,0-.27-.32-.26-.49-.57-.1-.82.54-1.25.33l.15.26c-.59.07-1.08-.23-1.73-.14-.32-.36.53-.31.8-.47-.13-.08-.41-.1-.5-.22a12.1,12.1,0,0,1-1.09.62C99.61,22.93,98.79,23,98.56,22.92Z"/><path class="cls-1" d="M100.37,22.73a1.17,1.17,0,0,0,.19-.14.38.38,0,0,1-.22,0A.13.13,0,0,0,100.37,22.73Z"/><path class="cls-1" d="M98.56,22.92v0C98.49,22.9,98.51,22.91,98.56,22.92Z"/><path class="cls-1" d="M102.29,23.86s-.05,0-.08,0h-.11Z"/><path class="cls-1" d="M102.78,22.64a2.76,2.76,0,0,0,.5.29C103.22,22.81,103.17,22.72,102.78,22.64Z"/><path class="cls-1" d="M106.74,22.94c.12,0,.05-.12.14-.21C106.63,22.72,106.54,22.81,106.74,22.94Z"/><polygon class="cls-1" points="99.66 22.67 99.17 22.75 98.98 22.82 99.66 22.67"/><path class="cls-1" d="M89.66,24.05c.44.32,1.08.12,1.61.19,1-.17.13-.7,1.06-.74l-.16.66c.93,0,2.26.1,3-.48.07.08.23.18,0,.27.62,0,.33-.93,1.16-.71-.78.4.25.38,0,.79l-.12,0a15.29,15.29,0,0,1,1.57-.23c0-.17-.29-.43.18-.45-.19,0-.12-.22-.1-.39-.48.18-.75.07-1,.29-.27-.22.18-.07-.09-.29l-.38.2c-.29-.05.29-.22-.15-.26,0,.13-.41.27-.76.24l.1-.08c-.27.09-.64,0-.51.35l-.32-.37.06.25c-.73-.1-1-.69-1.94-.38.22.07,0,.21-.11.25.39.18.49-.18.86-.22,0,.25-.58.55-.13.7-.49-.3-.93,0-1.14-.58-.6,0-.82.26-1.43.12l0-.1c-.11.41-.49-.18-.94.24l.32.09c0,.17-.17.17-.39.2,0-.06,0-.06,0-.14-.07.29-.75.34-.84.43.29.05.64-.19,1-.27C89.9,23.85,90,24.1,89.66,24.05Z"/><path class="cls-1" d="M95.81,23l-.19.14A.3.3,0,0,0,95.81,23Z"/><path class="cls-1" d="M87,23.53c-.38-.07.1-.25-.25-.38-.39.2.44.42.06.73-.23-.18-.61.13-.77.13.18-.17.08-.57,0-.65-.15.11-.48-.08-.73-.09.62.24-.52.14,0,.41,0,.24-.62.41-.86.23,0-.17.21-.14.37-.14.12-.32-.39-.17-.48-.47-.59.45-2.46.42-1.93,1.13.2.13.37,0,.59-.07-.61-.14,0-.37,0-.5.26.11.7-.11.6.14l-.41.27a31.47,31.47,0,0,0,4.65,0l-.66,0c.08-.19.39-.2.63-.29l-.32-.47c.19,0,.37,0,.35.13.24-.2.13-.32,0-.48.49-.08.57.1,1-.2-.81-.39-.69.31-1.62,0Z"/><polygon class="cls-1" points="88.75 23.27 88.55 23.51 88.85 23.39 88.75 23.27"/><path class="cls-1" d="M88.44,24.31c0-.1.11-.15.1-.25C88.16,24,88.2,24.13,88.44,24.31Z"/><path class="cls-1" d="M83.85,23.28l-.5.09.32.09C83.67,23.35,83.79,23.31,83.85,23.28Z"/><path class="cls-1" d="M80.4,24.51a3.51,3.51,0,0,1,1.74,0c.38-.31-.17-.58,0-.86-.38-.06-.34.46-.73.56-.15-.27-.58.05-1,0A.35.35,0,0,1,80.4,24.51Z"/><path class="cls-1" d="M79,23.13c0-.19-.2-.38-.07-.61.16.06.23.14.18.27.38-.16-.06-.13.19-.54,0,0-.1.15-.18.06.09-.84-.31-.47-.1-1.56-.1-.16-.1-.31-.35-.29.32-.62.32-.3.59-1.05a2.75,2.75,0,0,1-.79.27c.44-1.05-.06-1.07.27-1.74a.59.59,0,0,1,0,.34c.44-.09-.08-.56,0-.93l.37,0c0-.17-.1-.4-.14-.65s0-.53.11-.6l.19.08a1.63,1.63,0,0,1-.19-.71,6.29,6.29,0,0,0,.9-.11l.41.24c1-.29-1-.14-.27-.69.11.69.53-.23,1.12.05.27.27-.6.14-.29.45.13-.35.31-.1.63-.2-.07.33.65,0,.46.42l1.1-.62a.79.79,0,0,0,.73.11c-.59,0,.16-.5-.5-.65a14.33,14.33,0,0,1-1.81.17c-.34,0-.69,0-1,0s-.63,0-1-.08c0,.23-.22.23-.45.21s-.49,0-.41.16a2.61,2.61,0,0,0-.3-.23l-.19-.1c0,.54.11.51.18.43s.15-.21.24,0c.06.36-.22.48-.38.38,0,.68.12.14.37.53a1.61,1.61,0,0,0-.5.36,27.32,27.32,0,0,1,.2,6.05l.32-.15a1.39,1.39,0,0,0,.1.84c.1.22.2.33.18.55.13,0,.2.08.3.26l.36-.27c-.21.15,0,.47-.36.68.32-.11.66,0,.91-.08L79.64,24a.5.5,0,0,1,.8.13c.68-.32-.43-.55-.53-.81-.23.22-.45.19-.5.09s0-.28,0-.38.1-.19,0-.23S79.18,23,79,23.13Z"/><path class="cls-1" d="M79,24.36l.22-.09Z"/><path class="cls-1" d="M83.94,15.15a1.48,1.48,0,0,0,.27,0C84.3,15.05,84.15,15.11,83.94,15.15Z"/><polygon class="cls-1" points="80.44 24.17 80.44 24.17 80.43 24.17 80.44 24.17"/><polygon class="cls-1" points="80.89 23.4 80.64 23.39 80.68 23.54 80.89 23.4"/><path class="cls-1" d="M86.6,15.55v-.17A.2.2,0,0,0,86.6,15.55Z"/><path class="cls-1" d="M93.8,15.65h-.15A.25.25,0,0,0,93.8,15.65Z"/><path class="cls-1" d="M111.08,15.3a3.88,3.88,0,0,0,1.44-.47l0,.17c.25-.08,1.06-.35.54-.64l-.13.14c-.6.25-.43-.27-.9-.38-.56.08-.88.7-1.38.56-.22,0-.18-.15-.12-.28-.5,0-.69.44-1,.5-.13-1.26-1.53.34-2.27-.46a7.37,7.37,0,0,0-1.68.24c.31-.31-.56,0-.43-.38-.17.73-1.71-.32-1.82.59-.81-.25,0,.06-1-.15,0-.1.15-.1.22-.12-.38-.19-.57.39-.88,0-.74-.07-.13.25-.57.49-.77-.1-.55-.23-1-.61-.07.44-.54.23-.92.46.1,0,.63.1.28.27-.9-.07-.72.29-1.57.4-.42-.48.85,0,.11-.39.53-.23.93-.2,1.22-.56a9,9,0,0,0-2.37.26c-.44-.07.22-.23-.12-.27-.78-.22-1.2.49-1.82.28l.13-.25c-.38.33-1.37-.08-2.09.11.09.12.15.21.06.29,0-.63-1,.32-1.71-.12,0,.4-.64.62-1.07.66a.35.35,0,0,1-.12-.38c.71.24.69-.43,1.25-.61-.47.21-1.24,0-1.65.28l.16-.31c-.66-.05-.57.7-1.26.41l.07-.23c-1.37,0-3-.38-4.09.13-.09.19.46.63.49.78A12.92,12.92,0,0,0,86.61,15v.36c.12-.25.72-.39.39-.58.4-.19.3.31.77.11,0,.37-.32.41-.32.72l.41-.18c-.13.14.24.13.12.27.75-.45,1.06.18,1.84,0l-.44-.06c0-.21.26-.19.44-.25.22.29.34.25.75.38.34-.16.53-.54,1-.53-.1.39.78.21.87.54.1-.39.9-.14,1-.36.25-.08.59,0,.59.17l-.19.07h.25s0,.08,0,.09c.22,0,.22-.28.51-.09,0,.11-.16.11-.29.15.6.07,1-.6,1.54-.24.09-.19.78-.2.63-.62.18.15.12.48.62.42.28-.35.55.13.93-.1-.5.37,0,.11-.44.46.34.15.85-.33,1.44-.27.06.09.06.19.12.28.22-.13.47-.41.69-.12l0-.25c.4.13,1,.05,1.4.32l.5-.47c.68.5,1.59,0,2.13-.39.25,0,.62.11.62.22l-.27.17c.36,0,.81.29,1-.11.37-.12.27.28.55.34.76-.56,2.24.41,2.47-.44a13.07,13.07,0,0,0-1.49-.14c.16-.1,0-.27.25-.28.6,0,.9.27,1.5.13l-.08.54C109.36,15.81,110.28,14.53,111.08,15.3Z"/><path class="cls-1" d="M103.47,15.29l.43.27,0-.23A.44.44,0,0,1,103.47,15.29Z"/><path class="cls-1" d="M103.86,15.33a.8.8,0,0,0,.25-.11.53.53,0,0,0-.26,0Z"/><path class="cls-1" d="M112.79,15.21a.9.9,0,0,0,.47,0A.52.52,0,0,0,112.79,15.21Z"/><polygon class="cls-1" points="113.3 15.05 113.08 14.96 113.05 15.03 113.3 15.05"/><path class="cls-1" d="M125.9,14.58l.36-.17.52-.16c.12.16,1.35,0,.78.25a2.29,2.29,0,0,1,.62-.17c.09.51,0,1.33.4.7,0-.33,0-.67,0-1.06l-1.28,0h-2.88a17.44,17.44,0,0,0-3.34.3l.38-.23c-1.22.45-1.68-.49-2.66.4l.13-.46c-.56-.12-1.07.66-1.65.18l.06.19c-.16,0-.22-.09-.38-.09l.07.09a1.27,1.27,0,0,1-1.06,0c0-.15.18-.06.31-.1-.19-.15-.5.16-.82.16s0-.21,0-.27c-.94.2-1.37-.28-2,.4-.07.13.24.23-.1.29a2.43,2.43,0,0,0,1.69-.24h-.16c.45-.66.34.15,1.06-.14-.19.27-.5.27-.63.42.84.5,1.19-.39,1.75.26l-.07,0c.13.06.35-.06.53-.12-.06-.09-.24-.13-.37-.19.19-.06.29-.35.35-.48.22.29.29-.14.63,0,.12.28-.29.25-.41.4l.41-.19c.37,0,.36.3.55.45.31-.21-.19-.15.07-.44a4.93,4.93,0,0,0,2.93,0c-.28,0-.1.29-.44.24.12.07.56-.08.56-.28a3,3,0,0,1,1.81.13l-.15-.21c.44-.35,1.12.26,1.9.06h0c.26-.05.45-.56,1-.45C126.1,14.35,125.88,14.33,125.9,14.58Z"/><path class="cls-1" d="M128.41,15.82a2,2,0,0,0-.29-.29.82.82,0,0,0,.16.56c.1.18.25.27.34.23-.06-.29.07-.78-.1-.78S128.37,15.63,128.41,15.82Z"/><path class="cls-1" d="M128.46,21.24c.07.1.18.08.26.12a10.06,10.06,0,0,1,.07-2.92c.09-.38-.35-.44-.45-.91l.29-.21c-.18-.26.14-1-.34-.76,0,0,.22.22.14.44l-.17,0,.06.5-.21-.15c-.3.68.62.47.43,1.31h-.42c0,.57.12.85-.13,1.34,0,0,.21,0,.12-.09a.27.27,0,0,1,.32-.15c.33.85-.25-.13-.42.46.29.72.53,2.1.19,2.5.25-.34.52.16.5.57-.15.18-.25-.13-.38-.19,0,.18-.15.34-.09.52.23-.24.55-.08.69.36C129.18,23,128.41,22.2,128.46,21.24Z"/><path class="cls-1" d="M128.81,21.53a.2.2,0,0,0-.09-.17c0,.13,0,.26,0,.38Z"/></g></g></svg>