<svg xmlns="http://www.w3.org/2000/svg" viewBox="0 0 213.78 146.33"><defs><style>.cls-1{fill:#f3f3f3;}</style></defs><title>Letter closed</title><g id="Layer_2" data-name="Layer 2"><g id="Layer_2-2" data-name="Layer 2"><polygon class="cls-1" points="212.32 145.34 212.41 143.37 212.16 142.75 212.32 145.34"/><path class="cls-1" d="M213.24,136l-.1-3.38c-.74,1.94-.53-.67-1.06,4.6.12,1.85.37,5.92.66,5.38,0-1.32-.31-3.27-.22-5.25.21.85.19,3,.47,4,.22-3.19-.18-2-.08-5.5Z"/><path class="cls-1" d="M212.51,132c.12.3.25.63.35.57C212.74,132.28,212.58,130.65,212.51,132Z"/><path class="cls-1" d="M212.43,130c0-2.13.27,0,.31-.18l-.47-2.42Z"/><path class="cls-1" d="M212.46,121.12c0-.35,0-.67,0-1A2.57,2.57,0,0,0,212.46,121.12Z"/><path class="cls-1" d="M212.41,116.77a15,15,0,0,0,0,3.36l0-.14c.14-1.22.48-.07.39,1.9.07,2.06-.26,1.87,0,3.66l.27-2.45A43.41,43.41,0,0,0,212.41,116.77Z"/><path class="cls-1" d="M212.46,121.12c0,.37,0,.75,0,1.16A3.89,3.89,0,0,0,212.46,121.12Z"/><polygon class="cls-1" points="212.42 125.57 212.49 126.67 212.64 126.4 212.42 125.57"/><path class="cls-1" d="M212.38,109.51c.46.51,0,5.19.31,5.75,0-2.85.32-5.15.57-4.52l-.14-3.17C212.94,106.51,212.6,107.85,212.38,109.51Z"/><path class="cls-1" d="M213.55,103.3a4.79,4.79,0,0,1-.08-.72A3.36,3.36,0,0,0,213.55,103.3Z"/><path class="cls-1" d="M212.75,87.27l.47,7.41a5.38,5.38,0,0,1-.35-2.1c-.06,3.28.24,3.7.19,6.4-.43.82,0-4.77-.42-3.21a35.53,35.53,0,0,0,.4,6.29l-.29,3,.47-1c.14-1.23-.37-2.48,0-3.23.2-.38.24.84.29,1.71-.1-2,.37-5.34.31-9.32C213.73,89,213,90,212.75,87.27Z"/><polygon class="cls-1" points="213.28 86.99 213.46 86.5 213.21 86.84 213.28 86.99"/><path class="cls-1" d="M212.66,78.91l.29,3.85a4.25,4.25,0,0,1-.22.93c.11-.15.29.88.38.72.43-1.78-.13-4.72-.21-6.79.19-5.47.23.25.63-1.87,0,1.53-.11,1.59-.14,3.71a51.09,51.09,0,0,0-.08-9.7,11.28,11.28,0,0,0-.14,2L213,69.5A55,55,0,0,0,212.66,78.91Z"/><path class="cls-1" d="M212.66,85.8a9.07,9.07,0,0,1,.06-2.1A4.94,4.94,0,0,0,212.66,85.8Z"/><path class="cls-1" d="M213.3,68.6a7.54,7.54,0,0,0,0,1.16A9.12,9.12,0,0,0,213.3,68.6Z"/><path class="cls-1" d="M212.79,70.79l.05-2.7-.21,1.06A7.77,7.77,0,0,0,212.79,70.79Z"/><path class="cls-1" d="M178.57.33c.25.18,1.24.26,3.32.23-.25.23-2.95.19-4.22.32,2.76.15,0,.27.66.5,3.07,0,4.44-.28,7.73-.22-.16.06-.1.17.33.25,4-.15,10.66-.37,14.53-.17,1.86.05,3.49,0,5.16,0l5.5-.13h1.08c0,3.37,0,6.76,0,10.2s0,6.75,0,10.17c0,6.85,0,13.82-.09,20.9l.46,2c-.23.71,0,3.45-.3,3,.06-.79,0-1.54,0-2.49-.4,3.1,0,8.21-.11,11.93.08-.42.47-1,.54.09-.5-.3,0,4.39-.57,5.47-.14,3.72.44.15.36,4,.3.41.14-3.72.37-4.42.24,1.22-.1,3.51.21,3.34.15-6.21-.47-17.74-.64-27.23l.28,1a138.2,138.2,0,0,1,.24-16.6c-.26.92.15-7.16-.46-6.45a31.49,31.49,0,0,0,.17-3.34l-.19-.47c0-2.49.3-2.09.28-4.95-.26,1.87-.34-.2-.55-1,.07-.82.14-1.67.21-2.52,0-.44.07-.88.1-1.32,0-.61.07-1.21.1-1.79l-2-.09-1.29-.1L207.45.34a5.63,5.63,0,0,0,1.49.29c-2-.09-1.64.16-2.17.25-1.91,0-1.7-.33-1.61-.49-3.5-.11-5.06.53-7.67.32l.91.26c-3.6.07-6.64-.22-10.61-.13-1.92-.37,3.27-.32,4.92-.48-.81-.07-2.52-.09-3.07-.21-1.69.18-4.56.44-6.67.61C185,.34,179.93.36,178.57.33Z"/><path class="cls-1" d="M189.64.15,190.79,0a13.18,13.18,0,0,1-1.33,0C189.41.08,189.49.11,189.64.15Z"/><path class="cls-1" d="M178.57.33s-.07,0-.08,0C178.09.31,178.21.33,178.57.33Z"/><path class="cls-1" d="M201.43,1.27l-.51,0h-.66Z"/><path class="cls-1" d="M204.41.06c.77.09,1.84.19,3,.28A9.59,9.59,0,0,0,204.41.06Z"/><path class="cls-1" d="M213.42,17.6c.05.74.13.31.22.83C213.65,16.9,213.56,16.37,213.42,17.6Z"/><polygon class="cls-1" points="185.28 0.08 182.25 0.16 181.15 0.23 185.28 0.08"/><path class="cls-1" d="M124,1.46c2.67.32,6.58.13,9.87.19,6-.17.76-.7,6.49-.73l-1,.65c5.73,0,13.84.1,18.7-.48.42.08,1.44.18,0,.27,3.82,0,2-.93,7.07-.71-4.75.41,1.56.39.26.79l-.75.05c3.24,0,7.51-.26,9.65-.23.09-.17-1.78-.43,1.08-.45-1.16,0-.69-.22-.59-.39-3,.18-4.56.07-6.36.29-1.65-.22,1.12-.07-.54-.29l-2.37.21c-1.75-.05,1.8-.22-.92-.27A26.13,26.13,0,0,1,159.9.6l.61-.08c-1.62.09-3.93,0-3.14.35L155.44.5l.34.25c-4.46-.1-6.13-.69-11.89-.38,1.37.08.11.21-.63.26,2.4.17,3-.19,5.23-.22.34.24-3.52.54-.75.69-3-.3-5.73,0-7-.58-3.66,0-5,.26-8.74.12l.1-.1c-.69.41-3-.18-5.76.24l1.95.09a6.64,6.64,0,0,1-2.37.2c.16-.06.16-.06-.27-.14-.41.29-4.6.34-5.12.43,1.75,0,3.91-.19,6-.27A6.25,6.25,0,0,1,124,1.46Z"/><path class="cls-1" d="M161.69.38l-1.18.14A5.42,5.42,0,0,0,161.69.38Z"/><path class="cls-1" d="M107.44.94c-2.34-.06.63-.25-1.55-.38-2.38.2,2.71.42.4.73a38.13,38.13,0,0,0-4.71.13c1-.17.45-.56,0-.65-.9.11-2.92-.08-4.46-.09,3.78.24-3.17.15.23.41a19,19,0,0,1-5.24.23,6.92,6.92,0,0,1,2.23-.14C95.14.86,92,1,91.42.72c-3.59.44-15.09.41-11.82,1.12a25.74,25.74,0,0,0,3.6-.07c-3.72-.14,0-.37.3-.5,1.59.11,4.33-.11,3.71.14l-2.53.27c8.11.13,19.19.08,28.52,0l-4,0A27.44,27.44,0,0,1,113,1.35l-2-.47c1.17,0,2.28,0,2.18.13,1.42-.2.78-.32-.07-.48A46.1,46.1,0,0,0,119,.33c-5-.39-4.22.32-10,0Z"/><polygon class="cls-1" points="118.41 0.69 117.2 0.92 119.04 0.81 118.41 0.69"/><path class="cls-1" d="M116.48,1.72c0-.1.69-.15.63-.25C114.77,1.4,115.05,1.54,116.48,1.72Z"/><path class="cls-1" d="M88.34.7l-3,.08,2,.09C87.24.76,88,.72,88.34.7Z"/><path class="cls-1" d="M67.2,1.92c4.18,0,6-.27,10.7,0,2.32-.31-1.08-.58-.08-.85-2.35-.07-2.06.45-4.48.55-.91-.27-3.57.06-5.89,0C67.74,1.69,67.74,1.82,67.2,1.92Z"/><path class="cls-1" d="M52.8.91c-1.91,0-3.84.2-5.35.07A6.81,6.81,0,0,1,50,.8c-.73-.38-2.11.06-4.18-.2.18.05.94.11.36.19-5.15-.09-2.9.31-9.57.1-1,.1-1.92.1-1.76.35C31,.92,32.93.92,28.37.65c.17.14,1.66.48,1.64.79-6.45-.44-6.58.06-10.69-.27.46,0,1-.09,2.12,0-.54-.44-3.45.08-5.73,0l.22-.37a71.08,71.08,0,0,1-8.42,0L8.12.58C7,.64,5.76.68,4.55.71L2.72.75.32.77c0,1.82,0,3.62,0,5.33,0,1.52,0,3,.07,4.29L.19,12.85c.28,6.33.13-6.3.69-1.65-.69.69.22,3.26-.05,6.87-.28,1.7-.15-3.64-.46-1.76.35.8.1,1.92.2,3.84-.33-.41,0,4-.42,2.83l.62,6.75a26.86,26.86,0,0,0-.11,4.48c0-3.64.5,1,.65-3.09C1.15,25.18,1,15.23,1.22,7.79.76,7,1.22,3,.85,1.81a1.71,1.71,0,0,0,.22-.28,1.8,1.8,0,0,1,.5.19c4.2-.1-1.14-.25-.24-.42,2.15-.06,3.8.22,3.62.38,3.43,0,.39-.12,2.14-.37l2.24.5c10.71-.15,24.9-.49,37.1-.2l-.92-.32c5.52.17,9.24-.7,14.14,0L61.32,1c-.92.15,1,.47-.49.68,1.5-.1,3.1,0,4.66-.08l-2.77-.15a13.42,13.42,0,0,1,4.72.13C71.56,1.26,65,1,64.07.77c-5.8.58-5.84-.57-11.42-.32C49.2.63,53,.74,52.8.91Z"/><path class="cls-1" d="M60,1.77l.85-.09C60.54,1.7,60.26,1.73,60,1.77Z"/><path class="cls-1" d="M.66,34.21c0,.43,0,.94,0,1.62S.7,35.5.66,34.21Z"/><path class="cls-1" d="M67.45,1.59a0,0,0,0,0,0,0h0Z"/><polygon class="cls-1" points="70.22 0.81 68.68 0.8 68.95 0.95 70.22 0.81"/><path class="cls-1" d="M.27,50.51l.16,0C.38,50.38.33,50.32.27,50.51Z"/><path class="cls-1" d="M.17,94.65v-1A6,6,0,0,0,.17,94.65Z"/><path class="cls-1" d="M56.12,145.71c2.87-.1,6.71-.2,8.83-.46l-.21.16c1.55-.08,6.54-.34,3.32-.64l-.78.14c-3.66.25-2.65-.27-5.51-.38-3.44.08-5.42.7-8.46.56-1.34,0-1.13-.15-.74-.28-3,0-4.25.44-6.35.5-.84-1.25-9.4.34-13.92-.46-2.86.1-6.68,0-10.34.24,1.95-.31-3.44,0-2.64-.38-1,.73-10.48-.32-11.13.59-4.95-.25-.21.07-5.92-.15A5.25,5.25,0,0,1,3.62,145a10.43,10.43,0,0,0-1.45,0l-1,.09a7,7,0,0,1,.09-2.37c.07-4.57-.25-.78-.49-3.48a23.89,23.89,0,0,1,.61-6.05c-.44-.42-.23-3.28-.45-5.6,0,.58-.11,3.82-.28,1.7.07-5.54-.28-4.43-.4-9.6.48-2.62,0,5.16.39.62.23,3.27.21,5.75.56,7.51,0-4.4,0-9.76-.26-14.56.07-2.67.23,1.37.28-.74.21-4.75-.5-7.31-.28-11.11l.25.79c-.34-2.33.07-8.41-.11-12.81-.13.55-.21.93-.3.34.63.07-.32-6.14.12-10.49-.4.34-.62-3.89-.66-6.57.11-.94.27-.74.38-.73-.24,4.38.43,4.25.61,7.72C1,76.76,1.2,72,.91,69.49l.31,1c.05-4-.7-3.5-.4-7.69l.23.41c0-8.41.37-18.31-.14-25.05-.19-.59-.63,2.81-.78,3,.17,4,.5,6.35.66,9.41l-.36,0c.25.69.39,4.39.59,2.34.18,2.5-.32,1.89-.11,4.77-.38-.22-.42-2-.73-2l.18,2.5c-.14-.78-.12,1.52-.27.75.45,4.63-.17,6.47,0,11.27l.07-2.67c.2,0,.18,1.55.24,2.7a26.24,26.24,0,0,0-.38,4.55,54.09,54.09,0,0,1,.54,6.17c-.4-.62-.22,4.76-.55,5.3.39.61.14,5.56.37,6,.08,1.53,0,3.64-.18,3.62,0-.23,0-.68-.06-1.16l0,1.53c0-.14-.08-.09-.08-.27a17.21,17.21,0,0,1,.08,3.14A8,8,0,0,1,0,97.31c-.06,3.63.6,6.37.24,9.39.19.59.21,4.8.63,3.88a9.86,9.86,0,0,0-.43,3.79c.36,1.75-.13,3.42.1,5.74-.37-3.1-.1,0-.46-2.73-.14,2.09.33,5.2.27,8.83-.09.36-.19.36-.28.73a14,14,0,0,1,.12,4.22L.45,131c-.13,2.48,0,5.92-.33,8.58l.48,3.1c0,.42-.09.85-.13,1.3s0,1.21-.07,1.85l1.87,0,1.4,0c.94,0,1.87-.06,2.78-.12,1.8-.12,3.48-.29,4.79-.46a25,25,0,0,1,3.8.21l-1.65.17c2.24,0,5,.29,6.24-.1,2.3-.13,1.69.27,3.4.33,4.65-.55,13.73.41,15.15-.44-1.91,0-5.53-.17-9.16-.13,1-.11.22-.27,1.55-.29,3.65,0,5.52.27,9.16.13l-.43.54C45.55,146.22,51.22,144.94,56.12,145.71Z"/><path class="cls-1" d="M9.49,145.7l2.64.28-.28-.24A15.25,15.25,0,0,1,9.49,145.7Z"/><path class="cls-1" d="M11.85,145.74c.54,0,1.07-.06,1.54-.11-.58,0-1.14,0-1.61.05Z"/><path class="cls-1" d="M66.63,145.62c.58,0,1.72.07,2.87,0A18.37,18.37,0,0,0,66.63,145.62Z"/><polygon class="cls-1" points="69.71 145.46 68.38 145.37 68.18 145.44 69.71 145.46"/><path class="cls-1" d="M147,145l4.24-.33c.74.16,5.54,0,4,.25,2.53-.39,8,0,6-.57-12.44.19-29.61-.14-44,.36l2.32-.22c-7.49.44-10.27-.5-16.28.39l.8-.46c-3.43-.12-6.56.66-10.14.18l.36.19c-.95,0-1.33-.09-2.29-.09l.38.09a45.51,45.51,0,0,1-6.5,0c-.18-.14,1.16-.06,1.92-.1-1.13-.15-3.08.16-5,.16-1.51-.13,0-.21.22-.27-5.75.2-8.38-.28-12.46.4-.39.13,1.5.23-.6.29a85.6,85.6,0,0,0,10.35-.24h-1c2.75-.66,2.09.15,6.52-.13-1.17.26-3.09.26-3.86.41,5.11.5,7.3-.39,10.67.26l-.38,0c.76.06,2.11-.06,3.26-.12-.38-.08-1.51-.13-2.28-.19a6.47,6.47,0,0,0,2.15-.48c1.31.3,1.73-.14,3.82,0,.74.27-1.74.24-2.51.39l2.5-.19a11.82,11.82,0,0,1,3.39.45c1.93-.21-1.13-.15.43-.44,2.46.34,13,.24,18,0-1.73,0-.6.29-2.71.25.77.06,3.45-.08,3.47-.29a104.26,104.26,0,0,1,11.08.14l-.94-.21c2.71-.35,6.86.26,11.65.05h-.1a40.64,40.64,0,0,1,5.7-.45C148.33,144.76,146.81,144.74,147,145Z"/><path class="cls-1" d="M163.84,144.51l-1.56.29c1.72.06,3.85-.31,3.49-.5a18.3,18.3,0,0,0-2.88.1A1.74,1.74,0,0,0,163.84,144.51Z"/><path class="cls-1" d="M196,144.46c.63-.07.47-.18.73-.26-6.8,0-15.19.15-17.89-.07-2.3-.09-2.71.35-5.59.45l-1.3-.29c-1.56.18-6.31-.14-4.64.34a24.68,24.68,0,0,1,2.7-.14l-.21.17,3.06-.06-1,.21c4.17.29,2.93-.63,8.06-.43l0,.42c3.45,0,5.18-.12,8.21.13,0,0,0-.21-.55-.13s-1.33-.18-.93-.31c5.19-.33-.79.25,2.82.42,4.43-.29,12.85-.53,15.31-.19-2.08-.25,1-.52,3.49-.5,1.13.15-.79.25-1.19.38a32,32,0,0,0,3.25.08c-1.5-.23-.52-.54,2.17-.68C206.54,143.74,201.87,144.51,196,144.46Z"/><path class="cls-1" d="M197.71,144.11a4.56,4.56,0,0,0-1,.09H199Z"/><polygon class="cls-1" points="212.51 1.43 211.87 1.86 211.85 2.21 212.51 1.43"/><path class="cls-1" d="M209.15,3.09l-.94.93c1.06.08.14.57,2-.36.48-.55,1.52-1.78,1.17-1.86A9.44,9.44,0,0,1,210,3.29c.11-.37.76-.89.87-1.35-1.09.63-.48.64-1.58,1.45Z"/><path class="cls-1" d="M208.44,4.66c0-.18,0-.35-.07-.42C208.36,4.42,208,5,208.44,4.66Z"/><path class="cls-1" d="M207.87,5.24c-.65.52-.16-.22-.25-.19l-.41,1Z"/><path class="cls-1" d="M205.22,7.45l-.27.29C205.11,7.71,205.15,7.59,205.22,7.45Z"/><path class="cls-1" d="M204,8.6c.37-.1.63-.45,1-.86h-.06c-.45.2-.33-.35.32-.78s.72-.27,1.11-.89l-.91.41A7.41,7.41,0,0,0,204,8.6Z"/><path class="cls-1" d="M205.22,7.45l.33-.31A.67.67,0,0,0,205.22,7.45Z"/><polygon class="cls-1" points="206.57 6.36 206.85 6.03 206.68 5.98 206.57 6.36"/><path class="cls-1" d="M201.82,10.46c-.15-.48,1.58-1.28,1.51-1.7-.84.74-1.74,1.06-1.72.71l-.85.91C200.56,10.78,201.19,10.71,201.82,10.46Z"/><path class="cls-1" d="M199.21,11.14a.84.84,0,0,1-.16.24A.56.56,0,0,0,199.21,11.14Z"/><path class="cls-1" d="M195,15.8l1.9-2.23c-.11.29.07.33-.4.8,1-.79.95-1.12,1.79-1.77.52.12-1.4,1.23-.69,1.13a5.52,5.52,0,0,0,1.61-1.89l1.1-.54-.62-.11c-.45.21-.49.91-.93.85-.25,0,.09-.39.32-.65-.52.57-1.83,1.07-3,2.12S195.63,14.93,195,15.8Z"/><polygon class="cls-1" points="194.54 15.47 194.27 15.46 194.53 15.56 194.54 15.47"/><path class="cls-1" d="M192.54,18l1-1.2a.78.78,0,0,1,.42-.06c-.11-.05.07-.45,0-.48-.81.13-1.32,1.3-1.89,1.88-1.75,1.24-.07-.24-1,0,.46-.38.54-.31,1.19-.83a7.8,7.8,0,0,0-2.83,2.52c.21-.13.35-.07.67-.4l-.57.67A8.66,8.66,0,0,0,192.54,18Z"/><path class="cls-1" d="M194.58,16.24c-.4.39-.58.5-.66.49C194.11,16.72,194.31,16.66,194.58,16.24Z"/><path class="cls-1" d="M189.05,20.11a1.35,1.35,0,0,0,.34-.3A1.17,1.17,0,0,0,189.05,20.11Z"/><path class="cls-1" d="M190,19.94l-.83.65.45-.11C189.74,20.36,190.12,20,190,19.94Z"/><path class="cls-1" d="M158.87,45.6c.19.07.54-.12,1.14-.67.07.24-.76.89-1,1.31.92-.59.16.22.51.21.93-.76,1.15-1.34,2.16-2.12,0,.09.08.15.26.1a32.13,32.13,0,0,1,4.22-3.8,29.76,29.76,0,0,0,3.07-2.77c4.08-3.32,8.1-7.06,12.55-10.55l.32-.87c.35,0,1-.87,1.09-.54a4.52,4.52,0,0,0-.74.63c1.18-.49,2.42-2.11,3.62-2.94-.18,0-.62-.1-.33-.44.24.46,1.3-1.12,2-.95,1.2-.83-.24-.37,1-1.29-.07-.33-1.2.83-1.55.84.2-.49,1.11-.81.85-1-1.94,1.46-5,4.85-7.68,7.38l.11-.46a21,21,0,0,1-5.09,4c.44,0-2.23,1.71-1.62,2a5.52,5.52,0,0,0-1.11.72v.27c-.75.62-.82.3-1.65,1,.72-.28.15.3,0,.68-1.17.61-2.46,1.38-3.48,1.93a1.19,1.19,0,0,0,.63-.15c-.65.43-.39.53-.49.73-.56.49-.71.19-.79,0-1.11.8-1.16,1.68-2.08,2.18l.44,0c-1,1-2.12,1.5-3.24,2.57-.81.21.77-1.06,1.16-1.6a8.06,8.06,0,0,1-1.06.61c-.38.57-1.07,1.49-1.58,2.16C160.78,44,159.29,45.27,158.87,45.6Z"/><path class="cls-1" d="M162,42.65c.11-.17.2-.31.25-.4a2.25,2.25,0,0,1-.38.36S162,42.67,162,42.65Z"/><path class="cls-1" d="M158.87,45.6l-.05,0C158.72,45.7,158.76,45.68,158.87,45.6Z"/><path class="cls-1" d="M166.28,40.52l-.17.11-.2.16Z"/><path class="cls-1" d="M166.38,38.85c.29-.13.67-.33,1.09-.56C167.29,38.29,167.15,38.28,166.38,38.85Z"/><path class="cls-1" d="M173.8,32.93c.19-.23,0-.18.11-.38C173.44,32.93,173.34,33.13,173.8,32.93Z"/><polygon class="cls-1" points="160.7 43.7 159.85 44.53 159.57 44.87 160.7 43.7"/><path class="cls-1" d="M143.37,60.27a18.26,18.26,0,0,0,3.06-2.36c1.68-1.65-.23-.72,1.45-2.2l.13.75c1.68-1.48,4.18-3.43,5.25-5.1.18,0,.55-.22.17.22,1.12-1,0-1.21,1.64-2.33-1.15,1.51.71-.1.59.54l-.2.22c.94-.85,2.07-2.1,2.72-2.62-.08-.15-.8.13,0-.61-.37.27-.35,0-.43-.15a23.4,23.4,0,0,0-1.7,1.83c-.64.25.28-.33-.35-.08l-.58.76c-.55.4.4-.63-.44,0a4.25,4.25,0,0,1-1.23,1.35l.13-.21c-.43.48-1.18,1-.71,1.06l-.81.21.26.1c-1.39,1.06-2.27,1-3.78,2.72.45-.29.17.14,0,.36.82-.48.76-.89,1.41-1.49.26.1-.69,1.3.22.71-1.09.55-1.67,1.48-2.46,1.34-1.12.9-1.33,1.47-2.53,2.3l0-.09c.06.48-1,.62-1.56,1.64l.64-.43c.08.15-.2.4-.57.75,0-.08,0-.08-.18,0,.07.33-1.14,1.43-1.24,1.63a17,17,0,0,0,1.6-1.72C143.67,59.76,143.92,59.87,143.37,60.27Z"/><path class="cls-1" d="M153.88,49.9l-.26.41A1,1,0,0,0,153.88,49.9Z"/><path class="cls-1" d="M138.1,64.07c-.73.54,0-.36-.71.09-.57.76,1.09-.36.6.46-.55.23-1,1-1.32,1.3.2-.41-.23-.55-.41-.5a9.37,9.37,0,0,1-1.39,1c1.28-.77-.85.92.34.26.07.24-.87,1.27-1.42,1.5-.07-.16.3-.43.58-.67,0-.45-.83.47-1.18.39-.78,1.24-4.22,4.13-2.79,3.85.46-.21.66-.61,1-1-1.2.84-.25-.28-.24-.45.55-.32,1.22-1.19,1.2-.84l-.58.85c2.5-2,5.76-4.8,8.47-7.24l-1.21,1c0-.26.58-.75,1-1.2l-.9.15c.37-.27.66-.61.74-.46.29-.51,0-.43-.33-.34.84-.83,1.1-.81,1.6-1.63-1.74,1-1,1.31-3,2.51Z"/><polygon class="cls-1" points="141.2 61.09 141 61.58 141.47 61.02 141.2 61.09"/><path class="cls-1" d="M141.3,62.37c-.08-.07.11-.29,0-.35C140.58,62.56,140.76,62.6,141.3,62.37Z"/><path class="cls-1" d="M132.26,68.71l-.84.83.64-.43C132,69,132.17,68.82,132.26,68.71Z"/><path class="cls-1" d="M126.77,75a20.65,20.65,0,0,1,3.16-2.73c.49-.82-.69-.16-.58-.62-.74.54-.32.86-1,1.55-.44,0-1,1-1.76,1.49C126.78,74.69,126.86,74.78,126.77,75Z"/><path class="cls-1" d="M121.83,77.87a12.86,12.86,0,0,1-1.55,1.41c0-.18.26-.52.63-.77-.46-.11-.59.58-1.37.91.08,0,.35-.16.23,0-1.59,1.24-.66,1-2.79,2.49-.22.33-.5.57-.29.72a18.58,18.58,0,0,0-2.3,1.17c.15.07.81,0,1,.19-2.2,1.3-1.92,1.72-3.35,2.51a2.88,2.88,0,0,1,.59-.58c-.44-.2-1,.93-1.71,1.44l-.17-.34a10.94,10.94,0,0,1-2.49,2.16l.06-.3c-.3.34-.63.68-1,1l-.69.65-1.07-.86c-.46-.38-.9-.73-1.32-1l-.58-.8c-2.07-1.39,1.79,1.69,0,.94.24-.7-1.11-.66-2-1.78-.33-.64,1.18.82.82.1-.47.07-.64-.41-1.27-.82.34-.15-1.17-1-.57-1l-2.41-1.24A4.21,4.21,0,0,0,97,82.85c1.08.93-.62.13.49,1.28a80.2,80.2,0,0,1,7,5.83c.27-.07.62.23,1,.55s.83.75,1,.66a2.22,2.22,0,0,0,.14.41c.06,0,.13.06.16.12.91-.83.73-.76.46-.62s-.65.35-.48.1c.56-.56,1.25-.79,1.29-.61,1-.85,0-.19.4-.82l1-.19c3.09-2.83,7.09-6.68,10.9-9.54h-.47c1.75-1.27,2.29-2.87,4.19-3.6l.32-.63c-.17.35.59.12.3.65.38-.47.93-.78,1.33-1.25l-.92.59a2.13,2.13,0,0,1,1.49-1.09c1-1.29-1.08.2-1.53.23-1.35,1.91-2.11,1-3.61,2.64C120.58,78.57,121.78,77.69,121.83,77.87Z"/><path class="cls-1" d="M124.52,76.71c.09-.11.15-.21.2-.28A1.79,1.79,0,0,0,124.52,76.71Z"/><path class="cls-1" d="M97,82.85l-.5-.4C96.32,82.38,96.61,82.56,97,82.85Z"/><path class="cls-1" d="M126.62,74.68Z"/><polygon class="cls-1" points="126.95 73.39 126.48 73.77 126.66 73.81 126.95 73.39"/><path class="cls-1" d="M92.43,78.42l-.11.13C92.4,78.54,92.45,78.52,92.43,78.42Z"/><path class="cls-1" d="M79.37,67.17l.27.25A1.63,1.63,0,0,0,79.37,67.17Z"/><path class="cls-1" d="M47.63,40.62a19.1,19.1,0,0,0-2.93-1.87l.17-.08c-.51-.33-2.17-1.39-1.4-.35l.32.09c1.25.74.61.88,1.4,1.68,1.07.82,2.06.84,2.87,1.72.41.33.24.4,0,.4.88.81,1.55.74,2.21,1.23-.56,1.16,3,2.12,3.85,3.87a40.39,40.39,0,0,0,3.23,2.43c-.78-.25,1,.89.54,1,.78-.29,2.91,2.9,3.7,2.37,1.3,1.45.1,0,1.66,1.61-.07.08-.36-.16-.48-.25.55.72,1.28.59,1.57,1.38,1.32,1.21.39,0,1.36.5,1.35,1.29.86,1,1.4,2,.41-.22,1.12.66,2,1.07-.16-.16-1.07-1-.33-.63,1.6,1.45,1.51.9,3.12,2.12.47,1-1.55-1.3-.44.14a13,13,0,0,0-2.59-1.48A47.18,47.18,0,0,0,73.35,63c.75.72-.55-.18.05.39,1.27,1.36,2.49,1.47,3.48,2.6h-.39c.9.34,2.45,2.18,3.88,3.16-.08-.24-.14-.4.09-.31-.43.46,2,1.31,3,2.74.16-.39,1.56.51,2.38,1.16.21.32.05.4,0,.48-1.14-1.29-1.54-.75-2.69-1.49,1,.58,2.27,1.94,3.21,2.36h-.5c1.17,1.05,1.5.35,2.55,1.63l-.27.07c2.53,2.11,5.21,4.93,7.55,6.24.29,0-.43-1.19-.39-1.35-1.3-.89-2.21-1.23-3.23-1.88l.24-.26c-.37,0-1.56-.82-1.07-.15-.87-.5-.36-.72-1.35-1.29.31-.23.85.17,1.06-.06l-.86-.49c.32.09-.37-.48,0-.4-1.67-.82-1.81-1.77-3.37-2.83l.75.73c-.14.15-.58-.25-1-.5-.2-.55-.45-.72-1.1-1.44A8.73,8.73,0,0,1,83.18,71c.44-.15-1.28-1.37-1.23-1.76-.43.14-1.74-1.3-2-1.23-.51-.33-1.1-.89-1-1l.39.24-.45-.39c.07,0,.08,0,.14,0-.4-.35-.59-.14-1-.73.07-.08.35.16.61.33-1-1-2.28-1.16-3-2.2-.29,0-1.56-1.06-1.56-.51-.24-.4.1-.54-.85-1.28-.75-.17-.93-1-1.77-1.37,1.16.5.07-.08,1.11.34-.53-.64-1.76-1.07-2.8-2,0-.15,0-.23,0-.39-.48-.25-1.13-.42-1.33-1l-.12.24A28.41,28.41,0,0,1,66,55.77l-1.23-.42a9.16,9.16,0,0,0-4.12-3c-.44-.4-1.07-1.05-1-1.13l.6.29C59.63,50.92,59,50,58.37,50c-.77-.49-.33-.63-.8-1.11-1.74-.76-3.82-3.79-4.79-3.5.57.48,1.53,1.53,2.64,2.42-.36-.17-.24.15-.65-.17-1.11-.9-1.46-1.61-2.64-2.43l.48-.3C51.11,42.91,48.58,42.45,47.63,40.62Z"/><path class="cls-1" d="M61.49,52.44l-.6-.88-.07.25A2.26,2.26,0,0,1,61.49,52.44Z"/><path class="cls-1" d="M60.82,51.81a6,6,0,0,0-.53-.31,2.34,2.34,0,0,0,.51.37Z"/><path class="cls-1" d="M44.45,38a5.64,5.64,0,0,0-.86-.73A2.89,2.89,0,0,0,44.45,38Z"/><polygon class="cls-1" points="43.42 37.38 43.77 37.78 43.86 37.78 43.42 37.38"/><path class="cls-1" d="M20.13,18.18l-1.47-.82c-.12-.32-1.67-1.38-1-1.2-1-.35-2.39-2-2.15-1.08,3.83,3,8.72,7.6,13.33,10.86L28,25.52c2.52,1.56,2.74,3,5.1,3.82l-.53.15c.94,1,2.38,1.16,3.13,2.43v-.23c.29.24.34.4.63.64l-.06-.16a7,7,0,0,1,2,1.62c0,.16-.39-.24-.64-.41.24.4,1,.66,1.59,1.14.37.48-.14.16-.24.15,1.84,1.31,2.31,2.34,4,2.85.2,0-.29-.56.37-.07A13.74,13.74,0,0,0,40,35l.29.25c-1.25-.19-.53-.64-2-1.55a10.51,10.51,0,0,1,1.41.67c-1.19-1.68-2.42-1.56-3-2.91l.13.09a5.4,5.4,0,0,0-1-.74,5.53,5.53,0,0,0,.55.73,1.56,1.56,0,0,0-1-.19c-.2-.55-.61-.32-1.13-1-.05-.39.68.26,1,.34l-.86-.49c-.69-.57-.48-.8-.73-1.2-.7-.33.25.4-.41.23-.51-.88-3.7-3.47-5.36-4.54.55.41.37-.06,1,.5-.19-.24-1.08-.81-1.22-.66a16.2,16.2,0,0,1-3.2-2.9l.14.39c-1-.42-1.87-1.93-3.43-3l0,0c-.49-.36-1.22-.3-2-1.1C19.58,18,20,18.41,20.13,18.18Z"/><path class="cls-1" d="M14.8,14.28l.65.17c-.47-.48-1.34-.74-1.36-.5.38.24.76.72.93.65C15,14.52,15.06,14.44,14.8,14.28Z"/><path class="cls-1" d="M5.22,6.18c-.23-.1-.25,0-.39,0a57,57,0,0,1,5.28,4.59c.63.65,1,.42,2,1.07l.19.55c.59.26,1.79,1.7,1.61.91,0-.08-.56-.17-.9-.57l.17-.07-1-.74.43.09c-1-1.28-1.28-.26-2.68-1.71l.28-.31A14.19,14.19,0,0,1,7.87,7.82S7.73,8,8,8.06s.27.48.07.47c-1.75-1.07.4,0-.56-1C6,6.59,3.29,4.64,2.78,3.77c.45.71-.64.14-1.36-.51-.24-.4.4,0,.59,0a5.05,5.05,0,0,0-.9-.89c.29.55-.2.54-1.09,0C1.6,4.05,3.49,4.65,5.22,6.18Z"/><path class="cls-1" d="M4.47,6a.7.7,0,0,0,.36.18l-.7-.58Z"/><polygon class="cls-1" points="130.51 71.03 130.67 71.3 130.92 71.18 130.51 71.03"/><path class="cls-1" d="M131,72.69l.47.27c.27-.75.43-.32.17-1.26-.29-.11-.93-.34-1.06-.07.17.11.59.11.75.38-.24.07-.46-.17-.77-.07.22.5.36.08.69.52Z"/><path class="cls-1" d="M131.92,72.56a1,1,0,0,0-.31.2C131.73,72.7,132,72.76,131.92,72.56Z"/><path class="cls-1" d="M132.21,72.71c.23.25-.19.2-.19.26l.6-.1Z"/><path class="cls-1" d="M133.21,73.66l.14.07C133.36,73.64,133.29,73.66,133.21,73.66Z"/><path class="cls-1" d="M133.75,74.07c0-.21-.18-.25-.4-.34v0c0,.23-.32.36-.48.09s0-.39-.4-.41l.1.46C133,74.22,133.51,74,133.75,74.07Z"/><path class="cls-1" d="M133.21,73.66l-.15-.1C133.08,73.65,133.14,73.66,133.21,73.66Z"/><polygon class="cls-1" points="132.72 73.17 132.55 73.11 132.48 73.24 132.72 73.17"/><path class="cls-1" d="M134.6,74.81c-.37.29-.56-.58-.87-.37.34.29.38.78.14.9l.46.22C134.57,75.55,134.65,75.15,134.6,74.81Z"/><path class="cls-1" d="M134.53,76.33a.22.22,0,0,1,.14,0A.15.15,0,0,0,134.53,76.33Z"/><path class="cls-1" d="M136.91,77.41,135.75,77c.18,0,.24-.17.47,0-.33-.39-.58-.22-.86-.53.2-.41.57.47.65,0a1.13,1.13,0,0,0-1-.36l-.15-.53-.2.46c.05.22.53,0,.4.3s-.26.09-.39,0c.28.13.36.83.86,1.2S136.44,77.29,136.91,77.41Z"/><polygon class="cls-1" points="136.6 77.83 136.53 78.02 136.66 77.8 136.6 77.83"/><path class="cls-1" d="M137.94,78.21,137.3,78a.52.52,0,0,1,0-.26c-.06.09-.3.12-.35.21-.08.5.64.39.93.55.5.71-.18.14-.21.66-.17-.16-.11-.25-.33-.49.06.71.84.82,1.17,1,0-.09,0-.21-.13-.3l.35.12C138.74,79,138.57,78.71,137.94,78.21Z"/><path class="cls-1" d="M137.15,77.5c.18.12.22.2.2.26C137.38,77.64,137.38,77.52,137.15,77.5Z"/><path class="cls-1" d="M138.7,79.77s-.06-.08-.14-.12A.29.29,0,0,0,138.7,79.77Z"/><path class="cls-1" d="M138.79,79.16l.28.32v-.27C139,79.19,138.85,79.08,138.79,79.16Z"/><path class="cls-1" d="M150.27,90.43c.08-.15,0-.32-.23-.52.18-.14.46.17.7.21-.22-.4.18-.2.25-.44-.34-.34-.7-.26-1-.64a.31.31,0,0,0,.13-.22,5.08,5.08,0,0,1-1.79-1.4,4.85,4.85,0,0,0-1.31-1c-1.47-1.49-3.25-2.78-4.77-4.45l-.54.12c.07-.24-.4-.36-.15-.54.05.13.17.17.28.27-.09-.62-1-.84-1.3-1.33,0,.1-.2.46-.38.39.38-.34-.51-.45-.25-1-.33-.49-.31.31-.7-.15-.25.17.33.49.26.73-.3.05-.33-.44-.52-.19.61.76,2.36,1.5,3.56,2.37l-.3.1a3.46,3.46,0,0,1,1.75,1.91c.07-.29.73.86,1,.34.05.23.11.25.28.47l.18-.09c.29.26,0,.43.38.72,0-.39.25-.23.49-.3.19.55.45,1.14.63,1.62a.6.6,0,0,0,0-.37c.17.27.3,0,.42,0,.23.19,0,.42-.14.54.33.44.94.13,1.1.56l.07-.29c.46.32.61.86,1.13,1.2,0,.48-.59-.1-.88-.16,0,.14.22.34.2.48.32,0,.82.15,1.19.24C149.53,89.76,150.13,90.27,150.27,90.43Z"/><path class="cls-1" d="M148.86,89.41h-.23a.32.32,0,0,1,.18.12A.16.16,0,0,0,148.86,89.41Z"/><path class="cls-1" d="M150.27,90.43s0,0,0,0S150.3,90.47,150.27,90.43Z"/><path class="cls-1" d="M148.26,87.35l0,.07.07.08Z"/><path class="cls-1" d="M147.1,87.94a3,3,0,0,0-.16-.53C146.9,87.53,146.87,87.63,147.1,87.94Z"/><path class="cls-1" d="M144.5,85.18c-.12,0-.12.06-.24.07C144.43,85.42,144.55,85.41,144.5,85.18Z"/><polygon class="cls-1" points="149.32 89.92 149.72 90.17 149.9 90.24 149.32 89.92"/><path class="cls-1" d="M157.32,95.29c-.1-.52-.68-.78-1-1.17-.81-.51-.56.43-1.25-.13l.56-.39c-.69-.57-1.53-1.51-2.48-1.59,0-.11,0-.29.19-.2-.46-.38-.86.48-1.3-.21.82.2.08-.45.51-.61l.11,0c-.4-.31-1-.59-1.27-.83-.12.11-.08.5-.42.21.11.15-.07.24-.19.36.46.17.57.42.93.44,0,.34-.18-.06-.14.27l.41.1c.17.22-.35,0-.07.29.12-.06.47.07.7.31h-.12c.24.11.44.43.59.08l0,.47.13-.22c.45.54.24,1.15,1.11,1.52-.11-.2.13-.16.25-.12-.17-.38-.47-.17-.76-.39.13-.21.78,0,.56-.43.15.54.68.57.42,1.16.39.42.75.33,1.09.83l-.08.06c.36-.24.23.45.82.42l-.16-.27c.12-.11.24,0,.41.1-.06,0-.06,0-.07.13.25-.17.76.23.88.22-.16-.22-.58-.27-.87-.42C157,95.29,157.15,95.07,157.32,95.29Z"/><path class="cls-1" d="M152.24,92.16h.24A.33.33,0,0,0,152.24,92.16Z"/><path class="cls-1" d="M158.88,97.4c.22.3-.24.12-.08.45.41.09,0-.6.44-.58,0,.28.52.29.64.39-.24,0-.44.37-.44.48.18,0,.28.36.45.53-.27-.57.46.22.25-.33.19-.15.71.1.76.38-.13.11-.24,0-.35-.13-.31.16.16.38,0,.65.72.05,2,1.27,2.12.4-.05-.23-.28-.21-.46-.32.34.49-.25.28-.37.34-.11-.25-.57-.37-.33-.5l.47.07a27.72,27.72,0,0,0-3.31-3l.46.43c-.18.1-.41-.09-.64-.18l-.09.55c-.11-.14-.29-.21-.16-.32-.3,0-.3.15-.32.36-.4-.25-.33-.44-.8-.45.31.8.7.2,1.13,1Z"/><polygon class="cls-1" points="157.44 96.45 157.74 96.4 157.45 96.29 157.44 96.45"/><path class="cls-1" d="M158.36,95.88c-.07.08-.18,0-.24.12C158.34,96.3,158.4,96.16,158.36,95.88Z"/><path class="cls-1" d="M160.91,99.58l.41.25-.17-.27C161.09,99.64,161,99.6,160.91,99.58Z"/><path class="cls-1" d="M164.17,100.88c-.51-.4-.86-.43-1.25-1.1-.47,0-.26.54-.56.64.22.3.54-.12.88.06-.07.29.45.33.68.62A.33.33,0,0,1,164.17,100.88Z"/><path class="cls-1" d="M165.16,103.13c.21.2.57.25.66.5-.13.11-.31,0-.41-.12-.17.35.28.18.35.58,0,0,0-.18.09-.18.53.61.54.08,1.16.93.19,0,.29.13.44-.08.23.63,0,.43.35,1.11.08-.12.13-.53.34-.76.45,1,.8.65,1.06,1.32-.07,0-.19,0-.28-.18-.24.38.45.3.65.6l-.27.26c.28.17.86.37,1,.85l-.2.08a16.87,16.87,0,0,1,2.08,1.48l.12.43c.93.45-.63-.76.28-.69-.39.59.52.18.76.76,0,.38-.52-.28-.51.15.33-.18.29.13.58.25-.28.21.43.45,0,.61l1.19.25c0,.25.25.43.45.54-.42-.38.44-.26.08-.8a12.85,12.85,0,0,1-2.76-2.36c-.4.25-.55-.51-.93-.35.07-.13.09-.28.17-.41-.62-.42,0,.31-.29.31-.28-.18-.29-.56-.15-.66-.38-.38-.13,0-.5,0l.08-.6a25.53,25.53,0,0,1-4.42-3.72l-.1.33c-.52-.71-1.54-.45-1.65-1.46l-.38,0c.21,0,.21-.44.52-.45-.24-.08-.35-.34-.59-.42l.22.39a.44.44,0,0,1-.46-.59c-.69-.19-.08.66-.15,1,1,.17.29,1,1.09,1.43C165.38,103.71,165,103.23,165.16,103.13Z"/><path class="cls-1" d="M164.91,101.74a.5.5,0,0,0-.16,0Z"/><path class="cls-1" d="M175.08,111.82a1.26,1.26,0,0,0,.2.16C175.39,112,175.25,111.93,175.08,111.82Z"/><path class="cls-1" d="M163.92,101.1Z"/><polygon class="cls-1" points="163.09 101.38 163.25 101.55 163.32 101.42 163.09 101.38"/><path class="cls-1" d="M176.69,113.82l.11-.12A.17.17,0,0,0,176.69,113.82Z"/><path class="cls-1" d="M181.71,118.5l-.1-.11A.22.22,0,0,0,181.71,118.5Z"/><path class="cls-1" d="M194.16,129.3a3.7,3.7,0,0,0,1.33.58l-.13.1c.23.1,1,.42.81-.13l-.19,0c-.58-.2-.12-.48-.38-.85-.44-.31-1.09-.05-1.34-.48-.17-.12,0-.23.1-.28-.33-.35-.78-.12-1.07-.29.75-1-1.31-.73-1.3-1.79a6.33,6.33,0,0,0-1.35-.9c.43,0-.38-.38,0-.56-.61.43-1-1.34-1.68-.73-.4-.7-.07,0-.58-.73.07-.07.18,0,.24,0-.14-.37-.67-.07-.6-.58-.48-.52-.26.11-.74,0-.47-.58-.24-.53-.28-1.09-.35.28-.53-.17-.95-.25.05.08.36.48,0,.38-.59-.63-.71-.24-1.38-.7,0-.63.61.53.34-.23.52.18.8.46,1.23.38a8,8,0,0,0-1.84-1.33c-.27-.33.31,0,.09-.28-.4-.66-1.17-.4-1.47-1l.26-.1c-.49,0-.92-.93-1.55-1.25,0,.15,0,.25-.16.25.43-.46-.92-.4-1.13-1.18-.22.33-.86.05-1.2-.2,0-.18.1-.28.17-.36.35.64.78.13,1.3.35-.47-.15-.87-.8-1.36-.85l.33-.13c-.44-.45-.88.16-1.16-.5l.2-.12c-1-.86-1.86-2.19-3-2.52-.2.08-.1.76-.18.89a13.46,13.46,0,0,0,1.53.5l-.25.26c.25-.11.77.17.67-.19.41.13,0,.43.47.58-.28.25-.5.1-.71.33l.41.13c-.19,0,.09.25-.1.28.84.14.63.8,1.32,1.15l-.26-.33c.14-.15.3,0,.47.1,0,.36.07.41.27.76.36.1.75-.06,1.07.25-.33.23.41.65.25,1,.33-.23.73.47.93.34.23.11.45.36.3.51,0,0-.11,0-.18-.07l.17.17s-.06,0-.09,0c.15.15.35-.07.42.26-.07.08-.18,0-.3-.07.38.43,1.14.22,1.25.8.19-.08.68.35.86-.06,0,.23-.24.44.15.71.44-.08.31.46.73.53-.61,0-.07.08-.62.05.14.33.82.3,1.2.73,0,.1-.09.18-.1.28.24,0,.61,0,.56.35l.15-.2c.2.35.65.65.77,1.13l.68,0c.14.81,1.09,1.06,1.76,1.08.16.17.37.48.29.56s-.18,0-.3,0c.24.25.38.74.79.57.35.15,0,.38.17.61.9.07,1.3,1.74,2,1.25a10.94,10.94,0,0,0-1-1.06c.18,0,.21-.17.38-.05.44.36.45.78,1,1.06l-.41.36C192.6,128.58,194.12,128.21,194.16,129.3Z"/><path class="cls-1" d="M188.79,124.43l.12.47.13-.2A.42.42,0,0,1,188.79,124.43Z"/><path class="cls-1" d="M189,124.7a1,1,0,0,0,.25.08.56.56,0,0,0-.22-.13Z"/><path class="cls-1" d="M195.43,130.33a.82.82,0,0,0,.33.3C195.72,130.51,195.56,130.33,195.43,130.33Z"/><polygon class="cls-1" points="195.9 130.53 195.8 130.33 195.74 130.35 195.9 130.53"/><path class="cls-1" d="M205.12,138.25l.72.19c0,.21.66.56.29.61.55,0,.93.83,1.07.19-1.56-1.15-3.32-3.19-5.32-4.32l.42.08c-1.16-.45-.85-1.44-2.14-1.41l.4-.25c-.31-.46-1.2-.2-1.29-.93l-.09.18c-.1-.1-.09-.2-.2-.31v.11a1.15,1.15,0,0,1-.78-.66c.08-.12.18.08.29.13,0-.23-.46-.2-.68-.4s.14-.16.21-.18c-.8-.45-.78-1.08-1.71-1-.13.05,0,.32-.26.15.29.55.83.68,1.35.9l-.11-.1c.76-.2.14.33.84.58-.31.08-.53-.13-.72-.1.25.91,1.1.48,1,1.31l0,0c0,.12.28.17.45.25,0-.11-.09-.26-.13-.38.17.07.44-.08.57-.13,0,.35.29.07.44.4-.1.28-.37,0-.56,0l.41.12c.28.23.07.46.1.69.36,0,0-.23.34-.28.06.5,1.33,1.53,2.09,1.86-.23-.16-.27.15-.48-.1.05.12.45.3.59.14a2.79,2.79,0,0,1,1.19,1.26l0-.25c.55,0,.62.91,1.31,1.26v0c.21.13.7-.11,1,.27C205.44,138.22,205.27,138,205.12,138.25Z"/><path class="cls-1" d="M207.39,139.65l-.37,0a.53.53,0,0,0,.74,0c-.18-.08-.27-.33-.4-.23S207.28,139.6,207.39,139.65Z"/><path class="cls-1" d="M211.13,143c.12,0,.17-.09.26-.12-.81-.68-1.86-1.47-2-1.92s-.55,0-1-.25l.05-.35c-.3,0-.64-.76-.77-.23,0,.05.31,0,.41.18l-.14.1.4.28-.26.05c.29.65.76-.16,1.22.52l-.28.31c.38.37.68.45.85,1,0,0,.15-.15,0-.15A.26.26,0,0,1,210,142c.82.3-.26.1,0,.61.7.25,1.84.95,1.89,1.45-.07-.4.47-.28.74,0,0,.23-.26.1-.39.15.11.16.14.33.32.41,0-.33.3-.46.71-.28C212.83,143.54,211.78,143.62,211.13,143Z"/><path class="cls-1" d="M211.57,142.89a.17.17,0,0,0-.18,0l.27.24Z"/><polygon class="cls-1" points="82.97 71.2 82.69 71.34 82.79 71.6 82.97 71.2"/><path class="cls-1" d="M81.28,71.49l-.32.44c.72.34.28.46,1.24.3.14-.28.43-.89.18-1-.13.16-.17.57-.46.71,0-.25.22-.45.15-.76-.53.16-.11.34-.59.63Z"/><path class="cls-1" d="M81.31,72.46a.85.85,0,0,0-.17-.33C81.19,72.26,81.11,72.55,81.31,72.46Z"/><path class="cls-1" d="M81.13,72.73c-.27.2-.18-.21-.23-.21l0,.6Z"/><path class="cls-1" d="M80.09,73.63l-.09.14C80.09,73.79,80.08,73.71,80.09,73.63Z"/><path class="cls-1" d="M79.62,74.12c.21,0,.27-.15.38-.35h0c-.24,0-.33-.35,0-.49s.39,0,.45-.35l-.47,0C79.56,73.34,79.68,73.89,79.62,74.12Z"/><path class="cls-1" d="M80.09,73.63a.53.53,0,0,1,.12-.14C80.11,73.5,80.09,73.56,80.09,73.63Z"/><polygon class="cls-1" points="80.63 73.19 80.71 73.03 80.58 72.95 80.63 73.19"/><path class="cls-1" d="M78.8,74.9c-.25-.39.64-.5.46-.83-.32.32-.81.3-.91.05l-.27.44C78.08,74.8,78.47,74.91,78.8,74.9Z"/><path class="cls-1" d="M77.3,74.68a.32.32,0,0,1,0,.14A.15.15,0,0,0,77.3,74.68Z"/><path class="cls-1" d="M76,77l.54-1.12c0,.18.15.26,0,.47.42-.29.27-.56.61-.8.39.23-.53.52-.09.64a1.13,1.13,0,0,0,.46-1l.55-.1-.44-.24c-.23,0,0,.53-.34.37s-.07-.27,0-.4c-.16.28-.87.29-1.28.75S76.15,76.49,76,77Z"/><polygon class="cls-1" points="75.61 76.59 75.42 76.5 75.63 76.65 75.61 76.59"/><path class="cls-1" d="M75.09,77.89l.24-.62a.45.45,0,0,1,.26.07c-.09-.07-.09-.31-.17-.36-.5-.13-.46.59-.64.86-.76.43-.13-.19-.65-.27.19-.15.26-.08.53-.28-.71,0-.9.76-1.07,1.07.1,0,.21,0,.32-.1l-.16.33C74.24,78.6,74.53,78.47,75.09,77.89Z"/><path class="cls-1" d="M75.88,77.17c-.15.17-.23.2-.28.17C75.72,77.39,75.83,77.4,75.88,77.17Z"/><path class="cls-1" d="M73.47,78.49s.08,0,.12-.13S73.51,78.41,73.47,78.49Z"/><path class="cls-1" d="M74.06,78.64l-.34.25.26,0C74,78.87,74.14,78.71,74.06,78.64Z"/><path class="cls-1" d="M61.71,88.94c.14.1.31.06.53-.18.13.2-.21.44-.27.68.42-.18.18.2.41.29.37-.3.32-.67.74-1a.29.29,0,0,0,.21.15,4.91,4.91,0,0,1,1.56-1.64A5,5,0,0,0,66,86.08c1.63-1.32,3.09-3,4.91-4.31l-.07-.55c.23.1.4-.36.55-.1-.13,0-.19.16-.29.26.62,0,.92-.88,1.45-1.16-.11,0-.44-.25-.36-.42.31.41.5-.46,1-.15.52-.28-.28-.34.22-.68-.15-.26-.53.28-.76.19,0-.31.47-.29.25-.51-.82.54-1.74,2.2-2.72,3.32l-.07-.31a3.51,3.51,0,0,1-2.08,1.55c.29.1-.92.64-.43,1-.24,0-.26.08-.5.23l.07.19c-.29.25-.44,0-.75.31.38,0,.2.27.25.51-.57.13-1.18.34-1.68.47a.6.6,0,0,0,.37.06c-.29.14-.09.28-.09.41-.21.2-.41-.07-.51-.2-.47.29-.23.93-.67,1l.28.1c-.37.43-.92.53-1.31,1-.47-.07.16-.58.25-.87-.15,0-.36.19-.5.16a10,10,0,0,1-.36,1.15C62.45,88.27,61.88,88.81,61.71,88.94Z"/><path class="cls-1" d="M62.86,87.64a1.11,1.11,0,0,0,0-.23.28.28,0,0,1-.13.16A.12.12,0,0,0,62.86,87.64Z"/><path class="cls-1" d="M61.71,88.94l0,0C61.64,89,61.66,89,61.71,88.94Z"/><path class="cls-1" d="M65,87.24l-.08,0-.08.06Z"/><path class="cls-1" d="M64.5,86a3.31,3.31,0,0,0,.54-.1C64.92,85.87,64.83,85.83,64.5,86Z"/><path class="cls-1" d="M67.5,83.72c.06-.11,0-.13,0-.24C67.27,83.63,67.27,83.75,67.5,83.72Z"/><polygon class="cls-1" points="62.31 88.05 62.01 88.42 61.93 88.59 62.31 88.05"/><path class="cls-1" d="M56.17,95.47c.52,0,.84-.6,1.26-.89.59-.76-.37-.6.26-1.22L58,94c.63-.63,1.66-1.38,1.83-2.31.1,0,.29,0,.18.21.42-.42-.4-.9.33-1.27-.27.8.44.12.56.56l-.05.11c.34-.37.69-1,1-1.18-.11-.13-.49-.13-.18-.44-.15.09-.23-.1-.33-.23-.22.45-.48.53-.54.88-.33,0,.09-.17-.25-.16l-.14.4c-.24.15.06-.35-.28-.1,0,.13-.11.46-.38.66l0-.12c-.13.24-.47.4-.13.58l-.47-.06.21.15c-.58.39-1.17.12-1.63,1,.21-.08.15.15.1.26.39-.12.22-.45.46-.71.2.15,0,.77.37.59-.55.1-.63.63-1.2.3-.44.36-.4.72-.92,1l0-.08c.19.37-.48.18-.51.77l.29-.13c.1.13,0,.23-.14.39,0-.06,0-.06-.13-.07.15.26-.3.73-.3.85.23-.15.32-.55.51-.82C56.2,95.17,56.41,95.32,56.17,95.47Z"/><path class="cls-1" d="M59.79,90.73l0,.23A.3.3,0,0,0,59.79,90.73Z"/><path class="cls-1" d="M53.91,96.81c-.31.2-.1-.25-.44-.12-.13.4.6,0,.54.5-.29,0-.35.49-.45.59,0-.24-.33-.47-.44-.48,0,.17-.39.24-.57.39.6-.21-.27.44.3.28.13.2-.17.7-.45.72-.1-.14.06-.23.16-.34-.12-.32-.39.12-.65,0-.12.7-1.46,1.88-.61,2.06.24,0,.24-.26.37-.42-.52.28-.25-.28-.3-.41.26-.08.42-.53.52-.28l-.11.47a28.06,28.06,0,0,0,3.28-3l-.48.41c-.07-.19.14-.4.25-.62l-.55-.14c.16-.1.24-.26.35-.13,0-.29-.13-.32-.34-.35.3-.37.48-.29.54-.76-.84.24-.28.68-1.16,1Z"/><polygon class="cls-1" points="55 95.48 55.02 95.78 55.16 95.5 55 95.48"/><path class="cls-1" d="M55.48,96.44c-.08-.07,0-.18-.1-.25C55.06,96.39,55.19,96.46,55.48,96.44Z"/><path class="cls-1" d="M51.54,98.62l-.29.38.29-.14C51.46,98.79,51.52,98.68,51.54,98.62Z"/><path class="cls-1" d="M49.93,101.74c.45-.48.51-.83,1.21-1.14.06-.47-.51-.32-.58-.63-.32.2.06.55-.15.88-.28-.1-.37.42-.68.61A.33.33,0,0,1,49.93,101.74Z"/><path class="cls-1" d="M47.59,102.49c-.23.19-.31.55-.57.61a.28.28,0,0,1,.16-.39c-.33-.21-.2.26-.61.29,0,0,.18,0,.17.1-.65.47-.13.53-1,1.07,0,.18-.15.27,0,.44-.65.16-.42,0-1.14.24.12.09.52.18.73.41-1,.35-.72.74-1.42.92.05-.06.05-.18.21-.26-.35-.27-.34.42-.66.59l-.23-.3c-.2.27-.46.83-.95.9l-.06-.2a16.36,16.36,0,0,1-1.68,1.92l-.44.08c-.54.88.82-.56.66.34-.54-.44-.23.51-.83.68-.38,0,.33-.48-.1-.52.14.35-.15.28-.31.55-.17-.29-.49.39-.61,0l-.36,1.16c-.25,0-.46.2-.59.38.42-.37.22.48.79.17a12.68,12.68,0,0,1,2.63-2.51c-.22-.43.55-.5.44-.9.12.09.27.13.38.22.49-.58-.29-.07-.27-.32a.46.46,0,0,1,.67-.09c.41-.34,0-.13,0-.5l.59.14a24.81,24.81,0,0,1,4.14-4l-.32-.13c.76-.45.6-1.49,1.62-1.5v-.37c0,.21.43.25.4.56.1-.24.37-.32.48-.55l-.42.17a.45.45,0,0,1,.64-.39c.26-.66-.65-.15-.93-.25-.28,1-1.06.19-1.54,1C47,102.66,47.5,102.34,47.59,102.49Z"/><path class="cls-1" d="M49,102.38a.34.34,0,0,0,0-.15A.54.54,0,0,0,49,102.38Z"/><path class="cls-1" d="M38,111.49a1.72,1.72,0,0,0-.17.19C37.76,111.79,37.83,111.66,38,111.49Z"/><path class="cls-1" d="M49.73,101.46Z"/><polygon class="cls-1" points="49.53 100.6 49.35 100.75 49.48 100.83 49.53 100.6"/><path class="cls-1" d="M35.81,112.9l.1.13A.17.17,0,0,0,35.81,112.9Z"/><path class="cls-1" d="M30.65,117.44l.11-.1A.21.21,0,0,0,30.65,117.44Z"/><path class="cls-1" d="M18.66,128.75A3.55,3.55,0,0,0,18,130l-.09-.15c-.12.22-.52.94.05.82v-.19c.26-.56.49-.07.89-.29.35-.41.16-1.08.61-1.29.14-.15.23,0,.26.12.39-.28.2-.76.4-1,.94.85.86-1.23,1.92-1.11.26-.38.77-.69,1-1.26,0,.44.41-.34.56,0-.37-.65,1.42-.85.88-1.6.75-.33,0-.07.79-.51.07.08,0,.18-.07.24.38-.1.13-.66.63-.54.57-.43-.08-.27.07-.73.62-.42.55-.19,1.11-.18-.25-.37.23-.51.34-.92-.08,0-.51.32-.38,0,.69-.52.32-.67.84-1.3.62.08-.59.55.19.36-.23.51-.53.75-.49,1.19a8.08,8.08,0,0,0,1.51-1.7c.35-.23,0,.31.26.12.69-.34.52-1.13,1.1-1.37l.07.27c.05-.49,1-.82,1.41-1.42-.15,0-.25-.06-.24-.18.41.47.49-.88,1.29-1-.31-.26,0-.86.31-1.17.18,0,.27.12.34.2-.66.28-.2.76-.47,1.26.19-.45.88-.79,1-1.27l.09.34c.5-.39-.06-.89.62-1.11l.1.22c1-.91,2.37-1.64,2.8-2.72-.06-.2-.75-.17-.86-.26a12.38,12.38,0,0,0-.65,1.47l-.24-.27c.09.25-.24.75.12.68-.16.39-.42,0-.62.41-.22-.3,0-.51-.26-.74l-.16.39c0-.19-.26.07-.27-.12-.23.82-.87.55-1.28,1.2l.35-.23c.14.15,0,.3-.15.46-.34-.08-.41,0-.78.2-.13.34,0,.74-.35,1-.19-.36-.69.33-1,.14.2.36-.54.69-.44.9-.12.22-.39.41-.53.25a1,1,0,0,1,.09-.17l-.19.15s0-.07,0-.1c-.16.14,0,.35-.3.39-.07-.08,0-.17.1-.29-.46.33-.33,1.11-.92,1.16.06.2-.42.65,0,.87-.23,0-.41-.28-.72.08,0,.44-.48.26-.6.67.11-.6-.07-.08,0-.62-.34.11-.38.78-.84,1.11-.1,0-.17-.1-.27-.12-.07.23-.06.61-.41.53l.19.17c-.37.16-.71.58-1.2.65l0,.68c-.82.06-1.16,1-1.25,1.64-.19.14-.51.32-.58.24s0-.18.07-.3c-.27.22-.76.3-.64.73-.19.33-.38,0-.62.1-.17.9-1.86,1.13-1.45,1.91a11.28,11.28,0,0,0,1.14-.85c0,.17.16.22,0,.37-.4.41-.82.37-1.15.86l-.31-.45C19.54,127.27,19.75,128.81,18.66,128.75Z"/><path class="cls-1" d="M24.05,123.89l-.49.07.19.14A.39.39,0,0,1,24.05,123.89Z"/><path class="cls-1" d="M23.75,124.1a1.12,1.12,0,0,0-.11.25.47.47,0,0,0,.16-.21Z"/><path class="cls-1" d="M17.51,129.91a.81.81,0,0,0-.33.3C17.31,130.18,17.5,130,17.51,129.91Z"/><polygon class="cls-1" points="17.27 130.35 17.48 130.28 17.46 130.21 17.27 130.35"/><path class="cls-1" d="M8.67,138.77l-.27.69c-.19-.05-.61.6-.63.22,0,.56-.91.85-.3,1,1.3-1.44,3.51-3,4.83-4.86l-.12.41c.57-1.11,1.52-.71,1.61-2l.22.42c.48-.26.31-1.17,1.05-1.19l-.17-.1c.11-.1.21-.08.32-.18l-.1,0a1.15,1.15,0,0,1,.73-.7c.12.09-.09.16-.15.27.23,0,.24-.44.47-.64s.13.16.15.23c.53-.75,1.16-.67,1.17-1.6,0-.14-.33,0-.13-.28-.58.24-.75.76-1,1.26l.11-.1c.13.78-.34.1-.66.78,0-.32.18-.52.17-.71-.93.16-.58,1.05-1.41.92l0-.06c-.13,0-.2.27-.29.43.1,0,.26-.06.39-.09-.09.16,0,.44.07.58-.35-.08-.1.28-.44.39-.27-.12,0-.36,0-.55l-.16.4c-.25.25-.46,0-.69,0-.08.36.23,0,.25.37-.51,0-1.66,1.17-2.06,1.89.17-.21-.13-.28.14-.46-.13,0-.34.41-.2.57a2.76,2.76,0,0,1-1.37,1.06l.25.05c-.08.55-1,.53-1.38,1.18h0c-.15.2,0,.71-.36.93C8.67,139.08,8.86,138.94,8.67,138.77Z"/><path class="cls-1" d="M7.05,140.89l0-.38a.53.53,0,0,0-.07.73c.09-.17.36-.23.27-.38S7.11,140.78,7.05,140.89Z"/><path class="cls-1" d="M3.38,144.27c0,.12.06.18.08.27a8.71,8.71,0,0,1,2.12-1.81c.32-.18.08-.55.34-.92l.35.08c.05-.3.81-.56.3-.74-.05,0,0,.31-.22.38l-.08-.14-.32.36,0-.25c-.68.21.08.76-.64,1.16L5,142.34c-.42.35-.52.63-1,.76,0,0,.14.16.15,0a.25.25,0,0,1,.32.13c-.38.79-.08-.27-.61,0-.32.67-1.13,1.73-1.64,1.73.41,0,.23.5-.07.74-.23,0-.07-.27-.11-.4-.17.08-.34.1-.44.27.33,0,.43.35.21.73C2.64,145.91,2.66,144.85,3.38,144.27Z"/><path class="cls-1" d="M3.41,144.72c.06-.08.07-.13,0-.18l-.26.25Z"/></g></g></svg>