<svg xmlns="http://www.w3.org/2000/svg" viewBox="0 0 72.3 156.16"><defs><style>.cls-1{fill:#f3f3f3;}</style></defs><title>Magnifying Glass</title><g id="Layer_2" data-name="Layer 2"><g id="Layer_1-2" data-name="Layer 1"><polygon class="cls-1" points="46.53 156.16 46.6 155.79 46.34 155.69 46.53 156.16"/><path class="cls-1" d="M47.37,154.39l-.13-.62c-.72.39-.53-.1-1,.9.13.34.42,1.08.71,1,0-.25-.34-.6-.27-1,.22.15.21.55.5.72.2-.6-.2-.36-.12-1Z"/><path class="cls-1" d="M46.61,153.68a.76.76,0,0,0,.36.09C46.84,153.72,46.67,153.42,46.61,153.68Z"/><path class="cls-1" d="M46.51,153.3c0-.39.28,0,.32,0l-.5-.43Z"/><path class="cls-1" d="M46.48,151.66c0-.06,0-.12,0-.18S46.42,151.59,46.48,151.66Z"/><path class="cls-1" d="M46.39,150.86c-.16.16,0,.36,0,.62l0,0c.13-.23.48,0,.41.34.09.38-.25.36,0,.68l.25-.47C47,151.4,46.53,151.08,46.39,150.86Z"/><path class="cls-1" d="M46.48,151.66a1.52,1.52,0,0,1,0,.21A.17.17,0,0,0,46.48,151.66Z"/><polygon class="cls-1" points="46.47 152.49 46.55 152.69 46.69 152.63 46.47 152.49"/><path class="cls-1" d="M46.3,149.51c.47.07,0,1,.36,1.05,0-.53.28-1,.54-.86l-.17-.58C46.85,148.93,46.51,149.19,46.3,149.51Z"/><path class="cls-1" d="M47.43,148.31a.38.38,0,0,1-.09-.13A.22.22,0,0,0,47.43,148.31Z"/><path class="cls-1" d="M46.51,145.37l.52,1.35c-.15-.12-.3-.06-.36-.37,0,.61.26.67.23,1.18-.42.17-.06-.89-.44-.58a1.5,1.5,0,0,0,.45,1.15l-.27.57.46-.21c.13-.23-.39-.44-.06-.6s.24.15.3.31c-.11-.36.33-1,.23-1.74S46.76,145.87,46.51,145.37Z"/><polygon class="cls-1" points="47.03 145.29 47.21 145.19 46.96 145.27 47.03 145.29"/><path class="cls-1" d="M46.35,143.82l.32.7c0,.08-.13.13-.22.18.11,0,.31.15.39.12.42-.35-.17-.87-.26-1.25.15-1,.23,0,.62-.37,0,.28-.1.3-.12.69.46-.64,0-1.4-.15-1.8,0,.12-.17.16-.12.37l-.16-.4A2.16,2.16,0,0,0,46.35,143.82Z"/><path class="cls-1" d="M46.4,145.1c0-.27,0-.37.05-.39C46.34,144.78,46.26,144.87,46.4,145.1Z"/><path class="cls-1" d="M46.91,141.88s0,.12,0,.21A.27.27,0,0,0,46.91,141.88Z"/><path class="cls-1" d="M46.42,142.31l0-.51-.19.21C46.27,142.08,46.32,142.32,46.42,142.31Z"/><path class="cls-1" d="M46.27,123.11c-.17,0-.25.24-.2.62-.23,0-.21-.54-.35-.77-.13.52-.27,0-.49.14,0,.58.31.82.28,1.43a.23.23,0,0,0-.25.07,7.09,7.09,0,0,1,.28,2.69,6.76,6.76,0,0,0,.21,2c0,2.5.33,5.1.22,7.79l.47.37c-.22.14,0,.64-.27.57a1,1,0,0,0,0-.46c-.37.59.1,1.52,0,2.22.07-.08.46-.21.54,0-.51,0,0,.82-.53,1-.11.7.44,0,.39.73.3.06.12-.69.34-.83.25.21-.08.65.23.61.1-1.16-.6-3.28-.85-5l.29.17a4.84,4.84,0,0,1,.12-3.09c-.26.18.08-1.33-.51-1.17a1.31,1.31,0,0,0,.14-.63l-.2-.08c0-.46.29-.4.24-.93-.24.36-.33,0-.55-.17.26-.62.48-1.34.7-1.88a.56.56,0,0,0-.28.28c.08-.37-.17-.29-.26-.39,0-.35.31-.33.48-.32.07-.65-.58-.91-.38-1.41l-.26.18c-.1-.66.17-1.24.05-2,.35-.37.34.59.51.89.07-.15.08-.47.2-.58a13.42,13.42,0,0,1-.67-1.21C46.32,124.3,46.26,123.36,46.27,123.11Z"/><path class="cls-1" d="M46.55,125.15a1.7,1.7,0,0,0,.15.21.47.47,0,0,1,0-.25A.14.14,0,0,0,46.55,125.15Z"/><path class="cls-1" d="M46.27,123.11l0,0C46.29,123,46.28,123,46.27,123.11Z"/><path class="cls-1" d="M45.52,127.39l0-.1v-.12Z"/><path class="cls-1" d="M46.75,127.89a4.09,4.09,0,0,0-.26.58C46.61,128.4,46.7,128.34,46.75,127.89Z"/><path class="cls-1" d="M46.64,132.41c0,.14.13.05.22.14C46.86,132.27,46.77,132.18,46.64,132.41Z"/><polygon class="cls-1" points="46.58 124.34 46.48 123.78 46.4 123.58 46.58 124.34"/><path class="cls-1" d="M44.72,113c-.29.51-.07,1.23-.11,1.84.21,1.12.7.12.79,1.18l-.67-.16c.09,1.06,0,2.57.63,3.45-.08.08-.17.28-.28,0,.06.7,1,.32.77,1.28-.44-.87-.37.3-.79.08l-.05-.14c.07.6.32,1.38.31,1.78.17,0,.41-.35.45.18,0-.21.22-.13.39-.12-.21-.54-.11-.85-.34-1.17.2-.31.08.2.28-.11l-.22-.43c0-.33.23.32.26-.19-.13,0-.29-.45-.28-.85l.08.11c-.1-.3,0-.73-.36-.57l.34-.37-.24.07c.06-.83.64-1.16.29-2.22-.07.26-.21,0-.26-.11-.16.46.21.55.26,1-.25.07-.57-.63-.7-.11.27-.58-.08-1.07.53-1.33,0-.68-.31-.93-.19-1.62h.09c-.41-.11.16-.56-.28-1.06l-.07.37c-.17,0-.18-.19-.22-.43.06,0,.06,0,.14-.06-.3-.06-.38-.84-.47-.93,0,.33.22.72.31,1.1C44.93,113.28,44.69,113.35,44.72,113Z"/><path class="cls-1" d="M46.1,120l-.16-.21A.34.34,0,0,0,46.1,120Z"/><path class="cls-1" d="M45.11,109.93c0-.44.26.11.38-.3-.23-.44-.4.52-.73.1.17-.28-.16-.71-.17-.83.18.11.56-.14.64-.31-.1-.15,0-.64,0-1.08H45.1l.13,0c-.06.29-.09.24-.13.13-.27,0-.63.08-.31.24-.32.23-1,.4-1.19.22,0-.16.29-.13.48-.14.34-.32-.44-.17-.56-.46-.79.44-2.84.41-2.26,1.13.23.13.43,0,.67-.07-.69-.14,0-.38.06-.5.29.11.8-.12.69.14l-.47.27c.35,0,.75,0,1.14.06l.89,0,.08,1c0,.48.08,1,.12,1.41v-.75c.19.08.22.43.32.7l.46-.38c0,.21,0,.42-.12.41.21.25.32.13.48,0,.1.56-.07.66.25,1.07.34-.94-.35-.77-.06-1.85Z"/><polygon class="cls-1" points="45.45 111.95 45.21 111.74 45.34 112.08 45.45 111.95"/><path class="cls-1" d="M44.41,111.64c.1,0,.15.12.25.11C44.72,111.31,44.57,111.37,44.41,111.64Z"/><path class="cls-1" d="M42.89,107.51l-.56.08.36.09C42.68,107.58,42.82,107.54,42.89,107.51Z"/><path class="cls-1" d="M39,108.74a4.58,4.58,0,0,1,2,0c.43-.31-.2-.58,0-.86-.43-.07-.38.45-.83.55-.17-.26-.66.06-1.09,0A.29.29,0,0,1,39,108.74Z"/><path class="cls-1" d="M36.29,107.72c-.36,0-.72.2-1,.08,0-.17.25-.23.47-.19-.14-.37-.4.06-.78-.19,0,0,.17.11.07.19-1-.09-.54.31-1.78.09-.18.11-.36.1-.33.35-.7-.31-.35-.31-1.19-.59,0,.15.31.48.3.8-1.19-.44-1.22.06-2-.27a.66.66,0,0,1,.39-.06c-.05-.21-.21-.19-.41-.13a1.85,1.85,0,0,1-.75.13l-.09-.38c-.29,0-.64.12-1,.15a1.86,1.86,0,0,1-.15,1l-.18-.25c.06.4.08.87.1,1.14s0,.53,0,.79a11.32,11.32,0,0,0,0,1.46l-.26.45c.24,1.19.18-1.16.71-.28-.7.1.2.62-.11,1.28-.28.3-.11-.69-.44-.35.35.16.09.36.17.72-.32-.09-.07.74-.44.51l.57,1.28a1,1,0,0,0-.15.82c0-.67.49.21.68-.54a18.14,18.14,0,0,1,.08-4.33c-.45-.17,0-.89-.32-1.13.14,0,.28-.12.42-.15-.06-.89-.26.2-.41,0-.05-.4.24-.7.4-.64.05-.48-.12-.06-.35-.44a.92.92,0,0,1,.51-.08l0-.31c.31,0,.59-.09,1.1-.14l1.64-.11a19,19,0,0,1,3.3.07l-.17-.31c1,.17,1.72-.7,2.63,0l.31-.27c-.17.16.18.48-.09.69.28-.11.57,0,.86-.09l-.51-.15a.58.58,0,0,1,.87.14c.77-.32-.45-.55-.62-.81-1.08.58-1.09-.57-2.12-.33C35.62,107.45,36.32,107.55,36.29,107.72Z"/><path class="cls-1" d="M37.62,108.58a.48.48,0,0,0,.16-.08A.8.8,0,0,0,37.62,108.58Z"/><path class="cls-1" d="M28.08,116.24c0,.08,0,.18,0,.31S28.12,116.49,28.08,116.24Z"/><polygon class="cls-1" points="39.01 108.4 39.01 108.4 39 108.4 39.01 108.4"/><polygon class="cls-1" points="39.52 107.63 39.24 107.62 39.29 107.76 39.52 107.63"/><path class="cls-1" d="M27.56,119.25h.17A.17.17,0,0,0,27.56,119.25Z"/><path class="cls-1" d="M27.12,127.44l0-.17A.25.25,0,0,0,27.12,127.44Z"/><path class="cls-1" d="M26.65,147.11a4.5,4.5,0,0,0,.4,1.66l-.17,0c.07.29.3,1.22.62.64l-.14-.15c-.22-.69.29-.48.42-1-.05-.64-.66-1-.49-1.59,0-.25.16-.21.28-.13.07-.56-.4-.8-.44-1.2,1.25-.1-.27-1.76.56-2.56a9.82,9.82,0,0,0-.16-1.93c.3.37,0-.64.4-.47-.72-.22.41-1.93-.5-2.1.29-.9-.06,0,.2-1.09.1,0,.09.19.11.26.2-.41-.37-.66.07-1,.1-.85-.25-.16-.47-.67.14-.88.26-.63.65-1.1-.43-.09-.2-.61-.4-1,0,.1-.14.7-.29.3.11-1-.25-.84-.33-1.8.5-.47,0,1,.39.13.2.62.16,1.08.5,1.42a11.41,11.41,0,0,0-.15-2.71c.09-.5.22.26.28-.13.25-.87-.43-1.38-.19-2.07l.24.15c-.31-.44.14-1.55,0-2.38-.13.1-.22.17-.29,0,.62,0-.28-1.15.19-1.94-.4,0-.59-.75-.61-1.25.12-.17.28-.12.39-.12-.27.81.4.81.55,1.46-.18-.54.07-1.42-.2-1.9l.3.2c.08-.74-.67-.68-.34-1.44l.22.08c0-1.56.52-3.38.06-4.65-.18-.12-.65.49-.8.52a17.41,17.41,0,0,0,.59,1.77l-.36,0c.24.14.35.84.56.46.17.48-.33.34-.14.88-.38,0-.4-.38-.71-.39l.16.47c-.14-.15-.14.27-.28.13.42.87-.22,1.19-.06,2.09l.09-.49c.21,0,.17.29.23.51-.31.23-.27.37-.42.83.15.4.51.63.49,1.16-.39-.13-.25.88-.59,1,.39.13.1,1,.32,1.12.07.29,0,.68-.2.67,0,0,0-.13-.06-.22l0,.29c-.05,0-.08,0-.09-.06,0,.25.27.27.06.59-.1,0-.09-.19-.13-.33-.1.67.55,1.21.17,1.75.18.12.16.9.59.75-.16.2-.49.11-.45.68.33.34-.16.63.05,1.07-.35-.59-.1,0-.44-.52-.16.38.29,1,.2,1.65-.09.06-.19.05-.28.12.11.26.39.56.09.79l.25,0a7,7,0,0,1-.39,1.58l.45.59a2.3,2.3,0,0,0,.28,2.44c0,.28-.14.7-.24.69s-.1-.18-.16-.31c0,.41-.33.91.06,1.16.1.43-.29.3-.37.62.52.88-.51,2.53.32,2.83a13.92,13.92,0,0,0,.21-1.7c.1.18.27.05.28.3,0,.68-.32,1-.21,1.7l-.53-.11C26.22,145.13,27.46,146.24,26.65,147.11Z"/><path class="cls-1" d="M27,138.46l-.3.48.24,0A.56.56,0,0,1,27,138.46Z"/><path class="cls-1" d="M27,138.9a1.42,1.42,0,0,0,.1.29.59.59,0,0,0,0-.3Z"/><path class="cls-1" d="M26.66,149.07a1.08,1.08,0,0,0,0,.53A.7.7,0,0,0,26.66,149.07Z"/><polygon class="cls-1" points="26.8 149.65 26.89 149.4 26.83 149.36 26.8 149.65"/><path class="cls-1" d="M34.48,155.8l.79-.33c.14.17,1,0,.74.26.47-.39,1.49,0,1.11-.58-2.31.2-5.5-.14-8.17.37l.43-.23a2.72,2.72,0,0,1-.83.13,1.57,1.57,0,0,1-.56-.08c-.17-.06-.16-.12-.65.15h-.2a5.41,5.41,0,0,0,.47-.31c.07-.15-.1-.12-.21-.26s-.18-.45.07-.76l-.18.06c0-.18.09-.25.1-.42l-.09.06a1.63,1.63,0,0,1,0-1.21c.14,0,.05.22.08.37.16-.21-.13-.58-.12-.94s.21,0,.27.06c-.16-1.08.35-1.55-.3-2.33-.13-.08-.25.26-.29-.13a3.18,3.18,0,0,0,.16,1.93v-.18c.64.54-.17.39.08,1.22-.26-.23-.24-.59-.38-.74-.54.93.33,1.38-.35,2v-.07c-.07.14,0,.4.09.61.09-.06.14-.27.21-.41.05.22.34.34.46.42-.15.11-.12.19-.07.29s.12.13.05.27c-.28.17-.25-.17-.38-.34a2.06,2.06,0,0,0,.17.39c0,.31-.32.46-.48.8.2.2.16-.3.45-.25a1.37,1.37,0,0,0-.15.38,7,7,0,0,0,2.84-.14c-.33,0-.12.29-.51.24.14.06.64-.08.65-.29a3.85,3.85,0,0,1,2.05.14l-.17-.21c.5-.35,1.27.26,2.16.06h0c.29,0,.54-.55,1.06-.44C34.74,155.58,34.45,155.55,34.48,155.8Z"/><path class="cls-1" d="M37.62,155.32l-.29.29c.32.07.71-.31.64-.49-.21.06-.49-.07-.53.1S37.47,155.36,37.62,155.32Z"/><path class="cls-1" d="M43.58,155.28c.12-.07.09-.18.14-.26a13,13,0,0,1-3.33-.08c-.42-.08-.5.35-1,.46l-.24-.3c-.29.19-1.17-.13-.86.35,0,0,.25-.23.5-.14l0,.16.57-.05-.18.21c.78.29.55-.63,1.5-.44v.42c.64,0,1-.12,1.53.14,0,0,0-.21-.11-.13s-.24-.19-.17-.31c1-.33-.15.25.53.42.82-.29,2.38-.53,2.84-.19-.39-.26.19-.52.65-.5.21.15-.15.25-.22.37a1.13,1.13,0,0,0,.6.09c-.28-.23-.1-.54.4-.68C45.55,154.56,44.68,155.32,43.58,155.28Z"/><path class="cls-1" d="M43.91,154.92c-.12,0-.17.05-.19.1h.43Z"/><polygon class="cls-1" points="44.53 105.16 44.62 104.98 44.36 104.93 44.53 105.16"/><path class="cls-1" d="M45.45,104.34l-.11-.29c-.74.17-.53-.06-1.06.4.12.16.38.52.67.47,0-.12-.32-.29-.23-.46.22.08.19.26.47.35.23-.28-.18-.18-.08-.48Z"/><path class="cls-1" d="M44.71,104a2.58,2.58,0,0,0,.36,0C44.94,104,44.78,103.88,44.71,104Z"/><path class="cls-1" d="M44.63,103.82c0-.19.28,0,.32,0l-.48-.21Z"/><path class="cls-1" d="M44.67,103l-.05-.08C44.54,103,44.61,103,44.67,103Z"/><path class="cls-1" d="M44.61,102.67c-.17.07-.07.17,0,.29h0c.14-.11.48,0,.39.16.08.18-.26.16,0,.32l.28-.21C45.23,102.94,44.74,102.78,44.61,102.67Z"/><path class="cls-1" d="M44.67,103a.43.43,0,0,1,0,.11C44.74,103.1,44.71,103.07,44.67,103Z"/><polygon class="cls-1" points="44.63 103.43 44.7 103.53 44.84 103.5 44.63 103.43"/><path class="cls-1" d="M44.58,102c.46,0,0,.46.31.5,0-.25.32-.45.58-.39l-.15-.28A.93.93,0,0,0,44.58,102Z"/><path class="cls-1" d="M45.75,101.49l-.08-.06A.16.16,0,0,0,45.75,101.49Z"/><path class="cls-1" d="M45,100.09l.46.65c-.15-.06-.29,0-.34-.18-.07.28.23.32.18.55-.43.08,0-.41-.41-.28a.54.54,0,0,0,.39.55l-.29.27.47-.09c.14-.11-.37-.22,0-.28a.23.23,0,0,1,.29.14c-.09-.17.37-.46.31-.81S45.18,100.33,45,100.09Z"/><polygon class="cls-1" points="45.48 100.07 45.66 100.03 45.41 100.06 45.48 100.07"/><path class="cls-1" d="M44.86,99.36l.3.34a.56.56,0,0,1-.23.08c.11,0,.3.08.39.06.42-.15-.14-.41-.22-.59.2-.47.23,0,.64-.16,0,.13-.12.14-.15.32.49-.29,0-.66-.08-.84,0,.05-.17.06-.13.17l-.14-.2A.68.68,0,0,0,44.86,99.36Z"/><path class="cls-1" d="M44.86,100c0-.13,0-.18.07-.19C44.81,99.82,44.73,99.86,44.86,100Z"/><path class="cls-1" d="M45.5,98.47s0,0,0,.1A.07.07,0,0,0,45.5,98.47Z"/><path class="cls-1" d="M45,98.66l0-.24-.2.09S44.89,98.66,45,98.66Z"/><path class="cls-1" d="M44.77,89.15c-.07.17,0,.26.31.23-.23.23-.53.18-.76.32.22.14-.17.27-.23.49.19,0,.47-.17.73-.22a.32.32,0,0,1,0,.17,1.16,1.16,0,0,0-.24.25,1.41,1.41,0,0,1,.16,1.21,1.53,1.53,0,0,0,.13.92c-.13,1.17.11,2.4-.1,3.66l.45.18c-.23.06,0,.3-.29.26,0-.07,0-.13,0-.21-.4.27,0,.71-.11,1,.08,0,.47-.09.54,0-.5,0,0,.39-.57.48-.14.33.44,0,.36.35.3,0,.15-.32.37-.38.24.1-.1.3.21.29.15-.54-.47-1.55-.64-2.38l.28.09a1.21,1.21,0,0,1,.25-1.45c-.27.08.14-.62-.46-.56.13-.11.11-.14.16-.29l-.19,0c0-.22.3-.18.28-.43-.26.16-.33,0-.55-.09.29-.29.54-.62.78-.87a.65.65,0,0,0-.29.13c.09-.18-.15-.15-.24-.19s.32-.15.49-.14c.1-.31-.54-.41-.32-.78a1.82,1.82,0,0,1-.27.15c-.07-.36.23-.84.14-1.28.36-.55.31.19.47.36a4,4,0,0,1,.22-.6,3.31,3.31,0,0,0-.5-.36l-.3.12C45.73,89.15,45,89.18,44.77,89.15Z"/><path class="cls-1" d="M45.84,89.82l.14.1a.39.39,0,0,1,0-.21A.29.29,0,0,0,45.84,89.82Z"/><path class="cls-1" d="M44.77,89.15v0C44.71,89.13,44.72,89.14,44.77,89.15Z"/><path class="cls-1" d="M44.72,91.64s0,0,0,0v-.06Z"/><path class="cls-1" d="M45.93,91.9a1.79,1.79,0,0,0-.29.27A.34.34,0,0,0,45.93,91.9Z"/><path class="cls-1" d="M45.63,94c0,.06.12,0,.21.07C45.85,94,45.76,93.91,45.63,94Z"/><polygon class="cls-1" points="45.91 89.04 45.88 88.92 45.48 88.97 45.24 89.05 45.87 88.93 45.91 89.04"/><path class="cls-1" d="M39.38,90.28c.23.32.57.12.86.19.52-.17.06-.7.56-.74l-.08.66c.5,0,1.2.09,1.63-.48,0,.08.12.18,0,.27.34,0,.18-.93.62-.71-.41.4.14.38,0,.79l-.06,0a6,6,0,0,1,.87-.23c.08-.17-.07-.42.29-.44-.13,0,0-.23.07-.39-.47.18-.69.07-.9.29-.15-.22.09-.07,0-.29l-.21.2c-.15,0,.16-.22-.08-.26a.37.37,0,0,1-.4.23l.05-.07c-.14.09-.34,0-.27.34l-.17-.36,0,.25c-.39-.1-.54-.69-1-.38.12.07,0,.21,0,.25.21.17.25-.18.45-.22,0,.25-.3.55-.06.69-.27-.29-.5,0-.62-.58-.32,0-.43.27-.76.12v-.09c-.06.41-.26-.18-.5.24l.17.09c0,.16-.09.17-.21.2s0-.06,0-.14c0,.29-.4.34-.45.43.15,0,.34-.2.52-.27C39.5,90.08,39.53,90.33,39.38,90.28Z"/><path class="cls-1" d="M42.66,89.2l-.1.14A.22.22,0,0,0,42.66,89.2Z"/><path class="cls-1" d="M37.93,89.76c-.2-.07.06-.25-.13-.39-.21.21.23.43,0,.73-.12-.18-.32.13-.41.14a1.09,1.09,0,0,0,0-.65c-.07.11-.25-.08-.38-.09.32.24-.28.14,0,.41,0,.23-.34.4-.46.22s.11-.13.19-.14c.07-.32-.21-.17-.25-.46-.32.44-1.32.41-1,1.13.1.13.19,0,.31-.07-.33-.14,0-.38,0-.5.13.11.37-.12.32.14L36,90.5a9.05,9.05,0,0,0,2.49,0l-.36,0c0-.19.21-.2.34-.3l-.17-.46c.1,0,.2,0,.19.13a.44.44,0,0,0,0-.48c.26-.08.31.1.51-.21-.44-.38-.37.32-.87,0Z"/><polygon class="cls-1" points="38.89 89.5 38.78 89.74 38.94 89.62 38.89 89.5"/><path class="cls-1" d="M38.72,90.54c0-.11.06-.15.06-.26C38.57,90.21,38.6,90.36,38.72,90.54Z"/><path class="cls-1" d="M36.27,89.51l-.26.08.17.09A.19.19,0,0,1,36.27,89.51Z"/><path class="cls-1" d="M34.42,90.74c.37,0,.53-.27.94,0,.2-.31-.1-.58,0-.86-.2-.07-.18.45-.39.55-.08-.26-.31.06-.51,0A.57.57,0,0,1,34.42,90.74Z"/><path class="cls-1" d="M33.17,89.72c-.17,0-.34.2-.47.08s.12-.23.22-.19c-.06-.37-.18.06-.36-.19,0,0,.08.11,0,.19-.45-.09-.26.31-.84.09-.08.11-.16.1-.15.35-.33-.31-.16-.31-.56-.59a5.49,5.49,0,0,1,.14.8c-.56-.44-.57.06-.93-.27,0,0,.09-.1.18-.06-.05-.43-.28.08-.51,0v-.38c-.29.06-.58.31-1,0l0-.19a2.08,2.08,0,0,1-.78.19,8,8,0,0,0,.1,1.16A1.25,1.25,0,0,0,28,91c.14.44.17.22.24,0s.17-.34.45,0c-.35-.1-.29,0-.18.17s.26.28.13.43-.18,0-.22-.08-.08-.19-.24-.09c.35.11.1.18.2.36-.33,0,0,.35-.42.24l.62.59a.27.27,0,0,0-.11.39c0-.32.5.09.65-.27a3.55,3.55,0,0,1-.1-1.84c-.23-.16-.22-.26-.21-.35s0-.16-.16-.4l.23.18.22.2c.23-.1-.31-.25-.4-.42.14-.06.5.21.6.38.25,0-.07-.13-.08-.37a3.94,3.94,0,0,1,.43.5,4.65,4.65,0,0,1,.53-.14c.26,0,.54-.1.82-.13a4.4,4.4,0,0,1,1.66.06l-.08-.31c.48.17.81-.7,1.24,0l.14-.27c-.08.16.09.48,0,.69.13-.11.27,0,.41-.09L34,90.26c.17-.26.36-.1.42.14.35-.32-.22-.55-.3-.81-.5.58-.51-.57-1-.33C32.86,89.45,33.19,89.55,33.17,89.72Z"/><path class="cls-1" d="M33.8,90.58a.27.27,0,0,0,.07-.08A.27.27,0,0,0,33.8,90.58Z"/><path class="cls-1" d="M28.42,93a.93.93,0,0,0,0,.14C28.52,93.21,28.46,93.13,28.42,93Z"/><polygon class="cls-1" points="34.45 90.4 34.45 90.4 34.44 90.4 34.45 90.4"/><polygon class="cls-1" points="34.69 89.63 34.55 89.62 34.58 89.76 34.69 89.63"/><path class="cls-1" d="M28,94.44h0Z"/><path class="cls-1" d="M27.93,98.29v-.08A.06.06,0,0,0,27.93,98.29Z"/><path class="cls-1" d="M31,105.53a1.53,1.53,0,0,0,.77-.47v.17c.13-.08.57-.35.28-.64l-.06.14c-.32.25-.23-.27-.48-.38-.3.08-.48.7-.74.55-.12,0-.1-.15-.07-.27-.26,0-.37.43-.55.5,0-.32-.09-.45-.16-.49s-.11,0-.22.09-.62.34-.45-.06a.74.74,0,0,1-.24,0,.34.34,0,0,0-.19-.31c.31,0,0-.24.38-.33-.36.12-.28-.11-.23-.27s.1-.44-.36-.46c.26-.43-.06,0,.15-.52.11,0,.11.09.12.12.19-.2-.39-.3,0-.47.07-.4-.25-.06-.49-.3.1-.42.23-.3.61-.53-.44,0-.23-.28-.45-.49,0,0-.11.34-.28.15.07-.48-.29-.38-.4-.84.48-.22,0,.46.39.06.23.28.2.5.56.65a2.61,2.61,0,0,0-.26-1.27c.07-.23.23.12.27-.06.22-.41-.49-.64-.27-1l.24.07c-.33-.2.08-.73-.11-1.12-.12,0-.21.08-.29,0,.63,0-.32-.53.12-.91a.66.66,0,0,1-.66-.57.58.58,0,0,1,.38-.07c-.24.38.43.37.61.67-.2-.25,0-.66-.28-.88l.31.08c.05-.34-.7-.3-.4-.67l.22,0c0-.73.38-1.6-.13-2.18-.19-.06-.63.24-.78.26.16.35.5.55.66.82h-.36c.25.07.39.39.58.21.19.22-.31.16-.11.41-.37,0-.41-.16-.72-.17l.18.22c-.14-.07-.12.13-.27.07.45.4-.18.56,0,1l.06-.23c.21,0,.19.13.25.23-.29.12-.25.18-.38.4.16.18.54.29.54.54-.4-.06-.22.41-.55.46.39,0,.14.48.37.52a.19.19,0,0,1-.18.31.44.44,0,0,1-.06-.1l0,.14s-.08,0-.08,0,.27.12.08.28c-.11,0-.1-.09-.15-.16-.06.32.6.56.24.82.19,0,.21.42.62.34-.14.1-.48.06-.42.33.35.15-.13.3.1.5-.37-.27-.1,0-.46-.24-.14.19.33.46.27.77-.09,0-.19,0-.28.07.13.12.42.25.12.36h.25c-.12.22,0,.52-.32.75l.48.27c-.51.36-.05.85.38,1.13,0,.14-.11.33-.22.35a1.94,1.94,0,0,1-.17-.16c0,.22-.29.64.11.62.12.17-.28.3-.34.55.19.07.2.27.17.54.36.06.81.29,1.13-.27-.2,0-.39-.17-.71-.14.17-.1.28-.27.38-.29s.21.28.56.14l-.22.54C30.16,106,30.57,104.75,31,105.53Z"/><path class="cls-1" d="M28.28,103.46l-.27.23.23,0A.15.15,0,0,1,28.28,103.46Z"/><path class="cls-1" d="M28.24,103.67a.69.69,0,0,0,.11.13.13.13,0,0,0-.05-.14Z"/><path class="cls-1" d="M31.93,105.44a.27.27,0,0,0,.25,0C32.11,105.38,32,105.36,31.93,105.44Z"/><polygon class="cls-1" points="32.2 105.28 32.08 105.19 32.06 105.25 32.2 105.28"/><path class="cls-1" d="M38.93,104.8l.37-.33c.07.17.49,0,.35.26.22-.39.7,0,.52-.58-1.08.2-2.58-.14-3.83.37l.2-.23c-.65.45-.9-.49-1.42.4l.07-.46c-.3-.13-.57.66-.88.18l0,.18c-.09,0-.12-.08-.2-.08l0,.08a.4.4,0,0,1-.57,0c0-.15.1-.06.17-.1-.1-.15-.27.16-.43.16s0-.21,0-.28c-.51.21-.73-.28-1.09.41,0,.12.13.23-.05.29.33.21.6-.06.9-.24H33c.24-.66.19.15.57-.14-.1.27-.27.27-.33.41.44.51.63-.38.93.27l0,0c.07.06.19-.06.29-.12s-.13-.13-.2-.2c.1-.06.15-.35.19-.47.11.29.15-.14.33,0s-.15.25-.22.4l.22-.19c.2,0,.2.3.29.44.17-.2-.09-.14,0-.43.22.33,1.13.24,1.57,0-.15,0-.05.29-.24.24.07.06.3-.08.3-.29a.93.93,0,0,1,1,.14l-.08-.21c.24-.35.6.26,1,.06h0c.13,0,.25-.55.49-.44C39.05,104.58,38.92,104.55,38.93,104.8Z"/><path class="cls-1" d="M40.41,104.32l-.14.29c.15.07.34-.31.3-.49-.1.06-.23-.07-.25.1S40.34,104.36,40.41,104.32Z"/><path class="cls-1" d="M43.21,104.28c0-.07,0-.18.06-.26-.59,0-1.33.15-1.56-.08-.2-.08-.24.35-.49.46l-.11-.3c-.14.19-.55-.13-.41.35,0,0,.12-.23.24-.14l0,.16.27,0-.09.21c.37.29.26-.63.71-.44v.42c.3,0,.45-.12.72.14,0,0,0-.21-.05-.13a.32.32,0,0,1-.08-.31c.45-.33-.07.25.25.42.38-.29,1.12-.53,1.33-.19a.33.33,0,0,1,.3-.5c.1.15-.07.25-.1.37s.18.15.28.09a.52.52,0,0,1,.19-.68C44.13,103.56,43.72,104.32,43.21,104.28Z"/><path class="cls-1" d="M43.36,103.92a.13.13,0,0,0-.09.1h.2Z"/><polygon class="cls-1" points="39.76 72.16 39.67 72.26 39.92 72.29 39.76 72.16"/><path class="cls-1" d="M38.84,72.64l.11.18c.74-.1.52,0,1-.24a.93.93,0,0,0-.66-.28c0,.07.31.17.22.27s-.19-.15-.46-.2c-.23.16.18.1.07.28Z"/><path class="cls-1" d="M39.58,72.85l-.36,0C39.34,72.84,39.5,72.92,39.58,72.85Z"/><path class="cls-1" d="M39.65,73c0,.11-.27,0-.31,0l.48.12Z"/><path class="cls-1" d="M39.62,73.42l.05,0C39.74,73.45,39.68,73.44,39.62,73.42Z"/><path class="cls-1" d="M39.68,73.64c.16,0,.06-.1,0-.17h0c-.13.06-.47,0-.39-.1-.07-.11.26-.1,0-.19l-.27.12C39.05,73.48,39.54,73.58,39.68,73.64Z"/><path class="cls-1" d="M39.62,73.42a.14.14,0,0,1,0-.06C39.54,73.38,39.58,73.4,39.62,73.42Z"/><polygon class="cls-1" points="39.66 73.19 39.59 73.13 39.45 73.14 39.66 73.19"/><path class="cls-1" d="M39.7,74c-.46,0,0-.27-.31-.3,0,.15-.32.27-.57.24l.14.16A1.31,1.31,0,0,0,39.7,74Z"/><path class="cls-1" d="M38.53,74.34a.19.19,0,0,1,.08,0A.15.15,0,0,0,38.53,74.34Z"/><path class="cls-1" d="M39.33,75.18l-.47-.39c.15,0,.3,0,.35.11.06-.17-.23-.19-.19-.33.43,0,0,.25.42.17,0-.1,0-.25-.4-.33l.3-.16-.48,0c-.13.07.37.13,0,.17s-.24,0-.29-.09c.1.1-.37.28-.3.49S39.1,75,39.33,75.18Z"/><polygon class="cls-1" points="38.81 75.19 38.62 75.22 38.87 75.2 38.81 75.19"/><path class="cls-1" d="M39.43,75.61l-.3-.2a1.88,1.88,0,0,1,.22,0c-.11,0-.29,0-.38,0-.43.09.14.24.21.35-.19.28-.23,0-.63.1,0-.08.11-.09.14-.2-.48.18,0,.4.08.51s.18,0,.14-.1l.14.11C39.39,76,39.48,75.88,39.43,75.61Z"/><path class="cls-1" d="M39.42,75.25c0,.08,0,.11-.06.11C39.48,75.34,39.56,75.32,39.42,75.25Z"/><path class="cls-1" d="M38.78,76.15s0,0,0-.06S38.75,76.12,38.78,76.15Z"/><path class="cls-1" d="M39.29,76l0,.14.21-.06A.17.17,0,0,0,39.29,76Z"/><path class="cls-1" d="M38.64,81.41c.17,0,.26-.06.22-.17.23,0,.19.15.32.22.15-.15.27,0,.5,0,0-.16-.28-.23-.22-.4a.54.54,0,0,0,.25,0c-.15-.2-.36-.55-.16-.75s0-.34-.13-.55a16.5,16.5,0,0,1,.1-2.19l-.45-.1c.22,0,0-.18.29-.16-.06,0,0,.08,0,.13.39-.16,0-.43.11-.62a1.27,1.27,0,0,1-.55,0c.51,0,0-.23.57-.28.14-.2-.44,0-.36-.21-.3,0-.14.19-.37.23s.11-.18-.21-.17c-.14.32.47.92.64,1.41l-.28,0a.53.53,0,0,1-.24.86c.26,0-.14.38.46.34-.14.06-.12.08-.17.17l.19,0c0,.13-.3.11-.28.25.26-.09.34,0,.55.06-.29.17-.54.37-.78.52a.91.91,0,0,0,.29-.08c-.09.1.16.09.25.11s-.32.09-.49.09c-.1.18.53.26.32.4l.27-.05c.06.19-.23.34-.14.55-.37.1-.32-.17-.47-.25s-.1.13-.22.16a5.24,5.24,0,0,1,.61.34C38.64,81.08,38.66,81.34,38.64,81.41Z"/><path class="cls-1" d="M38.45,80.84l-.15-.06s.05,0,0,.06Z"/><path class="cls-1" d="M38.64,81.41h0S38.63,81.43,38.64,81.41Z"/><path class="cls-1" d="M39.57,80.22s0,0,0,0v0Z"/><path class="cls-1" d="M38.36,80.07a2,2,0,0,0,.28-.16C38.52,79.93,38.43,79.94,38.36,80.07Z"/><path class="cls-1" d="M38.66,78.8s-.13,0-.22,0S38.52,78.87,38.66,78.8Z"/><polygon class="cls-1" points="38.38 81.06 38.46 81.22 38.53 81.28 38.38 81.06"/><path class="cls-1" d="M39.76,84.25c.32-.14.13-.34.19-.51-.16-.32-.69,0-.73-.34l.65,0c0-.3.1-.72-.47-1,.08,0,.17-.08.27,0,0-.2-.93-.1-.72-.37.41.25.39-.08.79,0l0,0c0-.17-.26-.39-.23-.5-.17,0-.43.09-.45-.06,0,.06-.22,0-.39,0,.19.15.07.24.29.33-.22.09-.07-.06-.28,0l.2.12c0,.09-.22-.09-.27,0,.13,0,.27.13.24.24l-.07,0c.08.09,0,.21.34.16l-.36.1h.24c-.09.23-.69.32-.38.62.08-.08.21,0,.26,0,.17-.13-.19-.16-.22-.27.25,0,.54.18.69,0-.29.15,0,.29-.58.36,0,.19.26.26.12.46h-.09c.41,0-.19.16.23.3l.09-.1c.17,0,.18,0,.21.12a.21.21,0,0,0-.15,0c.3,0,.35.24.43.26s-.19-.2-.27-.31C39.57,84.18,39.82,84.16,39.76,84.25Z"/><path class="cls-1" d="M38.68,82.29l.15.06A.31.31,0,0,0,38.68,82.29Z"/><path class="cls-1" d="M39.25,85.11c-.07.12-.26,0-.39.08.21.13.42-.14.73,0-.18.08.13.2.14.25a1.56,1.56,0,0,0-.65,0c.11,0-.09.15-.1.23.25-.2.15.16.42,0,.23,0,.4.2.22.27s-.13-.07-.14-.12c-.32,0-.17.1-.46.08.44.14.41.73,1.12,1,.14,0,0-.18-.06-.28-.15.18-.38-.18-.51-.23.12,0-.11-.25.15-.15l.26.24a3,3,0,0,0,.08-.84,4.91,4.91,0,0,0-.1-.77V85c-.2,0-.21-.12-.3-.2l-.47.1c0-.06,0-.11.13-.11a.66.66,0,0,0-.48,0c-.08-.16.11-.19-.2-.31-.39.26.32.22,0,.52Z"/><polygon class="cls-1" points="38.99 84.54 39.23 84.6 39.11 84.51 38.99 84.54"/><path class="cls-1" d="M40,84.64c-.1,0-.15,0-.25,0S39.84,84.72,40,84.64Z"/><path class="cls-1" d="M39,86l.08.11.09,0A.48.48,0,0,1,39,86Z"/><path class="cls-1" d="M40.15,87.74l.06,0c-.07-.34-.24-.56,0-.73-.3-.33-.57-.29-.85-.53-.07.05.45.39.55.63-.24-.15,0,.17,0,.32h0A1.53,1.53,0,0,1,40.15,87.74Z"/><path class="cls-1" d="M38.66,86.72c-.06,0-.08.2-.17.08s0-.23,0-.19c-.13-.37-.05.06-.16-.19a.69.69,0,0,1,0,.19c-.16-.09-.06.31-.41.09a.46.46,0,0,0-.09.35c-.2-.31-.1-.31-.34-.59a7.29,7.29,0,0,1,.09.8c-.34-.44-.34.06-.56-.27,0,0,0-.1.11-.06,0-.43-.18.08-.3,0l0-.38c-.11.06-.3.31-.44,0l0-.19c-.28.28-.61.15-.85.29l-.13-.23c-.33.28.33.13.09.69,0-.69-.17.22-.36-.05s.19-.14.09-.46c0,.36-.1.11-.2.21,0-.34-.2,0-.14-.42l-.35.61c-.06-.19-.16-.15-.24-.11.19,0,0,.5.16.66a1.47,1.47,0,0,1,1.22-.1c0-.46.25,0,.31-.37l0,.42c.25-.1,0-.25,0-.42s.19.21.18.38c.18,0,0-.13.12-.37l.11.5a3.06,3.06,0,0,1,2-.21l-.1-.31c.16.08.24-.09.28-.2s.07-.16.41.17a1.59,1.59,0,0,0-.12-.27c.07.16.41.48.48.69,0-.11.21,0,.23-.09l-.29-.15c-.12-.26.11-.1.39.14a.64.64,0,0,0,0-.07,1,1,0,0,0-.3-.3,4,4,0,0,1-.57-.44c.14.29-.05.15-.2,0s-.29-.41-.28-.29S38.59,86.55,38.66,86.72Z"/><path class="cls-1" d="M39.51,87.58a.11.11,0,0,0,0-.08A.11.11,0,0,0,39.51,87.58Z"/><path class="cls-1" d="M34.43,86.93l-.08,0C34.32,87,34.37,87,34.43,86.93Z"/><path class="cls-1" d="M39.85,87.4h0Z"/><polygon class="cls-1" points="39.12 86.56 39.11 86.6 39.25 86.73 39.12 86.56"/><path class="cls-1" d="M33.78,86.54l-.06.17A1.15,1.15,0,0,0,33.78,86.54Z"/><path class="cls-1" d="M33.36,85.8v0S33.37,85.8,33.36,85.8Z"/><path class="cls-1" d="M33,80.29a1,1,0,0,0-.47-.46h.16c-.08-.08-.34-.34-.64-.17l.15,0c.24.19-.28.14-.38.29.07.18.7.28.55.44,0,.07-.15,0-.27,0,0,.16.43.23.49.34-1.25,0,.34.48-.45.72.1.15,0,.35.23.54-.31-.1,0,.18-.38.13.73.06-.32.55.6.58-.26.26.06,0-.16.31-.1,0-.1,0-.12-.07-.19.12.39.18,0,.28-.06.24.25,0,.5.18-.11.25-.23.18-.61.32.44,0,.22.17.45.29,0,0,.11-.2.27-.09-.07.29.29.23.41.5-.48.13,0-.27-.4,0-.22-.17-.2-.3-.55-.39a1,1,0,0,0,.25.75c-.06.14-.23-.07-.27,0-.21.25.49.38.28.58l-.25,0c.33.11-.07.44.11.7a.55.55,0,0,1,.29-.08c-.31,0-.23.14-.12.21s.23.11,0,.35c.39-.23.62-.25.66-.22l-.38.35c.23-.36-.43.17-.62,0,.21,0,0,.5.28.38l-.31.23c0,.06,0,.08.05.08.3-.16.69-.6.65-.36l-.2.23a3.92,3.92,0,0,1,.73.11.65.65,0,0,0,.7-.25,4.48,4.48,0,0,0-.16-.78c-.15.17-.24.5-.46.66l.11-.35c-.08.24-.34.39-.31.58-.23.18,0-.32-.21-.11a8.49,8.49,0,0,0,.47-.73l-.17.19c.11-.15,0-.13.15-.28-.38.4-.13,0-.2,0s0,0,0,0l0,.07v0a.79.79,0,0,1-.22.18h-.06a2.6,2.6,0,0,0,.38-.45c-.16.09-.53.28-.53.16.39-.19.21-.28.55-.4-.4.11-.14-.1-.37-.08-.08,0,0-.13.17-.14l.07.06v-.08l.09,0c0-.08-.28-.08-.08-.17s.1.05.14.09c.07-.19-.59-.33-.24-.49-.18,0-.2-.25-.62-.2.15-.06.48,0,.42-.19-.35-.1.13-.18-.09-.3.37.16.1,0,.45.14.15-.11-.33-.27-.26-.46l.27,0c-.12-.07-.41-.15-.12-.22h-.25c.13-.13.05-.31.32-.45l-.47-.16c.5-.21,0-.5-.38-.68,0-.07.11-.19.21-.19l.17.08c0-.11.29-.26-.1-.32-.12-.12.27-.09.34-.18-.56-.24.41-.71-.44-.79,0,.1-.18.29-.14.48-.1,0-.27,0-.29-.08s.28-.29.13-.48l.55,0C33.53,80.84,32.24,80.54,33,80.29Z"/><path class="cls-1" d="M33,82.72l.28-.14H33S33.08,82.68,33,82.72Z"/><path class="cls-1" d="M33,82.59l-.11-.08a.1.1,0,0,0,.06.09Z"/><path class="cls-1" d="M32.93,79.74a.11.11,0,0,0,0-.15C32.86,79.63,32.84,79.71,32.93,79.74Z"/><polygon class="cls-1" points="32.76 79.58 32.68 79.65 32.74 79.66 32.76 79.58"/><path class="cls-1" d="M32.29,75.56,32,75.34c.17,0,0-.29.25-.21-.39-.13,0-.41-.57-.31.19.65-.14,1.54.36,2.29L31.78,77c.45.39-.5.54.4.85l-.46,0c-.13.18.66.34.17.53l.19,0s-.08.07-.08.12l.08,0c.18.13.16.21,0,.33s-.06-.06-.1-.1.17.16.16.26-.21,0-.27,0c.2.3-.28.44.4.65.13,0,.24-.08.29,0,.22-.2-.05-.36-.23-.54v0c-.66-.14.16-.11-.13-.34.27.07.27.17.41.21.51-.27-.39-.38.26-.56l0,0c.07,0-.06-.11-.12-.17s-.12.08-.19.12a1.48,1.48,0,0,0-.47-.11c.29-.07-.15-.09,0-.2s.25.09.39.13l-.18-.13c0-.12.29-.12.44-.18-.21-.1-.15.06-.44,0,.34-.13.24-.67,0-.94,0,.1.29,0,.25.15.06,0-.08-.18-.29-.18-.18-.18-.05-.41.14-.58l-.21,0c-.35-.14.26-.36,0-.61h0c0-.08-.55-.15-.45-.3C32.06,75.49,32,75.57,32.29,75.56Z"/><path class="cls-1" d="M31.81,74.69l.29.08c.06-.09-.31-.2-.5-.19.06.06-.06.14.1.15S31.85,74.73,31.81,74.69Z"/><path class="cls-1" d="M31.76,73a1,1,0,0,0-.25,0c0,.35.15.79-.08.93s.35.14.45.29l-.29.07c.18.08-.13.32.35.24,0,0-.23-.07-.15-.14H32l-.06-.16.21,0c.3-.22-.62-.15-.43-.42h.42c0-.18-.12-.27.13-.43,0,0-.21,0-.12,0a.53.53,0,0,1-.32,0c-.32-.27.25,0,.42-.15-.28-.23-.52-.66-.19-.79-.25.11-.52,0-.49-.18s.24,0,.37.06.15-.11.09-.17a.74.74,0,0,1-.69-.11C31,72.46,31.81,72.71,31.76,73Z"/><path class="cls-1" d="M31.41,72.92s.05,0,.1.06v-.13Z"/><polygon class="cls-1" points="66.53 37.16 66.59 36.64 66.33 36.48 66.53 37.16"/><path class="cls-1" d="M67.32,34.62c-.06-.3-.09-.6-.18-.9-.67.59-.51-.11-1,1.32.14.47.45,1.54.73,1.39A4.42,4.42,0,0,1,66.62,35c.22.21.22.78.52,1,.18-.87-.21-.53-.16-1.48Z"/><path class="cls-1" d="M66.49,33.63a.58.58,0,0,0,.37.11C66.73,33.67,66.5,33.26,66.49,33.63Z"/><path class="cls-1" d="M66.33,33.1c-.06-.56.27,0,.3-.09l-.57-.57Z"/><path class="cls-1" d="M66,30.78l-.11-.24C65.81,30.64,65.89,30.7,66,30.78Z"/><path class="cls-1" d="M65.63,29.68c-.1.26.06.52.23.86l0,0c.06-.35.47-.13.51.4s-.17.55.12,1l.17-.7A3.52,3.52,0,0,0,65.63,29.68Z"/><path class="cls-1" d="M66,30.78a2.47,2.47,0,0,1,.1.29A.31.31,0,0,0,66,30.78Z"/><polygon class="cls-1" points="66.14 31.95 66.26 32.23 66.39 32.13 66.14 31.95"/><path class="cls-1" d="M65.08,27.84c.53,0,.34,1.33.72,1.38-.2-.73,0-1.43.24-1.34l-.43-.77C65.34,26.9,65.14,27.36,65.08,27.84Z"/><path class="cls-1" d="M65.61,25.87a.44.44,0,0,1-.14-.16C65.52,25.8,65.57,25.86,65.61,25.87Z"/><path class="cls-1" d="M63,22.28a18,18,0,0,1,1.32,1.57c-.21-.11-.31,0-.55-.36.32.82.64.8.91,1.47-.3.37-.58-1.14-.75-.6a3.42,3.42,0,0,0,1,1.38v.87l.35-.42c0-.37-.58-.5-.35-.81s.31.12.43.33a16.62,16.62,0,0,0-.77-2.47C64.13,22.22,63.63,22.8,63,22.28Z"/><polygon class="cls-1" points="63.46 21.96 63.55 21.75 63.38 21.96 63.46 21.96"/><path class="cls-1" d="M61.8,20.42l.79.73a.66.66,0,0,1-.07.33c.07-.09.38.05.43,0,.11-.63-.77-1-1.14-1.44-.73-1.29.23-.08.21-.77a9.11,9.11,0,0,1,.47.91c-.1-1-1.2-1.69-1.63-2.09.07.16,0,.28.22.51l-.48-.39A4.45,4.45,0,0,0,61.8,20.42Z"/><path class="cls-1" d="M62.76,22c-.23-.31-.28-.44-.24-.51C62.47,21.63,62.47,21.78,62.76,22Z"/><path class="cls-1" d="M60.67,17.81c0,.07.09.15.19.24A.53.53,0,0,0,60.67,17.81Z"/><path class="cls-1" d="M60.62,18.59l-.4-.6,0,.35C60.31,18.41,60.55,18.67,60.62,18.59Z"/><path class="cls-1" d="M36.62,6.15c.07.17.33.28.9.27-.07.24-.8.12-1.14.29.74.12,0,.27.17.49.81,0,1.19-.23,2.06-.13a.21.21,0,0,0,.07.26,10.09,10.09,0,0,1,3.84.31,16.16,16.16,0,0,0,2.77.56,28.64,28.64,0,0,1,9.83,5.2l.72,0c0,.27.71.6.44.75a1.8,1.8,0,0,0-.5-.44c.37.84,1.66,1.43,2.28,2.22,0-.14.15-.54.41-.37-.42.29.8.88.57,1.48.56.83.36-.26,1,.56.3-.11-.57-.83-.53-1.12.4.08.57.77.77.53a11,11,0,0,0-1-1.11l-.67-.62-.79-.57-1.66-1.18c-.59-.35-1.18-.7-1.71-1l.38-.07q-.45-.24-1-.57c-.34-.21-.71-.41-1.05-.64a8.39,8.39,0,0,1-1.68-1.41c.11.34-1.7-1-1.78-.35a2.46,2.46,0,0,0-.75-.54L48.39,9c-.63-.24-.42-.47-1.16-.72.39.41-.16.29-.44.42-.37-.28-.77-.59-1.17-.85l-1.18-.69a.8.8,0,0,0,.31.39c-.49-.23-.47,0-.63.09-.5-.12-.37-.43-.3-.59-.91-.36-1.45.22-2.11-.09l.2.3A7.64,7.64,0,0,1,40.55,7a4,4,0,0,0-1.45-.21c-.49-.39.91-.3,1.37-.34a7.14,7.14,0,0,1-.81-.33c-.48.17-1.28.38-1.86.53C38.37,6.24,37,6.19,36.62,6.15Z"/><path class="cls-1" d="M39.66,6.11,40,6a2.25,2.25,0,0,1-.37,0A.09.09,0,0,0,39.66,6.11Z"/><path class="cls-1" d="M36.62,6.15l0,0C36.49,6.14,36.52,6.15,36.62,6.15Z"/><path class="cls-1" d="M42.65,7.69l-.13-.05-.17,0Z"/><path class="cls-1" d="M43.69,6.7a7.71,7.71,0,0,0,.75.48C44.38,7,44.33,6.93,43.69,6.7Z"/><path class="cls-1" d="M49.89,9.18c.2,0,.13-.08.3-.1C49.81,8.89,49.64,8.91,49.89,9.18Z"/><polygon class="cls-1" points="38.47 5.98 37.63 6.02 37.32 6.08 38.47 5.98"/><path class="cls-1" d="M22.77,10.71a9.61,9.61,0,0,0,2.43-1c1.43-.7-.08-.71,1.35-1.28l0,.71,1.15-.43,1.27-.37a10.82,10.82,0,0,0,2.23-1c.13.06.41.12,0,.27,1-.18.37-1,1.77-1-1.22.6.46.33.16.78L33,7.56l.66-.16.7-.12a7.83,7.83,0,0,1,1.16-.15c0-.17-.49-.4.28-.46-.32,0-.2-.21-.18-.38a9.82,9.82,0,0,0-1.7.38c-.47-.2.29-.09-.18-.28a5.65,5.65,0,0,0-.62.28c-.48,0,.46-.3-.28-.23a2.16,2.16,0,0,1-1.21.43l.15-.1c-.43.15-1.06.14-.78.46-.2-.09-.39-.19-.59-.27l.14.23c-1.18.2-1.79-.28-3.22.45.37-.06.09.19-.09.3.66-.06.72-.4,1.31-.6.15.22-.77.76,0,.72-.88-.11-1.45.48-2,0-1,.33-1.2.68-2.17,1l0-.1c0,.46-.82.19-1.3.89l.51-.15c0,.17-.18.28-.48.46,0-.07,0-.07-.13-.09,0,.3-1,.84-1,1,.41-.21.82-.66,1.29-1C23,10.37,23.21,10.55,22.77,10.71Z"/><path class="cls-1" d="M32,6.58l-.29.19A.64.64,0,0,0,32,6.58Z"/><path class="cls-1" d="M18.77,12.61c-.54.32,0-.31-.56-.06-.39.54.83-.1.52.52-.42.08-.72.7-.92.85.12-.3-.26-.51-.4-.51-.14.22-.65.46-1,.72.91-.5-.54.69.32.27.1.23-.48,1-.88,1.11-.1-.14.16-.33.34-.5-.06-.38-.59.3-.9.19-.41,1-2.44,3.26-1.32,3.06.32-.15.37-.46.58-.74-.76.63-.29-.24-.32-.39.37-.24.69-.93.77-.63l-.26.67a47.07,47.07,0,0,1,5.66-4.85,5.82,5.82,0,0,0-.88.58c0-.22.37-.56.66-.82a5.9,5.9,0,0,0-.7-.1c.27-.16.5-.36.57-.21.21-.36,0-.38-.28-.39.65-.5.86-.41,1.25-1a2,2,0,0,0-1.12.65,3.45,3.45,0,0,1-1.19.81Z"/><polygon class="cls-1" points="21.1 10.77 20.94 11.14 21.3 10.78 21.1 10.77"/><path class="cls-1" d="M21.19,11.92c-.06-.08.08-.22,0-.3C20.64,11.88,20.78,12,21.19,11.92Z"/><path class="cls-1" d="M14.71,15.77l-.49.66.43-.33C14.56,16,14.66,15.86,14.71,15.77Z"/><path class="cls-1" d="M12.13,20.89a8.22,8.22,0,0,1,1.63-2.26c.13-.68-.62-.13-.68-.52-.43.46,0,.72-.27,1.29-.35,0-.53.78-.92,1.25A.22.22,0,0,1,12.13,20.89Z"/><path class="cls-1" d="M9.38,23.69c-.23.46-.26,1-.56,1.33-.12-.12-.05-.42.13-.68-.43,0-.2.53-.66.94.05,0,.2-.19.21,0-.57,1.28,0,.85-.8,2.46,0,.27-.08.51.18.55a9.18,9.18,0,0,0-1,1.51c.15,0,.58-.31.88-.23a4.2,4.2,0,0,0-.58,1.56,2.76,2.76,0,0,1-.27,1.16,1.29,1.29,0,0,1,0-.57c-.46.07-.06.93-.24,1.51l-.36-.1c0,.28,0,.67,0,1.08a2.71,2.71,0,0,1-.17,1.18L6,35.19c.12.74.07,1.53.12,2.29s.1,1.49.2,2.11l-.2.68c.27.84.23.41.24-.07s.12-1,.43-.43c-.7.25.3.84.18,1.81-.21.49-.29-.94-.53-.4.39.16.18.49.36,1-.34-.06.12,1.07-.3.82.29.57.69,1.1,1,1.63a2,2,0,0,0,.19,1.19c-.23-.94.54.11.43-1A13.36,13.36,0,0,1,7.33,42c-.09-.54-.18-1.09-.25-1.63a11.85,11.85,0,0,1,0-1.57c-.47-.19-.06-1.25-.45-1.55.14,0,.27-.2.42-.24,0-1.26-.27.29-.42,0,0-.56.27-1,.43-.94.07-.9-.12-.1-.34-.58L7.23,35a14.65,14.65,0,0,1,.12-2.25,14.88,14.88,0,0,1,.33-2.44,17.57,17.57,0,0,1,.64-2.47c.3-.79.6-1.57,1-2.29l-.38.1a6.9,6.9,0,0,0,.65-1.84,2.24,2.24,0,0,1,1-1.53v-.51c0,.28.54,0,.52.46.11-.4.43-.69.56-1.09l-.5.54a1,1,0,0,1,.75-1c.18-.54,0-.48-.32-.28a4.47,4.47,0,0,1-.82.61c-.3,1.63-1.36,1-1.79,2.54C8.71,24.45,9.26,23.56,9.38,23.69Z"/><path class="cls-1" d="M11,22.42a.74.74,0,0,0,0-.23A.85.85,0,0,0,11,22.42Z"/><path class="cls-1" d="M7.69,45.81a3.34,3.34,0,0,0,.14.41C8,46.33,7.81,46.13,7.69,45.81Z"/><path class="cls-1" d="M11.89,20.65h0Z"/><polygon class="cls-1" points="11.68 19.61 11.43 19.94 11.59 19.96 11.68 19.61"/><path class="cls-1" d="M8.89,50,9.05,50A.12.12,0,0,0,8.89,50Z"/><path class="cls-1" d="M15.81,59.68l-.19-.18A.54.54,0,0,0,15.81,59.68Z"/><path class="cls-1" d="M42.36,67a7.1,7.1,0,0,0,2.18-1v.18c.38-.18,1.56-.78.66-.84l-.15.19c-.86.47-.75-.09-1.49,0a3.67,3.67,0,0,0-1,.63,1.79,1.79,0,0,1-1,.35c-.35.07-.32-.1-.24-.24-.79.07-1,.6-1.58.74-.18-.62-.77-.5-1.5-.32s-1.59.45-2.17,0c-.75,0-1.74-.07-2.72.07.54-.23-.89-.16-.63-.48-.18.34-.85.16-1.51,0s-1.27-.4-1.47,0c-1.2-.57-.07,0-1.47-.54,0-.1.28,0,.38,0-.53-.32-1,.15-1.34-.43-1.1-.47-.27.17-1,.15-1.15-.54-.78-.51-1.27-1.13-.27.35-.86-.16-1.51-.23.12.09.86.54.28.45-1.29-.73-1.22-.2-2.47-.84-.36-.78,1.19.71.34-.26a4.56,4.56,0,0,0,2,.44c-1.06-.48-2.27-1.18-3.47-1.67-.56-.42.44,0,0-.32-.89-.9-1.84-.75-2.52-1.52l.32-.07c-.7-.12-1.61-1.52-2.57-2.18,0,.19,0,.33-.15.27.47-.42-1.34-1-1.79-2.14-.24.33-1.1-.45-1.57-1-.07-.26.1-.32.19-.38.51,1.08,1,.66,1.71,1.26-.62-.47-1.19-1.61-1.83-2l.41,0c-.59-.86-1.09-.39-1.43-1.48l.25,0a13.52,13.52,0,0,1-.84-1.5c-.23-.53-.47-1.07-.69-1.6l-.36-.77L9,48a7.31,7.31,0,0,0-.72-1.3c-.24-.09-.34.91-.46,1a8,8,0,0,0,.78,1.16c.26.32.55.59.79.92L9.05,50c.3.07.86.88.79.31.45.51-.06.59.45,1.18-.35.13-.59-.27-.87-.13.16.17.29.35.47.51-.24-.11.1.41-.13.31,1.05.83.72,1.62,1.65,2.58a5,5,0,0,1-.36-.64c.17-.1.38.26.62.46,0,.46.13.6.43,1.22a6.11,6.11,0,0,1,1.45,1c-.42.13.69,1.09.55,1.42.39-.14,1.12,1,1.38.9.36.22.75.63.61.78a1.82,1.82,0,0,1-.28-.16l.3.29c-.06,0-.07.05-.11,0,.27.26.46,0,.68.51-.07.08-.26-.1-.44-.21.67.75,1.7.65,2.13,1.42.24-.05,1.15.61,1.19.12.16.3-.13.53.61.9.59,0,.72.59,1.37.72-.9-.11-.05.09-.86,0,.42.41,1.35.49,2.21.94.05.11,0,.21.06.33.39,0,.88,0,1.08.38l.07-.24c.53.44,1.44.65,2,1.16l.94-.16a2.63,2.63,0,0,0,1.71.67,5.85,5.85,0,0,0,1.73-.12c.39.11,1,.27.95.38s-.27.07-.47.1c.59.11,1.28.49,1.67.15.62,0,.41.34.86.47,1.28-.49,3.69.62,4.07-.33a8.29,8.29,0,0,1-1,0A9.85,9.85,0,0,0,35.15,67c.26-.09.07-.27.42-.27a7.53,7.53,0,0,1,1.2.15,3.57,3.57,0,0,0,1.21,0l-.1.55a3.76,3.76,0,0,0,2.38-.24A2.82,2.82,0,0,1,42.36,67Z"/><path class="cls-1" d="M30,66.75c.21.15.42.31.63.44l0-.24A1.05,1.05,0,0,1,30,66.75Z"/><path class="cls-1" d="M30.55,67a2.82,2.82,0,0,0,.43,0,1,1,0,0,0-.43,0Z"/><path class="cls-1" d="M45.08,66.22a1.71,1.71,0,0,0,.74-.2A1.69,1.69,0,0,0,45.08,66.22Z"/><path class="cls-1" d="M45.82,65.84c-.12,0-.24,0-.36,0l0,.07A2.79,2.79,0,0,0,45.82,65.84Z"/><path class="cls-1" d="M61.45,53.36l.3-1.12c.24-.08.72-1.25.76-.76,0-.76.91-1.88.18-1.65-.16.37-.32.75-.5,1.15l-.68,1.16-.73,1.2q-.42.58-.87,1.17L59,55.7l-1,1.13c-.33.37-.61.77-.94,1.13s-.65.71-1,1.07l.29-.57c-1.12,1.68-2.31,1.31-3,3l-.1-.5c-.75.44-1.07,1.46-2.1,1.56l.17.11c-.21.13-.34.1-.55.23l.13,0a2.7,2.7,0,0,1-1.5.8c-.1-.11.25-.18.41-.31-.33,0-.65.5-1.1.71-.41.06-.08-.19-.06-.27a5.38,5.38,0,0,1-1.63.7,2.41,2.41,0,0,0-1.24.86c-.06.16.45.09-.06.33a6,6,0,0,0,2.48-1.17l-.24.1c.4-.89.56-.1,1.49-.85-.16.37-.62.59-.74.81,1.43-.15,1.58-1.14,2.65-1l-.08.07c.21,0,.46-.34.69-.55a2.73,2.73,0,0,0-.62.15,1.08,1.08,0,0,0,.25-.71c.44.07.31-.35.85-.51.31.13-.26.44-.36.67l.47-.49c.5-.34.68,0,1-.12.29-.47-.32.06-.16-.43a5.88,5.88,0,0,0,1.82-1.09,11.59,11.59,0,0,0,1.81-1.9c-.31.33.08.31-.36.65.19-.09.62-.67.48-.82a8.89,8.89,0,0,1,2.09-2l-.33,0c.24-.71,1.31-1.24,1.92-2.36l0,0c.22-.35,0-.92.43-1.49C61.45,52.93,61.22,53.26,61.45,53.36Z"/><path class="cls-1" d="M63.14,49.29l.09.48c.25-.37.15-1-.06-1-.07.29-.36.59-.23.7S63.09,49.48,63.14,49.29Z"/><path class="cls-1" d="M65.42,41.38c0-.17-.16-.14-.23-.22a14.08,14.08,0,0,1-1,4.43c-.26.53.1.76,0,1.49l-.39.22c0,.44-.69,1.46-.09,1.24.06,0-.09-.41.11-.7l.13.11.22-.77.11.31c.64-.93-.29-.9.27-2.1l.4.13a6.19,6.19,0,0,1,.66-2s-.2,0-.16.11-.27.29-.37.16c0-1.36.2.26.6-.62a11.86,11.86,0,0,1,.31-4c-.28.52-.5-.3-.45-.92.16-.29.24.21.36.31a2.16,2.16,0,0,0,.13-.83c-.25.38-.55.12-.66-.56a5.05,5.05,0,0,0,0,2.09A5.24,5.24,0,0,1,65.42,41.38Z"/><path class="cls-1" d="M65.14,40.89a.4.4,0,0,0,0,.27l.09-.6Z"/><polygon class="cls-1" points="71.53 36.66 71.58 36.04 71.32 35.85 71.53 36.66"/><path class="cls-1" d="M72.3,33.67a10.05,10.05,0,0,0-.2-1.07c-.66.69-.5-.14-.94,1.55.14.56.46,1.82.74,1.65a6.41,6.41,0,0,1-.3-1.64c.22.25.23.92.53,1.22.17-1-.22-.63-.17-1.74Z"/><path class="cls-1" d="M71.44,32.48c.15.09.29.17.39.14C71.69,32.54,71.45,32.05,71.44,32.48Z"/><path class="cls-1" d="M71.27,31.86c-.07-.67.27,0,.3-.1L71,31.08Z"/><path class="cls-1" d="M70.84,29.11l-.12-.29C70.68,28.94,70.76,29,70.84,29.11Z"/><path class="cls-1" d="M70.45,27.81c-.09.3.09.61.27,1l0,0c0-.41.46-.13.53.49s-.15.63.15,1.15l.16-.82A4.56,4.56,0,0,0,70.45,27.81Z"/><path class="cls-1" d="M70.84,29.11a3.59,3.59,0,0,1,.12.35A.46.46,0,0,0,70.84,29.11Z"/><polygon class="cls-1" points="71.06 30.49 71.18 30.82 71.31 30.72 71.06 30.49"/><path class="cls-1" d="M69.81,25.63c.54,0,.41,1.57.8,1.65-.24-.87-.12-1.67.17-1.56l-.48-.91C70,24.55,69.84,25.07,69.81,25.63Z"/><path class="cls-1" d="M70.23,23.38a.7.7,0,0,1-.15-.19A.54.54,0,0,0,70.23,23.38Z"/><path class="cls-1" d="M67.33,19.09A21.21,21.21,0,0,1,68.82,21c-.23-.14-.32,0-.6-.45.39,1,.72,1,1,1.75-.28.41-.69-1.35-.82-.74a4.85,4.85,0,0,0,1.17,1.66l.06,1,.33-.47c0-.43-.62-.61-.4-1,.15-.19.32.16.46.41a18.94,18.94,0,0,0-1-2.88C68.47,19.1,68,19.72,67.33,19.09Z"/><polygon class="cls-1" points="67.74 18.75 67.82 18.52 67.66 18.74 67.74 18.75"/><path class="cls-1" d="M65.88,16.88l.88.88a.66.66,0,0,1,0,.37c.07-.1.4.09.45,0,.06-.71-.89-1.23-1.32-1.73-.88-1.5.24-.06.16-.84a8.71,8.71,0,0,1,.57,1.06c-.18-1.18-1.41-2-1.9-2.47.09.19,0,.31.27.59l-.54-.49A6.23,6.23,0,0,0,65.88,16.88Z"/><path class="cls-1" d="M67,18.73c-.26-.37-.32-.53-.29-.59C66.68,18.3,66.69,18.47,67,18.73Z"/><path class="cls-1" d="M64.45,13.86a.83.83,0,0,0,.23.29A1,1,0,0,0,64.45,13.86Z"/><path class="cls-1" d="M64.47,14.73,64,14l0,.39C64.12,14.5,64.4,14.81,64.47,14.73Z"/><path class="cls-1" d="M36.11.15c.08.17.4.28,1.07.28-.09.24-1,.11-1.35.28.87.12,0,.27.21.49,1,.05,1.4-.22,2.43-.11,0,.06,0,.17.09.26l1.07-.07c.39,0,.81.05,1.23.08a11.36,11.36,0,0,1,2.24.39,26.3,26.3,0,0,0,3.26.69A34.08,34.08,0,0,1,58,8.56l.8,0c.05.29.83.71.55.84a2.56,2.56,0,0,0-.6-.51c.49.93,2,1.7,2.72,2.61,0-.16.11-.58.4-.37-.42.28,1,1,.76,1.68.68,1,.36-.26,1.12.7.32-.09-.68-1-.67-1.28.44.13.68.9.88.66a14.93,14.93,0,0,0-1.21-1.32L62,10.88l-.91-.7L59.13,8.76c-.7-.42-1.37-.84-2-1.25l.42,0c-.34-.19-.73-.43-1.12-.69s-.84-.49-1.24-.76a11.92,11.92,0,0,1-2-1.6c.15.36-2-1.13-2.06-.49a3.67,3.67,0,0,0-.9-.61L50,3.44c-.74-.28-.51-.5-1.38-.8.47.45-.18.29-.5.4-.44-.3-.91-.65-1.4-.93l-1.41-.74a1,1,0,0,0,.39.4c-.59-.25-.55,0-.74.06-.58-.14-.45-.45-.38-.6-1.07-.41-1.69.16-2.47-.17l.24.3A10.43,10.43,0,0,1,40.75,1,5.13,5.13,0,0,0,39,.8C38.46.41,40.11.51,40.65.49c-.25-.11-.79-.24-1-.35-.56.16-1.5.36-2.18.51C38.18.26,36.55.19,36.11.15Z"/><path class="cls-1" d="M39.69.14,40.08,0a2.15,2.15,0,0,1-.43,0A.1.1,0,0,0,39.69.14Z"/><path class="cls-1" d="M36.11.15l0,0C36,.14,36,.15,36.11.15Z"/><path class="cls-1" d="M43.25,1.8l-.15-.05-.2,0Z"/><path class="cls-1" d="M44.43.84a8.71,8.71,0,0,0,.89.53C45.24,1.22,45.18,1.11,44.43.84Z"/><path class="cls-1" d="M51.74,3.71c.23.06.14-.07.33-.08C51.63,3.41,51.44,3.41,51.74,3.71Z"/><polygon class="cls-1" points="38.29 0 37.3 0.03 36.95 0.09 38.29 0"/><path class="cls-1" d="M19.72,5.34a13.43,13.43,0,0,0,2.86-1.16c1.7-.8,0-.72,1.65-1.38l-.08.72L25.51,3c.49-.15,1-.27,1.51-.43a15.33,15.33,0,0,0,2.66-1.06c.14.06.48.11,0,.27,1.18-.2.47-1,2.11-1-1.45.63.53.31.17.77l-.22.08.78-.17.83-.13a13.67,13.67,0,0,1,1.38-.16c0-.17-.58-.39.33-.46-.37,0-.23-.21-.21-.38a14.61,14.61,0,0,0-2,.39c-.55-.19.35-.09-.2-.28a5.74,5.74,0,0,0-.74.3c-.56,0,.55-.31-.32-.22A3,3,0,0,1,30.17,1l.18-.11c-.5.17-1.25.17-.93.49-.23-.08-.46-.18-.68-.25l.16.22c-1.39.26-2.08-.2-3.79.6.44-.09.1.18-.11.31.77-.1.86-.44,1.55-.67.17.21-.94.8-.05.73-1-.08-1.71.56-2.3.11-1.11.39-1.44.76-2.57,1.12V3.4c0,.47-.95.25-1.56,1l.6-.18c.05.16-.22.3-.58.5,0-.08,0-.08-.15-.09,0,.31-1.14.94-1.22,1.13.48-.26,1-.75,1.54-1.1C20,5,20.23,5.14,19.72,5.34Z"/><path class="cls-1" d="M30.7.64l-.35.2A.66.66,0,0,0,30.7.64Z"/><path class="cls-1" d="M15,7.67c-.64.39,0-.33-.63,0-.48.62.94-.18.54.51-.47.13-.87.81-1.1,1,.15-.33-.24-.53-.4-.51a10.42,10.42,0,0,1-1.14.86c1-.62-.64.79.33.26.09.24-.61,1.11-1.07,1.28-.09-.14.21-.37.42-.57,0-.4-.67.38-1,.29-.54,1.1-2.93,3.79-1.71,3.48.36-.2.44-.55.7-.87-.89.76-.29-.24-.32-.41.43-.29.84-1.08.89-.76l-.33.77a51,51,0,0,1,6.7-5.76,8.22,8.22,0,0,0-1,.7c0-.24.46-.63.82-.93a7,7,0,0,0-.79-.05c.32-.19.6-.41.66-.26.28-.4,0-.4-.28-.39.78-.57,1-.5,1.49-1.15a2.67,2.67,0,0,0-1.31.77,5.13,5.13,0,0,1-1.4.95Z"/><polygon class="cls-1" points="17.81 5.54 17.6 5.94 18.04 5.53 17.81 5.54"/><path class="cls-1" d="M17.82,6.73c-.07-.07.11-.23,0-.31C17.2,6.74,17.35,6.81,17.82,6.73Z"/><path class="cls-1" d="M10.28,11.44l-.59.76.49-.4C10.09,11.74,10.22,11.54,10.28,11.44Z"/><path class="cls-1" d="M7.05,17.35A11.41,11.41,0,0,1,9,14.67c.19-.77-.65-.09-.68-.51-.5.55,0,.8-.41,1.46-.38.08-.63.92-1.08,1.48C7,17.08,7.06,17.15,7.05,17.35Z"/><path class="cls-1" d="M4,20.76a7.54,7.54,0,0,1-.67,1.56c-.12-.13,0-.48.18-.79-.44,0-.25.62-.74,1.13,0,0,.21-.24.21,0-.65,1.51,0,1-1,2.89,0,.32-.11.61.15.63A13.25,13.25,0,0,0,1,28c.16,0,.6-.39.9-.3a6.1,6.1,0,0,0-.65,1.84A3.59,3.59,0,0,1,1,30.88,2.2,2.2,0,0,1,1,30.21C.57,30.3,1,31.3.75,32l-.36-.11c0,.33,0,.79,0,1.27a3.77,3.77,0,0,1-.18,1.4L0,34.34c.12.87.05,1.8.1,2.7s.11,1.76.22,2.49l-.19.8c.29,1,.24.48.24-.08s.11-1.21.42-.51c-.7.29.31,1,.22,2.15-.19.57-.31-1.12-.53-.49.39.2.19.59.38,1.18-.35-.08.15,1.26-.28,1,.3.67.74,1.31,1.1,2a2.73,2.73,0,0,0,.25,1.39c-.29-1.11.55.16.38-1.11a16.81,16.81,0,0,1-.9-3.33c-.11-.64-.21-1.29-.3-1.93a14.45,14.45,0,0,1,0-1.85C.6,38.43,1,37.17.61,36.81c.14-.06.27-.23.42-.29,0-1.48-.27.35-.42,0,0-.66.28-1.18.44-1.11.08-1.07-.12-.13-.34-.69l.54-.66a17.9,17.9,0,0,1,.17-2.67,18.61,18.61,0,0,1,.41-2.89,24.44,24.44,0,0,1,.77-2.91c.35-.94.71-1.87,1.12-2.72l-.4.14a9.73,9.73,0,0,0,.8-2.16A3,3,0,0,1,5.28,19l0-.59c0,.32.56,0,.51.48.15-.45.51-.82.68-1.28l-.58.66a1.42,1.42,0,0,1,.88-1.19c.23-.62,0-.54-.32-.29a6,6,0,0,1-.91.76c-.44,1.87-1.51,1.28-2.06,3C3.2,21.68,3.83,20.62,4,20.76Z"/><path class="cls-1" d="M5.77,19.18a2.32,2.32,0,0,0,.06-.27A1.18,1.18,0,0,0,5.77,19.18Z"/><path class="cls-1" d="M1.93,46.88a2.34,2.34,0,0,0,.15.49C2.22,47.51,2.06,47.27,1.93,46.88Z"/><path class="cls-1" d="M6.82,17.1h0Z"/><polygon class="cls-1" points="6.69 15.95 6.39 16.34 6.55 16.35 6.69 15.95"/><path class="cls-1" d="M3.41,51.84l.15-.06C3.49,51.76,3.44,51.77,3.41,51.84Z"/><path class="cls-1" d="M11.58,63.22,11.36,63A.88.88,0,0,0,11.58,63.22Z"/><path class="cls-1" d="M42.9,71.87a9.74,9.74,0,0,0,2.6-1.1l0,.18c.46-.19,1.87-.86.82-.88l-.19.2c-1,.52-.87-.06-1.74.06a4.93,4.93,0,0,0-1.23.68,2.47,2.47,0,0,1-1.22.38c-.41.08-.37-.1-.27-.24-.94.1-1.24.63-1.89.79-.2-.61-.9-.49-1.77-.31s-1.88.48-2.58,0c-.89,0-2.06-.08-3.21,0,.63-.22-1.06-.18-.76-.5-.21.34-1,.14-1.78,0s-1.52-.45-1.73,0c-1.44-.64-.08,0-1.75-.61,0-.1.32,0,.44,0-.63-.34-1.17.11-1.58-.5-1.32-.56-.31.15-1.19.09-1.37-.62-.94-.57-1.54-1.24-.29.35-1-.23-1.76-.34.15.09,1,.62.36.48a4.4,4.4,0,0,0-1.47-.56,3.77,3.77,0,0,1-1.42-.5c-.47-.85,1.41.84.37-.24a5.86,5.86,0,0,0,2.34.61c-1.25-.56-2.68-1.41-4.08-2-.68-.49.49,0,0-.35-1.07-1-2.12-1-3-1.84l.36,0c-.79-.2-1.92-1.79-3-2.6,0,.21,0,.36-.13.28.46-.41-1.55-1.2-2.13-2.52-.24.34-1.22-.59-1.77-1.26a.29.29,0,0,1,.17-.41c.64,1.25,1.14.83,1.94,1.56-.71-.58-1.42-1.91-2.13-2.37l.44.07c-.71-1-1.18-.53-1.64-1.8H6c-.33-.57-.71-1.15-1-1.77s-.55-1.28-.83-1.9l-.42-.91c-.13-.3-.25-.6-.37-.89A9.92,9.92,0,0,0,2.55,48c-.25-.11-.29,1-.41,1.15A12.11,12.11,0,0,0,3,50.53c.3.38.61.71.89,1.11l-.33.14c.32.1.95,1.08.85.42.5.61,0,.67.55,1.39-.36.12-.63-.36-.92-.22.18.2.33.43.53.62-.26-.14.14.47-.12.34,1.18,1,.89,1.89,2,3-.15-.24-.31-.48-.44-.74.17-.1.42.32.7.57,0,.5.19.67.56,1.38a9.34,9.34,0,0,1,1.63,1.21c-.43.11.86,1.26.73,1.62.41-.12,1.3,1.21,1.58,1.1.42.27.88.75.74.91l-.32-.2.35.34c-.06,0-.07,0-.12,0,.32.31.51.09.8.62-.07.07-.3-.13-.51-.27.81.87,1.94.85,2.49,1.71.26,0,1.34.75,1.34.23.21.33-.1.55.77,1,.66,0,.86.68,1.6.86-1-.19-.05.09-1,0a17,17,0,0,0,2.59,1.14c.06.13,0,.22.08.35.45.08,1,0,1.27.47l.06-.25c.64.5,1.71.77,2.41,1.33l1.08-.12a3.52,3.52,0,0,0,2,.77,8.27,8.27,0,0,0,2,0c.46.12,1.16.29,1.13.4l-.54.09c.69.13,1.52.53,2,.19.73,0,.49.36,1,.5,1.5-.47,4.36.66,4.8-.31a11.2,11.2,0,0,1-1.24,0A16,16,0,0,0,34.38,72c.3-.08.08-.26.49-.26a12.43,12.43,0,0,1,1.43.16,4.94,4.94,0,0,0,1.42,0l-.11.55a4.24,4.24,0,0,0,1.46,0,5,5,0,0,0,1.34-.32A4,4,0,0,1,42.9,71.87Z"/><path class="cls-1" d="M28.24,71.61a8.65,8.65,0,0,0,.76.47L29,71.84A1.42,1.42,0,0,1,28.24,71.61Z"/><path class="cls-1" d="M29,71.84a4.06,4.06,0,0,0,.51,0,1.86,1.86,0,0,0-.52,0Z"/><path class="cls-1" d="M46.11,71a2.33,2.33,0,0,0,.88-.24A2.59,2.59,0,0,0,46.11,71Z"/><path class="cls-1" d="M47,70.58a3,3,0,0,1-.43,0l0,.07A2.7,2.7,0,0,0,47,70.58Z"/><path class="cls-1" d="M65.56,55.86l.4-1.29c.26-.11.86-1.48.86-.93.05-.86,1.08-2.23.31-1.9l-.6,1.36-.81,1.37-.87,1.44c-.33.46-.69.92-1,1.39l-1,1.41L61.61,60c-.38.44-.73.92-1.12,1.34s-.78.83-1.15,1.25l.38-.65c-1.39,1.93-2.69,1.63-3.64,3.46L56,64.92a8.07,8.07,0,0,0-1.15,1,2.42,2.42,0,0,1-1.37.78l.19.1c-.25.15-.39.14-.64.29h.14a3.56,3.56,0,0,1-1.77.94c-.12-.1.29-.21.48-.34-.38,0-.78.55-1.32.81-.47.09-.07-.19,0-.28a7.15,7.15,0,0,1-1.94.83,3.26,3.26,0,0,0-1.5,1c-.07.17.52.06-.08.35A8.26,8.26,0,0,0,50,69.05a2.36,2.36,0,0,1-.28.12c.52-1,.65-.14,1.78-1-.21.4-.75.66-.91.9,1.65-.27,1.9-1.29,3.12-1.27l-.1.08a3.29,3.29,0,0,0,.82-.64,3.59,3.59,0,0,0-.71.2,1.28,1.28,0,0,0,.34-.76c.49,0,.38-.4,1-.61.34.11-.33.49-.46.74l.56-.56c.6-.39.78-.1,1.14-.2.37-.53-.36.09-.14-.44a8.37,8.37,0,0,0,2.14-1.33,14.84,14.84,0,0,0,2.17-2.22c-.38.39.06.34-.46.75.22-.12.74-.79.6-.94A13.73,13.73,0,0,1,63,59.46l-.36.08c.34-.81,1.52-1.51,2.27-2.81l0,0c.26-.4,0-1,.58-1.71C65.59,55.38,65.32,55.77,65.56,55.86Z"/><path class="cls-1" d="M67.64,51.08l0,.55c.29-.45.24-1.19,0-1.17-.1.34-.42.71-.29.83S67.57,51.31,67.64,51.08Z"/><path class="cls-1" d="M70.36,41.68c0-.2-.16-.17-.22-.26a18.65,18.65,0,0,1-1.21,5.28c-.29.64.06.88-.15,1.75l-.41.27c0,.52-.79,1.75-.16,1.46.06,0-.07-.48.15-.83l.13.12.27-.9.09.35c.71-1.12-.23-1,.4-2.47l.4.13a9.23,9.23,0,0,1,.76-2.43s-.2,0-.16.14-.29.35-.38.21c.08-1.61.18.29.62-.76A18.16,18.16,0,0,1,70.9,39c-.28.62-.5-.34-.44-1.09.17-.34.24.25.35.38a2.85,2.85,0,0,0,.14-1c-.25.46-.55.15-.65-.66a7.16,7.16,0,0,0,0,2.49c0,.41.14.82.14,1.24A8.43,8.43,0,0,1,70.36,41.68Z"/><path class="cls-1" d="M70.09,41.1c0,.19,0,.27,0,.32l.09-.71Z"/><path class="cls-1" d="M14.76,38.16a.63.63,0,0,1-.16.24,1.8,1.8,0,0,1,.19.2A1.09,1.09,0,0,0,14.76,38.16Z"/><path class="cls-1" d="M13.6,38.22a1.35,1.35,0,0,1-.25.18c.17.34.19.47.24.57s.13.17.6.26a1.13,1.13,0,0,0,.27-.51.33.33,0,0,0-.18-.4c0,.09,0,.47-.27.5,0-.22.19-.34,0-.57-.29-.06,0,.23-.33.28Z"/><path class="cls-1" d="M13.4,39a1.52,1.52,0,0,0,0-.37C13.39,38.79,13.22,39,13.4,39Z"/><path class="cls-1" d="M13.15,39.14c-.26,0,0-.27-.05-.31-.08.17-.17.33-.26.49A1.92,1.92,0,0,0,13.15,39.14Z"/><path class="cls-1" d="M12.05,39.1l-.13,0C12,39.21,12,39.15,12.05,39.1Z"/><path class="cls-1" d="M11.51,39c0,.19.23.14.41.09v0c-.12-.17.07-.46.28-.36s.2.28.41.07l-.26-.29C12,38.53,11.73,39,11.51,39Z"/><path class="cls-1" d="M12.05,39.1h.15C12.14,39,12.1,39.06,12.05,39.1Z"/><polygon class="cls-1" points="12.6 39.17 12.74 39.1 12.71 38.96 12.6 39.17"/><path class="cls-1" d="M10.72,38.55c.23-.1.3,0,.4.12s.23.2.35,0c-.32-.11-.16-.51.1-.63a.47.47,0,0,1-.22-.07A.75.75,0,0,0,10.72,38.55Z"/><path class="cls-1" d="M11.78,37.73l-.08,0Z"/><path class="cls-1" d="M11.11,35.8l.41,1c-.15-.1-.3-.08-.33-.29-.09.4.2.47.13.8-.44.08,0-.59-.39-.42a.79.79,0,0,0,.35.8,4.2,4.2,0,0,0-.32.29,3.32,3.32,0,0,1,.49-.14c.07,0,0-.07-.09-.12s-.1-.14.06-.17.24.13.28.2c-.08-.21.41-.62.38-1.09S11.31,36.16,11.11,35.8Z"/><polygon class="cls-1" points="11.63 35.81 11.82 35.76 11.57 35.78 11.63 35.81"/><path class="cls-1" d="M11.13,34.75l.24.51a.67.67,0,0,1-.24.09c.11,0,.28.14.37.13.45-.18-.06-.59-.11-.86.28-.64.23.06.66-.15,0,.19-.14.18-.2.44.53-.35.15-.91.07-1.19-.05.07-.19.07-.17.22l-.1-.29C11.28,33.88,11.16,34.11,11.13,34.75Z"/><path class="cls-1" d="M11,35.6c0-.18,0-.24.09-.25C11,35.39,10.91,35.44,11,35.6Z"/><path class="cls-1" d="M11.92,33.58s0,.07,0,.14A.13.13,0,0,0,11.92,33.58Z"/><path class="cls-1" d="M11.39,33.77l.08-.32-.21.1C11.27,33.6,11.29,33.76,11.39,33.77Z"/><path class="cls-1" d="M16.26,22.26c-.16-.08-.3,0-.41.2-.18-.15.05-.4,0-.6-.31.19-.22-.16-.45-.21-.24.3-.09.6-.35.92a.27.27,0,0,0-.23-.09,3.82,3.82,0,0,1-.75,1.66,3,3,0,0,0-.48,1.23,41.45,41.45,0,0,0-1.77,4.9l.37.35c-.24,0-.1.41-.37.3.08-.09.05-.19.08-.3-.5.28-.19,1-.42,1.42.09,0,.49,0,.54.12-.49-.13-.09.53-.69.56-.23.43.43.09.26.55.29.09.23-.43.47-.48.21.19-.18.41.13.44.29-.71-.09-2.21.07-3.39l.24.19a2,2,0,0,1,.81-1.86c-.28,0,.41-.77-.18-.9.18-.09.18-.14.31-.32l-.16-.12c.12-.28.37-.13.49-.45-.33.11-.3-.15-.46-.33.42-.27.83-.59,1.21-.8a.67.67,0,0,0-.35,0c.19-.18,0-.25-.1-.34.1-.22.38-.05.53,0,.28-.33-.2-.79.13-1l-.28,0c.14-.43.6-.59.77-1.06.43,0,.07.51.1.76.12-.05.24-.21.38-.21a7.56,7.56,0,0,1-.12-1C15.83,22.89,16.14,22.37,16.26,22.26Z"/><path class="cls-1" d="M15.72,23.47a.64.64,0,0,0,0,.19.19.19,0,0,1,.06-.15A.19.19,0,0,0,15.72,23.47Z"/><path class="cls-1" d="M16.26,22.26h0C16.31,22.22,16.29,22.23,16.26,22.26Z"/><path class="cls-1" d="M14,24.18l.05,0,0-.07Z"/><path class="cls-1" d="M15,25.05a2.62,2.62,0,0,0-.42.2C14.66,25.27,14.76,25.28,15,25.05Z"/><path class="cls-1" d="M13.53,27.6c0,.11.11.08.17.17C13.77,27.6,13.71,27.51,13.53,27.6Z"/><path class="cls-1" d="M16,23.06c0-.11.07-.23.12-.35v-.14C16.12,22.73,16.08,22.9,16,23.06Z"/><path class="cls-1" d="M20,16.61c-.45,0-.73.42-1.07.66-.45.64.39.58-.1,1.09l-.36-.56c-.51.5-1.3,1.19-1.27,2-.09,0-.25,0-.2-.18-.29.39.55.79,0,1.13.05-.7-.43-.09-.64-.46l0-.11c-.24.34-.38.9-.54,1.11.13.1.47.07.28.37.11-.1.23.06.37.16.05-.4.24-.49.21-.8.3,0,0,.15.27.13l0-.35c.17-.13,0,.31.28.08-.08-.1,0-.4.16-.58l0,.1c0-.2.31-.35,0-.51l.43.06-.21-.14c.45-.33,1-.07,1.26-.78-.17.07-.16-.14-.13-.23-.32.08-.11.39-.28.61-.2-.14-.09-.7-.43-.55.46-.07.47-.54,1-.2.35-.27.27-.6.7-.8l.05.08c-.21-.37.4-.09.39-.63l-.24.08c-.1-.13,0-.21.09-.34,0,.07,0,.07.12.1-.15-.27.23-.63.23-.74-.2.1-.26.46-.41.68C20,16.88,19.77,16.71,20,16.61Z"/><path class="cls-1" d="M17.44,20.61l0-.2A.24.24,0,0,0,17.44,20.61Z"/><path class="cls-1" d="M21.94,15.82c.28-.09.08.25.37.23.14-.33-.51-.18-.44-.59.25.06.33-.36.43-.43a.81.81,0,0,0,.34.56c0-.16.35-.12.51-.21-.52,0,.26-.32-.23-.34-.1-.22.21-.58.46-.51.07.15-.08.19-.18.26.07.32.35,0,.54.23.16-.62,1.48-1.2.81-1.67-.2-.06-.25.16-.38.26.49-.08.16.33.19.46-.24,0-.44.34-.49.08l.17-.38A10.47,10.47,0,0,0,21,15.64l.42-.28c.06.19-.13.34-.22.52l.46.25c-.13.05-.2.19-.29,0,0,.26.11.32.28.39-.25.27-.4.16-.45.57.71,0,.23-.55,1-.67Z"/><polygon class="cls-1" points="20.99 16.8 20.97 16.53 20.86 16.75 20.99 16.8"/><path class="cls-1" d="M20.57,15.83c.07.08,0,.17.09.25C20.94,16,20.83,15.87,20.57,15.83Z"/><path class="cls-1" d="M24.08,14.86l.29-.25-.25,0A.21.21,0,0,1,24.08,14.86Z"/><path class="cls-1" d="M26,12.64c-.47.26-.6.53-1.24.57-.14.4.36.46.36.77.29-.06,0-.52.29-.73.21.2.39-.23.68-.29A.36.36,0,0,1,26,12.64Z"/><path class="cls-1" d="M28,13c.23-.06.39-.33.61-.27a.23.23,0,0,1-.24.27c.19.33.23-.14.54,0,0,0-.14-.07-.09-.17.63-.07.26-.39,1.11-.39.09-.13.21-.15.13-.39.53.2.3.25.9.4a3.39,3.39,0,0,1-.36-.74c.87.27.79-.22,1.36,0-.06,0-.11.11-.25.1.14.41.4-.15.7-.11l0,.37c.24-.1.66-.4,1-.17l0,.19a7.55,7.55,0,0,1,1.95-.47l.31.22c.77-.31-.77-.1-.23-.68.12.69.4-.24.86,0,.21.27-.45.15-.21.46.09-.36.23-.11.47-.21,0,.32.4.08.24.45a1.86,1.86,0,0,1,.86-.36c0,.22.18.31.33.39-.14-.13,0-.21.07-.3s.25-.21,0-.45a3.44,3.44,0,0,0-1.55-.29,9.88,9.88,0,0,1-1.55,0c-.07.46-.61,0-.72.42,0-.14-.12-.26-.16-.4-.59.16.17.23,0,.41a.38.38,0,0,1-.49-.33c-.43,0,0,.13-.22.4l-.35-.46a34,34,0,0,1-4.55,1.16l.2.27c-.71.05-.88,1-1.67.58l-.1.32c.06-.18-.28-.4-.18-.66-.14.16-.37.12-.52.28l.38,0a.34.34,0,0,1-.6.09c-.36.49.48.38.68.6.48-.79.86.27,1.42-.16C28.52,13.11,28,13.15,28,13Z"/><path class="cls-1" d="M26.88,12.46a.75.75,0,0,0-.07.12A.35.35,0,0,0,26.88,12.46Z"/><path class="cls-1" d="M38,11.94a1.56,1.56,0,0,0,.13.13C38.23,12.07,38.12,12,38,11.94Z"/><polygon class="cls-1" points="26.06 12.96 26.07 12.97 26.07 12.96 26.06 12.96"/><polygon class="cls-1" points="26.04 13.81 26.22 13.75 26.13 13.63 26.04 13.81"/><path class="cls-1" d="M38,13.57l.16,0A.29.29,0,0,0,38,13.57Z"/><path class="cls-1" d="M33.66,14.71h.12A.13.13,0,0,0,33.66,14.71Z"/><path class="cls-1" d="M21.52,20.28A2,2,0,0,0,21,21.39l-.1-.14c-.09.2-.32.82.17.74l0-.16c.14-.5.42,0,.74-.21.23-.34,0-.95.39-1.1.11-.12.2,0,.24.15.3-.21.12-.67.3-.88.83.94.72-1,1.66-.62.24-.28.68-.44,1-.85-.05.38.39-.18.47.18-.12-.35.2-.45.51-.53s.61-.17.46-.61c.66,0,0-.06.73-.16,0,.1-.07.15-.1.18.32.06.25-.52.62-.21.55-.13,0-.27.24-.61.59-.1.48.07.9.32-.09-.44.32-.33.53-.62-.07,0-.49,0-.28-.21.69-.12.46-.42,1.07-.72.44.38-.63.19,0,.41-.34.33-.65.39-.76.79a7.43,7.43,0,0,0,1.69-.69c.34,0-.11.25.15.24.62.1.79-.68,1.31-.53l-.06.26c.23-.37,1-.07,1.56-.33-.08-.11-.14-.19-.07-.28,0,.61.73-.4,1.32,0-.07-.39.45-.65.8-.72.12.1.1.27.1.38-.56-.2-.52.47-.93.68.34-.23.93-.06,1.25-.38,0,.11-.06.22-.1.33.6-.05.3-.75.86-.66l.06.22a2.14,2.14,0,0,0,1.15-1.35,1.39,1.39,0,0,0-.4-1.52c-.18.05-.46.53-.62.56a2.34,2.34,0,0,1,.65.95l-.35-.08c.25.11.2.59.48.43,0,.39-.37.08-.42.47-.26-.28-.19-.43-.45-.6a1.18,1.18,0,0,1,0,.27c-.06-.14-.18,0-.23-.15,0,.27-.16.33-.31.31a.62.62,0,0,0-.51.05l.25,0c0,.2-.11.22-.22.29-.13-.29-.23-.24-.56-.34-.26.18-.39.56-.75.59.05-.4-.62-.17-.72-.5,0,.39-.7.22-.72.46-.18.1-.45.1-.48-.11l.14-.09h-.2s0-.08,0-.09c-.17,0-.13.3-.38.14,0-.1.1-.12.2-.17-.48,0-.72.68-1.15.42,0,.2-.56.32-.37.71-.16-.12-.18-.45-.55-.32-.14.4-.46,0-.69.26.29-.46,0-.11.23-.53-.3-.09-.57.5-1,.55-.07-.07-.09-.17-.16-.23-.14.16-.24.49-.49.26l.09.23c-.34,0-.72.2-1.14.05l-.21.58c-.69-.31-1.17.45-1.35,1-.19.06-.49.1-.53,0a2.15,2.15,0,0,1,.11-.25c-.26.11-.69.05-.65.47-.19.24-.31-.14-.54-.09-.24.73-1.72.59-1.4,1.38a6.23,6.23,0,0,0,1-.5c-.05.15.12.24,0,.35-.35.27-.73.12-1,.51L23.21,19C22.23,19,22.47,20.45,21.52,20.28Z"/><path class="cls-1" d="M26.49,17.07,26.06,17l.13.19A.3.3,0,0,1,26.49,17.07Z"/><path class="cls-1" d="M26.19,17.15l-.13.18a.3.3,0,0,0,.17-.12Z"/><path class="cls-1" d="M20.62,21.28a.51.51,0,0,0-.26.25C20.47,21.51,20.63,21.39,20.62,21.28Z"/><polygon class="cls-1" points="20.46 21.67 20.64 21.61 20.61 21.55 20.46 21.67"/><path class="cls-1" d="M16.18,30.19l.17.6c-.19,0-.15.66-.38.4.3.4-.22,1,.38.85.16-1.53,1.11-3.37,1.44-5.13l.08.35c0-1,1-.85.58-1.92l.34.31c.3-.28-.13-1,.5-1.12l-.18-.07c.07-.09.16-.08.23-.18h-.1a.74.74,0,0,1,.44-.66c.13.07,0,.15-.05.25.2,0,.09-.4.23-.58s.16.13.2.19c.28-.68.85-.59.67-1.42-.06-.12-.3,0-.16-.25-.49.2-.53.69-.66,1.12l.08-.09c.29.67-.29.11-.39.72-.13-.28,0-.47,0-.64-.79.22-.24,1-1,.93v-.05c-.1,0-.09.26-.12.41s.21-.09.31-.13c0,.15.18.38.25.49-.33,0,0,.25-.25.38-.28-.06-.1-.31-.17-.47v.36c-.14.25-.41.08-.6.13.06.31.19-.05.35.27-.22,0-.48.36-.68.76a3.38,3.38,0,0,0-.34,1.2c.05-.21-.23-.19-.08-.4a.36.36,0,0,0,.08.51,1.88,1.88,0,0,1-.66,1.2l.24,0c.21.44-.56.69-.54,1.33h0c0,.2.4.5.21.8C16.35,30.42,16.42,30.25,16.18,30.19Z"/><path class="cls-1" d="M16.11,32.31l-.24-.25c-.11.19.21.53.4.52,0-.14.13-.3,0-.36S16.09,32.21,16.11,32.31Z"/><path class="cls-1" d="M15.58,36.16c.06.08.17.07.25.11a4.65,4.65,0,0,1,.32-2.12c.13-.26-.29-.37-.33-.74l.31-.1c-.15-.22.29-.72-.23-.62,0,0,.19.21.07.35L15.82,33l0,.38-.18-.15c-.38.45.55.46.26,1l-.41-.07c-.08.41,0,.64-.26,1,0,0,.2,0,.13,0a.27.27,0,0,1,.32-.08c.26.66-.23-.12-.45.3.22.57.39,1.59.06,1.88.26-.24.51.14.48.43-.14.13-.24-.1-.37-.15-.05.14-.15.25-.09.39a.47.47,0,0,1,.69.22C16.22,37.49,15.48,36.87,15.58,36.16Z"/><path class="cls-1" d="M15.92,36.4a.14.14,0,0,0-.09-.13v.28Z"/></g></g></svg>