<svg xmlns="http://www.w3.org/2000/svg" viewBox="0 0 577.28 247.83"><defs><style>.cls-1{fill:#f3f3f3;}</style></defs><title>Personer</title><g id="Layer_2" data-name="Layer 2"><g id="Layer_1-2" data-name="Layer 1"><path class="cls-1" d="M396.54,246.61c2.21-.06-1.19-.25,1.45-.11A2.74,2.74,0,0,1,396.54,246.61Z"/><path class="cls-1" d="M398.36,238.73c-.76-7.12,0-16.5-.48-24.31,0-.91.42.24.32-1.82-.6-7.56-.23-19.48.21-28.69l.12.56a55.42,55.42,0,0,0-.52-5.77c.07,0,.16.58.23.14a9.18,9.18,0,0,1-.37-1.94,14.66,14.66,0,0,0-.48-2.16,8.8,8.8,0,0,0,0-1.67l-.51-1c-.3-.69-.65-1.44-.94-2.27s-.61-1.7-1-2.6a19.49,19.49,0,0,0-2.89-5.28c.18.12.42.44.3.13a31.68,31.68,0,0,0-7.74-7.23,32.89,32.89,0,0,0-10.23-4.32c.3,0,.61-.11.22-.33-.41.17-2.59-.28-4.51-.49-.83-.43-3.32-.17-5.56-.36l.2-.06c-1.68.28-2.47-.18-3.84.29l-1.08-.22c-.74.41-2.44-.22-3.83,0l.05.09c-1.32.1-2-.11-3.22,0l-.11,0c-2.85.11-4.51-.12-4.44.2-1-.25,2.76-.12,1.2-.49-9.38.33-19,.27-28.47.27a10.39,10.39,0,0,1-2-.29c-.94.07-3.55.06-4.4.23.31,0-.61-.17-1.11-.18-1.72-.12-1.87.35-3.76.21.75-.09,1-.19.75-.31-1.6.25-3.75.21-5.65.29.29-.06.75-.09.68-.19-2.08.29-3.79-.06-5.61.12l.68-.18c-2.93-.23-.87.38-3.4.25.61-.06.39-.13.5-.21-2.36.34-6.19.23-8.55.34.14,0,.1-.07.1-.07-2.57,0-5.25-.07-8.08.08-1-.08.34-.45-2.39-.38.1.37-4.61.15-3,.57-2.32-.06-6-.2-7.55-.07,1.05-.14-1.13-.46.8-.49l-1.46-.22c.22-.16,1.5.05,1-.14-1,0-3.79.16-4.66.1a44.42,44.42,0,0,1-6.34.7c1.37-.15-.78-.41.15-.48l-4.05.72c-1,0-.21-.3-1.61-.2.08.1-.53.16-1,.24s-4,.09-4.43-.27c-.43-.15,1.57-.08.5-.21-1.78,0-1.86.13-3.65.13l0-.05c-1.18,0-3.48.16-2.19.36.82,0-.31-.22.9-.11a27.27,27.27,0,0,1-4.69.27,1.28,1.28,0,0,0,.78-.26c-2.4.29-4.94.38-7.62.5,0,.18,1-.31,1.4-.22-3.44-.24-7.09.34-9.95,0,.47,0,.25.24.22.19-1.65,0-1.58-.27-2.65-.18a12.4,12.4,0,0,0-2.47.1c-.57.1-.29-.08.68-.09l-4.84.28c-1.07,0-2.19.21-3.28.28s-2.09.27-3,.33a19.3,19.3,0,0,1-2.8.94l.25-.29c-.76,0-2.56.75-2.75.58-.78.39.77-.17,2.27-.64s3-.81,1.86-.45c-.64-.07-3.06,1.07-2.64.68-.77.24-1.51.52-2.24.79a11.33,11.33,0,0,1-2.18.78c.43-.12,1.1-.76-.11-.28-2.06,1-.55.38-2.19,1.24l-.95.66c0,.11-.42.36-.76.55s-.56.37-.15.23a7.88,7.88,0,0,0-1.44.92c-.62.43-1.14.88-1.17.66l.06-.43a8.1,8.1,0,0,0-1.52,1.88c-.11.07-.34.2-.33.13.18.4-1.69,1.63-2.12,2.78-1.44,1.47-2.9,4.27-3.53,5-.57,1.49-1,2.87-1.6,4.56a3.67,3.67,0,0,0,.15-1,7.62,7.62,0,0,0-.66,2.36,20.27,20.27,0,0,0-1.18,3.39c-.12,1.59.21,1.09.33,1.26-.67,1.39-.17,4.46-.48,6.23-.09-.53-.22-2.3-.34-1a3.16,3.16,0,0,0-.12,1.1c0,.21,0,.34.07.62s0,.41.07.63a13,13,0,0,1,.14,3l.37-.59c-.23,1.07.21,3.53-.16,3.28.13.8-.12,2.82.23,2.56-.3,3.93.19,9.56-.45,12,.06.57,0,2,.18,1.68.2-.93-.14-1.3,0-1.65,0,.5.11.61.16.67-.08,1.22-.11,2.18-.4,1-.22,2.71.6,2.8.46,6.26-.14-.16-.2.1-.18,1.12l.26,1.92c-.06,2.23-.34,1.27-.59,1.32a18.15,18.15,0,0,0,.22,3.2L180.6,222c.22-1.06.15,1,.21,1.54l-.06-.56a12.14,12.14,0,0,0,0,2.3A10.74,10.74,0,0,0,181,223c.11.62.08,1.57.21,2.38-.24-.27-.17,1.94-.2,2.89a4.92,4.92,0,0,0,.21,1.55c-.12,0,0,1.78-.2.93a9.57,9.57,0,0,0,0-1.46,4.49,4.49,0,0,0-.16,2.12c.12,1.13.48-.29.33,1.85a7,7,0,0,0-.25-1.1l-.12,2,.22.09c-.06.27-.08.08-.11.21.24.59.08,3,.34,3.5,0,1-.15,2.12-.18,3.08l0-.19a13.54,13.54,0,0,0-.05,1.93c0,.33,0,.66.06,1l0,.22,0,.1.06.17h0a4.46,4.46,0,0,0,0,.71,2.78,2.78,0,0,0,.67-.12.64.64,0,0,1,.31.2,1,1,0,0,1,.3.25c.16.15.34.25,1.24.11,1.64,0,2.58-.4,1.91-.55,3,.15,6.32-.21,9.06.14a2.63,2.63,0,0,1,1-.2c4.34.08,9.17-.27,12.62.17-1.26.09-.08.22-.05.35,1-.2,1.24.21,1.62-.14-.11-.2,0-.29-1.23-.38a71.85,71.85,0,0,1,8,.08c-.72-.09-.16-.15.4-.21-.19.32,1.73.37,3.17.26l.2-.2.94.2a3.84,3.84,0,0,1,2-.22.75.75,0,0,0,.42.21,28.07,28.07,0,0,1,5.23-.27l1.32.29c.7,0,1.86-.21.64-.29a39.78,39.78,0,0,1,5.43.44,148.82,148.82,0,0,1,17.23-.58l-.16.15c1.49.13.77-.26,1.81-.16-.48.14,1.14.3,0,.48a21.14,21.14,0,0,0,4.13-.32c.21-.2-1.12.12-.85-.13.24-.06,2.95.15,3.28-.14.53.12.12.33-.17.45l1.3-.14c1.59.34-3.63.61-2,1l1.21,0c1.14.3-3.18.34-.17.45,1.31-.15,2.43-.57,1.26-.7,2.72-.08,1.26-.69,4.19-.67.8.17-2.34,0-1.78.28,1.38.24,2.76-.13,4,0-1.36-.11-.21-.41.67-.46,1.49.14-1,.27,1.14.3.35-.16,2.28-.29.61-.41.76-.38,2.19.11,3.34-.19.69.27-2.17.62.14.76-.36-.26,2.86-.35,1.64-.74.9.08,1,.28.34.44,1.3.16,3.14-.47,3.57,0l.44-.26c.41.08,1,.15,1.65.29,1.15,0,3.68-.36,3.58,0,.37,0,3,0,2-.3-1.62-.17-1.87.2-2.77-.17a8.85,8.85,0,0,0,3.28-.14l.15.15a12.58,12.58,0,0,0,2.19-.19c-.43.09-.21.19.24.23l.58-.23c2.27-.12.54.41,2.74.34l-1.67.18c.36,0,1.12.18,2.17.11.41-.22,1.18-.47,1.54-.64,1.24-.09.55.24,1.78,0l-1.61.26c-.24.07,1.08.35,2.74.35,1.07-.08,2.71-.38,1-.5.83,0,2,.13,1.34.28,1.88-.07-.25-.23,1.38-.36.67.14,2.74.34,4,.55l-1.7.36h1.13c-1.46.29.74.22-.08.52a15.36,15.36,0,0,0,2.45-.13c-2.26-.48,2.53-.66,1.87-1.1,3.1-.12,1.94,1.07,5.16.38-.53-.12,1-.45-1-.33,1.92,0,1.31-.44,3.57-.26-1.68.19,1.81.45-.62.72.16-.15-1.35-.12-1.73-.07.8.17-.16.44,1.81.44,1.2,0,2.84-.05,2.61-.28-.05-.25-1.84,0-1.07-.23,2.4-.09,2.79.3,3.79-.15-1.52,0-1.89-.23-1.87-.4L324,244l-.34.17c2.82.12.83-.3,3.57-.26l1.28.33c-.65.29-4-.12-3.49.34,1.77,0,2.36-.21,4-.09l-1.25.09a8.43,8.43,0,0,0,3.8.27c1.31-.14.35-.17.38-.34,2.85-.05,3.7-.23,5.54-.26-.38.34,3.24,0,1.21.38a23.3,23.3,0,0,0-6.06.15c1,.4-2.24-.06-2.86.35,2.29,0,2.18.41,2.55.67a12.22,12.22,0,0,0,1.63-.14c.27-.24-.56-.24-.61-.49a37,37,0,0,0,6.41-.31c.86.12.59.37-.42.39,3-.07,6.28,0,9.16,0-1.86-.4,3.21-.1,1.94-.43-1.54-.09-2.87-.37-2-.55,1,0,0,.17.38.26,1.22-.22,1.91.35,3.11,0-2.77.13-.54.49-1.05.8,2-.17-.08.22,1.89.22,2-.17,4.45-.31,6.66-.37,2.78.29,7,0,9.53,0,1.3.16.42.51,1.83.57,1.66,0-1.23-.38,1.23-.22l-.24.07c.74-.08,4.49.24,5.22-.26l-.76.38a7,7,0,0,0,1.26-.09c0,.12.55.23-.19.31a27.84,27.84,0,0,0,4.82-.05l-1.06-.22c2.82-.18,4.7,0,7.42,0l-.08.23,1.62-.14c-.39.22,1.09.36,1.95.18l-4.21.54c-1.17-.13,1.27-.27.54-.49a10.18,10.18,0,0,0-3.55.09,9.13,9.13,0,0,0,1.76-.11c.32.31-1.15.3-1.87.5a6.06,6.06,0,0,0,1.33,0,25.31,25.31,0,0,1-3.65.18c1.12-.12-.61-.19-.18-.28-.13.27-1.71.36-3.76.28-1.46-.31-3.83.2-6.2.11a19,19,0,0,1,3.63-.6c-1.49-.14-1.66,0-3.15-.13a10.15,10.15,0,0,1-3.17.64l-.1-.2a27.92,27.92,0,0,1-4,.35c-3.83-.1-7.78-.1-10.7-.13l-.11-.2c-1.63.43-5.42.16-7.61.35-3.73-.19-8.1.19-10-.15-6.58.15-12.33.3-19.14.23l1.14-.3c-1.22.22-.79-.17-2-.12,1.38.23-1.66.3-2.5.48a68.94,68.94,0,0,0-9.62.23l-.1-.2c-2.72.38-6,.05-9.35,0a7.52,7.52,0,0,0-2-.25,47.66,47.66,0,0,1-5.49.51c-2,0-5.16-.08-7.16-.21-7.4.46-15,.17-22.65.45l-.56-.24c-7.46.51-16.63,0-23,.31l.61-.41c-2-.13-4.55.1-4,.39-2-.12-5,.2-6.26-.13a37,37,0,0,0-4.21.24c-4.09-.16-5.61-.12-9.47,0l.95,0c.43-.09.46-.26-.5-.29-1.44.12-5.3-.11-3.86.38-4.12-.28-9.62.23-13.63-.15.35.13-.67.16-1.09.25-3.62,0-7.42-.27-10.31,0-.58-.07.92-.23-.56-.24-.65,0-.73.07-.77.11s-.16.1-1.13.14l-2.08,0,0-3.73,0-2.15c0-1.38.06-2.75.1-4.1.08-2.7.17-5.34.14-7.84-.25-9.47-.12-19.35-.17-28.43l.1.11c-.37-3,.38-7.13-.18-9.56.09-.72,0-2.74.23-2.21a38.64,38.64,0,0,1,0-4.73c0-.23,0-.46,0-.69v-.35s0,0,0-.07v-.2l0-1.49c0-1,0-1.94,0-2.86a5.64,5.64,0,0,0,0,.92c.21-1.83.39-3.54.68-5.27a26.07,26.07,0,0,1,1.39-5.29,5.22,5.22,0,0,0-.21,1.22c.61-1.36.74-3.51,1.54-4.08.34-.78,0-.65-.17-.16a33.26,33.26,0,0,1,7.62-10.65,32,32,0,0,1,11.58-6.67,11.88,11.88,0,0,1,2.77-.53c.42,0,.44.06.42.13s-.27.2,2.12-.47c.41,0,.25-.23.34-.14a9.32,9.32,0,0,1,2.36-.18,5.6,5.6,0,0,0,1.92-.08c-.56-.24.86-.24.89-.42,3.82,0,4.57.29,7.5.06l-.22.15c3.45-.42,7.44-.19,10.34-.69L285,147c18.31.09,36.23-.13,54.82.13a52.53,52.53,0,0,0,9.47.23c-.19.06-.49.08-.17.14.24-.33,3.36,0,3.82-.35l5.08,0h3l.67-.05,1.32,0a44,44,0,0,1,10.61,1c-1.16-.22-1.78-.05-.42.19l1.47.12.2.15c.93.2,2,.33,1.06,0a32.08,32.08,0,0,1,12.56,6.35,31.53,31.53,0,0,1,2.6,2.44,28.25,28.25,0,0,1,2.24,2.77,29,29,0,0,1,1.91,3c.29.51.53,1,.8,1.57a16.15,16.15,0,0,1,.72,1.59,42.2,42.2,0,0,1,3,13.39c.26,4.57.08,8.85.14,13.21-.14,4.13,0,10,.06,14.5-.44,13.31-.79,25.3-.49,38.82C399.4,246.07,398.56,244.31,398.36,238.73Z"/><path class="cls-1" d="M393.88,246.65c-.47-.17-2-.26-.79-.48C393.25,246.33,394,246.5,393.88,246.65Z"/><path class="cls-1" d="M352.56,245a2.57,2.57,0,0,1-.72-.1,6.77,6.77,0,0,1,1.39-.06A1.24,1.24,0,0,0,352.56,245Z"/><path class="cls-1" d="M342,244.86a20.63,20.63,0,0,1,3.75-.28Z"/><path class="cls-1" d="M332.15,244.26c-.85-.12-.61-.19.53-.19C332.77,244.15,332.39,244.19,332.15,244.26Z"/><path class="cls-1" d="M331.46,244.59a7.17,7.17,0,0,1-1.63-.16C329.86,244.55,331.73,244.35,331.46,244.59Z"/><path class="cls-1" d="M310.09,244.17a8.73,8.73,0,0,1-2.11,0C308.52,244.25,310.48,244,310.09,244.17Z"/><path class="cls-1" d="M300.15,244.39a4.48,4.48,0,0,0-.82,0c-.59-.06,0-.17.53-.19Z"/><polygon class="cls-1" points="181.09 185.46 181.16 186.53 181.01 186.37 181.09 185.46"/><path class="cls-1" d="M236.57,150.16c1.07-.09.74.14.92.16C236.52,150.34,237.85,150.14,236.57,150.16Z"/><polygon class="cls-1" points="279.28 149.43 278.96 149.44 279.07 149.14 279.28 149.43"/><path class="cls-1" d="M354.5,68.06c0-1.51-.27.81-.09-1A1.3,1.3,0,0,1,354.5,68.06Z"/><path class="cls-1" d="M354.15,62.07c-.52-2.39-.94-5.14-1.43-8a36.58,36.58,0,0,0-2.34-8.06c-.23-.58.45,0-.1-1.28-1.19-2.3-2.48-5.32-4.06-8.37s-3.36-6.17-5.07-8.82l.33.23c-.69-1-1.85-1.93-2.65-2.9.05-.06.35.23.24-.06-.4-.08-1.57-1.68-2.08-1.94-.28-.42-.11-.51-.48-1.05l-.7-.34c-1.83-1-3.47-3.45-5.81-4.94.14,0,.39.16.26,0A87.77,87.77,0,0,0,317.59,9c.22,0,.46-.07.25-.3a9.79,9.79,0,0,1-3-.92c-.41-.54-2.18-.61-3.54-1.33h.14c-1.16-.1-1.53-.71-2.52-.67l-.61-.45c-.6.25-1.52-.65-2.48-.71v.09c-.88-.16-1.28-.44-2.09-.56L303.72,4c-1.89-.36-3-.73-3-.42-.61-.37,1.86.21.89-.34-3.15-.46-6.36-.74-9.57-.9a75,75,0,0,0-9.61.26,5.94,5.94,0,0,1-1.38-.12,18.23,18.23,0,0,0-2.92.64c.21,0-.43-.09-.76,0-1.17.09-1.19.54-2.46.7.48-.2.62-.34.43-.42-1,.51-2.44.74-3.65,1.2.18-.11.47-.22.4-.3-1.28.66-2.5.61-3.6,1.21l.38-.33c-2,.43-.43.56-2.1,1,.37-.19.21-.21.25-.3-1.39.85-3.82,1.72-5.22,2.51.08-.06,0-.1,0-.1-.79.36-1.59.76-2.4,1.17a19,19,0,0,0-2.41,1.4c-.65.28,0-.5-1.59.47.23.27-2.56,1.81-1.42,1.58l-1.13.66-1.2.78a13.51,13.51,0,0,0-1.87,1.41c.47-.55-.88.12.13-.72l-.91.44c0-.22.83-.6.47-.55-.51.43-1.94,1.7-2.42,2.05a30.81,30.81,0,0,1-2.73,3.39c.57-.74-.66.07-.25-.41-.5.8-1,1.6-1.44,2.43-.44.48-.31-.1-.89.65.11,0-.13.36-.27.63s-1.69,2.08-2.16,2.06c-.3.13.63-.85.06-.39-.79.91-.69,1.06-1.44,2h-.06c-.55.58-1.29,2-.62,1.38.34-.44-.31,0,.28-.55A14.35,14.35,0,0,1,236,30.85c.19-.36.08-.38.09-.57-.36.73-.72,1.48-1.11,2.24s-.83,1.51-1.21,2.32c.13.11.06-.74.27-.92a17.36,17.36,0,0,0-1.68,3,16.51,16.51,0,0,1-1.46,2.82c.1-.3.29-.05.24-.05-.48,1-.69.85-.9,1.54-.16,0-.34.84-.56,1.55,0,.4-.14.16.09-.45-.13.51-.55,1.73-1,3.12s-.95,2.93-1.35,4a7.07,7.07,0,0,1-.19,2L227,51.3c-.24.46-.39,1.79-.6,1.84,0,.6.2-.51.38-1.57s.42-2.07.29-1.28c-.32.34-.18,2.23-.4,1.82a24.2,24.2,0,0,1-.62,3.16c.09-.29-.15-.94-.3-.06a13.81,13.81,0,0,0-.11,1.73,7,7,0,0,0,0,.8c.21.08-.21,1.38.11.84-.2.17-.18,2.26-.51,2.06L225,60.4a6.73,6.73,0,0,0,.3,1.67c0,.09-.1.26-.15.22.45.14-.18,1.61.18,2.43-.1.7-.13,1.6-.16,2.41A6.78,6.78,0,0,1,225,69a23.38,23.38,0,0,1,.38,3.3c-.06-.24-.09-.58-.2-.64a4.62,4.62,0,0,0,.19,1.68,16.38,16.38,0,0,0-.12,2.46c.27,1.06.46.66.62.74-.27,1,.76,3,.66,4.24-.15-.35-.54-1.5-.47-.59-.19,1.06.74,1.88.95,3.48l.25-.47c0,.74.84,2.19.44,2.14.25.48.45,1.83.73,1.55.47,2.62,2.42,5.86,2.52,7.58.2.33.58,1.18.66.93-.12-.64-.52-.71-.49-1,.15.31.26.33.32.34.3.76.57,1.35-.05.79.65,1.72,1.36,1.41,2.39,3.46-.18,0-.14.16.22.74.28.33.58.65.88,1,.75,1.28.18.89,0,1a6.52,6.52,0,0,0,1.37,1.67l.3,1c-.22-.71.51.45.77.72l-.26-.27a4.19,4.19,0,0,0,.91,1.24c.05-.17-.48-1-.73-1.41.33.27.67.8,1.12,1.14-.31,0,.66,1.12,1,1.64s.7.48.83.66c-.09.09.76.9.25.59-.19-.16-.28-.51-.63-.74.24.42,0,.52.81,1.17.58.49.24-.46,1,.71a4,4,0,0,0-.66-.39c.26.36.51.74.79,1.08l.21-.11c.08.17,0,.09,0,.17.45.13,1.46,1.42,1.85,1.46.5.45.91,1.08,1.36,1.54l-.1-.07a5.9,5.9,0,0,0,1.9,1.59H247a8.88,8.88,0,0,0,1.59,1.18c.74.79-.24.87.87,1.4.88.67,1.61.74,1.34.35a27.24,27.24,0,0,0,2.5,1.77,15.45,15.45,0,0,1,2.41,1.72c.28.08.16-.06.69.18,2.43,1.57,5.45,2.66,7.38,4-.8-.26-.14.18-.17.3.7.11.69.51,1.05.29,0-.21.11-.26-.61-.65.81.28,1.83.64,2.75,1a20.09,20.09,0,0,1,2.17.92c-.42-.24-.05-.18.32-.12-.22.27,1,.73,1.93.86l.19-.15.54.36c.38,0,.5-.27,1.37.15a.43.43,0,0,0,.22.27,14.7,14.7,0,0,1,3.44.48l.82.43c.46,0,1.25,0,.46-.2a26.77,26.77,0,0,1,3.51.94c3.22-.22,7.77-.09,11.43-.31l-.1.15c1,.06.49-.29,1.19-.24-.31.16.77.24,0,.47,1.43.06,1.79-.42,2.69-.6.12-.21-.71.21-.57-.05.15-.09,2-.1,2.13-.41.37.06.13.31,0,.45.28-.07.55-.19.83-.28.54.08,0,.33-.59.6s-1.14.48-.55.61c.27-.05.53-.09.79-.15.82.2-2.07.63,0,.46.86-.3,1.52-.84.73-.83,1.78-.41.71-.81,2.62-1.18.27,0-.1.13-.5.23s-.81.2-.61.28c1,.09,1.78-.52,2.59-.61-.91.1-.23-.36.32-.54,1-.09-.55.41.81.12.19-.22,1.38-.69.29-.5.38-.51,1.42-.3,2.06-.79.52.13-1.2,1,.31.7-.29-.16,1.7-.92.81-1,.59-.12.72.05.35.34.87-.13,1.82-1.1,2.25-.72l.19-.36c.28,0,.66-.09,1.12-.12s.88-.45,1.34-.67.81-.4.86-.2c.21-.14,1.79-.83,1.07-.81-1,.29-1,.69-1.73.6a3.93,3.93,0,0,0,1.9-1l.16.1c.31-.19,1.08-.55,1.21-.81-.21.21,0,.24.24.14l.24-.39c1.27-.78.51.21,1.76-.52-.29.23-.6.44-.89.67a7,7,0,0,0,1.32-.58c.13-.33.44-.8.56-1.06.66-.49.44,0,1-.57l-.79.75c-.11.13.81,0,1.74-.62.56-.44,1.31-1.29.31-.79.46-.3,1.18-.61.9-.24,1-.74-.26-.11.57-.8.44-.11,1.66-.75,2.47-1.06l-.72.94.62-.43c-.63.8.53-.11.26.45a5.62,5.62,0,0,0,1.25-1.08c-1.48.54.92-1.57.3-1.64,1.52-1.35,1.68,0,2.86-1.9-.34.15.2-.76-.69.17,1-.8.38-.86,1.58-1.76-.68.9,1.17-.5.18.8,0-.17-.73.54-.9.72.51-.23.23.42,1.2-.48.55-.58,1.34-1.35,1.06-1.4s-.86.86-.67.32c1.09-1.15,1.54-1.08,1.68-1.87-.67.76-1,.74-1.14.6.25-.29.48-.6.73-.9l0,.28c1.37-1.26.16-.61,1.43-1.87l.8-.42c-.05.54-1.88,1.84-1.31,1.93.83-.84.92-1.28,1.73-2-.14.21-.35.47-.48.68.29-.3,1-.22,1.86-1.73.44-.76,0-.28-.1-.41,1.11-1.52,1.36-2,2-3,.13.4,1.27-1.73.77-.43a9.89,9.89,0,0,0-1.27,1.53,6.82,6.82,0,0,0-1,1.76c.37-.14.13.14-.2.54s-.77.85-.75,1.14c1-1.14,1.26-.84,1.61-.87a5.39,5.39,0,0,0,.58-1c-.08-.29-.42.15-.64,0a13.33,13.33,0,0,0,2.31-3.62c.43-.39.53-.11.15.46.58-.84,1.12-1.74,1.69-2.61s1.1-1.74,1.62-2.56c-1,.89,1-1.91.27-1.33-.58.86-1.28,1.47-1.15.9.34-.54.14.1.35-.09.22-.8.93-.94,1-1.81-.73,1.69.26.55.39,1,.45-1.27.17.16.77-1s1-2.83,1.56-4.2a17.53,17.53,0,0,0,1.31-3c.33-1.1.62-2.2.89-3s.56-.12.88-1c.3-1.08-.59.69,0-.86l0,.17c.09-.48,1-2.87.59-3.46l.26.58a3.23,3.23,0,0,0,.1-.85c.12,0,.32-.31.28.2.52-.94.36-2.13.56-3.21l-.35.66c.19-1.89.51-3.13.66-4.95l.22.07-.05-1.1c.19.28.41-.71.27-1.3.11,1,.23,1.92.32,2.9-.23.77-.17-.9-.45-.42a4.9,4.9,0,0,0-.21,2.4,4.16,4.16,0,0,0,0-1.2c.34-.18.2.81.34,1.32,0-.34.19-.81.1-.9a9.64,9.64,0,0,1-.16,2.49c0-.77-.27.38-.3.08.25.13.14,1.21-.18,2.57-.55.9-.34,2.62-.89,4.15a12,12,0,0,1,0-2.54c-.37.94-.22,1.1-.64,2a4.88,4.88,0,0,1,0,2.26h-.21A11.29,11.29,0,0,1,351,89c-.46,1.23-1,2.44-1.48,3.6l-1.45,3.11-.22,0A7.63,7.63,0,0,1,347,98c-.44.87-1,1.73-1.27,2.44-.7,1.07-1.46,2.23-2.09,3.29a11.53,11.53,0,0,1-1.82,2.34,51.36,51.36,0,0,1-8.61,9.87c.13-.25.25-.51.37-.76-.45.74-.5.26-1.09.82.87-.44-.65,1-1,1.49a64.46,64.46,0,0,0-5.13,4.2l-.17-.13c-1.34,1.37-3.42,2.29-5.48,3.36a4,4,0,0,0-1.34.42,15.86,15.86,0,0,1-3.17,2.11,34.6,34.6,0,0,1-4.64,1.68c-4.65,2.16-9.85,3.1-15.09,4l-.41-.19a37.39,37.39,0,0,1-4,.53c-1.38,0-2.8.14-4.19.07l-2.06-.07c-.68,0-1.34-.11-2-.15-1.29-.08-2.51-.21-3.61-.29l.47-.35c-1.35-.27-3.11-.35-2.82,0a20.59,20.59,0,0,0-2.32-.41,6.09,6.09,0,0,1-1.9-.59c-1.36-.38-1.73-.24-2.88-.5-1.35-.45-2.26-.79-3.16-1.1l-1.4-.46-1.65-.59.61.26c.3,0,.39-.13-.22-.39s-1.33-.49-1.95-.73-1-.37-.67.06c-2.52-1.36-6.11-2.74-8.3-4.53.13.24-.47-.12-.77-.2-.53-.34-1.06-.69-1.58-1.06l-1.49-1.14c-1-.72-1.88-1.46-2.74-2-.27-.3.64.21-.15-.43-.51-.33-.12.13-.75-.28-3.32-2.41-5.93-5.75-8.34-8.53a54,54,0,0,1-6-8,74.7,74.7,0,0,1-4.51-8.67l.12,0a14.1,14.1,0,0,1-1.31-3.22,9.1,9.1,0,0,0-1.18-2.94c-.07-.5-.48-1.85-.21-1.54a13.85,13.85,0,0,1-.85-3.18c-.12-.62-.24-1.27-.39-1.9a16.67,16.67,0,0,0-.46-1.85,2.37,2.37,0,0,0,.16.59c-.11-1.22-.34-2.35-.49-3.51a21,21,0,0,1-.33-3.64c.06.26.13.73.23.8.12-1-.61-2.33-.14-2.9,0-.57-.25-.4-.22,0a82.83,82.83,0,0,1,1.3-17.52c.62-2,.82-2,.93-2s.09.23.38-1.41c.16-.23-.12-.23,0-.25.22-1.28,1.06-1.77,1.12-2.68-.39.26,0-.61-.12-.69a24.43,24.43,0,0,1,1.2-2.5,15,15,0,0,0,.85-2.2l.08.2c.55-2.35,2-4.73,2.55-6.71A66.89,66.89,0,0,1,258.19,7.45a65.38,65.38,0,0,1,37.13-7,41.16,41.16,0,0,0,6.5,1.16c-.15,0-.36,0-.15.12.24-.32,2.3.46,2.68.23A70.69,70.69,0,0,1,317.7,6.54c-.73-.29-1.2-.21-.35.15.33.07.65.14,1,.23l.1.15c.58.25,1.28.42.74,0A58.48,58.48,0,0,1,334.3,17.64a75.81,75.81,0,0,1,6.19,6.74,85.18,85.18,0,0,1,5.27,7.42c1.41,2.51,3.46,6.06,4.73,8.93a73.8,73.8,0,0,1,3.52,13,92.63,92.63,0,0,1,1.39,13.39,4.15,4.15,0,0,1-.47-1.08A24.71,24.71,0,0,1,354.15,62.07Z"/><path class="cls-1" d="M354.49,69.88c-.16.32-.33,1.36-.49.51C354.16,70.3,354.35,69.76,354.49,69.88Z"/><path class="cls-1" d="M345.84,96.2c0,.06-.24.32-.3.39.14-.31.16-.66.36-.86C345.76,96,345.85,96,345.84,96.2Z"/><path class="cls-1" d="M342.21,102.22a9.74,9.74,0,0,1,1.11-2.25Z"/><path class="cls-1" d="M337.87,107.11c-.46.35-.4.2.07-.39C338,106.72,337.91,106.94,337.87,107.11Z"/><path class="cls-1" d="M337.83,107.68a3.12,3.12,0,0,1-.83.7C337.11,108.45,337.76,107.38,337.83,107.68Z"/><path class="cls-1" d="M327.38,117.12c-.25.23-.76.77-1.12.81C326.63,117.84,327.46,116.79,327.38,117.12Z"/><path class="cls-1" d="M322.13,121a2.92,2.92,0,0,0-.46.29c-.38.14-.07-.15.2-.34Z"/><polygon class="cls-1" points="226.87 82.07 227.1 82.75 226.94 82.68 226.87 82.07"/><path class="cls-1" d="M235.84,31.57c.32-.65.4-.33.48-.42C236,31.69,236.3,30.85,235.84,31.57Z"/><polygon class="cls-1" points="255.95 11.52 255.76 11.63 255.67 11.34 255.95 11.52"/><path class="cls-1" d="M398.59,239.53c-1.62.07.86.26-1.06.12A1.54,1.54,0,0,1,398.59,239.53Z"/><path class="cls-1" d="M398.73,180.77a17.43,17.43,0,0,1,2.23-8.3,22.81,22.81,0,0,1,2.58-3.79,31.06,31.06,0,0,1,3.13-3.15c.53-.42.08.39,1.27-.51a19.91,19.91,0,0,1,9.14-3.89,29.78,29.78,0,0,1,5.57-.46c.92,0,1.83.06,2.71.15.44,0,.87.1,1.3.16s.9.07,1.31.12l-.41.12c1.28.08,2.85-.31,4.21-.25,0,.07-.44.11-.12.21.34-.23,2.45-.11,3-.28.53.09.48.28,1.17.38l.78-.27c2.16-.64,5.25.05,8.19-.28-.14.06-.43.11-.19.17,4.73-.39,10.65-.32,15.94-.46-.21.09-.41.27-.1.37.26-.28,1.9-.35,3.32-.41.63.3,2.43-.26,4.09-.1l-.14.06c1.23-.3,1.82.18,2.82-.19l.78.23c.54-.41,1.78.22,2.79,0l0-.09c1-.1,1.46.11,2.35,0l.08,0c2.08-.11,3.29.12,3.24-.2.73.25-2,.11-.87.49,6.85-.33,13.9-.27,20.79-.27a5.35,5.35,0,0,1,1.46.29c.68-.07,2.59-.06,3.22-.23-.23,0,.44.17.8.18,1.26.12,1.37-.35,2.75-.21-.55.09-.73.19-.55.31a30.88,30.88,0,0,1,4.13-.29c-.21.05-.55.09-.5.19,1.52-.29,2.77.06,4.1-.12l-.5.18c2.15.23.64-.38,2.49-.25-.45.06-.29.13-.37.2a59.47,59.47,0,0,1,6.25-.33c-.11,0-.08.07-.08.07,1.88,0,3.84.06,5.9-.08.76.08-.24.45,1.75.38-.08-.37,3.37-.15,2.2-.57a55.06,55.06,0,0,0,5.51.07c-.76.14.83.46-.58.49l1.06.22c-.15.15-1.09-.05-.76.14.71,0,2.77-.16,3.4-.1a27,27,0,0,1,4.61-.72c-1,.22.58.36-.08.48,1-.31,2-.56,3-.78.72,0,.14.29,1.18.25,0-.1.41-.15.73-.2s3,.24,3.23.67c.28.18-1.16-.1-.4.15,1.29.21,1.37.09,2.66.38v.06c.83.24,2.52.52,1.66.06-.58-.17.16.28-.68-.07a10.12,10.12,0,0,1,3.41.85c-.45-.11-.43,0-.64,0a17.79,17.79,0,0,1,5.35,2.11c.11-.13-.82-.13-1-.37,2.09,1.49,4.6,2.87,5.77,4.77-.25-.24.06-.31,0-.26.82,1,.58,1.08,1.14,1.68-.08.16.67.78,1.13,1.49.32.31,0,.22-.35-.39.18.23.48.64.86,1.18s.72,1.23,1.12,2,.71,1.56,1,2.34a23.05,23.05,0,0,1,.6,2.23,8,8,0,0,1,.87,2.14l-.28-.19c0,.58.36,2,.19,2.17.25.63,0-.62-.28-1.8s-.68-2.26-.36-1.42a4,4,0,0,0,.38,1.31c.16.49.29.89.1.73.1.61.27,1.2.4,1.79a6.64,6.64,0,0,1,.11,1.78c0-.35-.4-1-.3,0,.2,1.73.18.48.31,1.89l.12.89c.22,0,0,1.56.25.91-.17.22.11,2.49-.25,2.31l-.29-.23a7.83,7.83,0,0,0,.43,1.79c0,.1-.08.29-.13.25.44.12,0,1.77.31,2.65-.16,1.55,0,3.95-.3,4.68a17.82,17.82,0,0,1,.2,3.64c0-.27,0-.64-.15-.72a5.67,5.67,0,0,0,.06,1.85,24.57,24.57,0,0,0-.42,2.65c.14,1.19.38.78.52.9-.44,1.09.29,3.35-.11,4.71-.06-.41-.22-1.73-.33-.75-.44,1.09.33,2.19.11,3.94l.37-.43c-.23.78.21,2.57-.16,2.39.13.59-.12,2.06.23,1.87-.3,2.87.19,7-.45,8.74.06.42,0,1.44.18,1.23.2-.68-.14-.95,0-1.21,0,.37.11.45.16.49-.08.89-.11,1.6-.4.75-.22,2,.6,2,.46,4.58-.14-.12-.2.07-.18.81l.26,1.41c0,.2,0,.37,0,.51s0,.38,0,.5-.09.34-.14.35-.24-.25-.37-.25c0,.77,0,1.66.09,2.36a2.85,2.85,0,0,0-.75.13c-.58-.1-1.11-.2-1.59-.31,1.11.23-1,.15-1.26.21l.41-.06a7,7,0,0,0-1.68,0,5.26,5.26,0,0,0,1.71.26c-.45.11-1.14.09-1.73.22.19-.25-1.42-.18-2.12-.2s-.9.22-1.13.21c0-.13-1.3,0-.68-.2a5.25,5.25,0,0,0,1.07,0,2.54,2.54,0,0,0-1.55-.15c-.82.12.21.48-1.35.33a4.77,4.77,0,0,0,.8-.25l-1.45-.13-.06.23c-.2-.06-.07-.08-.16-.11-.43.23-2.22.07-2.55.34-.74,0-1.55-.16-2.25-.18l.13,0a8.71,8.71,0,0,0-2.72.1l0-.05a11.9,11.9,0,0,0-2.16.15c-1.19-.17-.4-.84-1.71-.56-1.2,0-1.88.41-1.4.55-2.16-.15-4.61.21-6.61-.13-.31.09-.12.15-.76.2-3.17-.09-6.69.26-9.21-.18.92-.09.06-.22,0-.35-.76.2-.91-.2-1.19.14.08.2,0,.3.9.38a35.89,35.89,0,0,1-5.82-.08c.52.09.12.15-.3.21.14-.32-1.25-.36-2.31-.25l-.15.19-.68-.2c-.41.07-.45.41-1.5.23a.43.43,0,0,0-.31-.21,14.56,14.56,0,0,1-3.81.26l-1-.28c-.51,0-1.36.2-.47.28a21.37,21.37,0,0,1-4-.44,79.55,79.55,0,0,1-12.59.59l.12-.15c-1.09-.14-.56.25-1.32.15.35-.14-.83-.3,0-.47a10.57,10.57,0,0,0-3,.32c-.16.19.81-.12.62.12-.18.07-2.16-.15-2.4.14-.39-.11-.09-.33.12-.45l-.95.15c-1.16-.34,2.65-.61,1.43-1l-.87.05c-.84-.31,2.31-.35.12-.45-1,.14-1.78.56-.93.69-2,.08-.92.69-3.05.67-.58-.17,1.71,0,1.3-.28a18.74,18.74,0,0,0-2.92.05c1,.11.16.4-.49.46-1.08-.14.71-.28-.83-.31-.25.17-1.67.29-.44.41-.56.38-1.61-.1-2.44.19-.5-.27,1.58-.62-.11-.75.27.26-2.09.35-1.19.73-.66-.07-.73-.28-.25-.43-1-.16-2.3.47-2.61,0l-.32.27c-.3-.09-.72-.15-1.21-.29-.83,0-2.69.35-2.61-.05-.27.05-2.17,0-1.44.3,1.19.17,1.36-.2,2,.17a4.65,4.65,0,0,0-2.39.15l-.11-.16a7.31,7.31,0,0,0-1.6.19c.31-.08.15-.19-.18-.23l-.42.24c-1.66.12-.39-.41-2-.35l1.22-.18a11.23,11.23,0,0,0-1.59-.1c-.3.21-.86.47-1.12.63-.91.1-.4-.24-1.3,0l1.17-.26c.18-.07-.79-.35-2-.34-.77.07-2,.38-.75.5-.61,0-1.47-.13-1-.29-1.38.08.18.23-1,.37-.49-.15-2-.35-2.92-.56l1.25-.35h-.83c1.07-.29-.54-.22.06-.52a8.89,8.89,0,0,0-1.79.13c1.65.49-1.85.67-1.37,1.11-2.26.12-1.41-1.08-3.77-.38.39.11-.72.45.7.32-1.4-.05-.95.44-2.61.26,1.23-.18-1.32-.45.45-.71-.11.15,1,.11,1.27.07-.58-.17.12-.45-1.32-.45-.88.05-2.08.05-1.91.28s1.34,0,.78.23c-1.75.09-2-.29-2.76.15,1.1,0,1.38.23,1.36.4l-1.29.11.25-.17c-2.06-.12-.61.31-2.6.26l-.94-.33c.48-.29,2.9.13,2.55-.34-1.3,0-1.73.22-2.95.1.27,0,.64,0,.91-.09a4.48,4.48,0,0,0-2.77-.28c-1,.14-.26.17-.28.34-2.08.06-2.7.23-4,.26.28-.34-2.37,0-.89-.38a12.79,12.79,0,0,0,4.44-.14c-.76-.41,1.63.05,2.08-.36-1.67,0-1.59-.4-1.86-.66a6,6,0,0,0-1.19.13c-.19.25.41.24.45.49a20.47,20.47,0,0,0-4.69.31c-.62-.12-.42-.36.31-.39-2.21.08-4.58,0-6.69,0,1.36.4-2.35.09-1.42.42,1.13.09,2.1.38,1.48.56-.71,0,0-.18-.27-.26-.9.22-1.4-.35-2.28,0,2-.13.39-.49.76-.8-1.46.18.07-.22-1.38-.22-1.45.17-3.24.31-4.86.38a52.12,52.12,0,0,0-7,0c-.95-.15-.31-.51-1.34-.57-1.2,0,.9.38-.89.22l.17-.07c-.54.08-3.28-.24-3.81.27l.55-.38a3.38,3.38,0,0,0-.92.09c0-.13-.4-.24.15-.32a15.42,15.42,0,0,0-3.52,0l.77.23c-2.06.18-3.43-.05-5.42,0l.06-.22-1.19.13c.29-.21-.79-.35-1.42-.17l3.08-.55c.85.14-.93.27-.4.49a5.59,5.59,0,0,0,2.59-.08,4.52,4.52,0,0,0-1.28.1c-.23-.31.84-.29,1.37-.5-.37,0-.9-.08-1,0a13.54,13.54,0,0,1,2.67-.19c-.82.12.44.2.13.28.1-.27,1.25-.35,2.74-.28,1.07.32,2.81-.2,4.53-.11a10.4,10.4,0,0,1-2.64.61c1.08.14,1.2,0,2.29.13a5.76,5.76,0,0,1,2.32-.65l.07.21a13.73,13.73,0,0,1,2.92-.35c2.8.1,5.68.1,7.82.12l.08.21c1.19-.44,4-.16,5.56-.36,2.72.2,5.91-.19,7.31.16,4.8-.16,9-.31,14-.23l-.84.29c.89-.22.58.17,1.45.13-1-.24,1.21-.31,1.83-.49a36.88,36.88,0,0,0,7-.23l.07.21c2-.39,4.36,0,6.83,0a3.93,3.93,0,0,0,1.47.25,27.31,27.31,0,0,1,4-.51c1.44,0,3.77.08,5.23.21,5.41-.46,10.93-.16,16.55-.44l.4.24c5.45-.51,12.15-.05,16.8-.31l-.45.41c1.46.12,3.33-.11,3-.4,1.46.13,3.64-.2,4.57.14a20.94,20.94,0,0,0,3.07-.25c3,.16,4.1.12,6.92,0l-.7,0c-.31.09-.33.27.37.29,1-.11,3.87.11,2.82-.38,3,.29,7-.22,10,.15-.25-.13.49-.15.8-.24,2.64,0,5.42.26,7.53,0,.42.06-.67.22.41.24.63-.05,0-.18.79-.25,4.28-.25,8.67.25,12.56.19l3.75-.1,1.66,0,.43,0c0-3.94,0-7.86,0-11.58l.1.08c-.37-2.22.38-5.21-.18-7,.09-.52,0-2,.23-1.61-.26-1.77.25-4.95-.08-7.51a2.9,2.9,0,0,0,0,.64c.22-2.58-.08-4.85.12-7.58,0,.28.07.78.17.86.18-1.05-.42-2.49,0-3.07,0-.6-.23-.43-.22-.06.09-3,.06-6.06,0-9.18a62.44,62.44,0,0,0-.65-9.09c-.19-2.12-.06-2.22.08-2.19s.2.16-.36-1.44c0-.29-.22-.15-.14-.22a4.79,4.79,0,0,1-.3-1.59,2.06,2.06,0,0,0-.36-1.27c-.13.44-.38-.5-.55-.45-.86-2.43-1-3-2.28-4.59l.22,0c-1.7-1.72-3.55-3.78-5.48-4.52-5.29-3.69-12.07-4.93-18.35-4.55l-.29,0-.16,0H545l-1.26,0-2.53,0-5,0-10.11.08c-13.37-.09-26.46.13-40-.13a28,28,0,0,0-6.91-.23c.14-.06.36-.08.12-.14-.17.33-2.46,0-2.79.34-5-.06-9.65,0-14.81,0,.82,0,1.23-.3.26-.28l-1,.21-.17-.09c-.66,0-1.38.21-.7.32-6.48.14-12.92,0-19.32-.07l-9.58-.18-2.39,0h-1.49a3,3,0,0,1-.49,0l-.54-.05a30.73,30.73,0,0,0-4.5,0,25.22,25.22,0,0,0-9.64,2.28,18.44,18.44,0,0,0-9.78,8.22,22.39,22.39,0,0,0-2.28,6.19,32.79,32.79,0,0,0-.55,6.92,4.26,4.26,0,0,1-.41-1.12,10.52,10.52,0,0,1-.28-1.64A18,18,0,0,1,398.73,180.77Z"/><path class="cls-1" d="M400.53,239.5c.34.16,1.47.25.57.47C401,239.82,400.41,239.65,400.53,239.5Z"/><path class="cls-1" d="M430.71,241.19c0-.05.42.06.52.09a3.64,3.64,0,0,1-1,.06C430.59,241.33,430.53,241.25,430.71,241.19Z"/><path class="cls-1" d="M438.42,241.28a10.68,10.68,0,0,1-2.74.28Z"/><path class="cls-1" d="M445.61,241.89c.62.12.45.19-.39.18C445.16,242,445.44,242,445.61,241.89Z"/><path class="cls-1" d="M446.12,241.55a3.86,3.86,0,0,1,1.19.17C447.28,241.59,445.92,241.8,446.12,241.55Z"/><path class="cls-1" d="M461.73,242a4.36,4.36,0,0,1,1.53,0C462.87,241.89,461.44,242.19,461.73,242Z"/><path class="cls-1" d="M469,241.76a2.44,2.44,0,0,0,.6,0c.43.07,0,.18-.38.19Z"/><polygon class="cls-1" points="577.09 215.04 577.16 215.83 577.01 215.71 577.09 215.04"/><path class="cls-1" d="M561.49,162.12c-.78-.24-.47-.34-.59-.42C561.59,162,560.59,161.76,561.49,162.12Z"/><polygon class="cls-1" points="530.2 160.31 530.44 160.3 530.36 160.6 530.2 160.31"/><path class="cls-1" d="M540.47,94.35c0-1.24-.29.66-.08-.81A.93.93,0,0,1,540.47,94.35Z"/><path class="cls-1" d="M540.14,89.45c-.13-.49-.21-1-.32-1.52s-.25-1.06-.35-1.6c-.21-1.1-.38-2.24-.53-3.4s-.54-2.28-.83-3.41c-.15-.56-.3-1.11-.47-1.65a14.92,14.92,0,0,0-.68-1.52c-.2-.47.44,0-.05-1.06-.25-.47-.5-1-.74-1.51a17.13,17.13,0,0,0-.81-1.68c-.6-1.14-1.19-2.38-1.77-3.66-1.36-2.46-2.66-5.1-4.11-7.24l.28.18a7.15,7.15,0,0,0-1-1.2c-.39-.4-.79-.79-1.13-1.18,0-.06.31.17.23-.07-.36,0-1.35-1.32-1.78-1.53-.2-.37,0-.46-.32-.93l-.6-.25a9.85,9.85,0,0,1-2.27-1.82,13.68,13.68,0,0,0-2.52-2.19c.13,0,.34.11.23-.05-.78-.46-1.59-1-2.41-1.53A29.64,29.64,0,0,0,515.59,49a44.19,44.19,0,0,0-5.45-2.92c.18,0,.39-.11.23-.3-.31.16-1.45-.31-2.44-.72-.3-.53-1.81-.43-2.92-1l.13,0c-1,0-1.24-.64-2.06-.55l-.49-.42c-.5.27-1.23-.54-2-.54v.09c-.73-.08-1-.38-1.71-.48L498.8,42c-1.53-.33-2.41-.62-2.43-.31-.5-.34,1.53.11.75-.38a76.35,76.35,0,0,0-15.7-.49,3.58,3.58,0,0,1-1.13-.13,21.22,21.22,0,0,0-2.38.59c.17,0-.36-.11-.64-.08-1,0-1,.46-2,.6.39-.19.5-.32.34-.41a18,18,0,0,1-3,1.07c.14-.1.38-.19.31-.28-1,.57-2.06.43-2.94,1l.29-.31c-1.6.35-.32.53-1.68.89.29-.17.16-.2.19-.29a12.08,12.08,0,0,1-2.13,1.05,15.51,15.51,0,0,0-2.12,1c.06-.06,0-.09,0-.09-.63.32-1.29.62-2,.94l-1,.5a11.57,11.57,0,0,0-1,.65c-.52.23-.06-.49-1.32.36.24.29-2.1,1.45-1.12,1.35l-.94.51-1,.65a11.47,11.47,0,0,0-1.52,1.18c.38-.46-.78,0,.06-.66l-.79.31c0-.19.71-.46.38-.46-.41.35-1.61,1.37-2,1.67a15.16,15.16,0,0,1-2.14,2.88c.46-.61-.6,0-.26-.4A15.69,15.69,0,0,0,449,57c-.35.41-.29-.12-.74.52.1,0-.08.33-.18.55s-1.41,1.69-1.84,1.63c-.27.08.52-.7,0-.34a14.84,14.84,0,0,0-1.15,1.66l0,0c-.43.49-1,1.63-.43,1.18.27-.35-.28,0,.2-.46A8.21,8.21,0,0,1,443.5,64c.15-.3,0-.33,0-.49-.3.59-.56,1.23-.85,1.86l-.95,1.92c.14.11,0-.62.2-.76a10.35,10.35,0,0,0-1.4,2.46,9,9,0,0,1-1.17,2.32c.08-.25.28,0,.23,0-.41.8-.62.66-.79,1.23-.16,0-.31.68-.45,1.27,0,.33-.12.12.05-.38-.09.42-.37,1.44-.73,2.57l-1.14,3.3a4.27,4.27,0,0,1-.07,1.67l-.18-.22c-.23.36-.35,1.45-.56,1.48,0,1,.69-3.62.57-2.32-.26.28-.09,1.83-.32,1.49a25.39,25.39,0,0,1-.52,2.57c.08-.24-.2-.78-.29-.06-.16,1.27.05.38,0,1.42v.65c.22.08-.2,1.13.12.69-.2.13-.18,1.84-.51,1.67l-.27-.2a4.82,4.82,0,0,0,.36,1.38c0,.06-.1.21-.14.17.44.12-.1,1.32.21,2a16.42,16.42,0,0,0-.2,2,4.48,4.48,0,0,1-.11,1.51,10.14,10.14,0,0,1,.33,2.7c-.05-.2-.08-.48-.18-.53a3.24,3.24,0,0,0,.13,1.37,10.42,10.42,0,0,0-.14,2c.27.86.46.52.62.59a3.06,3.06,0,0,0,.18,1.66,5.84,5.84,0,0,1,.3,1.8c-.16-.28-.5-1.21-.46-.47-.22.88.73,1.51.85,2.82l.27-.4c-.08.62.68,1.79.29,1.77.2.39.35,1.49.64,1.25a26.58,26.58,0,0,0,1.12,3.37l.3.82c.11.25.22.5.3.74a3.7,3.7,0,0,1,.29,1.27c.18.25.46,1,.56.74-.05-.54-.44-.58-.4-.81.13.25.24.26.3.26.21.64.42,1.12-.12.69.47,1.43,1.14,1.13,2,2.78-.17,0-.14.15.16.61l.76.76c.58,1.07.07.77-.12.93.37.54.78,1.23,1.13,1.34l.22.82c-.16-.59.44.34.67.55l-.23-.21c0,.16.49.73.75,1,.07-.17-.34-.82-.56-1.18.29.2.58.63.94.9-.28,0,.5,1,.79,1.38s.6.37.7.51c-.09.09.63.73.19.5-.17-.12-.22-.42-.53-.59.19.35,0,.46.66,1,.51.38.26-.43.92.53a2.76,2.76,0,0,0-.58-.28l.64.89.19-.12c.06.15,0,.09,0,.16.39.08,1.17,1.18,1.52,1.17.4.36.74.89,1.1,1.26l-.08-.06a4.83,4.83,0,0,0,1.56,1.29h-.05a5.49,5.49,0,0,0,1.29,1c.59.66-.29.83.66,1.2.73.54,1.38.52,1.17.19a21.63,21.63,0,0,0,2,1.49,10.18,10.18,0,0,1,2,1.37c.25.05.15-.08.58.12s1,.63,1.53.94,1.1.5,1.63.76a13.64,13.64,0,0,1,2.82,1.61c-.65-.22-.13.18-.17.3.58.08.55.45.87.22,0-.21.11-.26-.47-.6a22.5,22.5,0,0,1,4,1.57c-.34-.22,0-.17.27-.13-.2.28.76.69,1.56.74l.16-.16.44.32c.31,0,.43-.31,1.13.06a.36.36,0,0,0,.17.26c.41,0,.91,0,1.4.1a10.83,10.83,0,0,1,1.4.28l.66.39c.38,0,1,0,.39-.23a13,13,0,0,1,2.84.88c2.64-.36,6.33-.17,9.31-.4l-.08.15c.81.1.4-.27,1-.2-.25.15.63.27,0,.48,1.17.12,1.45-.39,2.18-.56.09-.21-.58.22-.46,0,.11-.09,1.58-.09,1.72-.41.3.07.11.32,0,.46l.68-.25c.91.21-1.86.9-.9,1.18l.64-.15c.68.21-1.68.61,0,.46.7-.25,1.23-.76.58-.79,1.45-.32.56-.75,2.11-1,.23,0-.07.13-.39.22s-.67.15-.49.24c.79.16,1.43-.47,2.09-.53-.74.08-.2-.36.25-.53.81-.07-.44.39.67.14.14-.21,1.11-.59.21-.48.3-.47,1.17-.19,1.68-.63.44.17-1,.89.3.71-.26-.16,1.35-.82.61-1,.48-.1.6.07.31.35.71-.09,1.43-1,1.82-.63l.13-.33c.24,0,.56,0,.94,0s.73-.35,1.1-.53.65-.35.71-.15c.16-.12,1.44-.72.83-.73-.85.22-.82.62-1.4.49.67,0,1.11-.59,1.52-.89l.13.1c.25-.18.88-.45,1-.68-.17.17,0,.22.21.15l.18-.35c1-.63.45.26,1.48-.34-.23.21-.48.37-.72.56.15-.13.64-.07,1.09-.45.08-.3.31-.74.39-1,.52-.42.37,0,.82-.47l-.6.66c-.08.13.67,0,1.44-.46.45-.37,1-1.08.21-.72.38-.23,1-.45.76-.13.83-.59-.24-.13.44-.69.38-.06,1.37-.58,2-.82l-.53.85.49-.37c-.47.71.46-.06.27.45a5.11,5.11,0,0,0,1-.91c-1.28.35.7-1.35.14-1.48,1.25-1.08,1.5.17,2.36-1.5-.29.1.09-.7-.6.1.8-.66.23-.8,1.25-1.48-.55.74,1-.33.23.74,0-.16-.61.41-.74.58.43-.16.23.39,1-.33.45-.47,1.11-1.08.86-1.16s-.72.69-.59.23c.91-.92,1.31-.82,1.35-1.54-.51.64-.86.58-1,.45.21-.23.38-.51.57-.76v.25c1.1-1,.08-.54,1.09-1.58l.7-.29c0,.45-1.52,1.49-1,1.62.66-.7.7-1.09,1.4-1.68-.11.18-.29.39-.39.56.24-.24.94-.09,1.59-1.34.33-.64,0-.25-.13-.37.88-1.27,1-1.74,1.58-2.54.15.36,1.07-1.38.7-.31a7,7,0,0,0-1.85,2.72c.32-.1.13.13-.13.46s-.65.68-.61.94c.85-.91,1.11-.63,1.43-.63a3.56,3.56,0,0,0,.43-.8c-.1-.27-.37.1-.58,0a11.39,11.39,0,0,0,1.84-3c.38-.3.49,0,.18.4.49-.66.91-1.41,1.36-2.13s.9-1.42,1.34-2.08c-.87.68.82-1.54.17-1.11-.5.68-1.13,1.14-1,.67.29-.43.14.1.33,0,.16-.66.83-.72.8-1.47-.53,1.41.3.49.46.89.32-1.07.18.14.65-.84A35.91,35.91,0,0,1,535,114a28.75,28.75,0,0,0,1.79-4.89c.33-.64.54-.07.8-.8.22-.89-.54.55-.05-.71l0,.14c0-.41.85-2.34.45-2.84l.27.49a1.88,1.88,0,0,0,.08-.69c.13,0,.31-.25.29.17a2.27,2.27,0,0,0,.26-.6c0-.22.06-.44.08-.67,0-.45,0-.92.07-1.37l-.31.54c0-1.56.46-2.55.57-4l.22.07-.09-.9c.2.23.38-.58.23-1.07.13.79.3,1.59.4,2.39-.22.63-.18-.74-.45-.35a3.27,3.27,0,0,0-.2,1.95,2.72,2.72,0,0,0,0-1c.33-.14.2.66.34,1.09,0-.28.18-.67.1-.74a8.19,8.19,0,0,1-.13,2c0-.63-.24.31-.29.06.25.12.21,1,0,2.13-.51.72-.34,2.12-.75,3.4a6.59,6.59,0,0,1-.09-2.12c-.34.77-.22.9-.56,1.66a3.7,3.7,0,0,1,.18,1.89H538a6.91,6.91,0,0,1-.42,2.22c-.41,1-.81,2-1.18,3L535.16,117l-.2,0a5.62,5.62,0,0,1-.64,1.93c-.34.73-.84,1.41-1.06,2a27,27,0,0,0-1.68,2.72,7.93,7.93,0,0,1-1.55,1.88c-.53.76-1,1.5-1.53,2.23s-1.12,1.35-1.69,2l-1.75,2c-.65.62-1.35,1.23-2.07,1.86l.28-.65c-.36.62-.44.18-.91.66.73-.34-.48.85-.72,1.31a28.48,28.48,0,0,0-4.18,3.48l-.16-.13c-1.07,1.17-2.85,1.81-4.5,2.75a3.35,3.35,0,0,0-1.13.3,16,16,0,0,1-2.57,1.8,18.64,18.64,0,0,1-3.83,1.32,20.68,20.68,0,0,1-2.91,1.24c-1,.3-2.05.58-3.09.86l-1.56.41-1.59.27c-1.07.18-2.14.37-3.22.61l-.33-.19a26.07,26.07,0,0,1-3.3.42l-1.72.11c-.29,0-.58,0-.87,0l-.86,0-3.33-.2c-.53,0-1.05,0-1.54-.08l-1.42-.15.39-.35c-1.09-.29-2.56-.28-2.32.05a17.27,17.27,0,0,0-1.92-.29,4.12,4.12,0,0,1-1.55-.55,13.25,13.25,0,0,0-2.38-.36c-.55-.19-1-.32-1.44-.48l-1.15-.45c-.74-.27-1.47-.5-2.52-.85l.51.21c.26,0,.34-.15-.17-.36a16.56,16.56,0,0,1-1.61-.56c-.5-.22-.84-.31-.57.09a28.7,28.7,0,0,0-3.51-1.74,10.84,10.84,0,0,1-1.78-1A11.91,11.91,0,0,1,458,140c.1.22-.41-.06-.66-.12-.45-.26-.89-.55-1.32-.84l-1.2-1a17.27,17.27,0,0,0-2.27-1.62c-.22-.25.56.14-.1-.38-.43-.26-.12.13-.66-.18a38.62,38.62,0,0,1-3.7-3.41c-1.09-1.26-2.07-2.55-3.12-3.64a51.54,51.54,0,0,1-8.67-13.67h.11c-1-1.47-1.06-3.94-2.08-5.06-.06-.41-.36-1.53-.11-1.28a12.92,12.92,0,0,1-.69-2.61c-.11-.51-.22-1-.35-1.56a12.05,12.05,0,0,0-.37-1.52,1.92,1.92,0,0,0,.13.48,22.13,22.13,0,0,0-.38-2.89c-.07-.48-.15-1-.23-1.45a11.18,11.18,0,0,1,0-1.54c.05.21.1.6.2.66.15-.83-.51-1.92-.06-2.39,0-.47-.25-.33-.22,0-.13-2.32.06-4.72.11-7.15l0-.91.11-.91.21-1.81.22-1.82.12-.91.2-.89c1.14-3.31.82,0,1.17-2.75.14-.19-.14-.21,0-.22a2.64,2.64,0,0,1,.5-1.21,1.74,1.74,0,0,0,.45-1c-.38.19,0-.51-.14-.59a19,19,0,0,0,1.7-3.85l.08.17a20.27,20.27,0,0,1,1-2.88c.39-.94.73-1.87,1-2.68L441,63.12c.74-1.13,1.56-2.19,2.34-3.28.4-.53.75-1.1,1.2-1.6l1.32-1.5,1.32-1.5c.22-.24.43-.5.67-.74l.72-.68,2.9-2.72c1-.84,2.09-1.63,3.14-2.45a28.48,28.48,0,0,1,3.3-2.23l1.69-1.05c.29-.17.57-.36.86-.51l.9-.44,3.57-1.7c1.21-.5,2.46-.92,3.68-1.38.62-.22,1.23-.47,1.85-.66l1.9-.5c1.27-.3,2.52-.71,3.82-.93l3.89-.59,1-.15,1,0,2-.09a51.68,51.68,0,0,1,8,.24,19.85,19.85,0,0,0,5.34,1c-.12,0-.29,0-.12.12.21-.35,1.88.38,2.2.15A53.31,53.31,0,0,1,505,41.52l2.73,1c.92.31,1.79.81,2.71,1.22-.59-.24-1-.14-.3.17l.81.16.08.14c.49.18,1.07.28.63,0,.59.27,1.18.51,1.74.81l1.66,1c1.08.67,2.21,1.27,3.23,2l3,2.32.75.59.69.65,1.37,1.31a63.62,63.62,0,0,1,5.11,5.54l2.22,3c.36.51.76,1,1.1,1.52l1,1.6c.28.52.6,1.09.95,1.68a18.58,18.58,0,0,1,1.06,1.87c.66,1.3,1.34,2.62,1.93,3.77.61,1.82,1.11,3.61,1.66,5.36.39,1.79.77,3.55,1.15,5.33s.47,3.58.75,5.4c.11,1.83.23,3.69.41,5.61C541.39,93.54,540.49,92.53,540.14,89.45Z"/><path class="cls-1" d="M540.43,95.84c-.18.26-.31,1.11-.5.42C540.09,96.18,540.28,95.74,540.43,95.84Z"/><path class="cls-1" d="M533.09,117.28s-.2.26-.25.31c.11-.25.1-.55.27-.71C533,117.14,533.08,117.14,533.09,117.28Z"/><path class="cls-1" d="M530.13,122.19a6.54,6.54,0,0,1,.82-1.89Z"/><path class="cls-1" d="M526.51,126.11c-.38.27-.34.14,0-.35C526.63,125.77,526.53,126,526.51,126.11Z"/><path class="cls-1" d="M526.53,126.61a2.11,2.11,0,0,1-.72.53C525.92,127.21,526.44,126.34,526.53,126.61Z"/><path class="cls-1" d="M518,134.2c-.21.18-.61.63-.92.66C517.33,134.77,518,133.91,518,134.2Z"/><path class="cls-1" d="M513.7,137.4a1.29,1.29,0,0,0-.38.23c-.3.11-.07-.15.15-.3Z"/><polygon class="cls-1" points="436.15 105.76 436.36 106.31 436.2 106.26 436.15 105.76"/><path class="cls-1" d="M443.42,64.59c.24-.54.35-.25.42-.32C443.54,64.7,443.79,64,443.42,64.59Z"/><polygon class="cls-1" points="459.77 48.16 459.62 48.26 459.52 47.97 459.77 48.16"/><path class="cls-1" d="M179.18,240.81c1.61-.06-.87-.25,1-.11A1.48,1.48,0,0,1,179.18,240.81Z"/><path class="cls-1" d="M179.77,180.86a44.1,44.1,0,0,0-2.91-8.21,19.08,19.08,0,0,0-2.54-3.86,15,15,0,0,0-3.36-2.9c-.56-.36.42-.27-.91-1a37.05,37.05,0,0,0-9.4-3.4,42.65,42.65,0,0,0-5.53-.84c-.92-.08-1.84-.13-2.74-.14-.45,0-.9,0-1.34,0s-.82,0-1.25-.05l.41-.12c-1.28-.09-2.85.3-4.2.25,0-.08.43-.11.12-.22-.35.24-2.46.11-3,.29-.54-.1-.49-.28-1.18-.39l-.78.27c-2.16.64-5.25,0-8.19.29.14-.07.43-.11.2-.17-4.74.38-10.66.31-15.95.45.21-.09.41-.26.1-.37-.26.28-1.9.35-3.31.41-.64-.29-2.44.27-4.1.1l.14-.06c-1.23.3-1.82-.18-2.82.19l-.78-.23c-.54.41-1.78-.21-2.79,0l0,.08c-1,.1-1.46-.1-2.35,0l-.08,0c-2.08.1-3.29-.12-3.24.2-.73-.26,2-.12.87-.49-6.84.33-13.9.26-20.79.27a6.31,6.31,0,0,1-1.46-.29c-.68.06-2.59.06-3.21.22.23,0-.45-.16-.81-.18-1.26-.12-1.37.35-2.75.21.55-.09.73-.19.55-.31a30.88,30.88,0,0,1-4.13.29c.21-.05.55-.08.5-.18-1.52.28-2.77-.06-4.1.12l.5-.19c-2.14-.22-.63.39-2.49.26.45-.06.29-.14.37-.21a59.45,59.45,0,0,1-6.24.34c.1,0,.07-.08.07-.08-1.88,0-3.84-.06-5.9.09-.75-.09.24-.46-1.74-.39.07.37-3.38.16-2.21.58-1.69-.07-4.38-.2-5.51-.08.76-.14-.83-.45.58-.48L39,160.6c.16-.15,1.09.05.76-.14-.71,0-2.77.16-3.4.1a21.42,21.42,0,0,1-4.66.68c1-.07-.56-.46.14-.47a29.23,29.23,0,0,0-2.95.65c-.69,0-.16-.3-1.16-.15.06.1-.38.17-.67.28-.27-.05-2.85.4-3.2.11-.33-.09,1.11-.24.32-.26-1.27.23-1.31.35-2.56.65l0-.05c-.85.14-2.38.81-1.43.75.57-.14-.28-.15.59-.28a27.45,27.45,0,0,1-3.09,1.31c.38-.21.3-.28.43-.44a45.82,45.82,0,0,0-4.6,2.84c.07.17.43-.63.72-.7-2.25,1-3.84,3.16-5.39,4.42.19-.26.3,0,.25,0-.78.84-.94.66-1.32,1.33-.15,0-.56.77-.9,1.47-.12.4-.17.14.18-.45-.12.25-.34.67-.62,1.2s-.55,1.2-.89,1.89-.57,1.47-.86,2.19-.51,1.43-.72,2a7.51,7.51,0,0,1-.16,2.14l-.17-.26c-.25.49-.3,1.92-.52,2,0,.63.18-.56.29-1.7s.38-2.21.28-1.36a3.41,3.41,0,0,0-.22,1.27c0,.49,0,.88-.13.68-.09.58-.12,1.16-.18,1.72a6.37,6.37,0,0,1-.21,1.69c.06-.32-.23-1-.3,0-.11,1.67,0,.48.07,1.85l.07.85c.22.06-.08,1.5.19.88-.2.2.11,2.48-.27,2.3l-.29-.23a8.37,8.37,0,0,0,.44,1.79c0,.1-.09.29-.13.25.44.12,0,1.77.3,2.65-.15,1.55,0,3.95-.29,4.68a17.82,17.82,0,0,1,.2,3.64c0-.27-.05-.64-.15-.72a5.68,5.68,0,0,0,.06,1.85,24.57,24.57,0,0,0-.42,2.65c.13,1.19.37.78.52.9-.44,1.09.28,3.35-.11,4.71-.06-.41-.22-1.73-.33-.75-.44,1.09.32,2.19.11,3.94l.37-.43c-.23.78.21,2.57-.16,2.39.13.59-.12,2.06.23,1.87-.3,2.87.18,7-.45,8.74.06.42,0,1.44.18,1.23.2-.68-.14-.95,0-1.21,0,.37.11.45.16.49-.08.89-.11,1.6-.4.75-.22,2,.6,2.05.46,4.58-.14-.12-.2.07-.18.81l.25,1.41a3.68,3.68,0,0,1,0,.51.46.46,0,0,1,0,.14.23.23,0,0,1-.14.15c-.1.05-.23,0-.36,0a9.56,9.56,0,0,0,.09,1.07,1.64,1.64,0,0,0,.48-.13,2.58,2.58,0,0,0,.54.31c-.44-.22.42-.15,1-.21l-.41.06a6.49,6.49,0,0,0,1.68,0,5.55,5.55,0,0,0-1.71-.26c.45-.11,1.14-.08,1.73-.21-.19.24,1.43.17,2.12.2s.9-.22,1.13-.21c0,.12,1.3,0,.68.19a5.25,5.25,0,0,0-1.07,0,2.45,2.45,0,0,0,1.55.16c.82-.12-.21-.49,1.35-.33a4.83,4.83,0,0,0-.8.24l1.45.13.07-.22c.19.06.06.07.15.1.43-.23,2.22-.07,2.55-.33.74,0,1.55.15,2.25.18l-.13,0a8.7,8.7,0,0,0,2.72-.11l0,.05A11,11,0,0,0,22,239c1.19.17.4.84,1.71.56,1.2,0,1.88-.41,1.4-.55,2.16.15,4.61-.21,6.61.14.31-.09.12-.15.76-.2,3.17.08,6.69-.27,9.22.17-.92.09-.07.22-.05.35.76-.2.91.21,1.19-.14-.08-.2,0-.29-.9-.38a38.32,38.32,0,0,1,5.82.08c-.52-.09-.12-.15.3-.21-.14.32,1.25.37,2.31.26l.15-.2.68.2c.41-.06.45-.41,1.5-.22A.5.5,0,0,0,53,239a15,15,0,0,1,3.81-.27l1,.29c.51,0,1.36-.21.47-.29a21.37,21.37,0,0,1,4,.44,79.66,79.66,0,0,1,12.59-.58l-.12.15c1.09.13.56-.26,1.32-.16-.35.14.83.3,0,.48a11.35,11.35,0,0,0,3-.32c.16-.2-.81.12-.61-.13.17-.06,2.15.15,2.39-.14.39.12.09.33-.12.45l1-.14c1.16.34-2.65.61-1.43,1l.88,0c.83.3-2.32.34-.12.45,1-.15,1.77-.57.92-.7,2-.08.92-.69,3-.67.59.17-1.71,0-1.3.28,1,.24,2-.13,2.92,0-1-.11-.16-.41.49-.46,1.08.14-.71.27.83.3.25-.16,1.67-.29.44-.41.56-.38,1.61.11,2.44-.19.51.27-1.58.62.11.76-.27-.26,2.09-.35,1.19-.74.67.08.73.28.25.44.95.16,2.3-.47,2.61,0l.33-.26c.29.08.72.15,1.2.29.84,0,2.69-.36,2.61,0,.27,0,2.17,0,1.44-.3-1.19-.17-1.36.2-2-.17a4.76,4.76,0,0,0,2.39-.14l.11.15a6.75,6.75,0,0,0,1.6-.19c-.31.09-.15.19.18.23l.42-.23c1.66-.12.39.41,2,.34l-1.22.18a12.44,12.44,0,0,0,1.59.11c.3-.22.86-.47,1.12-.64.91-.09.41.24,1.3,0l-1.17.26c-.18.07.79.35,2,.35.78-.08,2-.38.76-.5.6,0,1.46.13,1,.28,1.38-.07-.18-.23,1-.36.49.14,2,.34,2.92.55l-1.24.36H114c-1.07.29.54.22-.06.52a8.21,8.21,0,0,0,1.79-.13c-1.65-.48,1.85-.66,1.37-1.1,2.26-.12,1.41,1.07,3.77.38-.39-.12.72-.45-.7-.33,1.41.05,1-.44,2.61-.26-1.23.19,1.32.45-.45.72.12-.15-1-.12-1.27-.07.58.16-.11.44,1.32.44.88,0,2.08,0,1.91-.28s-1.34,0-.78-.23c1.75-.09,2,.3,2.77-.15-1.11,0-1.39-.23-1.37-.4l1.29-.11-.25.17c2.06.12.61-.3,2.6-.26l.94.33c-.48.29-2.9-.12-2.55.34,1.3,0,1.73-.21,3-.09-.27,0-.64,0-.91.09a4.62,4.62,0,0,0,2.78.27c.95-.14.25-.17.27-.34,2.08,0,2.71-.23,4-.26-.28.34,2.37,0,.89.38a12.56,12.56,0,0,0-4.44.15c.76.4-1.63-.06-2.08.35,1.67,0,1.59.41,1.86.67a6.7,6.7,0,0,0,1.19-.14c.2-.24-.41-.24-.44-.49a19.87,19.87,0,0,0,4.68-.31c.62.12.43.37-.31.39,2.22-.07,4.59,0,6.69,0-1.36-.4,2.35-.1,1.42-.43-1.13-.09-2.1-.37-1.48-.55.71,0,0,.17.28.26.89-.22,1.39.35,2.27,0-2,.13-.39.49-.76.8,1.46-.17-.07.22,1.38.22,1.45-.17,3.24-.31,4.86-.37a53.8,53.8,0,0,0,7,0c1,.16.31.51,1.34.57,1.2,0-.9-.38.89-.22l-.17.07c.54-.08,3.28.24,3.81-.26l-.55.38a3.83,3.83,0,0,0,.92-.09c0,.12.4.23-.14.31a14.88,14.88,0,0,0,3.52-.05l-.78-.22c2.06-.18,3.44,0,5.42,0l-.06.23,1.19-.14c-.29.22.79.36,1.42.18l-3.08.54c-.85-.13.94-.27.4-.49a5.46,5.46,0,0,0-2.59.09,4.84,4.84,0,0,0,1.28-.11c.23.31-.84.3-1.36.5.36,0,.89.09,1,0a13.67,13.67,0,0,1-2.67.18c.82-.12-.44-.19-.13-.28-.1.27-1.25.36-2.74.28-1.07-.31-2.8.2-4.53.11a10.41,10.41,0,0,1,2.65-.6c-1.09-.14-1.21,0-2.3-.13a5.8,5.8,0,0,1-2.32.64l-.07-.2a15.16,15.16,0,0,1-2.92.35c-2.8-.1-5.68-.1-7.82-.13l-.08-.2c-1.18.43-4,.16-5.56.35-2.72-.19-5.91.19-7.31-.15-4.8.15-9,.3-14,.23l.83-.3c-.89.22-.58-.17-1.45-.12,1,.23-1.21.3-1.83.48a36.88,36.88,0,0,0-7,.23l-.07-.2c-2,.38-4.36,0-6.83,0a4.1,4.1,0,0,0-1.47-.25,25.84,25.84,0,0,1-4,.51c-1.44,0-3.77-.08-5.23-.21-5.41.46-10.93.17-16.55.45l-.4-.24c-5.45.51-12.15,0-16.8.31l.45-.41c-1.46-.13-3.33.1-3,.39-1.47-.12-3.65.2-4.58-.13a19.84,19.84,0,0,0-3.07.24,66.81,66.81,0,0,0-6.92,0l.7,0c.31-.09.33-.26-.37-.29-1,.12-3.87-.11-2.82.38-3-.28-7,.23-9.95-.15.25.13-.49.16-.8.25-2.64,0-5.42-.27-7.53,0-.42-.07.67-.23-.41-.24-.63,0,0,.17-.79.25-4.28.24-8.67-.26-12.56-.2l-3.75.11L.1,242c0-5.08,0-10.14,0-14.93l.1.08c-.37-2.22.38-5.21-.18-7,.09-.52,0-2,.23-1.61C0,216.74.48,213.56.15,211a2.9,2.9,0,0,0,.05.64c.21-2.58-.08-4.85.11-7.58a3.21,3.21,0,0,0,.17.86c.19-1-.41-2.49.06-3.07,0-.6-.23-.43-.22-.06.09-3,.06-6.06,0-9.18A61.79,61.79,0,0,1,.56,183c.5-2.27.76-2.29.86-2.21s.1.25.35-1.56c.16-.27-.12-.26,0-.28a4.6,4.6,0,0,1,.7-1.62A3.71,3.71,0,0,0,3,176.05c-.42.27.1-.67,0-.76,1.33-2.55,1.87-2.88,2.95-4.86l0,.23c1.16-2.45,3.58-4.44,5.14-6.13A29.07,29.07,0,0,1,21,160a37.38,37.38,0,0,1,10.64-1.11l20.09-.16c13.37.1,26.46-.13,40,.14a27.63,27.63,0,0,0,6.92.22c-.15.07-.36.08-.13.14.17-.32,2.46,0,2.79-.34,5,.06,9.65,0,14.81,0-.82,0-1.22.3-.25.28l1-.21.17.09c.66,0,1.38-.21.7-.31,6.49-.14,12.92,0,19.32.07l9.58.17,2.39,0h1.59l.66,0a40,40,0,0,1,5,0,53.88,53.88,0,0,1,5.41.82,30.49,30.49,0,0,1,5.5,1.66,23.07,23.07,0,0,1,10.7,10.4,29.09,29.09,0,0,1,2.39,7,47.84,47.84,0,0,1,.83,7.45,5,5,0,0,1-.48-1.18c-.14-.42-.26-1-.42-1.67S180,181.87,179.77,180.86Z"/><path class="cls-1" d="M177.23,240.85c-.34-.17-1.47-.26-.57-.48C176.77,240.53,177.35,240.7,177.23,240.85Z"/><path class="cls-1" d="M147.06,239.16c0,.05-.43-.07-.53-.1a3.64,3.64,0,0,1,1-.06C147.17,239,147.23,239.09,147.06,239.16Z"/><path class="cls-1" d="M139.34,239.06a11.16,11.16,0,0,1,2.74-.28Z"/><path class="cls-1" d="M132.15,238.46c-.62-.12-.45-.19.39-.19C132.6,238.35,132.32,238.39,132.15,238.46Z"/><path class="cls-1" d="M131.64,238.79a3.8,3.8,0,0,1-1.18-.16C130.48,238.75,131.84,238.55,131.64,238.79Z"/><path class="cls-1" d="M116,238.37a4.61,4.61,0,0,1-1.53,0C114.89,238.45,116.32,238.15,116,238.37Z"/><path class="cls-1" d="M108.78,238.59a2.4,2.4,0,0,0-.6,0c-.43-.06,0-.17.39-.19Z"/><polygon class="cls-1" points="2.87 215.24 2.94 216.03 2.8 215.91 2.87 215.24"/><path class="cls-1" d="M17.13,164.32c.66-.38.54-.07.66-.1C17.17,164.49,18,164,17.13,164.32Z"/><polygon class="cls-1" points="47.56 161.23 47.32 161.23 47.4 160.93 47.56 161.23"/><path class="cls-1" d="M38.37,94.53c-.12-1.21-.22.66-.15-.79A.9.9,0,0,1,38.37,94.53Z"/><path class="cls-1" d="M38.37,89.7a10.92,10.92,0,0,1-.12-1.54c0-.53.07-1.07.13-1.62.13-1.1.31-2.25.51-3.4l.89-3.38c.14-.56.27-1.12.39-1.67s.31-1.08.43-1.61.35.26.65-.84c.11-.52.24-1.07.4-1.64a10.23,10.23,0,0,1,.63-1.75c.52-1.18,1.12-2.43,1.76-3.68A39.44,39.44,0,0,1,49,61.92l-.09.32a7.11,7.11,0,0,0,.84-1.32,5,5,0,0,1,.91-1.34c.06.05-.14.32.1.21,0-.34,1.17-1.44,1.33-1.88.34-.23.45-.08.87-.39l.2-.62A5.66,5.66,0,0,1,55,54.73,23.35,23.35,0,0,0,57.5,52.5c0,.11-.19.28,0,.22.65-.61,1.38-1.23,2.14-1.87A19.65,19.65,0,0,1,62.07,49a52.62,52.62,0,0,1,5.35-3.18c-.1.16-.16.38.1.37.06-.34,1.15-.94,2.1-1.46.53,0,1.62-.93,2.87-1.23l-.08.09c.79-.61,1.37-.31,2-.92l.63,0c.27-.52,1.37-.14,2.06-.54l0-.08c.68-.28,1.1-.17,1.74-.41l.07,0c1.51-.54,2.48-.38,2.38-.71.6.17-1.5.35-.56.59a48.26,48.26,0,0,1,15.73-1,3.64,3.64,0,0,1,1.07.45,20.39,20.39,0,0,0,2.45.15c-.18,0,.31.21.57.27.92.27,1.11-.23,2.09.19-.42,0-.58.05-.47.2a17.58,17.58,0,0,1,3.11.5c-.17,0-.43,0-.41.08a13.9,13.9,0,0,1,3,.76l-.41.05c1.45.77.57-.21,1.85.41-.34-.07-.25,0-.33.09a12.08,12.08,0,0,1,2.32.58c.83.25,1.58.7,2.21.91-.09,0-.09,0-.09,0,.66.29,1.31.62,2,.95l1,.49,1,.53c.45.37-.38.3.94,1,.15-.35,2.28,1.2,1.74.39l.9.61.92.75a13.45,13.45,0,0,0,1.58,1.14c-.55-.24.23.74-.65.12l.51.66c-.19.05-.63-.54-.54-.23a18.49,18.49,0,0,1,2.09,1.48A14,14,0,0,1,128,55c-.67-.41,0,.59-.39.28a19,19,0,0,1,2.11,1.08c.37.39-.14.29.46.8,0-.1.32.12.54.24s1.59,1.61,1.46,2c.05.27-.65-.6-.34-.08a17.65,17.65,0,0,1,1.36,1.51l0,0c.35.55,1.29,1.46,1,.76-.26-.37-.07.27-.39-.34a9.31,9.31,0,0,1,1.8,2c-.26-.24-.31-.15-.48-.2a8.71,8.71,0,0,1,1.4,1.56l1.31,1.79c.16-.07-.57-.32-.6-.55a22.74,22.74,0,0,0,1.51,2.5,9.39,9.39,0,0,1,1.12,2.43c-.14-.22.16-.23.13-.2.38.86.13.92.48,1.43-.11.11.4.66.63,1.24.21.26,0,.18-.21-.33.21.39.66,1.38,1.13,2.52.23.57.47,1.19.68,1.78a9.06,9.06,0,0,1,.38,1.68,4.44,4.44,0,0,1,.76,1.56l-.26-.12c0,.45.4,1.51.23,1.62.52.9-1.18-3.63-.63-2.38-.1.38.81,1.71.44,1.51a7.18,7.18,0,0,1,.63,2.65c0-.27-.42-.69-.29,0,.24,1.29.16.35.4,1.39l.19.65c.23,0,.15,1.18.32.66-.16.18.42,1.9,0,1.8l-.31-.15a5.85,5.85,0,0,0,.51,1.34c0,.08-.07.23-.12.21.45.06,0,1.36.41,2-.05.6,0,1.36,0,2.05a5,5,0,0,1-.27,1.57,11,11,0,0,1,.06,2.82c0-.21,0-.5-.13-.56a3.45,3.45,0,0,0,0,1.43c0-.14-.43,1.28-.7,2,0,.92.28.65.41.76a3.36,3.36,0,0,0-.34,1.71,3.33,3.33,0,0,1-.39,1.86c0-.32.09-1.35-.18-.63-.63.72-.1,1.71-.64,3l.43-.23c-.37.52-.29,2-.62,1.75.05.49-.59,1.48-.21,1.45a31.57,31.57,0,0,0-1.37,3.46c-.11.29-.21.58-.33.85s-.27.51-.4.73a4.29,4.29,0,0,1-.85,1.07c-.08.31-.48,1-.25.93.41-.39.2-.72.4-.84-.11.26-.05.36,0,.41-.37.59-.63,1.06-.61.34-.88,1.27-.09,1.74-1.25,3.34-.08-.15-.21,0-.49.45l-.35,1.06c-.71,1.06-.65.44-.88.33a9.42,9.42,0,0,0-.8,1.63l-.74.48c.54-.35-.21.53-.35.82l.14-.29c-.16,0-.57.69-.78,1,.17,0,.7-.58,1-.9-.12.34-.46.75-.64,1.2-.1-.27-.79.77-1.14,1.19s-.28.67-.4.8c-.1-.07-.69.74-.5.26.11-.18.41-.27.56-.6-.34.24-.48.06-.92.79-.34.55.47.19-.46,1a3,3,0,0,0,.24-.63l-.85.75.13.19c-.15.07-.09,0-.16,0,0,.41-1.1,1.33-1.09,1.7a17.16,17.16,0,0,1-1.41,1.05l.06-.08a5.31,5.31,0,0,0-1.49,1.5v-.06a7.33,7.33,0,0,0-1.15,1.24c-.85.42-.78-.47-1.41.35-.73.56-.92,1.2-.53,1.09a21.62,21.62,0,0,0-2.1,1.57,9.45,9.45,0,0,1-2.22,1.2c-.16.2,0,.17-.4.48s-1.08.63-1.61,1-1.12.61-1.67.9a14.62,14.62,0,0,1-3.15,1.27c.6-.39,0-.22-.11-.33-.45.45-.73.08-.79.48.13.15.12.29.79.09a20.31,20.31,0,0,1-4.28,1.5c.42-.05.14.11-.14.28,0-.33-1,0-1.8.28l-.06.22-.57-.06c-.29.13-.23.48-1.07.5a.39.39,0,0,0-.28-.14c-.4.18-.87.41-1.36.61a3.47,3.47,0,0,1-1.48.32l-.8-.16c-.38.09-1,.36-.31.33a13.15,13.15,0,0,1-3.11,0,26.26,26.26,0,0,1-9.77.77l.11-.14c-.84-.18-.46.23-1,.1.29-.12-.62-.33.06-.47a12.08,12.08,0,0,0-2.36.07c-.15.17.64,0,.46.19-.15.05-1.64-.4-1.87-.14-.29-.16,0-.33.16-.42l-.76,0c-.83-.47,2.13-.29,1.25-.84l-.67-.06c-.58-.4,1.8-.07.16-.43-.74,0-1.43.35-.81.58-1.52-.17-.83.61-2.45.26-.21-.14.12-.06.46,0s.72.06.58-.08c-.73-.31-1.55-.23-2.21-.46.72.3,0,.42-.48.35-.79-.34.6-.13-.55-.46-.23.12-1.34,0-.44.31-.53.26-1.19-.41-1.91-.29-.3-.36,1.37-.29.14-.74.11.34-1.65-.18-1.11.41-.46-.25-.45-.46,0-.48-.64-.4-1.84-.17-1.89-.74l-.33.16c-.19-.16-.48-.33-.78-.59s-.83-.22-1.26-.33-.72-.31-.61-.47c-.21,0-1.54-.71-1.14-.22.77.56,1,.28,1.36.85-.47-.57-1.22-.55-1.75-.69v-.18c-.32-.08-1-.43-1.22-.37.26,0,.19-.12,0-.27l-.41.07c-1.23-.47-.09-.49-1.25-1,.3.11.63.18.94.27-.2-.08-.51-.41-1-.67-.31.07-.81.06-1.07.1-.66-.29-.15-.38-.86-.55l.91.25c.16,0-.35-.62-1.16-1.11-.55-.25-1.52-.48-.76.12-.42-.25-.92-.7-.51-.64-1-.5,0,.27-.87-.11-.25-.32-1.07-1.21-1.53-1.8l1,.29-.51-.39c.83.26-.21-.43.34-.39a5.11,5.11,0,0,0-1.18-.72c.73,1.15-1.55-.33-1.53.24-1.5-1-.17-1.52-2-2.2.15.29-.72,0,.19.61-.78-.78-.85-.17-1.69-1.19.83.52-.46-1,.75-.28-.17.05.49.6.68.71-.23-.42.36-.27-.46-1-.53-.43-1.23-1-1.29-.79s.79.68.29.57c-1.08-.84-1-1.29-1.64-1.4.59.62.58.95.45,1.06-.28-.2-.52-.45-.78-.66l.26,0c-1-1.28-.55-.14-1.57-1.34l-.25-.76c.46.08,1.44,1.77,1.59,1.24-.67-.76-1.07-.85-1.62-1.63.17.13.37.33.55.46-.24-.28,0-.95-1.25-1.78-.57-.49-.25,0-.4.06-1-1.27-1.45-1.55-2.1-2.38.4,0-1.09-1.51-.11-.78A7.76,7.76,0,0,0,48.67,128c0-.36.16-.1.41.26s.64.75.91.74c-.87-1-.5-1.17-.43-1.5a3.29,3.29,0,0,0-.64-.65c-.28,0,0,.4-.18.58a12.59,12.59,0,0,0-2.42-2.72c-.19-.45.1-.47.46,0a14.1,14.1,0,0,1-1.46-2.16c-.45-.75-.87-1.5-1.26-2.21.19,1.1-1-1.51-.94-.74.36.8.52,1.59.11,1.26-.26-.48.16-.07.12-.31-.57-.49-.25-1.1-.84-1.56.8,1.36.56,0,1,.16-.64-.93.22-.07-.26-1.06-.64-.93-1.36-2.11-2-3.21a33.41,33.41,0,0,0-1.85-5c0-.76.43-.38.29-1.16s-.2.77-.38-.6l.1.1c-.19-.38-.4-2.48-1-2.76l.48.32a2.29,2.29,0,0,0-.27-.66c.12,0,.16-.34.34,0a2.39,2.39,0,0,0-.06-.65,3.94,3.94,0,0,0-.13-.65,13.6,13.6,0,0,1-.33-1.33l-.13.63c-.41-1.53-.37-2.6-.64-4.1l.22,0-.17-.89c.22.21.32-.63.11-1.09.23.77.43,1.53.68,2.28,0,.65-.35-.67-.52-.25a3.14,3.14,0,0,0,.37,1.94,2.68,2.68,0,0,0-.25-1c.28-.21.39.59.66,1-.06-.28,0-.68-.13-.73a7.54,7.54,0,0,1,.48,2c-.21-.59-.14.36-.26.14.28,0,.49.87.59,2-.1.85.72,2,1,3.27a5.94,5.94,0,0,1-1.08-1.79c.07.83.23.89.3,1.72a3.69,3.69,0,0,1,1.06,1.52l-.18.12c.39.89.7.78,1.06,2,.31,1,.66,2,1,3s.82,1.76,1.16,2.49l-.16.14a5.29,5.29,0,0,1,1.1,1.66,10.19,10.19,0,0,0,1.18,1.85,25.14,25.14,0,0,0,1.6,2.67,8.73,8.73,0,0,1,1.29,2l1.67,2c.57.64,1.19,1.22,1.77,1.84l1.77,1.88,2,1.83-.66-.21c.64.29.21.42.73.83-.4-.68.87.39,1.33.56a17.59,17.59,0,0,0,4.29,3l-.07.21a21.73,21.73,0,0,1,4.33,2.68,1.86,1.86,0,0,0,.86.72,15.71,15.71,0,0,1,2.92.84c.93.53,2.55,1.14,3.53,1.64,1,.22,1.93.58,2.93.78s2,.45,3,.7l1.5.37,1.53.21c1,.14,2,.26,3.08.35l.27.28c1,0,2.09-.08,3.18,0l1.63,0c.28,0,.55,0,.82,0l.82,0,3.16-.13a13.27,13.27,0,0,0,1.46-.12c.47-.08.92-.17,1.34-.27l-.28.46c1.09,0,2.43-.48,2.1-.73a11.42,11.42,0,0,0,1.82-.29,3.55,3.55,0,0,1,1.52-.24,11.44,11.44,0,0,0,2.14-.8c.54-.11,1-.17,1.41-.29l1.1-.38c.69-.25,1.37-.53,2.33-.92l-.49.15c-.19.16-.15.33.35.18.34-.2,1-.39,1.51-.62s.73-.45.28-.5a24.79,24.79,0,0,0,3.34-1.57c.58-.27,1.1-.64,1.64-.95a10.9,10.9,0,0,1,1.56-.79c-.23,0,.22-.32.37-.51.41-.26.85-.49,1.27-.73l1.2-.82a14.49,14.49,0,0,0,2.06-1.62c.29-.13-.25.47.39,0,.34-.32-.1-.14.31-.54a33.82,33.82,0,0,1,3.52-3.16c1.13-1.07,2.22-2.14,3.17-3.22a65.36,65.36,0,0,0,7.88-13l.07.09c.27-1.64,1.69-3.47,1.62-4.87.23-.33.42-1.41.54-1.07a11.52,11.52,0,0,1,.62-2.47c.15-.47.3-1,.42-1.45a6.82,6.82,0,0,0,.12-1.48,1.45,1.45,0,0,0,0,.47,18.81,18.81,0,0,0,.48-2.71l.19-1.37c.06-.46.08-.94.16-1.44,0,.21,0,.58.14.65.22-.77-.32-1.87.17-2.27,0-.45-.22-.33-.22-.06a33.42,33.42,0,0,0-.11-6.77l-.07-.86-.16-.85-.32-1.7-.32-1.69-.15-.85-.24-.82c-.54-3.24.72-.39-.27-2.81,0-.23-.21-.1-.12-.17a2.71,2.71,0,0,1-.14-1.26,1.44,1.44,0,0,0-.26-1c-.17.37-.31-.38-.48-.34-.53-2-.38-2.46-1.2-3.84l.19,0a17.32,17.32,0,0,1-1.56-2.49,7.67,7.67,0,0,0-1.56-2.2c-.68-1.08-1.35-2.16-2-3.23s-1.53-2-2.28-3a18.23,18.23,0,0,0-1.17-1.46l-1.28-1.36-1.28-1.36c-.21-.22-.41-.45-.64-.67l-.7-.61-2.78-2.44c-1-.75-2-1.45-3-2.17a25.9,25.9,0,0,0-3.1-2l-1.59-1c-.27-.15-.52-.32-.8-.46l-.83-.4-3.28-1.6c-1.12-.47-2.27-.85-3.4-1.28-.57-.2-1.13-.43-1.71-.61l-1.76-.44c-1.18-.27-2.33-.65-3.53-.84l-3.59-.55-.9-.14-.91,0-1.83-.1a62.49,62.49,0,0,0-7.37,0,13.48,13.48,0,0,0-5,.5c.09-.08.25-.12.07-.15-.08.29-1.76.42-1.93.79a32.94,32.94,0,0,0-5.15,1.5l-2.52.94c-.85.3-1.65.78-2.5,1.17.52-.3.68-.67,0-.34l-.58.51-.15,0c-.41.26-.82.63-.32.51-.52.28-1.06.52-1.56.82l-1.5.94c-1,.64-2,1.17-3,1.87l-2.85,2.06-.71.51-.66.58-1.32,1.15a52.57,52.57,0,0,0-5,4.91c-.74.9-1.43,1.84-2.14,2.76-.35.47-.72.92-1,1.41l-.9,1.5c-.32.45-.65,1-1,1.51a11.38,11.38,0,0,0-1,1.75l-1.62,3.61a40.58,40.58,0,0,0-4.63,20.2S38.41,92.79,38.37,89.7Z"/><path class="cls-1" d="M38.48,96c-.15.27-.2,1.13-.45.46C38.18,96.35,38.33,95.91,38.48,96Z"/><path class="cls-1" d="M42.69,118.5c.06,0,.09.33.09.41-.13-.25-.37-.43-.4-.68C42.52,118.49,42.57,118.41,42.69,118.5Z"/><path class="cls-1" d="M45.61,123.72a6.61,6.61,0,0,1-1.35-1.67Z"/><path class="cls-1" d="M48.44,128.61c.22.45.07.4-.32-.13C48.15,128.39,48.31,128.54,48.44,128.61Z"/><path class="cls-1" d="M49,128.7a2.28,2.28,0,0,1,.49.79C49.53,129.4,48.66,128.74,49,128.7Z"/><path class="cls-1" d="M57.49,137.43c.24.16.82.45.95.74C58.26,137.9,57.18,137.46,57.49,137.43Z"/><path class="cls-1" d="M62.3,140.47a1.7,1.7,0,0,0,.4.24c.26.23-.1.14-.35,0Z"/><polygon class="cls-1" points="143.75 106.48 143.67 107.08 143.55 106.96 143.75 106.48"/><path class="cls-1" d="M136.15,63.58c-.4-.46-.13-.42-.16-.52C136.32,63.5,135.74,63,136.15,63.58Z"/><polygon class="cls-1" points="118.36 47.74 118.52 47.83 118.31 48.06 118.36 47.74"/></g></g></svg>