<svg xmlns="http://www.w3.org/2000/svg" viewBox="0 0 185.39 159.01"><defs><style>.cls-1{fill:#f3f3f3;}</style></defs><title>Theater Masks</title><g id="Layer_2" data-name="Layer 2"><g id="Layer_1-2" data-name="Layer 1"><polygon class="cls-1" points="98.26 106.98 98.05 107.92 98.27 108.25 98.26 106.98"/><path class="cls-1" d="M96.77,111.35l-.1,1.63c.86-.83.48.4,1.33-2.07,0-.91,0-2.89-.33-2.67a14.57,14.57,0,0,1-.1,2.55c-.16-.43,0-1.45-.22-2-.42,1.5.06,1-.26,2.64Z"/><path class="cls-1" d="M97.26,113.36c-.11-.17-.21-.34-.32-.32C97.05,113.2,97.1,114,97.26,113.36Z"/><path class="cls-1" d="M97.21,114.36c-.16,1-.27-.06-.32,0l.32,1.23Z"/><path class="cls-1" d="M96.47,118.58c0,.17,0,.33,0,.48C96.53,118.91,96.49,118.77,96.47,118.58Z"/><path class="cls-1" d="M96.13,120.66a3.66,3.66,0,0,0,.29-1.6l0,.06c-.25.55-.48-.06-.21-1,.11-1,.42-.85.36-1.73L96,117.53A10.56,10.56,0,0,0,96.13,120.66Z"/><path class="cls-1" d="M96.47,118.58c0-.18,0-.36.08-.55A1,1,0,0,0,96.47,118.58Z"/><polygon class="cls-1" points="96.91 116.47 96.94 115.93 96.77 116.04 96.91 116.47"/><path class="cls-1" d="M95.47,124.12c-.34-.33.54-2.46.25-2.8-.24,1.37-.78,2.38-1,2l-.24,1.51C94.55,125.39,95.05,124.85,95.47,124.12Z"/><path class="cls-1" d="M93.58,126.74a1.4,1.4,0,0,1,0,.35A.83.83,0,0,0,93.58,126.74Z"/><path class="cls-1" d="M92.11,134.34l.7-3.52c0,.35.22.27,0,1.06a19.71,19.71,0,0,0,.71-3c.53-.25-.56,2.23,0,1.62a8,8,0,0,0,.39-3.05l.65-1.34-.58.36c-.28.54.06,1.25-.35,1.52-.24.13-.13-.46-.07-.87a8.9,8.9,0,0,1-.61,1.77c-.13.36-.28.74-.43,1.15a11.32,11.32,0,0,0-.47,1.28C91.46,133.21,92.32,133,92.11,134.34Z"/><polygon class="cls-1" points="91.58 134.29 91.33 134.45 91.61 134.38 91.58 134.29"/><path class="cls-1" d="M90.74,138.13l.46-1.81a1.43,1.43,0,0,1,.38-.33c-.13,0-.14-.51-.25-.47-.67.66-.75,2.13-1.06,3.09-1.21,2.33-.16-.2-.93.57.3-.67.4-.65.83-1.57-1.09,1.27-1.41,3.31-1.85,4.24a2.5,2.5,0,0,0,.57-.77l-.38,1C89.37,141.29,89.82,140.44,90.74,138.13Z"/><path class="cls-1" d="M92,135c-.19.67-.31.9-.38.94C91.75,135.85,91.91,135.66,92,135Z"/><path class="cls-1" d="M88.07,142.34a1.8,1.8,0,0,0,.25-.49A1.65,1.65,0,0,0,88.07,142.34Z"/><path class="cls-1" d="M89,141.65l-.66,1.12.42-.35C88.85,142.25,89.12,141.67,89,141.65Z"/><path class="cls-1" d="M48.87,151.84c0,.21.36.54,1.22,1-.22.13-1.3-.6-1.89-.81,1,.83-.16.22,0,.59,1.26.8,1.95.94,3.32,1.74-.1,0-.13.12,0,.29,1.72.87,4.78,1.93,6.47,2.74.85.3,1.6.53,2.38.73s1.62.26,2.59.42c.8.14,1.61.22,2.42.33s1.63.06,2.46.09a21,21,0,0,0,2.49-.16,8.45,8.45,0,0,0,2.43-.48,24.52,24.52,0,0,0,8.6-5.43l.37-1a2.09,2.09,0,0,0,.74-.58c.22-.26.41-.47.46-.29-.27.26-.47.57-.8.88a7.2,7.2,0,0,0,1.9-2l.92-1.24c.27-.43.54-.83.82-1.19-.18.13-.66.14-.42-.34.33.4,1.15-1.74,1.92-1.88,1-1.51-.34-.29.61-1.88-.18-.32-1,1.5-1.33,1.67.09-.62.88-1.42.58-1.5-.19.32-.39.67-.6,1.06s-.48.77-.73,1.2c-.52.84-1,1.82-1.66,2.79s-1.33,1.93-2.07,2.87l-1.19,1.34a10.06,10.06,0,0,1-1.21,1.23l.18-.51a16.85,16.85,0,0,1-3.2,2.53,8.94,8.94,0,0,1-3.45,1.32c.12,0,0,.11-.27.22l-1,.32-1.05.25c-.3.08-.47.18-.37.32a7.29,7.29,0,0,0-1.59,0l-.22.21c-1.19,0-1-.31-2.34-.3.87.27-.1.33-.52.54l-2.39-.69c-.78-.26-1.53-.57-2.17-.82a1.55,1.55,0,0,0,.62.43c-.89-.28-.79,0-1.06,0-.89-.21-.7-.53-.61-.67a6.39,6.39,0,0,0-2-.38,3.7,3.7,0,0,1-1.59-.48l.31.4a42.48,42.48,0,0,1-4.57-2.23c-.32-.38.06-.26.62,0a16.67,16.67,0,0,0,1.69.64,11.72,11.72,0,0,1-1.22-.81c-.79-.21-2.1-.64-3.07-1C51.45,153.47,49.4,152.21,48.87,151.84Z"/><path class="cls-1" d="M53.49,154.32l.56.09a2.47,2.47,0,0,1-.58-.23S53.44,154.26,53.49,154.32Z"/><path class="cls-1" d="M48.87,151.84s0,0,0-.05C48.69,151.71,48.73,151.75,48.87,151.84Z"/><path class="cls-1" d="M58.24,157.52l-.23-.09-.3-.12A3.44,3.44,0,0,0,58.24,157.52Z"/><path class="cls-1" d="M60,156.78a7.49,7.49,0,0,0,1.3.64C61.13,157.26,61,157.19,60,156.78Z"/><path class="cls-1" d="M71.11,158c.28-.09.1-.15.3-.27l-.37.08a.9.9,0,0,0-.22.06C70.73,157.89,70.84,157.94,71.11,158Z"/><path class="cls-1" d="M51.72,153.27a12.82,12.82,0,0,1-1.28-.65l-.48-.21C50.54,152.72,51.12,153,51.72,153.27Z"/><path class="cls-1" d="M29,134.76a23.49,23.49,0,0,0,3,3.77c2.08,2.07.76-.19,2.66,1.83l-.81.09c1.91,2,4.63,4.9,6.8,6,.1.2.4.6-.2.19,1.4,1.21,1.34-.08,3.06,1.66-2-1.15.33.78-.4.7l-.31-.2c1.25,1,3,2,3.87,2.64.13-.11-.46-.84.68-.07-.44-.34-.14-.37,0-.48-1.27-.65-1.81-1.22-2.62-1.57-.49-.65.46.27,0-.38l-1-.54c-.61-.58.8.38-.17-.49a6.21,6.21,0,0,1-1.86-1.25l.28.14c-.66-.43-1.4-1.28-1.36-.74l-.45-.89,0,.29a16,16,0,0,1-1.68-2.05,13.48,13.48,0,0,0-2.16-2.2c.41.52-.11.18-.39,0,.69.94,1.12.9,1.92,1.63-.06.3-1.58-.81-.75.24-.81-1.26-2-1.94-1.94-2.83a38.06,38.06,0,0,1-2.91-3l.1,0c-.53,0-.82-1.21-2-2l.54.79c-.16.07-.46-.28-.89-.75.09,0,.09,0,0-.19-.36,0-1.67-1.51-1.89-1.65a20.6,20.6,0,0,0,2,2.07C29.6,135.17,29.5,135.45,29,134.76Z"/><path class="cls-1" d="M42.4,147.05l-.52-.25A1.43,1.43,0,0,0,42.4,147.05Z"/><path class="cls-1" d="M24.52,128.1c-.61-1,.38.1-.13-.84-.83-.81.43,1.32-.48.59a9.57,9.57,0,0,0-1.43-1.79c.44.32.59-.14.54-.36a12.24,12.24,0,0,1-1.14-1.82c.81,1.65-1-1.19-.28.32-.27,0-1.37-1.3-1.6-2,.17,0,.45.44.71.82.48.14-.49-1.06-.39-1.44-1.35-1.19-4.18-6-4-4.27a5.93,5.93,0,0,0,.95,1.47c-.81-1.63.32-.21.51-.15.3.73,1.2,1.73.82,1.61l-.87-.9a97.21,97.21,0,0,0,7.84,11.41l-1.16-1.58c.29.06.86.8,1.36,1.32l-.2-1c.31.47.69.86.53.93.57.42.48.1.36-.32,1,1.1,1,1.4,1.87,2.09-1.16-2.14-1.51-1.41-2.89-3.83Z"/><polygon class="cls-1" points="27.91 132.17 27.37 131.85 28.01 132.48 27.91 132.17"/><path class="cls-1" d="M26.53,132.07c.06-.09.32.17.38.08C26.28,131.21,26.24,131.41,26.53,132.07Z"/><path class="cls-1" d="M19.53,120.34l-.84-1.19.43.85C19.19,119.93,19.42,120.2,19.53,120.34Z"/><path class="cls-1" d="M13.36,112.07c1,1.79,1.57,2.48,2.53,4.56.83.83.23-.74.72-.46-.52-1-.9-.61-1.57-1.61,0-.51-.88-1.49-1.32-2.53C13.68,112.2,13.57,112.26,13.36,112.07Z"/><path class="cls-1" d="M11.35,105.31A17.24,17.24,0,0,1,10.29,103c.19,0,.46.52.63,1,.21-.47-.45-.92-.59-1.94,0,.1.07.46-.11.23-.82-2.35-.83-1.18-1.76-4.28-.26-.4-.42-.83-.62-.67-.34-1.83,0-1-.5-3.13-.11.13-.19.92-.49,1-.62-3.09-1.1-3-1.41-5a4.73,4.73,0,0,1,.37,1c.34-.38-.6-1.56-.86-2.63l.39,0a16,16,0,0,1-1.23-3.87l.26.22c-1-2.41-1.75-5.37-2.41-7.48l0-1.2c-.93-2.91.52,3-.5.93.6-.48-.58-1.5-.6-3.28.13-.84.45,1.71.6.76-.41-.31-.28-.89-.49-1.79.18.08.13-.4.09-.83s0-.81.18-.55a22.76,22.76,0,0,1-.69-3.2,11.1,11.1,0,0,0,.37-2.11C.6,67.86.45,65.55,0,67.53c-.17,3,.68,7.76,1.48,11.29.53.27.6,2.25,1.13,2.69-.12.12-.16.42-.28.54.74,2.21.09-.59.41-.09.34,1,.3,1.82.12,1.78.44,1.6.17.15.65.89l-.16,1.18C5,90.75,7.56,97.14,9.52,102.73l.12-.53c.86,2.54,2.35,3.85,2.73,6.28l.58.62c-.32-.34-.24.62-.72.07.4.62.64,1.37,1,2l-.45-1.27a3.41,3.41,0,0,1,.89,2.11c1.18,1.64-.06-1.3,0-1.82-1.72-2.28-.68-2.78-2-5.14C10.92,103.6,11.54,105.33,11.35,105.31Z"/><path class="cls-1" d="M12,108.84a2.3,2.3,0,0,0,.25.33A2.85,2.85,0,0,0,12,108.84Z"/><path class="cls-1" d="M.89,66.14c0-.2.09-.44.16-.76S1,65.53.89,66.14Z"/><path class="cls-1" d="M13.72,112h0Z"/><polygon class="cls-1" points="15.01 112.87 14.68 112.21 14.61 112.39 15.01 112.87"/><path class="cls-1" d="M5.72,61.14l0-.16C5.64,61,5.63,61.1,5.72,61.14Z"/><path class="cls-1" d="M26.57,64.4l-.46,0A2.32,2.32,0,0,0,26.57,64.4Z"/><path class="cls-1" d="M74.5,48.62a24.06,24.06,0,0,0,3.15-2.94l0,.19a14,14,0,0,0,1.17-1.22c.14-.18.3-.39.28-.46s-.05,0-.16,0l-.2.09-.22.11-.21.35C77.09,46,77.16,45.3,76,46.05c-1.28,1.06-1.69,2.11-3,2.85-.52.38-.54.19-.45,0-1.24.8-1.44,1.53-2.26,2.14-1-.82-3.62,2.78-5.95,3.16-1.14.8-2.82,1.57-4.26,2.62.69-.7-1.5.71-1.31.22-.12.92-4.7,1.83-4.65,2.77-2.32.63-.07.1-2.72.89,0-.09.4-.26.57-.35-1.08.24-1.46.93-2.45.82-2.11.62-.28.36-1.45,1a5.85,5.85,0,0,1-3,.13c-.1.5-1.5.51-2.57.94.28,0,1.84-.22.86.12-2.66.42-2.09.61-4.59,1-1.32-.34,2.5-.3.26-.43,1.56-.4,2.76-.49,3.54-1-2.1.34-4.66.65-7,1-1.29,0,.65-.27-.37-.25-2.29-.18-3.53.54-5.37.24l.39-.24c-1.14.32-4.05-.28-6.18-.35.25.16.43.26.13.31.11-.61-3,0-5-.82.1.43-2,.29-3.26.07-.43-.2-.3-.35-.27-.45,2,.65,2.11,0,3.79.09-1.42,0-3.63-.69-4.88-.66l.53-.21c-1.87-.47-1.82.32-3.71-.49l.26-.17a12,12,0,0,0-6.38-.63,5.59,5.59,0,0,0-2.76,1.54,5.1,5.1,0,0,0-1.34,2.4c0,.17.32-.08.6-.35a2.9,2.9,0,0,1,.72-.49,6.9,6.9,0,0,1,1.36-1.75,4.58,4.58,0,0,1,1.75-1l.06.35c.23-.36,2-.62,1-.74a1.68,1.68,0,0,1,1.1,0A3.14,3.14,0,0,0,9,60.44c-.16.35-1,.3-1,.63A11.12,11.12,0,0,1,9.18,61c-.37.08.67.25.29.33a4.6,4.6,0,0,1,1.38.19c.47.14.82.26,1.21.4a11.68,11.68,0,0,0,2.69.73l-1.26-.36c.06-.2.78,0,1.35.06a6,6,0,0,0,2.09.82,17.16,17.16,0,0,1,3.06,0c-.36.36,2.26.56,2.47.92.35-.33,2.72.16,2.94,0,.75,0,1.77.1,1.74.32-.11,0-.33,0-.57,0l.75.07c-.08,0-.05.07-.14.07.67.06.69-.23,1.53,0,0,.1-.47.07-.85.08,1.77.2,3.13-.45,4.6-.06.29-.19,2.34-.22,1.88-.64.55.13.36.51,1.85.36.84-.42,1.68.06,2.79-.29-1.47.51,0,.12-1.29.56,1,.11,2.51-.58,4.27-.72.19,0,.2.15.4.2a3.58,3.58,0,0,1,2-.48l-.13-.23c1.23-.07,2.82-.63,4.17-.67l1.3-.92a8,8,0,0,0,1.61-.31,10.35,10.35,0,0,0,1.58-.66,12.52,12.52,0,0,0,2.58-1.64,6.09,6.09,0,0,1,1.77-.55l-.66.48c1-.4,2.32-.78,2.69-1.4,1-.6.86-.11,1.63-.44,1.74-1.53,6-2.9,6.18-4-.78.5-2.39,1.23-3.89,2.14.35-.31,0-.28.51-.62a39.29,39.29,0,0,0,3.86-2.16l.11.57C70.58,52,72.13,49.37,74.5,48.62Z"/><path class="cls-1" d="M54.89,59.91l1.29-.27L56,59.49A3.66,3.66,0,0,1,54.89,59.91Z"/><path class="cls-1" d="M56,59.49a6.42,6.42,0,0,0,.64-.41,4.15,4.15,0,0,0-.7.36Z"/><path class="cls-1" d="M78.52,45.48c.12-.08.3-.2.49-.35l.3-.23.24-.23A4.08,4.08,0,0,0,78.52,45.48Z"/><polygon class="cls-1" points="79.55 44.45 79.03 44.76 79 44.86 79.55 44.45"/><path class="cls-1" d="M86.25,77.82c.26.64.56,1.27.84,1.9-.06.39.74,2.57.27,1.92.66,1.08,1.11,3.71,1.35,2.61-2-5.67-3.44-13.81-4.94-20.6l.38,1.08a20.44,20.44,0,0,1-.63-4.15,11.18,11.18,0,0,0-.23-1.7A8.81,8.81,0,0,0,82.72,57l.49.33c0-1.65-1-3.08-.67-4.85l-.17.2c-.05-.46,0-.65,0-1.11l-.06.19A9.46,9.46,0,0,1,82,48.62c.14-.1.09.55.16.91a17.2,17.2,0,0,0-.31-2.39c.08-.74.2,0,.27.09-.24-1.52-.2-4.17-.42-5.68a19.57,19.57,0,0,0-1.94,2.11c-.14.28.62-.21-.21.55A9.8,9.8,0,0,0,81.1,43c.15.76.32,1.78.52,2.92l0-.5c.75,1.35-.09,1,.33,3.17a16.18,16.18,0,0,1-.53-1.84c-.33,2.51.59,3.5.09,5.18l0-.18a8,8,0,0,0,.29,1.56,7.94,7.94,0,0,0,.07-1.11,2.1,2.1,0,0,0,.58,1c-.22.66.23.82.19,1.84-.24.38-.33-.82-.52-1.18l.31,1.19c.13,1.1-.18,1.12-.27,1.68.3.91.09-.56.45.16-.28,1.23.58,6.26,1.18,8.61-.16-.82-.33-.24-.43-1.26,0,.38.31,1.64.52,1.62a25.87,25.87,0,0,1,.84,5.29l.12-.49c.55,1.23.42,3.3,1.14,5.52v0A12.41,12.41,0,0,1,87,78.71C86.62,78.41,86.47,77.69,86.25,77.82Z"/><path class="cls-1" d="M88.94,85.51l-.51-.62c.19.81.86,1.67,1,1.44-.23-.5-.33-1.24-.52-1.28C88.89,85.15,88.79,85.17,88.94,85.51Z"/><path class="cls-1" d="M94.76,99.77c.19.23.25.11.38.19-.78-1.42-1.56-3.06-2.23-4.48a25.25,25.25,0,0,1-1.23-3.33c-.33-1.05-.78-1.09-1.36-2.35l.06-.69c-.46-.63-.86-2.9-1.06-2a7,7,0,0,1,.54,1.19l-.19,0,.56,1.36-.35-.37c.43,2,1,1.13,1.77,3.48l-.4.14a30.39,30.39,0,0,1,1.43,3.68s.2-.07,0-.29-.09-.65.1-.53c1.35,2.12-.38-.25.19,1.4,1.1,1.86,3.26,5.25,3.6,6.41-.3-1,.69.15,1.31,1.13.18.52-.43-.16-.62-.26a6.54,6.54,0,0,0,.78,1.33c-.21-.74.32-.46,1.13.36C97.82,103.89,96,102.29,94.76,99.77Z"/><path class="cls-1" d="M95.45,100.35c-.14-.25-.23-.35-.31-.39l.53,1C95.59,100.75,95.52,100.55,95.45,100.35Z"/><polygon class="cls-1" points="116.19 117.87 117.06 118.34 117.44 118.22 116.19 117.87"/><path class="cls-1" d="M120.51,120.13a15.13,15.13,0,0,0,1.78.06c-.49-.38-.38-.53-.51-.64a12.13,12.13,0,0,0-1.7-.67c-.46,0-1.19-.11-1.79-.17s-1.07-.1-1,.08a11.52,11.52,0,0,0,1.2.24,10.56,10.56,0,0,1,1.43.27c-.46.13-1.51-.14-2.08-.06a2.58,2.58,0,0,0,1.32.38,6.87,6.87,0,0,1,1.48.2Z"/><path class="cls-1" d="M122.63,119.57c-.16.12-.33.25-.31.35C122.5,119.8,123.33,119.65,122.63,119.57Z"/><path class="cls-1" d="M123.66,119.48c1.08,0,0,.27.11.31.41-.19.8-.36,1.18-.58C124.53,119.33,124.1,119.39,123.66,119.48Z"/><path class="cls-1" d="M128.06,118.78l.47-.19A.8.8,0,0,0,128.06,118.78Z"/><path class="cls-1" d="M130.12,118a4.91,4.91,0,0,0-1.59.56h.07c.63-.07.19.48-.82.64-1,.35-1,0-1.84.37l1.3,0A7.76,7.76,0,0,0,130.12,118Z"/><path class="cls-1" d="M128.06,118.78c-.17.06-.36.12-.56.17A1.06,1.06,0,0,0,128.06,118.78Z"/><path class="cls-1" d="M125.87,119.24l-.54.15.15.12C125.61,119.42,125.74,119.34,125.87,119.24Z"/><path class="cls-1" d="M133.44,116.48c0,.28-.6.55-1.21.83s-1.23.48-1.29.7c1.33-.58,2.51-.83,2.34-.45.48-.28.92-.6,1.38-.9S134.27,116.28,133.44,116.48Z"/><path class="cls-1" d="M136.76,115.89a1.72,1.72,0,0,1,.27-.27A.94.94,0,0,0,136.76,115.89Z"/><path class="cls-1" d="M142.8,110.31c-.83.94-1.71,1.85-2.61,2.75.19-.33,0-.36.63-.93-1.35,1-1.34,1.34-2.49,2.11-.58-.09,1.94-1.46,1.07-1.3a11.38,11.38,0,0,0-2.38,2.17c-.49.2-1,.41-1.46.58l.7.13c.6-.23.86-1,1.36-.94.28.06-.22.45-.57.73a40.94,40.94,0,0,0,4.07-2.57C142.77,111.64,141.89,111.39,142.8,110.31Z"/><polygon class="cls-1" points="143.25 110.61 143.57 110.58 143.27 110.51 143.25 110.61"/><path class="cls-1" d="M145.85,107.37l-1.21,1.56a1.29,1.29,0,0,1-.5.15c.13,0-.13.52,0,.53,1-.29,1.67-1.74,2.35-2.53,2.1-1.82.08.26,1.13-.22-.56.55-.66.49-1.45,1.23,1.57-.84,2.75-2.71,3.4-3.58a2.84,2.84,0,0,0-.79.63l.68-.92A17.13,17.13,0,0,0,145.85,107.37Z"/><path class="cls-1" d="M143.3,109.75c.52-.52.74-.67.83-.67C143.91,109.12,143.67,109.22,143.3,109.75Z"/><path class="cls-1" d="M150,104.07a2,2,0,0,0-.39.44A2,2,0,0,0,150,104.07Z"/><path class="cls-1" d="M148.83,104.53l1-1-.51.26C149.17,104,148.73,104.48,148.83,104.53Z"/><path class="cls-1" d="M177.7,61.18c-.21.06-.45.5-.77,1.51-.18-.19.32-1.47.4-2.12-.6,1.27-.25-.11-.58.15-.53,1.46-.47,2.21-1.1,3.75,0-.09-.14-.1-.29.07-.28,1-.64,2.25-1.11,3.53a24.89,24.89,0,0,1-1.82,3.17c-1,1.59-1.63,2.84-2.61,4.67A186.13,186.13,0,0,1,157.87,93.4l-.27,1.09c-.39.15-1.07,1.38-1.17,1a7.07,7.07,0,0,0,.77-1c-1.26,1-2.53,3.29-3.85,4.64.2-.11.7-.1.39.38-.29-.44-1.44,1.7-2.24,1.74-1.35,1.31.29.34-1.08,1.75.08.36,1.37-1.3,1.76-1.43-.22.63-1.26,1.26-1,1.41,2.25-2.24,5.5-7.16,8.18-11.13l-.07.57a43,43,0,0,1,5.06-6.71c-.47.24,2.14-2.94,1.43-3a7.48,7.48,0,0,0,1.06-1.33l0-.3c.69-1.06.82-.73,1.58-2-.72.66-.23-.27-.19-.74,1.13-1.24,2.34-2.76,3.3-3.9a1.69,1.69,0,0,0-.64.49c.6-.81.29-.79.36-1.06.47-.84.71-.58.83-.46,1-1.47.83-2.48,1.66-3.52l-.46.27c.42-.84.88-1.46,1.34-2.31a21.83,21.83,0,0,0,1-2.55c.69-.79-.27,1.66-.43,2.49a15.3,15.3,0,0,1,.76-1.38c.12-.87.38-2.32.58-3.38C176.61,64.25,177.45,61.82,177.7,61.18Z"/><path class="cls-1" d="M176,66.52a4.8,4.8,0,0,0-.07.6,2.93,2.93,0,0,1,.21-.64S176,66.46,176,66.52Z"/><path class="cls-1" d="M177.7,61.18s0,0,.05,0C177.79,61,177.76,61,177.7,61.18Z"/><path class="cls-1" d="M172.28,71.45l.15-.21.17-.28Z"/><path class="cls-1" d="M172.57,73.36c-.28.29-.64.71-1,1.19C171.73,74.46,171.88,74.39,172.57,73.36Z"/><path class="cls-1" d="M165.81,83.65c-.17.35,0,.21-.06.48C166.19,83.48,166.26,83.21,165.81,83.65Z"/><polygon class="cls-1" points="176.81 64.47 177.25 63 177.36 62.44 176.81 64.47"/><path class="cls-1" d="M183.6,34.24a46.44,46.44,0,0,0-1,4.86c-.46,3,.62.52,0,3.36l-.52-.63c-.6,2.82-1.78,6.73-1.93,9.24-.13.18-.37.64-.25-.1-.52,1.85.62,1.22-.35,3.63.32-2.42-.6.63-.79-.12l.06-.37c-.43,1.57-.9,3.69-1.27,4.7.15.1.69-.72.25.66.22-.54.33-.26.47-.16a30.09,30.09,0,0,0,.72-3.15c.47-.72-.1.56.36-.17l.17-1.21c.31-.83-.06.94.39-.36a7.18,7.18,0,0,1,.46-2.32l0,.31c.15-.81.58-1.9.12-1.62l.62-.84-.29.1c.7-2.15,1.51-2.81,1.92-5.73-.24.66-.22,0-.17-.37-.46,1.14-.19,1.51-.44,2.63-.28.1-.09-1.86-.57-.54.67-1.42.66-2.82,1.41-3.32.45-1.8.31-2.54.81-4.36l.08.06c-.33-.41.48-1.47.29-2.92l-.26,1c-.16-.08-.07-.56,0-1.22,0,.08,0,.08.16-.12-.25-.25,0-2.35-.06-2.62-.16.87-.07,2-.16,3C183.69,35,183.42,35.11,183.6,34.24Z"/><path class="cls-1" d="M180.28,53l0-.62A1.73,1.73,0,0,0,180.28,53Z"/><path class="cls-1" d="M184.75,25.94c0-1.2.27.31.37-.81-.25-1.21-.38,1.4-.72.23a7.17,7.17,0,0,0-.32-2.36c.23.51.59.17.65-.07-.17-.44-.13-1.5-.33-2.3.22,2-.54-1.56-.37.22a8.08,8.08,0,0,1-1.11-2.43c.19,0,.4.52.58,1,.46.26-.3-1.21-.22-1.59a7.92,7.92,0,0,0-3.53-2.73,5.63,5.63,0,0,0-1-.23,4.13,4.13,0,0,0-.71,0c-.35.06-.41.18,0,.41.54.24,1,.18,1.63.42-1.6-.75.13-.4.35-.4.7.41,1.85,1.21,1.44,1.19a5.61,5.61,0,0,0-1.13-.55,6.64,6.64,0,0,1,2.06,2.31,12.34,12.34,0,0,1,1.16,3.31,31,31,0,0,1,.47,7.29c.05-.67.08-1.35.09-2a6.25,6.25,0,0,1,.23,1.94c.18-.32.34-.65.51-1-.05.6,0,1.16-.18,1.11.15.73.29.41.48,0a16.07,16.07,0,0,0,0,3,6.28,6.28,0,0,0,.25-2.41,11.52,11.52,0,0,1,.09-2.71C185.18,26.47,185,26.2,184.75,25.94Z"/><polygon class="cls-1" points="184.73 31.53 184.55 30.9 184.57 31.84 184.73 31.53"/><path class="cls-1" d="M183.79,30.46c.11,0,.12.36.23.34C184.19,29.63,184,29.76,183.79,30.46Z"/><path class="cls-1" d="M182.35,16.41c-.2-.2-.41-.38-.61-.57l-.68-.49a6.06,6.06,0,0,1,.76.76C181.87,16,182.2,16.27,182.35,16.41Z"/><path class="cls-1" d="M172,16c2.06-.44,2.91-1,5.18-.79,1.14-.21-.5-.62,0-.86-1.23-.07-1.06.45-2.23.71-.49-.2-1.74.4-2.89.59C172.23,15.75,172.26,15.87,172,16Z"/><path class="cls-1" d="M164.7,16.54a19.06,19.06,0,0,1-2.63.61c.07-.18.62-.36,1.2-.43-.43-.29-1,.27-2.1.23.1,0,.48,0,.21.15-2.56.42-1.37.6-4.71,1-.46.2-.93.28-.81.52-1.93,0-1-.13-3.29,0,.11.13.91.33,1,.64-3.27.11-3.27.65-5.35.53a8.67,8.67,0,0,1,1-.16c-.16-.21-.6-.12-1.09,0a6.87,6.87,0,0,1-1.76.13l.12-.37a13.23,13.23,0,0,1-4.19-.24l.32-.15a45.48,45.48,0,0,1-8.06-1.05l-1.15-.5c-1.56-.28-.82,0,0,.26s1.82.59.61.6c-.18-.73-1.65-.17-3.33-.94-.75-.49,1.8.36,1-.2-.48.23-1-.14-1.91-.34.3-.25-1.89-.68-1.21-.85-1.14-.13-2.26-.35-3.39-.58a8.8,8.8,0,0,0-2-1c1.67.75-.68.29,1.18,1.2,2.83,1.07,7.67,2.46,11.33,3.38.49-.36,2.38.46,3,.19.06.16.33.33.39.48,2.42.25-.52-.33.09-.41,1.05.09,1.86.49,1.74.64,1.73.21.22-.1,1.12-.25.36.2.72.42,1.08.61,1.36.07,2.84.12,4.38.06a35.19,35.19,0,0,0,4.72-.71c3.18-.62,6.44-1.27,9.49-1.74l-.52-.22c2.77-.38,4.43-1.62,7-1.47l.77-.44c-.42.25.57.36-.1.72.72-.26,1.54-.31,2.28-.57l-1.39.15a3.49,3.49,0,0,1,2.35-.38c2-.74-1.32-.27-1.83-.43-2.74,1.18-3,.06-5.7.87C162.87,16.63,164.77,16.35,164.7,16.54Z"/><path class="cls-1" d="M168.42,16.63a3.42,3.42,0,0,0,.4-.17Z"/><path class="cls-1" d="M123.14,14.42l-.75-.33C122.11,14.05,122.53,14.18,123.14,14.42Z"/><path class="cls-1" d="M172.07,15.67h0Z"/><polygon class="cls-1" points="173.27 14.62 172.51 14.78 172.67 14.89 173.27 14.62"/><path class="cls-1" d="M116.09,10.29l-.09.14C116.09,10.42,116.14,10.39,116.09,10.29Z"/><path class="cls-1" d="M96.28,0c.18,0,.35,0,.52,0A2.24,2.24,0,0,0,96.28,0Z"/><path class="cls-1" d="M84.31,49.59A24.74,24.74,0,0,0,85.24,54l-.18-.08c.2.76.88,3.2.91,1.55l-.21-.36c-.55-1.79.06-1.35,0-2.78-.26-1.7-1-2.64-.94-4.18-.07-.67.11-.58.25-.39a23,23,0,0,0-.7-3.16c1.21-.47-.53-4.72.26-7-.08-1.44,0-3.35-.13-5.2.27,1,.1-1.73.43-1.31-.75-.56.69-5.22-.17-5.63.55-2.44-.05-.11.51-2.94.1,0,0,.5,0,.69.3-1.11-.16-1.79.41-2.65.45-2.26-.18-.43-.19-1.82.55-2.34.59-1.65,1.23-2.85-.37-.31.11-1.67.26-2.84-.1.27-.65,1.82-.51.75a10.61,10.61,0,0,0,.59-2.44A8.08,8.08,0,0,1,87.63,9c.94-1.07-.94,2.46.26.43-.22.81-.38,1.52-.49,2.15a5.74,5.74,0,0,0-.15,1.63c.16-.53.32-1.09.5-1.67a14.71,14.71,0,0,1,.55-1.75L88.9,8l.29-.89c.08-.33.12-.61.21-.91.54-1.21,0,.71.38-.24s.92-1.83,1.37-2.56a4.11,4.11,0,0,1,1.91-1.74,3.17,3.17,0,0,0-.21.41,4.3,4.3,0,0,1,2.52-1,13.5,13.5,0,0,1,3.55.14C98.67,1,98.5.86,98.81.83c0,.15.13.25.45.31s.76.16,1.27.27a7.91,7.91,0,0,1,3.21,1.35c0-.45,2.06.38,3.22,1.11.36.35.17.43.11.52C105.31,3,105,3.6,103.4,3c1.4.45,3.33,1.88,4.51,2.4l-.59,0c1.63,1.16,1.84.47,3.37,1.94l-.31.06c3.36,2.6,7.55,5.47,10.86,6.47.34,0-1-1.15-1-1.35-1.83-.81-3-1-4.43-1.73l.2-.3c-.42,0-2.08-.84-1.31-.13-1.17-.53-.66-.73-2-1.42.31-.24,1,.23,1.22,0l-1.12-.58c.4.11-.54-.55-.14-.44a8.64,8.64,0,0,1-2.32-1.55,12.4,12.4,0,0,0-2.31-1.78c.36.29.73.55,1.08.85-.13.15-.75-.32-1.27-.6-.38-.62-.73-.81-1.75-1.59a27.65,27.65,0,0,1-3-1c.48-.26-2.16-1.16-2.34-1.52A4.18,4.18,0,0,1,99.12.43,3.46,3.46,0,0,0,97.6.32c-.41,0-.89,0-1.27,0s-.66,0-.67-.14S96,.08,96.28,0L95.45.1c.07-.06,0-.08.13-.1-.76.11-.69.37-1.68.46,0-.1.49-.27.9-.39A5.22,5.22,0,0,0,92.35,1.3c-.65.54-1.17,1.11-1.83,1.61,0,.18-.4.72-.61,1.22s-.3.93,0,.81c-.36.46-.66.09-1.11,1.66a2.07,2.07,0,0,1-.36,1.25,5.29,5.29,0,0,0-.57,1.46c.23-1.61-.09,0,.08-1.47a33.56,33.56,0,0,0-1.24,4.35c-.13.15-.23.12-.37.28a4.39,4.39,0,0,1-.46,2.11l.26,0c-.38,1.2-.76,2.91-1.23,4.19l.21,1.64a9,9,0,0,0-.64,3.41A14.36,14.36,0,0,0,84.68,27a6.43,6.43,0,0,1-.37,1.9c0-.18-.06-.49-.1-.85-.13,1.13-.48,2.5-.1,3.15.07,1.17-.31.85-.41,1.71a21.13,21.13,0,0,1,0,4.45c0,1.53-.06,2.86.37,3.21,0-1,.11-2.79.12-4.62.09.48.26.11.27.78,0,1.83-.26,2.78-.07,4.62l-.55-.21C83.41,44.29,84.88,47.08,84.31,49.59Z"/><path class="cls-1" d="M84.29,26l-.38,1.31.25-.13A4.07,4.07,0,0,1,84.29,26Z"/><path class="cls-1" d="M84.16,27.22a6.43,6.43,0,0,0,0,.79,4.43,4.43,0,0,0,0-.81Z"/><path class="cls-1" d="M85,54.87a8.37,8.37,0,0,0,.24,1.43A4.8,4.8,0,0,0,85,54.87Z"/><polygon class="cls-1" points="85.42 56.38 85.39 55.7 85.32 55.61 85.42 56.38"/><path class="cls-1" d="M95.53,93.87l1.11,1.84c-.06.44,1.22,2.49.61,1.92.92,1,1.8,3.59,1.85,2.41L98,97.9a23.16,23.16,0,0,1-1.12-2.35c-.68-1.66-1.4-3.4-2.12-5.17-1.21-3.62-2.62-7.31-3.71-10.77l.52,1.07a22.19,22.19,0,0,1-1.17-4.2,11.94,11.94,0,0,0-.46-1.73,9.57,9.57,0,0,0-.79-1.89l.53.29c-.23-1.71-1.33-3.08-1.24-5l-.14.22c-.1-.47-.06-.67-.16-1.14l0,.2a9.87,9.87,0,0,1-.69-3.2c.13-.11.14.57.27.94a20.46,20.46,0,0,0-.58-2.45c0-.77.21,0,.29.06-.67-2.82-.41-4.2-1.42-6.12-.16-.18-.11.78-.34-.25a22.18,22.18,0,0,0,1.09,5.1l-.08-.48c.88,1.26,0,1.07.67,3.22a17,17,0,0,1-.73-1.85c-.1,2.64,1,3.55.75,5.34l-.06-.18a8.67,8.67,0,0,0,.46,1.58,7.18,7.18,0,0,0,0-1.16,2.15,2.15,0,0,0,.69,1c-.15.71.33.82.4,1.88-.18.42-.42-.8-.65-1.15l.45,1.19c.26,1.12-.05,1.18-.08,1.77.41.91,0-.59.47.11-.16,1.31,1.39,6.4,2.28,8.76-.26-.83-.36-.22-.59-1.25,0,.39.53,1.65.73,1.6.16.41.3.85.44,1.31s.32.91.45,1.38c.28.93.51,1.86.68,2.66l0-.51a8.36,8.36,0,0,1,.83,2.4,12.32,12.32,0,0,0,1.1,3.12l0-.05c.34.71,1.06,1.13,1.5,2.48C96,94.42,95.73,93.7,95.53,93.87Z"/><path class="cls-1" d="M99.54,101.31l-.6-.56c.3.82,1.19,1.54,1.26,1.29-.37-.45-.59-1.19-.78-1.21A.52.52,0,0,0,99.54,101.31Z"/><path class="cls-1" d="M109.31,113.68c.28.12.29,0,.44,0a27.14,27.14,0,0,1-3.72-3.46,18.2,18.2,0,0,1-1.4-1.65,11.47,11.47,0,0,1-.78-1.25c-.59-1-1.11-.84-2-2l-.09-.72c-.56-.56-1.51-2.74-1.49-1.78a5.4,5.4,0,0,1,.81,1.07h-.19l.84,1.27-.43-.3a3.83,3.83,0,0,0,.57,1,2.71,2.71,0,0,0,.58.43,4.22,4.22,0,0,1,1.49,1.61l-.34.23c1,1.44,1.73,1.9,2.53,3.21,0,0,.16-.13-.09-.29s-.3-.61-.08-.55c2,1.68-.44-.13.63,1.33.43.34,1,.72,1.56,1.16l.87.68c.29.22.62.41.91.61,1.18.86,2.33,1.46,2.77,1.92-.38-.37-.21-.42.18-.31a8.87,8.87,0,0,1,1.54.51c.22.14.12.17-.08.18a3.29,3.29,0,0,0-.57,0,4.46,4.46,0,0,0,1.43.59c-.31-.22-.33-.37-.12-.43a2.14,2.14,0,0,1,.46-.06h.51l.12,0-.36-.1a3.25,3.25,0,0,1-.42-.11c-.3-.09-.59-.17-.89-.24-.57-.23-1.18-.34-1.75-.59s-1.19-.45-1.76-.78A20.13,20.13,0,0,1,109.31,113.68Z"/><path class="cls-1" d="M110.21,113.89a1.12,1.12,0,0,0-.46-.21l.92.66Z"/><path class="cls-1" d="M44.26,87c0,.06,0,.12-.07.17l.25,0Z"/><path class="cls-1" d="M43.37,87.69l.09.24c.75-.1.53.1,1.07-.31-.11-.16-.38-.48-.67-.41,0,.09.32.23.23.39-.21-.07-.19-.23-.47-.29-.22.23.2.14.08.4Z"/><path class="cls-1" d="M44.09,88a1.75,1.75,0,0,0-.36-.07C43.86,88,44,88.12,44.09,88Z"/><path class="cls-1" d="M44.15,88.19c0,.17-.27,0-.32,0l.46.25Z"/><path class="cls-1" d="M44,88.88,44,89C44.12,89,44.06,88.92,44,88.88Z"/><path class="cls-1" d="M44,89.23c.19,0,.11-.14,0-.26h0c-.16.07-.47-.09-.36-.22s.28-.1.09-.26l-.3.13C43.43,88.86,43.89,89.1,44,89.23Z"/><path class="cls-1" d="M44,88.88a.14.14,0,0,1,0-.09C43.94,88.82,44,88.85,44,88.88Z"/><polygon class="cls-1" points="44.11 88.54 44.05 88.44 43.91 88.44 44.11 88.54"/><path class="cls-1" d="M43.87,89.8c-.43-.17.15-.39-.18-.52,0,.22-.41.29-.64.17,0,.09.05.18.07.27A1,1,0,0,0,43.87,89.8Z"/><path class="cls-1" d="M42.6,89.86a.33.33,0,0,1,.06.08A.12.12,0,0,0,42.6,89.86Z"/><path class="cls-1" d="M42.86,91.27l-.19-.71c.12.11.26.15.25.29.16-.21-.09-.35,0-.52.43.11-.12.34.29.39a.45.45,0,0,0-.19-.59l.36-.12-.48-.09c-.16,0,.29.31,0,.24s-.2-.14-.23-.22c.05.17-.47.22-.54.48S42.75,91,42.86,91.27Z"/><polygon class="cls-1" points="42.39 91.05 42.2 90.99 42.44 91.09 42.39 91.05"/><path class="cls-1" d="M42.62,91.88l-.11-.41a.8.8,0,0,1,.23,0c-.1,0-.22-.2-.31-.23-.44-.1,0,.37-.07.55-.37.25-.19-.14-.61-.22.07-.08.16,0,.26-.15-.53,0-.31.44-.32.64.06,0,.18,0,.2,0l0,.22C42.29,92.33,42.47,92.26,42.62,91.88Z"/><path class="cls-1" d="M42.88,91.41c0,.11-.07.13-.13.11C42.86,91.55,43,91.56,42.88,91.41Z"/><path class="cls-1" d="M41.65,92.18s0,0,0-.07S41.65,92.13,41.65,92.18Z"/><path class="cls-1" d="M42.17,92.34l-.16.14.21,0S42.26,92.39,42.17,92.34Z"/><path class="cls-1" d="M35.82,97c.1.14.21.18.33.07.1.21-.1.28-.12.44.26,0,.13.24.29.41.22-.11.16-.42.41-.51a.41.41,0,0,0,.15.2c.2-.29.54-.73.9-.74s.4-.31.61-.59A29.4,29.4,0,0,0,41,94.2l-.21-.42c.2.12.17-.2.37,0-.08,0-.09.09-.13.15.45.08.39-.52.69-.64-.09,0-.42-.24-.42-.35.38.33.21-.25.71,0,.28-.15-.35-.27-.11-.47-.23-.19-.28.15-.49.06s.23-.15,0-.33a1.93,1.93,0,0,0-.4.84,4,4,0,0,1-.44,1.12L40.34,94a.9.9,0,0,1-1.08.68c.23.16-.5.24-.08.67-.16,0-.17,0-.3,0l.09.18c-.15.11-.3-.13-.47,0,.28.12.19.28.27.49-.39-.08-.77-.12-1.09-.19a.69.69,0,0,0,.26.18c-.17,0,0,.2,0,.29s-.29-.19-.37-.33c-.28.06,0,.68-.31.6l.2.19c-.2.2-.56.07-.78.31-.31-.24,0-.4.08-.6-.1,0-.22,0-.32-.06a5.83,5.83,0,0,1-.12.79C36.24,96.74,35.92,97,35.82,97Z"/><path class="cls-1" d="M36.44,96.4a.48.48,0,0,0,0-.17s0,.07-.07.07A.43.43,0,0,0,36.44,96.4Z"/><path class="cls-1" d="M35.82,97l0,0S35.79,97,35.82,97Z"/><path class="cls-1" d="M37.82,96.86h0l-.05,0Z"/><path class="cls-1" d="M37.33,95.72a1.2,1.2,0,0,0,.35.1A.31.31,0,0,0,37.33,95.72Z"/><path class="cls-1" d="M39,94.87c0-.08-.06-.12-.09-.21C38.79,94.73,38.81,94.82,39,94.87Z"/><polygon class="cls-1" points="36.13 96.51 35.97 96.69 35.94 96.8 36.13 96.51"/><path class="cls-1" d="M32.32,99.57c.28.26.56,0,.83,0,.41-.32-.15-.69.26-.87l.13.65c.42-.2,1.12-.26,1.22-1,.06.06.17.11.1.25.27-.16-.24-.92.2-.89-.16.53.27.3.36.7l0,.07c.22-.15.42-.49.58-.54-.07-.15-.32-.31-.13-.43-.1,0-.16-.17-.23-.32-.11.26-.28.21-.3.47-.21-.15,0-.1-.17-.24l-.07.26c-.14,0,0-.26-.18-.21a.33.33,0,0,1-.21.37v-.09c-.07.13-.27.11-.07.42l-.28-.27.12.21c-.35.08-.69-.47-1,0,.12,0,.07.19,0,.25.23.1.15-.25.29-.33.12.22-.06.59.19.66-.32-.2-.41.19-.7-.37-.27,0-.28.38-.58.33l0-.09c.06.41-.27-.13-.37.32l.17.06c0,.16,0,.18-.13.23s0-.06-.05-.13c0,.29-.28.41-.3.5.15,0,.26-.25.4-.36C32.39,99.36,32.47,99.59,32.32,99.57Z"/><path class="cls-1" d="M34.71,97.6l0,.17A.22.22,0,0,0,34.71,97.6Z"/><path class="cls-1" d="M31,99.29c-.19-.06,0-.26-.16-.38-.16.22.25.4.11.73-.13-.17-.29.15-.37.16a1.09,1.09,0,0,0,0-.64c-.06.11-.23-.07-.34-.07.3.22-.24.17,0,.41,0,.24-.28.43-.4.24s.1-.13.17-.14c.06-.31-.19-.17-.23-.47-.26.44-1.18.38-1,1.09.09.14.19,0,.31,0-.3-.15,0-.38.05-.5.12.12.34-.1.29.15l-.22.26a4.91,4.91,0,0,0,2.33-.13l-.33,0c0-.2.16-.22.26-.33l-.22-.44c.1,0,.17-.06.19.11a.45.45,0,0,0-.08-.47c.21-.13.27,0,.38-.3-.42-.31-.24.41-.71.11Z"/><polygon class="cls-1" points="31.74 98.9 31.69 99.16 31.81 99.01 31.74 98.9"/><path class="cls-1" d="M31.78,100c0-.1,0-.16,0-.26C31.59,99.67,31.63,99.8,31.78,100Z"/><path class="cls-1" d="M29.5,99.11l-.23.07.15.1A.18.18,0,0,1,29.5,99.11Z"/><path class="cls-1" d="M27.72,100.16c.36,0,.52-.19.89.11.21-.29,0-.58.07-.85-.17-.1-.2.42-.41.49,0-.27-.29,0-.47-.07A.59.59,0,0,1,27.72,100.16Z"/><path class="cls-1" d="M26.82,98.92c-.14,0-.34.12-.42,0,.07-.15.17-.19.24-.13.06-.37-.17,0-.24-.27,0,0,0,.12,0,.18-.34-.22-.31.22-.72-.16-.11.07-.17,0-.26.27-.15-.4,0-.35-.21-.74a5.85,5.85,0,0,1-.22.77c-.27-.62-.5-.16-.64-.61,0,0,.12,0,.17,0,.17-.4-.27-.06-.38-.23l.2-.31c-.16,0-.54,0-.57-.3l.14-.14c-.49,0-.81-.36-1.17-.47v-.3c-.56-.08.29.4-.33.62.39-.57-.35,0-.39-.39.11-.27.3.07.4-.25-.27.23-.15,0-.31,0,.29-.18-.13-.17.26-.33a2.43,2.43,0,0,1-.92,0c.08,0,.1-.09.08-.13s0-.09,0-.12-.23.1-.4.1a1.18,1.18,0,0,0-.26,0,.44.44,0,0,0-.15.05.11.11,0,0,0,0,.1,8.87,8.87,0,0,1,1.7,1.42c.32-.32.3.24.6,0-.07.13-.11.25-.18.38.38.14.07-.26.24-.34s.13.35,0,.48c.22.18.09-.09.34-.22l-.12.53a13.35,13.35,0,0,1,2.83,1.1l0-.32c.38.31.88-.48,1.09.28l.18-.23c-.1.13,0,.48-.18.66.14-.07.24.06.39,0l-.2-.19c.21-.23.34,0,.36.19.37-.26-.11-.56-.12-.83-.56.48-.3-.66-.74-.52S26.88,98.76,26.82,98.92Z"/><path class="cls-1" d="M27.16,99.9s.06,0,.09-.06A.24.24,0,0,0,27.16,99.9Z"/><path class="cls-1" d="M21.51,95.84a.25.25,0,0,0,0-.09C21.48,95.71,21.51,95.77,21.51,95.84Z"/><polygon class="cls-1" points="27.8 99.84 27.8 99.83 27.79 99.84 27.8 99.84"/><polygon class="cls-1" points="28.14 99.11 28.02 99.08 28.02 99.23 28.14 99.11"/><path class="cls-1" d="M22.48,95.16l-.13-.1A.27.27,0,0,0,22.48,95.16Z"/><path class="cls-1" d="M24.87,92.83l-.07,0A.07.07,0,0,0,24.87,92.83Z"/><path class="cls-1" d="M32,88.85a1.41,1.41,0,0,0,.54-.65l0,.16c.1-.11.41-.48.09-.69l0,.16c-.22.32-.28-.21-.54-.24-.25.15-.22.79-.49.72-.1,0-.13-.12-.14-.24-.25,0-.2.51-.34.61-.47-1.17-.59.59-1.2,0-.18.18-.51.19-.69.52,0-.34-.27.07-.34-.27.21.7-.91.07-.57.92-.47-.06,0,.07-.5.07,0-.09,0-.13.05-.16-.25-.09-.08.47-.41.16-.36.1.06.25,0,.56-.38.09-.34-.07-.71-.29.19.4-.11.34-.16.63.06,0,.32-.07.26.16-.41.17-.15.43-.42.74-.44-.31.33-.23-.18-.36.1-.33.28-.41.22-.79a2.27,2.27,0,0,0-.86.83c-.22,0,0-.25-.2-.2-.44.06-.18.76-.54.77l-.1-.23c.05.37-.58.36-.75.72.12.07.2.11.22.2-.2-.24-.25-.1-.31.08s-.1.44-.38.4a.67.67,0,0,1,.11.83c-.12,0-.23-.15-.31-.22.41-.08-.07-.54,0-.87,0,.31-.43.44-.36.78l-.18-.27c-.26.2.33.68-.12.72l-.15-.18c-.25.24-.5.5-.74.76s-.5.69-.36.93c.2,0,.79,0,.92,0a1.47,1.47,0,0,1-.25-.78l.29.22c-.17-.19-.11-.52-.36-.51,0-.27.33.08.31-.24.28.26.23.39.47.59l0-.27c.08.14.16,0,.24.12-.1-.55.47-.23.57-.63l-.19.1c-.15-.14-.05-.21,0-.31.29.13.3.06.52,0,0-.22-.21-.56-.05-.72.24.33.4-.11.66.12-.23-.32.24-.37.12-.56,0-.13.19-.2.32,0a.26.26,0,0,1,0,.11l.1-.06s0,.06,0,.08-.09-.28.13-.21c.06.08,0,.12,0,.19.25-.11,0-.77.41-.63-.07-.18.17-.39-.12-.69.16.07.31.35.48.18-.07-.36.3,0,.33-.31,0,.43.06.09.07.49.22,0,.16-.48.44-.57.07,0,.12.14.19.2,0-.16,0-.47.21-.27L27,91c.23,0,.41-.21.72,0v-.53c.52.31.7-.28.76-.78.12,0,.32,0,.36.06l-.05.21c.17-.06.47.1.4-.31.13-.17.24.21.38.22.14-.64,1.15,0,1-.83-.14,0-.47,0-.73.13,0-.12-.08-.26,0-.31.27-.14.51.1.74-.14l.15.53C31.33,89.55,31.37,88.22,32,88.85Z"/><path class="cls-1" d="M28.56,90.13l.3.16-.12-.2A.12.12,0,0,1,28.56,90.13Z"/><path class="cls-1" d="M28.74,90.09a.38.38,0,0,0,.06-.16.18.18,0,0,0-.09.1Z"/><path class="cls-1" d="M32.74,88.53a.23.23,0,0,0,.22-.07C32.89,88.42,32.76,88.43,32.74,88.53Z"/><polygon class="cls-1" points="32.93 88.3 32.81 88.25 32.81 88.31 32.93 88.3"/><path class="cls-1" d="M38.91,86.79l.31-.36c.08.16.45-.07.34.22.18-.41.65-.06.44-.61-1,.26-2.42.08-3.5.75l.15-.25c-.52.54-.91-.34-1.23.61l0-.46c-.3-.07-.4.74-.78.33l.07.17c-.08,0-.12-.06-.2,0l0,.07a.36.36,0,0,1-.51.16c0-.14.08-.09.13-.14-.12-.12-.2.22-.35.25s-.05-.21-.05-.27c-.4.3-.73-.12-.88.62,0,.13.17.19,0,.29.34.13.51-.17.74-.42l-.07,0c.06-.7.19.11.48-.25,0,.28-.19.31-.21.47.5.4.48-.51.88.07l0,0c.07,0,.15-.09.23-.17s-.14-.1-.22-.15c.08-.08.07-.38.08-.51.16.27.11-.16.3,0,.11.26-.09.27-.12.43l.16-.22c.18-.05.23.26.35.39.11-.23-.12-.13,0-.44.26.3,1.06.06,1.42-.26-.13.06,0,.29-.18.28.07,0,.26-.12.23-.33a.8.8,0,0,1,.9,0l-.1-.2c.18-.37.58.18.94-.06h0c.12,0,.17-.57.41-.48C39,86.55,38.88,86.54,38.91,86.79Z"/><path class="cls-1" d="M40.23,86.2l-.11.29c.14.06.29-.32.25-.51-.09.07-.22,0-.22.12S40.17,86.24,40.23,86.2Z"/><path class="cls-1" d="M42.83,86.06c.05-.06,0-.17.06-.25-.56,0-1.23.17-1.46,0s-.21.36-.44.47l-.12-.29c-.12.2-.52-.1-.36.37,0,0,.1-.23.21-.15v.16l.24-.07-.07.22c.35.28.21-.65.64-.46v.41c.27,0,.41-.13.66.12,0,0,0-.21-.05-.12a.37.37,0,0,1-.08-.31c.42-.34-.06.25.24.41.35-.3,1-.53,1.23-.19a.33.33,0,0,1,.3-.49c.09.15-.07.25-.11.37s.17.16.27.1a.51.51,0,0,1,.22-.68C43.7,85.35,43.31,86.11,42.83,86.06Z"/><path class="cls-1" d="M43,85.71a.15.15,0,0,0-.09.1h.2Z"/><path class="cls-1" d="M61.6,82.79l0,.17.25,0Z"/><path class="cls-1" d="M61.09,83.88l.23.21c.57-.52.48-.24.75-.84-.17-.07-.53-.25-.78-.11.07.1.39.12.38.3-.22,0-.27-.14-.56-.1-.09.35.23.09.28.39Z"/><path class="cls-1" d="M61.89,83.81a1.42,1.42,0,0,0-.33.14C61.68,83.91,61.89,83.94,61.89,83.81Z"/><path class="cls-1" d="M62.05,83.9c.07.16-.23.15-.26.18l.5-.09Z"/><path class="cls-1" d="M62.42,84.5a.32.32,0,0,0,.09,0C62.55,84.47,62.49,84.49,62.42,84.5Z"/><path class="cls-1" d="M62.68,84.73c.08-.15,0-.16-.17-.2l0,0c-.05.17-.37.3-.4.12s.11-.28-.15-.27l-.1.33C62,84.93,62.51,84.75,62.68,84.73Z"/><path class="cls-1" d="M62.42,84.5l-.07-.06C62.33,84.51,62.37,84.51,62.42,84.5Z"/><polygon class="cls-1" points="62.24 84.19 62.14 84.16 62.03 84.26 62.24 84.19"/><path class="cls-1" d="M63.08,85.15c-.36.28-.23-.35-.53-.14.16.16,0,.53-.18.67.1,0,.19.07.29.09S63,85.39,63.08,85.15Z"/><path class="cls-1" d="M62.63,86.34a.2.2,0,0,1,.1,0A.18.18,0,0,0,62.63,86.34Z"/><path class="cls-1" d="M64.18,86.6h-.77c.14-.08.22-.21.36-.16-.17-.22-.39,0-.54-.2.23-.36.33.23.48-.15a.55.55,0,0,0-.65,0l0-.39-.27.4c0,.18.41-.12.23.16a.22.22,0,0,1-.3.11c.18.06.09.61.42.78S63.87,86.65,64.18,86.6Z"/><polygon class="cls-1" points="63.9 87.04 63.82 87.21 63.94 86.99 63.9 87.04"/><path class="cls-1" d="M64.8,86.9l-.42.07a.65.65,0,0,1,.06-.23c0,.1-.23.21-.27.29-.11.43.41.11.59.13.28.42-.14.19-.2.63-.11-.08-.06-.17-.19-.3,0,.58.54.39.75.36,0-.06,0-.18-.08-.2l.24,0A.67.67,0,0,0,64.8,86.9Z"/><path class="cls-1" d="M64.34,86.6c.11,0,.13.08.1.14C64.48,86.63,64.5,86.54,64.34,86.6Z"/><path class="cls-1" d="M65.21,87.89s0,0-.09,0S65.16,87.9,65.21,87.89Z"/><path class="cls-1" d="M65.3,87.36l.17.14,0-.22S65.35,87.27,65.3,87.36Z"/><path class="cls-1" d="M73.3,90.09c0-.17-.09-.26-.26-.24,0-.23.25-.17.36-.3-.21-.16,0-.27,0-.5-.24,0-.36.25-.62.17a.54.54,0,0,0,0-.25c-.32.12-.89.3-1.17.06a1.3,1.3,0,0,0-.85,0,13,13,0,0,1-3.24-.92l-.31.37c0-.23-.27-.11-.13-.37,0,.08.11.06.19.08-.09-.46-.63-.23-.85-.48,0,.09-.12.47-.23.49.23-.44-.34-.13-.16-.7-.2-.27-.21.39-.45.17-.17.24.2.27.15.5-.2.16-.21-.23-.34,0a1.6,1.6,0,0,0,1,.27c.44,0,.91,0,1.31,0l-.17.24a1.19,1.19,0,0,1,1.25.63c0-.27.55.28.63-.32.07.16.1.14.23.23l.08-.18c.2,0,.1.34.34.36-.1-.28.08-.33.19-.53.2.32.47.62.67.89a.64.64,0,0,0-.07-.3c.14.11.15-.14.21-.22s.09.34.06.51c.27.14.48-.46.66-.23l0-.27c.3,0,.51.27.84.2.13.38-.29.29-.44.44.06.08.2.11.23.24a6.5,6.5,0,0,1,.6-.57C72.77,90.05,73.19,90.06,73.3,90.09Z"/><path class="cls-1" d="M72.37,90.21l-.11.13a.13.13,0,0,1,.12,0A.2.2,0,0,0,72.37,90.21Z"/><path class="cls-1" d="M73.3,90.09v0S73.33,90.1,73.3,90.09Z"/><path class="cls-1" d="M71.53,89l0,0,.05,0Z"/><path class="cls-1" d="M71.14,90.16a2.64,2.64,0,0,0-.22-.32A.32.32,0,0,0,71.14,90.16Z"/><path class="cls-1" d="M69.19,89.5c-.07,0-.06.12-.12.19C69.19,89.73,69.26,89.66,69.19,89.5Z"/><polygon class="cls-1" points="72.73 90.31 72.99 90.24 73.08 90.18 72.73 90.31"/><path class="cls-1" d="M77.63,88.6c-.28-.27-.52,0-.79,0-.44.22.06.69-.4.79v-.66c-.45.09-1.07.07-1.44.62,0-.08-.12-.18,0-.28-.31,0-.13.94-.56.73.38-.42-.13-.39,0-.8l.06,0c-.25,0-.6.26-.77.24,0,.16.13.42-.1.44.09,0,0,.22,0,.39.26-.18.39-.07.54-.29.13.22-.1.07,0,.28l.2-.2c.15,0-.15.22.08.26a.36.36,0,0,1,.38-.24l0,.08c.14-.09.33,0,.25-.35l.18.36,0-.25c.36.11.56.64,1,.29-.12-.06,0-.21,0-.26-.22-.15-.22.21-.41.27,0-.24.23-.58,0-.7.28.26.46-.09.65.51.31,0,.37-.32.71-.22v.1c0-.42.29.11.42-.35l-.17,0c0-.17,0-.19.14-.25s0,.07.06.14c0-.3.27-.43.29-.52-.15,0-.25.26-.4.38C77.57,88.82,77.48,88.58,77.63,88.6Z"/><path class="cls-1" d="M74.72,90.05l.09-.14A.21.21,0,0,0,74.72,90.05Z"/><path class="cls-1" d="M79.05,88.71c.21,0,0,.26.26.32.11-.26-.36-.31-.29-.67.17.12.23-.23.3-.27a1.28,1.28,0,0,0,.24.61c0-.13.26,0,.39,0-.39-.11.18-.23-.19-.37-.07-.22.11-.48.29-.39s0,.17-.1.22c.08.31.25.06.42.3.07-.54.88-1,.29-1.44-.16-.07-.14.12-.21.19.32,0,.19.32.23.45-.17,0-.25.26-.33,0l0-.32a15.56,15.56,0,0,0-2,.9,1.76,1.76,0,0,0,.3-.1c0,.2-.11.27-.19.39l.3.39c-.1,0-.17.1-.21-.06a.41.41,0,0,0,.15.45c-.22.15-.31,0-.42.32.52.25.26-.36.82-.23Z"/><polygon class="cls-1" points="78.27 89.24 78.3 88.98 78.18 89.13 78.27 89.24"/><path class="cls-1" d="M78.13,88.2c0,.1,0,.16,0,.26C78.35,88.48,78.29,88.35,78.13,88.2Z"/><path class="cls-1" d="M80.6,88.3l.19-.19H80.6A.18.18,0,0,1,80.6,88.3Z"/><path class="cls-1" d="M81.39,86.38c-.23.22-.23.48-.65.49,0,.35.38.44.46.72.19,0-.11-.48,0-.67.21.18.2-.21.38-.26A.54.54,0,0,1,81.39,86.38Z"/><path class="cls-1" d="M82.9,86.44c.13-.1.1-.35.28-.34s.08.24,0,.27c.3.23.09-.16.38-.11,0,0-.12,0-.15-.11.36-.25-.06-.39.47-.64,0-.13,0-.18-.16-.34.44,0,.33.09.78,0a4.51,4.51,0,0,1-.7-.39c.66-.14.28-.44.73-.52,0,0,0,.13-.05.17.38.23.09-.28.26-.38l.3.22c0-.18,0-.55.35-.6l.14.14c0-.54.35-.92.38-1.33l.3-.09c0-.59-.34.41-.69-.17.66.24-.09-.32.27-.48s0,.34.36.31c-.3-.2,0-.22,0-.42.32.1.18-.38.53-.24a1.39,1.39,0,0,0-.46-.58.48.48,0,0,0,.22-.23c0-.08-.13-.08-.19-.11.14.09,0,.13-.2.19a1.56,1.56,0,0,0-.26.11.57.57,0,0,0-.18.15,1.69,1.69,0,0,1-.47,1.4c.38.26-.17.33.11.58l-.4-.13c-.1.37.26,0,.37.2s-.34.16-.47.06c-.16.22.09.09.23.33l-.51-.11a4.32,4.32,0,0,1-1.61,2.37l.27.17c-.42.18-.09,1-.82.78l.07.3c0-.17-.35-.32-.4-.56,0,.16-.2.13-.24.28H82c0,.29-.2.26-.38.1-.08.45.48.33.71.49,0-.74.73.13.94-.37C83.32,86.45,83,86.58,82.9,86.44Z"/><path class="cls-1" d="M81.91,86.17a.41.41,0,0,0,0,.11A.45.45,0,0,0,81.91,86.17Z"/><path class="cls-1" d="M86.19,80.44,86,80.38C85.92,80.4,86,80.41,86.19,80.44Z"/><polygon class="cls-1" points="81.57 86.66 81.57 86.66 81.57 86.66 81.57 86.66"/><polygon class="cls-1" points="81.83 87.41 81.94 87.35 81.84 87.25 81.83 87.41"/><path class="cls-1" d="M85.08,79.39l-.07.15A.3.3,0,0,0,85.08,79.39Z"/><path class="cls-1" d="M81.68,78.08l.07,0A.05.05,0,0,0,81.68,78.08Z"/><path class="cls-1" d="M73.09,78.34a1.38,1.38,0,0,0-.61.59v-.17c-.11.1-.44.43-.14.67l0-.15c.23-.29.25.23.49.3.25-.12.3-.76.56-.66.1,0,.11.13.1.26.24,0,.26-.49.42-.58.23,1.23.69-.41,1.14.34.21-.12.52,0,.79-.32-.13.33.27,0,.23.36,0-.73.82.31.84-.6.4.25,0-.06.47.14,0,.11-.07.11-.1.13.17.18.27-.4.42,0,.35.06.06-.25.28-.5.38.12.27.25.45.64.06-.43.27-.2.47-.41,0,0-.3-.14-.12-.29.44.11.38-.25.82-.33.16.49-.42,0-.09.38-.29.21-.48.17-.65.51a2.25,2.25,0,0,0,1.17-.16c.2.08-.14.22,0,.27.33.28.65-.37.91-.1l-.11.23c.24-.28.63.21,1,.1,0-.13,0-.22,0-.29-.08.3.06.25.25.18s.43-.1.52.17a.63.63,0,0,1,.72-.45.78.78,0,0,1-.07.38c-.26-.35-.47.29-.78.38.28-.12.56.2.85,0l-.18.26c.27.15.51-.56.72-.18l-.12.2a3.41,3.41,0,0,1,.88.55,1.2,1.2,0,0,0,.93.21c.24-.08.33-.53.4-.66a2.42,2.42,0,0,0-1.2.1l.16-.32c-.16.19-.48.19-.42.44-.26.07,0-.36-.29-.28.17-.33.31-.3.44-.59l-.26.07c.12-.1-.06-.17.06-.27-.54.28-.44-.35-.9-.3l.19.14c-.08.19-.19.13-.3.16,0-.32-.08-.3-.23-.49-.22.1-.43.42-.64.34.16-.36-.31-.34-.27-.66-.15.37-.48,0-.57.25s-.3,0-.25-.23l.11,0-.13,0s0-.08,0-.08-.18.25-.28,0,.1-.09.17-.12c-.29-.12-.63.48-.81.08-.08.18-.41.12-.4.55-.07-.16,0-.49-.24-.45-.19.33-.27-.16-.48,0,.29-.34,0-.1.27-.43-.15-.16-.46.29-.75.2,0-.09,0-.19,0-.28-.13.11-.27.39-.36.09v.25c-.2-.14-.48-.1-.69-.37l-.26.48c-.33-.5-.79,0-1,.4-.12,0-.3-.1-.31-.21a1.29,1.29,0,0,1,.13-.17c-.18,0-.42-.29-.5.11-.17.14-.15-.26-.29-.31-.33.59-1.15-.3-1.17.56a2.88,2.88,0,0,0,.74.07c-.07.1,0,.27-.1.29-.28.07-.46-.23-.73-.06l0-.54C73.85,77.67,73.6,79,73.09,78.34Z"/><path class="cls-1" d="M76.83,78l-.22-.27,0,.23A.13.13,0,0,1,76.83,78Z"/><path class="cls-1" d="M76.64,77.94a.46.46,0,0,0-.12.12.16.16,0,0,0,.13-.06Z"/><path class="cls-1" d="M72.28,78.58a.25.25,0,0,0-.23,0C72.12,78.67,72.25,78.67,72.28,78.58Z"/><polygon class="cls-1" points="72.07 78.78 72.19 78.85 72.19 78.78 72.07 78.78"/><path class="cls-1" d="M66.34,81l-.19.43c-.11-.13-.39.19-.38-.12,0,.44-.58.25-.22.71.83-.55,2.18-.7,3.09-1.53l-.1.27c.42-.6.9.25,1.1-.74l.07.45c.29.06.31-.78.71-.39l-.08-.17c.07,0,.12.06.2,0l-.05-.07c.14-.23.26-.23.48-.15,0,.13-.07.08-.12.13.12.12.2-.21.34-.25s0,.21,0,.27c.39-.3.69.12.86-.62,0-.13-.17-.21,0-.29-.34-.15-.53.18-.75.42l.07,0c0,.7-.19-.11-.46.25,0-.28.17-.31.2-.47-.52-.39-.47.51-.89,0l0,0c-.07,0-.15.1-.22.18s.15.09.22.14,0,.37,0,.5c-.17-.25-.09.18-.29.08s.07-.28.09-.43l-.14.23c-.17.07-.25-.23-.38-.35-.09.24.13.12.09.43-.28-.26-1.06.06-1.35.43.12-.08-.05-.29.13-.3-.08,0-.24.16-.17.36a.75.75,0,0,1-.87.16l.14.17c-.09.41-.6-.07-.89.26h0c-.09.09,0,.6-.25.58C66.33,81.24,66.44,81.21,66.34,81Z"/><path class="cls-1" d="M65.3,81.92v-.31c-.15,0-.16.4-.06.56.06-.09.21,0,.16-.18S65.33,81.86,65.3,81.92Z"/><path class="cls-1" d="M63,83a.77.77,0,0,0,.07.26c.45-.27,1-.64,1.27-.53s.05-.4.22-.58l.21.22c0-.21.5-.07.19-.46,0,0,0,.25-.14.22l0-.16-.19.14,0-.22c-.42-.13,0,.66-.4.65L64,82.16c-.25.09-.31.28-.64.15,0,0,.09.19.09.1s.18.12.2.25c-.22.47,0-.25-.38-.28-.19.4-.66.91-1,.7a.32.32,0,0,1,0,.56c-.14-.09-.06-.24-.09-.37s-.22,0-.26,0a.61.61,0,0,1,.2.67C62.63,84,62.61,83.16,63,83Z"/><path class="cls-1" d="M63.08,83.38a.11.11,0,0,0,0-.12l-.16.09Z"/><path class="cls-1" d="M79.05,129.9l.2-.14-.18-.19C79.07,129.68,79.06,129.79,79.05,129.9Z"/><path class="cls-1" d="M80.42,129.35c0-.15,0-.31.07-.46-.78,0-.45-.24-1.19.1,0,.23,0,.77.28.87.06-.16-.07-.5.11-.67.15.19,0,.41.18.66.4-.26,0-.31.25-.66Z"/><path class="cls-1" d="M79.93,128.6a1.18,1.18,0,0,0,.31.19C80.14,128.71,80.06,128.47,79.93,128.6Z"/><path class="cls-1" d="M79.94,128.34c.1-.23.26.09.3.08a4.89,4.89,0,0,0-.37-.41C79.9,128.12,79.92,128.23,79.94,128.34Z"/><path class="cls-1" d="M80.2,127.33s0-.09,0-.12S80.15,127.28,80.2,127.33Z"/><path class="cls-1" d="M80.18,126.81c-.17.1-.06.22,0,.4l0,0c.16-.13.48,0,.36.28,0,.28-.29.19-.12.45a4.08,4.08,0,0,0,.33-.25C80.8,127.22,80.32,127,80.18,126.81Z"/><path class="cls-1" d="M80.2,127.33a.33.33,0,0,1,0,.14C80.27,127.42,80.24,127.37,80.2,127.33Z"/><polygon class="cls-1" points="80.07 127.84 80.11 127.98 80.25 127.99 80.07 127.84"/><path class="cls-1" d="M80.09,126c.46,0,0,.61.37.66,0-.35.25-.69.52-.65a2.32,2.32,0,0,0-.22-.41C80.55,125.48,80.27,125.74,80.09,126Z"/><path class="cls-1" d="M81,124.86a.35.35,0,0,1-.12-.07A.19.19,0,0,0,81,124.86Z"/><path class="cls-1" d="M79.15,123.45a5,5,0,0,1,1,.46c-.17,0-.27.12-.44,0,.18.39.47.27.61.61-.31.29-.36-.51-.57-.14a1.06,1.06,0,0,0,.73.53,2.64,2.64,0,0,1-.14.48l.41-.29c.06-.21-.48-.17-.22-.4s.27,0,.37.11c-.1-.11-.1-.32-.11-.59a1.61,1.61,0,0,0-.3-.77C80,123,79.54,123.56,79.15,123.45Z"/><polygon class="cls-1" points="79.5 123.06 79.59 122.88 79.44 123.09 79.5 123.06"/><path class="cls-1" d="M78.32,122.84l.55.08c0,.06,0,.16-.06.24.06-.09.29-.14.33-.22.1-.47-.55-.31-.81-.39-.49-.54.16-.17.15-.66.17.13.14.2.34.41-.08-.66-.88-.62-1.16-.64,0,.07,0,.2.16.25l-.32,0A1.3,1.3,0,0,0,78.32,122.84Z"/><path class="cls-1" d="M79,123.38c-.15-.09-.18-.16-.15-.21C78.77,123.28,78.75,123.38,79,123.38Z"/><path class="cls-1" d="M77.51,121.61s.07,0,.15,0A.19.19,0,0,0,77.51,121.61Z"/><path class="cls-1" d="M77.54,122.18a2.82,2.82,0,0,0-.29-.18l0,.24S77.5,122.27,77.54,122.18Z"/><path class="cls-1" d="M65.17,120.78c.06.16.19.23.43.16,0,.23-.32.24-.45.39.35.1,0,.27.15.48.36,0,.48-.35.88-.34a.32.32,0,0,0,.07.24,2.76,2.76,0,0,1,1.69-.35,3.13,3.13,0,0,0,1.25-.21,20.14,20.14,0,0,1,5,.26l.32-.4c0,.24.42.08.31.36-.08-.08-.18-.05-.29-.06.29.46,1,.14,1.37.42,0-.09,0-.49.17-.51-.19.47.54.14.47.74.36.31.17-.41.59-.14.16-.25-.38-.32-.39-.57.23-.16.39.28.48,0a3.16,3.16,0,0,0-1.6-.32l-1.88.12.15-.26a2.52,2.52,0,0,1-2-.41c.11.27-.88-.16-.79.45-.15-.14-.19-.13-.41-.17l0,.19c-.3,0-.26-.29-.6-.26.23.25,0,.33-.11.55-.4-.28-.87-.5-1.24-.72a.56.56,0,0,0,.2.28c-.25-.08-.19.17-.25.26-.23,0-.23-.31-.23-.47-.43-.07-.56.58-.89.39l.13.26c-.42.11-.81-.15-1.28,0-.27-.33.36-.36.54-.54-.11-.06-.32-.06-.4-.17a8.08,8.08,0,0,1-.72.71C66,120.67,65.34,120.78,65.17,120.78Z"/><path class="cls-1" d="M66.48,120.41a.66.66,0,0,0,.12-.16.18.18,0,0,1-.15,0A.2.2,0,0,0,66.48,120.41Z"/><path class="cls-1" d="M65.17,120.78v0S65.13,120.77,65.17,120.78Z"/><path class="cls-1" d="M68,121.38l-.07,0h-.07Z"/><path class="cls-1" d="M68.27,120.14a2.63,2.63,0,0,0,.39.26C68.61,120.29,68.57,120.19,68.27,120.14Z"/><path class="cls-1" d="M71.25,120.34c.09,0,0-.13.11-.21C71.17,120.12,71.1,120.2,71.25,120.34Z"/><polygon class="cls-1" points="65.95 120.41 65.59 120.54 65.47 120.63 65.95 120.41"/><path class="cls-1" d="M59.05,123.27c.39.21.78-.1,1.17-.13.65-.34-.09-.7.56-.9l0,.66c.65-.2,1.6-.28,2.05-1,.07.06.21.14,0,.26.44-.1,0-1,.7-.86-.49.51.25.35.17.78l-.08.06a10.17,10.17,0,0,1,1.09-.42c0-.17-.29-.39,0-.46-.14,0-.12-.21-.13-.38-.32.24-.55.17-.7.42-.2-.19.1-.08-.1-.27l-.26.24c-.22,0,.18-.25-.15-.24a.6.6,0,0,1-.51.34l.05-.09c-.17.12-.47.07-.3.41l-.3-.31.09.24c-.54,0-.87-.52-1.48-.06.18,0,.06.2,0,.26.32.1.31-.26.57-.35.09.23-.29.62.06.69-.42-.21-.65.2-1-.37-.44.07-.52.41-1,.38v-.09c0,.41-.4-.09-.6.4l.25,0c0,.16-.08.2-.22.27s0-.07-.07-.13c0,.3-.43.48-.47.58.21,0,.39-.31.61-.45C59.16,123,59.26,123.26,59.05,123.27Z"/><path class="cls-1" d="M63.18,121.16l-.12.17A.25.25,0,0,0,63.18,121.16Z"/><path class="cls-1" d="M57,123.34c-.29,0,0-.26-.3-.31-.21.29.44.3.27.68-.22-.12-.38.26-.49.31a.78.78,0,0,0-.2-.62c-.07.14-.36,0-.54.08.51.08-.3.27.17.38,0,.23-.29.53-.52.42,0-.16.1-.17.21-.22,0-.33-.33-.06-.49-.32-.26.55-1.54,1-.92,1.55.18.07.24-.13.37-.22-.46,0-.13-.35-.14-.48.21,0,.44-.29.46,0l-.19.35a21.81,21.81,0,0,0,3.17-1.1l-.46.13c0-.21.21-.28.35-.42l-.36-.38c.14,0,.25-.11.28,0,.11-.24,0-.33-.15-.46.33-.18.43,0,.61-.4-.68-.19-.39.45-1.15.34Z"/><polygon class="cls-1" points="58.19 122.71 58.12 122.98 58.3 122.8 58.19 122.71"/><path class="cls-1" d="M58.27,123.76c0-.09,0-.16,0-.26C58,123.52,58.06,123.64,58.27,123.76Z"/><path class="cls-1" d="M54.78,123.85l-.31.2h.25A.18.18,0,0,1,54.78,123.85Z"/><path class="cls-1" d="M52.89,125.9c.43-.22.54-.52,1.15-.5.15-.38-.33-.49-.32-.79-.28,0-.06.51-.29.71-.2-.2-.37.21-.64.26A.41.41,0,0,1,52.89,125.9Z"/><path class="cls-1" d="M50.92,125.65c-.21.09-.33.37-.55.33a.21.21,0,0,1,.2-.29c-.24-.31-.21.16-.54,0,0,0,.15,0,.12.15-.59.19-.18.43-1,.58-.06.14-.16.19,0,.4-.54,0-.34-.17-1-.12a2.69,2.69,0,0,1,.57.59c-.87,0-.65.4-1.22.45,0,0,0-.16.17-.21-.3-.31-.28.34-.54.44l-.22-.3c-.18.22-.36.67-.76.78l-.09-.18a6.84,6.84,0,0,0-.8,2.05l-.3.28c.12.89.3-.81.72-.08-.34,0-.31.09-.23.25s.21.35.09.56-.16-.46-.46-.23c.35.11.11.25.22.5-.35,0,0,.52-.39.42a6.31,6.31,0,0,0,.81.7c-.13.18,0,.4.1.54-.16-.4.5-.09.47-.57a1.68,1.68,0,0,1-.26-.5,1.79,1.79,0,0,1-.17-.65,2.17,2.17,0,0,1,.23-1.3c-.38-.24.24-.47,0-.76.14,0,.28.06.41.12.22-.48-.3,0-.36-.22a.38.38,0,0,1,.57-.12c.25-.28-.08-.11-.14-.42a5.36,5.36,0,0,1,.54.14,6.35,6.35,0,0,1,3.45-2.42l-.23-.24c.65-.12.71-1.09,1.51-.71l.08-.33c0,.18.29.39.22.65.12-.17.34-.13.47-.29h-.36a.3.3,0,0,1,.56-.09c.34-.48-.47-.39-.68-.59-.41.8-.86-.25-1.38.25C50.41,125.57,50.88,125.49,50.92,125.65Z"/><path class="cls-1" d="M52.05,126.09a.34.34,0,0,0,.06-.12A.27.27,0,0,0,52.05,126.09Z"/><path class="cls-1" d="M45.83,133.3a.85.85,0,0,0,.1.18C46,133.51,45.93,133.43,45.83,133.3Z"/><polygon class="cls-1" points="52.79 125.58 52.78 125.58 52.78 125.58 52.79 125.58"/><polygon class="cls-1" points="52.8 124.74 52.63 124.81 52.71 124.92 52.8 124.74"/><path class="cls-1" d="M46.55,135.24l.13-.1A.21.21,0,0,0,46.55,135.24Z"/><path class="cls-1" d="M51.21,135.87l-.08.08A.11.11,0,0,0,51.21,135.87Z"/><path class="cls-1" d="M61.27,129a2.41,2.41,0,0,0,.84-.78l0,.17c.14-.16.66-.51.21-.72l-.06.16c-.35.35-.37-.17-.74-.17-.38.21-.41.88-.8.86-.15.06-.18-.1-.17-.23-.37.07-.34.57-.55.71-.58-1.17-.89.76-1.7.26-.27.24-.73.34-1,.75.07-.38-.38.16-.46-.2.25.69-1.24.4-.83,1.23-.64.1,0,.06-.68.25-.06-.09,0-.15.07-.19-.34,0-.14.55-.56.32-.5.24.06.25-.06.63-.54.21-.46,0-.94-.07.22.39-.17.43-.24.78.06,0,.41-.2.32.09-.55.36-.23.56-.61,1-.55-.18.45-.39-.2-.35.15-.42.39-.59.34-1a4.8,4.8,0,0,0-1.18,1.3c-.29.15,0-.28-.25-.15-.59.19-.32.94-.78,1.1l-.1-.24c0,.43-.75.66-1,1.17.14,0,.23.06.24.17-.22-.22-.29,0-.39.22s-.32.66-.57.6c.17.34-.27,1.4-.68.83a.68.68,0,0,1,0-.5.57.57,0,0,0,.29.27c.07,0,.13,0,.17-.16a6.82,6.82,0,0,1,.19-.85,1.08,1.08,0,0,1-.15.28l-.09.11s-.08,0-.11-.07-.28-.2-.44-.14a2.46,2.46,0,0,0,.17-.27c-.12-.13-.25,0-.41,0s-.33,0-.4-.23l.2-.13c-.74-.69-1.1-1.8-1.89-2.25-.21,0-.38.6-.49.71.39.37.86.39,1.19.59l-.28.22c.25-.08.64.16.64-.15.32.11-.1.38.27.5-.29.24-.46.1-.7.3l.35.11c-.18,0,0,.22-.14.25a.67.67,0,0,1,.57.44,1.74,1.74,0,0,0,.73.75c-.12-.12-.23-.24-.34-.37.11-.18.28,0,.44.05.08.45.2.49.54.92.16.11.25-.31.33-.51a1.64,1.64,0,0,1,.31-.59c.07.5.62-.32.92-.15-.19-.38.36-.58.24-.78.07-.19.27-.33.42-.18a.6.6,0,0,1,0,.14l.14-.12c0,.05,0,.07,0,.09s-.09-.31.19-.32c.07.08,0,.15,0,.25.34-.25.11-1,.59-1-.09-.19.3-.51-.07-.75.2,0,.39.3.62,0-.07-.4.4-.15.46-.5,0,.52.06.08,0,.55.28,0,.25-.63.62-.85.09,0,.15.12.24.16,0-.19,0-.54.3-.4l-.17-.19c.31-.07.56-.41,1-.34l0-.58c.69.16,1-.56,1.09-1.15.17-.08.44-.15.49,0s0,.15-.08.25c.24-.12.63-.07.57-.48.19-.22.31.16.52.13.24-.74,1.61-.32,1.41-1.16a5.55,5.55,0,0,0-1,.34c.06-.14-.09-.25,0-.34.38-.22.71,0,1-.35l.17.52c.43.08.68-.21.94-.45S60.87,128.73,61.27,129Z"/><path class="cls-1" d="M56.35,131.29l.4.07-.14-.18A.23.23,0,0,1,56.35,131.29Z"/><path class="cls-1" d="M56.61,131.18a.56.56,0,0,0,.09-.19.25.25,0,0,0-.13.14Z"/><path class="cls-1" d="M62.4,128.52a.42.42,0,0,0,.33-.06A.28.28,0,0,0,62.4,128.52Z"/><polygon class="cls-1" points="62.72 128.29 62.54 128.24 62.53 128.31 62.72 128.29"/><path class="cls-1" d="M71.81,127.35l.56-.24c.06.18.67.08.43.33.38-.34,1,.17.83-.44-1.52-.09-3.61-.74-5.39-.16l.29-.23c-.9.46-1.29-.52-2,.46l.07-.47c-.44-.08-.74.74-1.23.31l.07.18c-.11,0-.17-.07-.29-.06l.06.08a.78.78,0,0,1-.77.14c0-.14.12-.09.21-.14-.16-.12-.34.23-.57.28s0-.21,0-.27c-.64.34-1.07-.06-1.39.71,0,.13.23.18,0,.29.49.12.78-.22,1.15-.49l-.11,0c.2-.72.27.09.74-.3-.09.29-.32.34-.38.5.67.36.79-.56,1.28.06l0,0c.1,0,.24-.09.37-.16-.06-.08-.2-.11-.29-.16.12-.08.16-.37.19-.5.19.27.2-.17.46-.05.12.27-.18.27-.26.43l.28-.22c.27,0,.3.27.44.4.21-.23-.14-.13,0-.44a3,3,0,0,0,2.15-.09c-.21,0-.07.29-.32.25.09.06.41-.08.41-.29a1.42,1.42,0,0,1,1.32.2l-.09-.22c.35-.32.8.33,1.39.17h0c.19,0,.41-.5.74-.34C72,127.15,71.83,127.1,71.81,127.35Z"/><path class="cls-1" d="M73.91,127.25l-.24.24c.18.11.52-.19.52-.39-.15,0-.31-.14-.37,0S73.81,127.26,73.91,127.25Z"/><path class="cls-1" d="M77.69,128.35c.09,0,.12-.15.18-.21a7.34,7.34,0,0,1-2.08-.79c-.25-.16-.42.22-.78.24l-.08-.32c-.24.13-.73-.32-.64.2,0,0,.21-.18.35-.06l-.06.16.37,0-.16.17c.41.4.51-.51,1.06-.14l-.13.4c.39.14.64.07.91.42,0,0,.07-.19,0-.14a.27.27,0,0,1,0-.33c.71-.1-.17.2.18.51.6-.1,1.66.08,1.8.52-.13-.33.33-.44.6-.27.07.2-.19.18-.29.27.11.11.17.25.32.26,0-.28.16-.54.59-.47C79.17,128.18,78.35,128.66,77.69,128.35Z"/><path class="cls-1" d="M78,128.1a.15.15,0,0,0-.15,0,2.15,2.15,0,0,1,.27.1Z"/><path class="cls-1" d="M121,45a1.47,1.47,0,0,0,.1-.13l-.25-.06Z"/><path class="cls-1" d="M122,44.27l-.12-.28c-.74.19-.53,0-1,.39.11.12.36.43.65.41,0-.11-.31-.26-.21-.41.21.07.18.23.45.32.24-.25-.16-.17-.07-.44Z"/><path class="cls-1" d="M121.23,44a2.23,2.23,0,0,0,.36,0C121.46,44,121.29,43.88,121.23,44Z"/><path class="cls-1" d="M121.13,43.84c0-.16.28,0,.31,0l-.49-.13Z"/><path class="cls-1" d="M121.07,43.19a.34.34,0,0,0-.06-.06C120.94,43.17,121,43.18,121.07,43.19Z"/><path class="cls-1" d="M121,42.89c-.15.1,0,.15.05.24l0,0c.12-.11.47-.1.41.07.11.15-.22.18,0,.29l.24-.24C121.61,43,121.1,43,121,42.89Z"/><path class="cls-1" d="M121.07,43.19a.3.3,0,0,1,0,.08S121.12,43.21,121.07,43.19Z"/><polygon class="cls-1" points="121.09 43.52 121.17 43.59 121.31 43.55 121.09 43.52"/><path class="cls-1" d="M120.79,42.38c.45-.09,0,.39.41.33-.07-.2.2-.46.46-.49l-.21-.2C121.26,42,121,42.21,120.79,42.38Z"/><path class="cls-1" d="M121.74,41.55a.13.13,0,0,1-.1,0A.12.12,0,0,0,121.74,41.55Z"/><path class="cls-1" d="M120.49,40.71l.68.31c-.16,0-.29.1-.39,0,0,.25.34.16.38.38-.38.22-.17-.33-.48-.06a.51.51,0,0,0,.54.3L121,42l.42-.24c.09-.14-.42,0-.13-.23a.24.24,0,0,1,.32,0c-.15-.11.19-.56,0-.84S120.79,40.79,120.49,40.71Z"/><polygon class="cls-1" points="120.94 40.45 121.09 40.32 120.88 40.46 120.94 40.45"/><path class="cls-1" d="M120.09,40.21l.41.1s-.1.11-.16.17c.09-.06.29-.09.36-.14.3-.33-.31-.25-.46-.34-.06-.47.2-.11.45-.47.06.11,0,.17,0,.33.26-.48-.28-.55-.49-.6,0,.06-.11.15,0,.2L120,39.4A.6.6,0,0,0,120.09,40.21Z"/><path class="cls-1" d="M120.36,40.65c-.07-.08-.08-.12,0-.16S120.2,40.64,120.36,40.65Z"/><path class="cls-1" d="M120.17,39.19s0,.05.07.07S120.23,39.2,120.17,39.19Z"/><path class="cls-1" d="M119.86,39.62l-.08-.19-.12.18S119.78,39.68,119.86,39.62Z"/><path class="cls-1" d="M114.06,34.3c-.06.16,0,.28.13.32-.12.2-.28.06-.42.14.12.23-.12.25-.17.47.19.12.41-.1.61.06a.43.43,0,0,0-.09.23c.32,0,.88,0,1,.36s.42.23.74.3a11.19,11.19,0,0,1,2.42,2l.42-.21c-.12.2.18.2,0,.38,0-.09-.07-.09-.13-.14-.12.44.45.42.54.72,0-.07.3-.36.42-.35-.39.31.22.27-.18.7.06.3.35-.27.47,0,.26-.16-.06-.32.08-.5s.09.28.33.08c-.19-.52-1.28-.79-1.92-1.14l.25-.16a1,1,0,0,1-.83-1c-.1.26-.37-.44-.68.08,0-.17,0-.16-.11-.28l-.14.13c-.15-.11,0-.34-.15-.45,0,.3-.2.27-.37.41a9.13,9.13,0,0,0-.23-1,.65.65,0,0,0,0,.3c-.08-.15-.19.07-.27.13s0-.34.15-.49c-.19-.22-.61.27-.67,0l-.07.27c-.26-.09-.33-.44-.64-.49,0-.39.37-.17.55-.26,0-.09-.13-.17-.11-.29-.2.11-.51.23-.73.32C114.5,34.52,114.14,34.37,114.06,34.3Z"/><path class="cls-1" d="M114.91,34.51l.15-.09a.11.11,0,0,1-.11,0A.76.76,0,0,0,114.91,34.51Z"/><path class="cls-1" d="M114.06,34.3v0S114,34.28,114.06,34.3Z"/><path class="cls-1" d="M115.16,35.92s0,0,0,0l0,0Z"/><path class="cls-1" d="M116,35a2.83,2.83,0,0,0,.06.37A.32.32,0,0,0,116,35Z"/><path class="cls-1" d="M117.39,36.29c.08,0,.1-.09.18-.14C117.48,36.07,117.4,36.12,117.39,36.29Z"/><polygon class="cls-1" points="114.64 34.3 114.39 34.27 114.28 34.29 114.64 34.3"/><path class="cls-1" d="M109.81,34.05c.13.33.44.24.65.35.47,0,.22-.66.65-.59l-.24.61c.42,0,.92.38,1.45,0,0,.09,0,.21-.09.26.27.07.47-.82.75-.48-.49.25,0,.4-.28.74l-.07,0c.24,0,.62,0,.75.06.07-.15.05-.44.26-.37-.07-.07,0-.22.12-.37-.28.06-.35-.09-.57.07,0-.25.11,0,.08-.28l-.25.12c-.11-.1.21-.15,0-.27a.33.33,0,0,1-.42.09l.07,0c-.15,0-.28-.13-.35.23v-.39l-.06.24c-.29-.2-.21-.85-.75-.66.08.1,0,.2-.12.23.13.22.28-.12.45-.09,0,.23-.42.43-.26.63-.13-.34-.42-.07-.35-.69-.27-.11-.45.16-.69,0l0-.09c-.14.39-.19-.24-.48.12l.13.13c0,.16-.11.15-.21.15a.17.17,0,0,0,0-.14c-.08.28-.4.29-.45.37.12.07.32-.16.49-.2C110,33.87,109.92,34.12,109.81,34.05Z"/><path class="cls-1" d="M112.84,33.83l-.14.1A.28.28,0,0,0,112.84,33.83Z"/><path class="cls-1" d="M108.65,33.38c-.17-.09.07-.25-.09-.4-.2.2.18.44,0,.73-.1-.18-.29.13-.36.13a1.23,1.23,0,0,0,0-.65c-.07.11-.22-.08-.34-.09.29.24-.25.14,0,.41,0,.23-.28.4-.39.22s.09-.13.16-.14c.06-.32-.18-.17-.23-.46-.27.41-1.11.52-.79,1.19.1.12.15-.06.24-.1-.27-.11,0-.37,0-.5.13.1.31-.15.28.11l-.16.29c.29,0,.63.07,1,.06l.53,0H109l-.28,0c0-.19.19-.18.31-.26l-.1-.49c.08,0,.17,0,.15.16a.47.47,0,0,0,0-.48c.24-.05.25.13.48-.15-.35-.43-.37.28-.79-.12Z"/><polygon class="cls-1" points="109.51 33.23 109.39 33.46 109.55 33.36 109.51 33.23"/><path class="cls-1" d="M109.23,34.24c0-.1.07-.14.08-.24C109.15,33.9,109.15,34.05,109.23,34.24Z"/><path class="cls-1" d="M107.18,33.11a2.29,2.29,0,0,0-.23.1l.16.07A.17.17,0,0,1,107.18,33.11Z"/><path class="cls-1" d="M105.78,34.52c.27-.13.38-.33.73-.14.13-.32-.14-.56-.11-.85-.18-.05-.09.47-.25.59-.11-.26-.25.08-.41.07A.62.62,0,0,1,105.78,34.52Z"/><path class="cls-1" d="M104.51,33.79c-.14,0-.21.29-.36.21s0-.25.12-.24c-.17-.34-.13.11-.37-.08,0,0,.11.08.09.17-.4.06-.1.34-.65.35a.37.37,0,0,0,0,.38c-.39-.17-.26-.23-.7-.33a5.62,5.62,0,0,1,.47.66c-.64-.19-.4.28-.83.14,0,0,0-.12.11-.13-.25-.36-.18.2-.37.21l-.18-.33c-.12.13-.22.49-.53.38l-.07-.18c-.19.47-.65.65-.83,1l-.3-.06c-.18.54.46-.21.55.45-.5-.49,0,.33-.42.3s.11-.3-.21-.43c.2.3,0,.18-.1.38-.23-.25-.31.24-.55-.05a1.58,1.58,0,0,0,.17.71c-.27,0-.35.17-.37.26.11-.12.23-.08.4,0a1,1,0,0,0,.53,0,1,1,0,0,1,.26-.52,1.81,1.81,0,0,1,.69-.49c-.24-.4.27-.22.12-.57.09.11.2.19.3.3.23-.27-.21-.16-.25-.34s.36,0,.44.16c.22-.12,0-.12-.08-.39L102,36a3.6,3.6,0,0,1,2.27-1.36l-.17-.27c.42,0,.45-.91,1-.33l.06-.29c0,.16.18.44.12.67.08-.13.22,0,.31-.16l-.23-.1c.08-.29.27-.17.36,0,.24-.38-.28-.49-.41-.73-.29.67-.58-.47-.95-.1C104.16,33.62,104.48,33.62,104.51,33.79Z"/><path class="cls-1" d="M105.26,34.48a.24.24,0,0,0,0-.09A.46.46,0,0,0,105.26,34.48Z"/><path class="cls-1" d="M99.2,37.55l-.06.1C99.21,37.69,99.19,37.64,99.2,37.55Z"/><polygon class="cls-1" points="105.73 34.19 105.73 34.18 105.73 34.19 105.73 34.19"/><polygon class="cls-1" points="105.8 33.38 105.68 33.4 105.72 33.53 105.8 33.38"/><path class="cls-1" d="M99.08,38.62l.18-.07A.36.36,0,0,0,99.08,38.62Z"/><path class="cls-1" d="M102.25,40.57l-.06,0A.05.05,0,0,0,102.25,40.57Z"/><path class="cls-1" d="M109.78,42.94a1.38,1.38,0,0,0,.76-.27l-.06.15c.13,0,.55-.2.4-.55l-.09.12c-.32.17-.12-.31-.29-.47-.26,0-.57.56-.74.36-.1,0,0-.16,0-.28-.2-.1-.42.34-.59.35.3-1.21-.76.12-.84-.74-.23,0-.46-.15-.8,0,.24-.25-.23-.1-.06-.42-.3.67-.62-.55-1,.29-.26-.36,0,.06-.36-.28,0-.1.1-.08.13-.09-.09-.23-.37.29-.36-.15-.29-.18-.14.21-.41.38-.29-.23-.15-.31-.2-.74-.18.4-.3.13-.54.27,0,0,.22.21,0,.31-.35-.22-.41.14-.81.11,0-.52.36.13.19-.35.31-.12.47,0,.72-.31a1.91,1.91,0,0,0-1.09-.16c-.15-.14.18-.17.06-.27-.23-.34-.68.23-.85-.09l.15-.2c-.29.23-.53-.32-.9-.29,0,.13,0,.22-.1.27.28-.55-.55.09-.64-.46a.63.63,0,0,1-.74.35.71.71,0,0,1,.13-.36c.18.37.49-.23.79-.27-.28.08-.48-.27-.79-.1l.22-.24c-.23-.18-.58.5-.7.08l.15-.18a3.8,3.8,0,0,1-.59-.51,1,1,0,0,0-.33-.2,2.23,2.23,0,0,1-.24-.08.33.33,0,0,0-.11-.13,5.63,5.63,0,0,0-1.21.3,5.85,5.85,0,0,0,1.51.3l-.36.16c.32-.07.67,0,.74-.19.3,0-.18.26.18.25-.3.25-.46.18-.73.37l.36,0c-.18,0,0,.18-.13.24.71-.05.47.53.9.52l-.14-.15c.1-.18.19-.11.3-.12-.06.3,0,.29.12.49.22-.06.47-.35.66-.25-.23.33.21.36.1.68.21-.33.44.05.57-.14.14,0,.26.08.17.27a.81.81,0,0,1-.11,0l.1.06s0,.06-.06.07.22-.21.25,0-.11.06-.18.08c.23.17.69-.35.75.07.11-.15.4,0,.51-.45,0,.17-.15.47.09.5.26-.27.19.22.43.07-.35.26,0,.1-.36.35.09.19.49-.16.71,0a2.56,2.56,0,0,1,0,.27c.14-.08.36-.3.34,0l.08-.24c.13.19.39.21.48.53l.38-.37c.12.58.67.29,1,0,.1.06.23.2.2.3l-.18.12c.15.07.26.4.47,0,.2-.06,0,.3.14.4.5-.43.85.7,1.2-.08-.13,0-.34-.29-.6-.34.1-.07.1-.25.2-.24.26,0,.3.39.6.33l-.19.51C108.88,43.22,109.65,42.1,109.78,42.94Z"/><path class="cls-1" d="M106.49,41.89l.09.33.06-.23A.12.12,0,0,1,106.49,41.89Z"/><path class="cls-1" d="M106.64,42a.37.37,0,0,0,.14-.07.11.11,0,0,0-.12,0Z"/><path class="cls-1" d="M110.56,43.06a.17.17,0,0,0,.2.06C110.72,43.05,110.62,43,110.56,43.06Z"/><polygon class="cls-1" points="110.82 42.97 110.75 42.86 110.72 42.91 110.82 42.97"/><path class="cls-1" d="M116.46,43.8l.37-.26c0,.17.4,0,.24.3.25-.35.58.11.54-.48-.94,0-2.09-.55-3.23-.29l.22-.19c-.63.32-.62-.65-1.25.12l.16-.43c-.21-.18-.62.54-.76,0l0,.19c-.06,0-.07-.11-.14-.13v.09a.3.3,0,0,1-.47-.08c0-.15.1,0,.16-.07s-.26.11-.39.07,0-.2.08-.26c-.46.09-.52-.42-1,.16-.06.11.05.26-.11.27.21.28.5.08.79,0l-.07,0c.37-.59.12.19.5,0-.15.24-.28.2-.38.33.25.58.62-.25.7.45h0c0,.07.17,0,.26-.06s-.07-.15-.11-.23.21-.31.26-.42c0,.31.16-.11.27.07s-.18.21-.27.34l.22-.14c.17,0,.1.33.14.49.19-.17,0-.16.14-.42.09.37.87.45,1.29.28-.14,0-.11.27-.25.2,0,.07.26,0,.31-.23.29-.13.57.07.77.3l0-.22c.27-.3.44.37.83.23h0c.12,0,.32-.5.5-.36C116.6,43.6,116.5,43.55,116.46,43.8Z"/><path class="cls-1" d="M117.76,43.56l-.16.27c.11.08.33-.25.34-.44-.09,0-.18-.1-.22.06S117.7,43.59,117.76,43.56Z"/><path class="cls-1" d="M120.08,43.92c.06-.06.06-.17.09-.25-.49,0-1.11,0-1.27-.28s-.25.31-.48.37l0-.31c-.14.17-.43-.21-.39.28,0,.05.14-.2.22-.1l0,.16.23,0-.1.2c.24.34.32-.58.65-.32l-.07.41c.24.06.39-.06.57.23,0,0,0-.21,0-.13a.36.36,0,0,1,0-.32c.43-.26-.1.24.14.45.36-.23,1-.37,1.13,0a.33.33,0,0,1,.32-.46c.06.16-.09.24-.13.36s.12.17.22.12a.6.6,0,0,1,.24-.66C121,43.33,120.5,44,120.08,43.92Z"/><path class="cls-1" d="M120.26,43.59a.14.14,0,0,0-.09.08l.17,0Z"/><path class="cls-1" d="M141.22,48.67a1.59,1.59,0,0,1,.13-.13l-.23-.11Z"/><path class="cls-1" d="M142.3,48.34l0-.25c-.73-.17-.45-.27-1.1-.1.06.19.21.55.5.59,0-.09-.22-.31-.09-.42.18.13.11.27.35.41.29-.12-.14-.18.05-.37Z"/><path class="cls-1" d="M141.73,47.8A1.65,1.65,0,0,0,142,48C141.93,47.91,141.84,47.74,141.73,47.8Z"/><path class="cls-1" d="M141.72,47.63c.1-.13.25.12.29.12l-.34-.37Z"/><path class="cls-1" d="M142.07,47.07V47C142,47,142,47,142.07,47.07Z"/><path class="cls-1" d="M142.19,46.77c-.18,0-.14.09-.12.22h0c.16,0,.41.25.26.32s-.3,0-.16.2h.32C142.6,47.3,142.25,46.93,142.19,46.77Z"/><path class="cls-1" d="M142.07,47.07a.32.32,0,0,1,0,.09C142.11,47.15,142.09,47.11,142.07,47.07Z"/><polygon class="cls-1" points="141.87 47.34 141.89 47.44 142.03 47.49 141.87 47.34"/><path class="cls-1" d="M142.48,46.32c.35.31-.27.28,0,.52.11-.18.48-.11.65.08l0-.26A1.05,1.05,0,0,0,142.48,46.32Z"/><path class="cls-1" d="M143.66,46.73a.23.23,0,0,1,0-.09A.16.16,0,0,0,143.66,46.73Z"/><path class="cls-1" d="M143.86,45.4q0,.36-.06.69c-.07-.14-.18-.23-.13-.35-.22.12,0,.34-.18.45-.36-.26.2-.27-.15-.46a.44.44,0,0,0,0,.6l-.36,0,.41.25c.15,0-.17-.37.11-.19s.14.2.14.28c0-.16.49,0,.63-.22S143.87,45.7,143.86,45.4Z"/><polygon class="cls-1" points="144.22 45.78 144.36 45.89 144.18 45.72 144.22 45.78"/><path class="cls-1" d="M144.26,45l0,.4a.92.92,0,0,1-.2-.14c.08.08.14.27.21.33.37.25.17-.3.24-.45.42-.08.13.19.48.43-.08,0-.15,0-.28,0,.47.26.41-.28.48-.45-.06,0-.15-.11-.19,0l.05-.2A.5.5,0,0,0,144.26,45Z"/><path class="cls-1" d="M143.87,45.26c.06-.1.11-.09.16,0C143.93,45.14,143.85,45.09,143.87,45.26Z"/><path class="cls-1" d="M145.22,45.05s-.05,0-.06.05S145.2,45.1,145.22,45.05Z"/><path class="cls-1" d="M144.81,44.71l.18-.06-.17-.13S144.74,44.63,144.81,44.71Z"/><path class="cls-1" d="M151.88,43.18c0-.17-.11-.25-.25-.2,0-.23.19-.21.27-.35-.21-.13,0-.27-.09-.49-.23,0-.3.31-.54.27a.6.6,0,0,0-.06-.24c-.27.17-.73.43-1,.3s-.47.11-.74.26c-1,.08-1.9.61-2.95.8l0,.48c-.14-.19-.22.11-.31-.17.07,0,.1,0,.16-.08-.37-.26-.52.29-.82.28.06.06.29.39.25.48-.23-.46-.25.16-.61-.29-.31,0,.22.38-.06.45.14.27.3,0,.45.16s-.25,0-.08.29c.4-.09.8-1,1.38-1.41l0,.28a.81.81,0,0,1,1.16-.16c-.14-.23.52,0,.31-.56.12.11.14.09.27.1l0-.19c.18,0,.22.25.41.18-.19-.22-.07-.33-.06-.56.3.23.62.44.86.63a.64.64,0,0,0-.15-.26c.15.06.08-.18.1-.27s.18.29.2.46c.26.06.27-.59.48-.41l-.1-.26c.25-.11.51.17.78,0,.18.35-.2.33-.29.5.06.07.19.08.24.19a5.7,5.7,0,0,1,.4-.65C151.43,43.22,151.78,43.16,151.88,43.18Z"/><path class="cls-1" d="M151.13,43.44a.82.82,0,0,0-.06.16s0-.06.08,0A.37.37,0,0,0,151.13,43.44Z"/><path class="cls-1" d="M151.88,43.18v0S151.91,43.19,151.88,43.18Z"/><path class="cls-1" d="M150.14,42.45l0,0h0Z"/><path class="cls-1" d="M150.13,43.69a1.55,1.55,0,0,0-.26-.25A.33.33,0,0,0,150.13,43.69Z"/><path class="cls-1" d="M148.44,43.76c0,.06,0,.13,0,.22S148.56,43.87,148.44,43.76Z"/><polygon class="cls-1" points="151.44 43.48 151.64 43.38 151.71 43.3 151.44 43.48"/><path class="cls-1" d="M155.82,42.2c-.14-.37-.47-.19-.7-.29-.47.12-.14.69-.55.68l.13-.64c-.43,0-1-.17-1.4.42,0-.08-.1-.18,0-.27-.29,0-.14.93-.5.71.33-.41-.13-.38-.05-.79l.06,0c-.24,0-.55.25-.7.25,0,.17.16.41-.05.45.09,0,.07.22.07.39.2-.21.32-.1.43-.32.13.22-.07.07.05.29l.16-.2c.13,0-.12.22.07.26a.3.3,0,0,1,.32-.24l0,.08c.11-.09.28,0,.22-.35l.14.36,0-.24c.32.1.41.65.82.4-.09-.09,0-.21.06-.25-.16-.19-.22.15-.37.19,0-.26.27-.53.08-.69.2.31.42,0,.46.63.24.06.37-.23.62-.06l0,.09c.1-.4.18.21.43-.18l-.12-.11c0-.16.1-.16.2-.18a.17.17,0,0,0,0,.14c.07-.28.38-.26.44-.34-.12-.07-.32.12-.48.18C155.69,42.36,155.7,42.12,155.82,42.2Z"/><path class="cls-1" d="M153.05,43.08l.08-.14A.26.26,0,0,0,153.05,43.08Z"/><path class="cls-1" d="M156.88,43c.14.1-.11.24,0,.4.22-.15-.07-.46.18-.71.05.2.29,0,.37,0a1.34,1.34,0,0,0-.21.61c.09-.08.16.15.26.2-.17-.32.26-.06.13-.39.09-.22.4-.29.43-.08s-.13.09-.2.07c-.17.28.1.22,0,.5.41-.36,1.13.1,1.25-.66,0-.16-.18,0-.28-.06.19.25-.16.33-.23.44-.06-.16-.33,0-.19-.25l.28-.16a2.8,2.8,0,0,0-.95-.46l-.54-.16-.56-.06.3.08c-.09.18-.23.16-.36.22l0,.49c-.07,0-.16,0-.12-.17a.56.56,0,0,0-.11.47c-.22,0-.21-.15-.43.11.24.45.35-.24.65.17Z"/><polygon class="cls-1" points="156.06 43.05 156.2 42.84 156.05 42.92 156.06 43.05"/><path class="cls-1" d="M156.43,42.07c0,.1-.09.13-.11.24C156.48,42.41,156.49,42.27,156.43,42.07Z"/><path class="cls-1" d="M158.06,43.65l.22,0-.08-.15A.2.2,0,0,1,158.06,43.65Z"/><path class="cls-1" d="M160,43.29c-.3-.15-.53,0-.74-.37-.3.19-.2.54-.39.76.12.13.34-.33.55-.34-.06.26.27.07.38.23A.63.63,0,0,1,160,43.29Z"/><path class="cls-1" d="M160.3,44.73c.1.09.34,0,.34.18s-.22.12-.25,0c-.2.33.15.05.1.34,0,0,0-.12.1-.16.21.3.38-.12.57.37.12,0,.16,0,.33-.16,0,.42-.13.32-.1.74a5.91,5.91,0,0,1,.49-.63c0,.64.38.32.32.77,0,0-.12,0-.14-.09-.31.32.22.14.26.33l-.3.22c.14.07.49.13.37.45l-.17.07c.45.14.58.59.86.8l-.12.27c.47.25-.1-.46.55-.44-.58.37.31.1.19.47s-.25-.16-.47.09c.35-.1.15.07.29.12-.32.09,0,.2-.36.23a2.23,2.23,0,0,1,.82.3c-.19,0-.12.14,0,.24-.07-.23.63.25.68-.05-.19-.28-.39-.6-.58-.91a3.84,3.84,0,0,1-.38-.88c-.43.18-.18-.31-.54-.19.11-.09.19-.19.31-.28-.29-.24-.16.21-.35.23s0-.35.16-.44c-.13-.22-.12,0-.4.08l.32-.43a12.38,12.38,0,0,1-2.07-1.92l-.15.29c-.22-.41-.93.12-.84-.61l-.25.15c.14-.09.21-.43.42-.55-.16,0-.19-.14-.35-.12l.1.24c-.27.14-.31-.08-.23-.31-.42.1-.13.57-.23.82.67-.25,0,.68.46.71S160.19,44.85,160.3,44.73Z"/><path class="cls-1" d="M160.38,43.73a.29.29,0,0,0-.1,0Z"/><path class="cls-1" d="M164,49.27l.06.1C164.13,49.44,164,49.36,164,49.27Z"/><polygon class="cls-1" points="159.81 43.57 159.8 43.57 159.81 43.57 159.81 43.57"/><polygon class="cls-1" points="159.24 44.12 159.32 44.19 159.38 44.05 159.24 44.12"/><path class="cls-1" d="M163.18,49.47l.15.14Z"/><path class="cls-1" d="M160.46,49.75h.06S160.48,49.74,160.46,49.75Z"/><path class="cls-1" d="M152.75,50a1.34,1.34,0,0,0-.69.42l0-.17c-.12.07-.51.31-.3.62l.07-.14c.29-.22.17.29.38.41.26,0,.46-.66.67-.5.1,0,.07.16,0,.28.22.07.35-.4.51-.45,0,1.25.71-.3,1,.51.21-.09.49,0,.77-.2-.15.31.26,0,.18.39.1-.73.78.34.85-.57.36.26,0-.06.43.16,0,.1-.07.1-.1.12.17.19.26-.39.4,0,.33.08.05-.24.25-.49.36.11.26.23.45.61,0-.44.24-.23.41-.46,0,0-.28-.1-.13-.27.41.06.32-.3.69-.42.21.48-.37,0,0,.39-.23.23-.42.21-.54.57a1.91,1.91,0,0,0,1.07-.28c.2.06-.09.24.07.27.36.19.51-.53.8-.34l0,.26c.15-.34.63,0,.94-.18a.37.37,0,0,1-.06-.29c.06.63.42-.37.78,0a.43.43,0,1,1,.49-.35c-.35-.19-.24.47-.48.69.19-.24.57-.07.71-.38l0,.32c.3,0,.15-.73.49-.49l0,.23a10.6,10.6,0,0,1,1.14-.15,1.63,1.63,0,0,0,.51-.14c.05,0,.16,0,.1-.13a2,2,0,0,0-.24-.29c-.25-.11-.79-.21-1-.34.11.15.35.44.28.62l-.31-.3c.19.21,0,.4.32.52-.09.2-.34-.24-.42,0-.17-.35-.11-.4-.31-.68a1.15,1.15,0,0,1,0,.19c-.05-.14-.12-.11-.16-.25,0,.47-.28-.12-.58.12l.2,0c0,.21-.08.2-.15.27-.14-.28-.19-.23-.38-.33-.13.18-.17.56-.37.59,0-.4-.37-.17-.44-.49,0,.4-.39.17-.4.4s-.26.06-.27-.15a.2.2,0,0,1,.08-.08h-.12s0-.08,0-.09-.08.28-.22.1.06-.11.11-.16c-.26,0-.42.63-.66.29,0,.19-.33.23-.25.64-.09-.14-.07-.47-.29-.41-.12.36-.26-.12-.42.11.22-.38,0-.1.19-.46-.16-.14-.37.34-.64.28a2.8,2.8,0,0,0-.06-.28c-.09.13-.2.42-.3.13l0,.25c-.19-.12-.44,0-.63-.31l-.23.47c-.3-.51-.7-.07-1,.36-.11,0-.28-.11-.27-.22a1.1,1.1,0,0,1,.12-.17c-.16,0-.35-.3-.46.1-.17.11-.11-.28-.23-.35-.37.54-1-.47-1.14.38.14,0,.4.19.67.17-.08.1,0,.27-.13.28-.27,0-.39-.3-.67-.17l.07-.54C153.56,49.58,153.05,50.83,152.75,50Z"/><path class="cls-1" d="M156.16,50.22l-.19-.28,0,.23A.12.12,0,0,1,156.16,50.22Z"/><path class="cls-1" d="M156,50.17l-.12.11a.11.11,0,0,0,.12-.05Z"/><path class="cls-1" d="M152,50.05a.18.18,0,0,0-.21,0A.13.13,0,0,0,152,50.05Z"/><polygon class="cls-1" points="151.74 50.19 151.82 50.29 151.84 50.23 151.74 50.19"/><path class="cls-1" d="M146,49.93l-.36.27c0-.17-.41,0-.25-.29-.25.35-.59-.09-.54.49.95,0,2.16.49,3.29.14l-.2.2c.61-.37.7.59,1.25-.24l-.11.45c.23.16.56-.59.77-.08v-.19c.07,0,.09.09.16.1l0-.08a.3.3,0,0,1,.48,0c0,.15-.09.06-.15.09s.25-.14.39-.12,0,.21-.05.27c.45-.16.59.35,1-.31,0-.12-.09-.24.07-.28-.26-.24-.51,0-.78.16H151c-.27.63-.14-.17-.49.08.11-.26.25-.24.32-.38-.31-.54-.57.33-.75-.35h0c0-.07-.16,0-.25.09s.1.14.14.21-.17.34-.21.46c-.06-.3-.14.12-.28,0s.16-.23.23-.37l-.2.16c-.17,0-.13-.31-.2-.47-.16.19.07.16-.08.43-.14-.36-.92-.36-1.32-.15.13,0,.08-.28.23-.22,0-.07-.26,0-.29.25a.68.68,0,0,1-.79-.26l0,.22c-.25.32-.46-.33-.84-.18h0c-.12,0-.3.51-.49.38C145.89,50.14,146,50.18,146,49.93Z"/><path class="cls-1" d="M144.71,50.2l.16-.27c-.11-.08-.33.26-.34.45.1-.05.19.1.23-.06S144.77,50.17,144.71,50.2Z"/><path class="cls-1" d="M142.35,49.81c-.06,0-.07.16-.1.24.5.06,1.14.06,1.3.33.15.11.26-.31.49-.38l0,.31c.15-.16.44.21.4-.28,0-.05-.14.2-.22.1l0-.16-.23,0,.11-.19c-.25-.35-.33.57-.67.31l.08-.41c-.25-.07-.4,0-.57-.24,0,0,0,.2,0,.13a.34.34,0,0,1,0,.32c-.44.25.11-.23-.12-.45-.38.22-1,.32-1.15,0a.32.32,0,0,1-.36.43c-.06-.16.11-.23.16-.35s-.12-.18-.22-.13A.55.55,0,0,1,141,50C141.44,50.35,141.93,49.67,142.35,49.81Z"/><path class="cls-1" d="M142.15,50.12a.11.11,0,0,0,.1-.07l-.18,0Z"/><path class="cls-1" d="M142.25,89a1.19,1.19,0,0,1-.18.15l.18.19C142.25,89.25,142.26,89.14,142.25,89Z"/><path class="cls-1" d="M141,89.32c-.05.1-.08.21-.13.32.69.33.34.43,1.12.29.05-.24.08-.76-.21-.85,0,.12.08.46-.13.57-.11-.19,0-.36-.14-.59-.36.12,0,.26-.27.48Z"/><path class="cls-1" d="M141.25,90.1a1.08,1.08,0,0,0-.23-.28C141.1,89.93,141.09,90.16,141.25,90.1Z"/><path class="cls-1" d="M141.15,90.32c-.18.15-.19-.2-.24-.21a5.26,5.26,0,0,1,.15.53Z"/><path class="cls-1" d="M140.41,91l0,.1C140.43,91.09,140.42,91,140.41,91Z"/><path class="cls-1" d="M140.06,91.27c.18.08.22-.07.3-.22h0c-.2,0-.3-.37-.09-.44s.32.07.31-.22l-.37,0C140,90.59,140.1,91.08,140.06,91.27Z"/><path class="cls-1" d="M140.41,91a.39.39,0,0,1,.08-.1C140.41,90.84,140.41,90.89,140.41,91Z"/><polygon class="cls-1" points="140.81 90.66 140.85 90.53 140.73 90.44 140.81 90.66"/><path class="cls-1" d="M139.41,91.73c-.19-.4.51-.26.35-.6a.46.46,0,0,1-.7-.21l-.2.28C138.85,91.4,139.14,91.64,139.41,91.73Z"/><path class="cls-1" d="M138.28,91a.2.2,0,0,1,0,.11S138.29,91.07,138.28,91Z"/><path class="cls-1" d="M137.07,92.4a5.65,5.65,0,0,0,.56-.71c0,.16.07.29-.07.41.34-.08.26-.37.54-.44.26.35-.45.23-.14.51a.63.63,0,0,0,.44-.63l.41.11-.32-.37c-.16-.06-.05.46-.27.19s0-.24,0-.33c-.13.18-.65-.12-1,.1S137.27,92.09,137.07,92.4Z"/><polygon class="cls-1" points="136.87 91.92 136.76 91.76 136.88 91.99 136.87 91.92"/><path class="cls-1" d="M136.25,92.78l.3-.42a.52.52,0,0,1,.16.19c0-.1,0-.31,0-.39-.31-.35-.43.28-.62.42-.62-.06,0-.22-.36-.57.16,0,.19.08.41,0-.45-.36-.76.14-1,.32.08,0,.12.15.23.08l-.19.19A.87.87,0,0,0,136.25,92.78Z"/><path class="cls-1" d="M137,92.54c-.14.08-.2.07-.23,0C136.79,92.65,136.87,92.71,137,92.54Z"/><path class="cls-1" d="M135,92.4s.07,0,.11,0S135.08,92.36,135,92.4Z"/><path class="cls-1" d="M135.36,92.85l-.29,0,.16.17S135.39,93,135.36,92.85Z"/><path class="cls-1" d="M124.37,92.15c0,.17.09.27.32.27-.06.23-.34.14-.5.25.27.19,0,.27,0,.5.33.08.52-.2.87-.08a.35.35,0,0,0,0,.25,3,3,0,0,1,1.6,0,2.4,2.4,0,0,0,1.16,0,11.84,11.84,0,0,0,2.24.12c.76,0,1.53,0,2.32,0l.19-.46c.09.22.37,0,.35.27-.09,0-.17,0-.27,0,.37.38.88-.15,1.29,0,0-.07-.17-.45-.07-.54.05.5.46-.07.68.48.42.07-.06-.43.35-.44,0-.3-.41,0-.52-.27.09-.24.38,0,.3-.27-.64,0-1.75.77-2.77,1l.09-.28a1.61,1.61,0,0,1-1.77-.2c.1.26-.75-.16-.69.44-.13-.14-.17-.12-.36-.18l-.06.19c-.26,0-.21-.3-.51-.29.18.26,0,.34-.15.54-.33-.32-.72-.61-1-.88a.71.71,0,0,0,.13.31c-.2-.11-.18.14-.25.22s-.15-.34-.13-.51c-.36-.13-.59.49-.85.25l.07.27c-.4,0-.69-.32-1.12-.29-.16-.4.39-.26.58-.39-.07-.09-.25-.14-.29-.26a7.36,7.36,0,0,1-.8.49C125.05,92.26,124.51,92.19,124.37,92.15Z"/><path class="cls-1" d="M125.57,92.15a.92.92,0,0,0,.14-.13.17.17,0,0,1-.14,0A.17.17,0,0,0,125.57,92.15Z"/><path class="cls-1" d="M124.37,92.15V92.1S124.34,92.13,124.37,92.15Z"/><path class="cls-1" d="M126.69,93.41l0,0h-.07Z"/><path class="cls-1" d="M127.14,92.24a2,2,0,0,0,.29.31C127.41,92.43,127.39,92.33,127.14,92.24Z"/><path class="cls-1" d="M129.68,92.7c.08,0,0-.12.1-.21C129.62,92.48,129.56,92.56,129.68,92.7Z"/><polygon class="cls-1" points="125.12 92 124.79 92.03 124.66 92.09 125.12 92"/><path class="cls-1" d="M118.35,92c.2.39.67.31,1,.47.68,0,.26-.65.87-.52l-.27.6c.62.13,1.47.43,2.11,0,0,.09.11.21-.06.27.41.06.39-.87.89-.54-.58.29.09.42-.13.78l-.08,0c.35,0,.85-.1,1.08,0,0-.16-.12-.45.19-.42-.12,0,0-.23,0-.39-.34.13-.49,0-.73.18-.13-.26.14,0,0-.3l-.29.15c-.17-.09.23-.18,0-.29a.48.48,0,0,1-.54.13l.08-.06c-.19,0-.41-.11-.4.27l-.13-.4,0,.25c-.45-.2-.49-.81-1.17-.64.13.1,0,.2-.12.23.21.22.35-.11.6-.09,0,.25-.5.45-.24.65-.25-.35-.62-.09-.6-.73-.37-.14-.59.11-.94-.13l0-.09c-.18.38-.27-.26-.67.06l.18.15c0,.16-.15.13-.3.13,0-.06,0-.06,0-.15-.12.27-.58.2-.66.26.17.1.47-.07.71-.08C118.56,91.8,118.52,92.05,118.35,92Z"/><path class="cls-1" d="M122.58,91.87l-.15.11A.2.2,0,0,0,122.58,91.87Z"/><path class="cls-1" d="M116.79,90.91c-.22-.15.15-.22,0-.42-.31.11.14.5-.2.7-.09-.21-.43,0-.53,0a.92.92,0,0,0,.22-.61c-.13.07-.27-.18-.42-.25.29.38-.37,0-.12.4-.11.21-.53.21-.61,0,.07-.15.18-.07.27,0,.2-.26-.17-.26-.12-.55-.52.26-1.67-.25-1.63.53.07.18.25.07.39.1-.32-.29.15-.35.24-.45.11.17.48.08.31.29l-.36.14a8.59,8.59,0,0,0,1.39.65c.52.17,1.07.32,1.57.43l-.42-.16c.11-.16.31-.11.5-.14l-.06-.52c.11.08.24,0,.18.21.21-.14.18-.28.14-.46.33,0,.33.22.65,0-.39-.53-.52.16-1-.36Z"/><polygon class="cls-1" points="117.99 91.05 117.8 91.23 118.02 91.18 117.99 91.05"/><path class="cls-1" d="M117.48,92c0-.1.12-.12.14-.22C117.4,91.6,117.39,91.75,117.48,92Z"/><path class="cls-1" d="M115,90l-.33,0,.15.17A.21.21,0,0,1,115,90Z"/><path class="cls-1" d="M112.34,90.09c.44.17.71.06,1.08.51.36-.16.14-.58.35-.78-.19-.17-.39.31-.67.28,0-.28-.38-.13-.58-.3A.43.43,0,0,1,112.34,90.09Z"/><path class="cls-1" d="M111.47,88.43c-.17-.11-.46-.05-.53-.24a.21.21,0,0,1,.33,0c.14-.36-.23-.06-.27-.4,0,0,0,.14-.07.17-.39-.39-.43.08-.88-.51-.15,0-.23,0-.37.16-.11-.51,0-.38-.14-.9a3.83,3.83,0,0,1-.39.72c-.24-.79-.59-.42-.67-1,0,0,.14,0,.19.13.27-.35-.31-.21-.42-.45l.29-.23c-.11-.08-.23-.08-.33-.15s-.17-.18-.08-.28l.23,0a1.09,1.09,0,0,1-.54-.38,5,5,0,0,0-.42-.52,1.63,1.63,0,0,1,.36.07c-.34-.31-.38-.29-.45-.23s-.16.15-.77-.29c.61.26.49.17.24,0s-.63-.58-.41-.58c.5.24.39.51,1,.75-.72-.51-.26-.27-.5-.57.35.27.35.22.37.19a2,2,0,0,1,.54.4,3.14,3.14,0,0,1-.59-.83c.41.32.51.32.58.29a1.22,1.22,0,0,1-.48-.41,1,1,0,0,0-.5-.42,3.36,3.36,0,0,1-.51,0l-.29-.06-.08,0s-.06,0,0,0l.06.19c.16.5.3.93.39,1.29.62.29.25.52.82.73a3.32,3.32,0,0,0-.46,0c.43.53.22-.1.52.06s0,.34-.23.34c.25.37.17,0,.57.16a1.42,1.42,0,0,0-.34.35,5,5,0,0,0,.85.78c.27.21.55.43.85.62a12,12,0,0,1,1.64,1.35l.09-.32c.42.49,1.22-.07,1.33.79l.29-.14c-.16.08-.14.47-.39.57.2,0,.3.17.5.17l-.2-.27c.32-.14.45.11.4.35.55-.08,0-.6,0-.88-.83.21-.25-.81-.87-.89C111.29,88,111.58,88.3,111.47,88.43Z"/><path class="cls-1" d="M111.7,89.57l.12,0Z"/><path class="cls-1" d="M107.73,83.68a.27.27,0,0,0,.13,0C107.81,83.61,107.79,83.66,107.73,83.68Z"/><polygon class="cls-1" points="112.52 89.8 112.52 89.8 112.52 89.8 112.52 89.8"/><polygon class="cls-1" points="113.14 89.25 113 89.17 112.96 89.31 113.14 89.25"/><path class="cls-1" d="M109.35,84.59l-.06-.19A.67.67,0,0,0,109.35,84.59Z"/><path class="cls-1" d="M113.61,85.87l-.1,0A.1.1,0,0,0,113.61,85.87Z"/><path class="cls-1" d="M125.06,88a2.07,2.07,0,0,0,1-.31l0,.16c.18,0,.76-.23.46-.58l-.11.13c-.43.18-.24-.31-.53-.47-.38,0-.7.6-1,.4-.15,0-.1-.17,0-.28-.32-.1-.53.35-.77.37.13-1.25-1.07.14-1.41-.73-.33,0-.72-.15-1.16,0,.27-.27-.36-.09-.21-.42-.25.69-1-.56-1.3.32-.48-.36,0,.06-.6-.28,0-.1.12-.08.17-.09-.21-.24-.46.3-.57-.15-.47-.17-.14.22-.48.4-.48-.21-.31-.31-.51-.73-.14.41-.4.14-.7.3.06,0,.38.2.12.31-.57-.21-.54.16-1.12.14-.16-.54.56.12.16-.37.4-.13.66,0,.93-.34a4,4,0,0,0-1.61-.13c-.26-.13.2-.19,0-.28-.45-.33-.9.28-1.25,0l.15-.22c-.33.26-.88-.29-1.39-.25,0,.14,0,.23,0,.29.16-.6-.74.14-1.08-.41-.07.39-.58.49-.87.45a.52.52,0,0,1,0-.39c.4.35.57-.29,1-.37-.36.11-.8-.23-1.15,0l.19-.27c-.41-.16-.56.57-.92.17l.11-.21c-.44-.1-1-.35-1.46-.52a1.91,1.91,0,0,0-1.23-.14,5.35,5.35,0,0,0,.53.58,6.83,6.83,0,0,1,.48.53c.08-.14.08-.49.34-.58l.11.41c0-.27.3-.33.1-.57.28-.1.18.36.5.25-.07.37-.21.37-.2.7a1.41,1.41,0,0,1,.18-.14c-.07.13.08.16,0,.29a.28.28,0,0,1,.3-.09.67.67,0,0,1,.25.13.73.73,0,0,0,.58.24l-.26-.14c.06-.2.21-.13.35-.16.06.32.15.3.38.5.27-.1.49-.42.8-.34-.17.36.44.35.42.68.16-.36.62,0,.72-.18.18,0,.4.07.34.27a.42.42,0,0,1-.14,0l.16.06s0,.08,0,.08c.14,0,.22-.23.36,0,0,.1-.13.08-.23.1.38.16.83-.42,1.07,0,.1-.17.56-.07.56-.5.08.17,0,.48.3.51.27-.3.34.21.64.05-.42.28,0,.1-.4.37.19.2.63-.18,1,0,0,.09,0,.19,0,.28.17-.08.4-.32.48,0l0-.24c.23.18.62.18.85.51l.43-.39c.34.59,1,.27,1.48-.07.15,0,.38.19.36.29a1.6,1.6,0,0,1-.21.13c.23.07.47.41.69,0,.27-.07.13.3.3.4.61-.45,1.4.68,1.71-.12a4.09,4.09,0,0,0-1-.32c.13-.09.08-.26.23-.26.39,0,.54.39,1,.32l-.14.53C123.83,88.29,124.66,87.13,125.06,88Z"/><path class="cls-1" d="M120,87l.23.33,0-.23A.21.21,0,0,1,120,87Z"/><path class="cls-1" d="M120.28,87.11a.77.77,0,0,0,.19-.08.25.25,0,0,0-.19,0Z"/><path class="cls-1" d="M126.21,88.07a.41.41,0,0,0,.31.06C126.45,88.05,126.29,88,126.21,88.07Z"/><polygon class="cls-1" points="126.57 87.96 126.44 87.86 126.41 87.92 126.57 87.96"/><path class="cls-1" d="M135,88.46l.48-.29c.07.17.61,0,.42.28.3-.38.87,0,.68-.54-1.36.12-3.18-.35-4.78,0l.27-.2c-.86.36-1.05-.61-1.8.2l.14-.45c-.35-.16-.79.57-1.12,0l0,.19c-.1,0-.13-.1-.24-.12l0,.09a.6.6,0,0,1-.7-.06c0-.15.13,0,.22-.07-.1-.17-.36.11-.56.08s0-.21.06-.27c-.65.12-.86-.39-1.4.21-.06.11.13.25-.11.27.38.28.75.07,1.15-.06l-.1,0c.39-.62.2.18.72,0-.16.25-.37.22-.47.35.48.58.84-.27,1.12.42h0c.07.08.23,0,.36-.07,0-.09-.14-.15-.22-.22.14,0,.24-.32.3-.44.1.31.2-.12.41.06,0,.28-.22.22-.32.35l.29-.14c.25,0,.21.32.32.48.23-.18-.11-.16.09-.43.23.37,1.39.4,2,.2-.19,0-.09.28-.31.21.07.07.38,0,.4-.24a1.42,1.42,0,0,1,1.19.24l-.08-.21c.32-.33.72.32,1.26.16h0c.17,0,.35-.53.65-.41C135.17,88.25,135,88.21,135,88.46Z"/><path class="cls-1" d="M136.87,88.1l-.18.28c.18.07.43-.29.4-.48-.13.06-.29-.08-.32.09S136.78,88.13,136.87,88.1Z"/><path class="cls-1" d="M140.34,88.14c.06-.07,0-.18.07-.26-.72,0-1.63.13-1.92-.1s-.3.35-.61.43l-.13-.3c-.18.18-.68-.16-.52.33,0,0,.16-.22.3-.13l0,.17.34,0-.12.21c.45.31.34-.61.89-.41l0,.42c.38,0,.57-.11.89.15,0,0,0-.2-.06-.12a.3.3,0,0,1-.09-.32c.56-.31-.09.25.3.43.48-.29,1.38-.53,1.65-.21-.23-.24.1-.51.36-.5s-.08.25-.11.38c.12,0,.22.14.34.07a.5.5,0,0,1,.18-.7C141.47,87.41,141,88.18,140.34,88.14Z"/><path class="cls-1" d="M140.52,87.78a.16.16,0,0,0-.11.1h.26Z"/></g></g></svg>