<svg xmlns="http://www.w3.org/2000/svg" viewBox="0 0 387 387"><defs><style>.cls-1{fill:#f2f2f2;}</style></defs><title>Jordkloden</title><g id="Layer_2" data-name="Layer 2"><g id="Layer_2-2" data-name="Layer 2"><path class="cls-1" d="M193.5,387C86.8,387,0,300.2,0,193.5S86.8,0,193.5,0,387,86.8,387,193.5,300.2,387,193.5,387Zm0-386C87.35,1,1,87.35,1,193.5S87.35,386,193.5,386,386,299.64,386,193.5,299.64,1,193.5,1Z"/><path class="cls-1" d="M380.5,145.5a66.05,66.05,0,0,0,0,15c1,7,0,17,0,17s0,7-4,10c0,0-1,0-4-2a5.64,5.64,0,0,0-6,0s-2,0-5-11-8-10-8-10h-1s-1-8-3-10-4-12-4-12a77.54,77.54,0,0,1-1-9c0-3-10-17-10-17s1-1-3-5c0,0-1-2,2-3,0,0-2-17-6-23,0,0-2-8-1-10,0,0,3-2,7,4,0,0,3-9-1-12a39.88,39.88,0,0,1-7-7s-1-1-1-4a4.38,4.38,0,0,1-1-3s-6.29-6.2-5.64-7.6S363.5,81.5,380.5,145.5Z"/><path class="cls-1" d="M376.58,187.75h-.08c-.11,0-1.16-.06-4.14-2a5.33,5.33,0,0,0-5.72,0l-.06,0h-.08c-.22,0-2.28-.31-5.24-11.18-2.89-10.61-7.67-9.84-7.71-9.82h-1.27l0-.22c0-.08-1-7.94-2.93-9.85s-4-11.72-4.07-12.13a78.87,78.87,0,0,1-1-9.05c0-2.89-9.85-16.72-9.95-16.85l-.13-.18.15-.15h0s.65-1-3-4.64l0-.07a2.1,2.1,0,0,1,0-1.66,3.12,3.12,0,0,1,2-1.62c-.24-1.92-2.25-17.16-5.94-22.69l0-.08c-.09-.33-2-8.11-1-10.17l0-.06.05,0a3.09,3.09,0,0,1,2.19-.29c1.62.33,3.26,1.65,4.86,3.93.55-1.9,2.22-8.77-1.06-11.23a40.72,40.72,0,0,1-7.05-7.05s-1-1.06-1.05-4a4.75,4.75,0,0,1-1-3c-1.22-1.21-6.29-6.36-5.62-7.82a.35.35,0,0,1,.35-.18c1.47.13,13.08,9.73,26.11,26.5a208,208,0,0,1,36.65,73.33v.09a65.87,65.87,0,0,0,0,14.93c1,6.95,0,17,0,17.06,0,.27-.05,7.14-4.1,10.18Zm-6.95-3.38a5.35,5.35,0,0,1,3,.92,11.81,11.81,0,0,0,3.79,2c3.77-2.92,3.82-9.67,3.82-9.74s1-10.08,0-17a66.71,66.71,0,0,1,0-15c-16.55-62.22-59.07-98.15-62.2-99.38,0,1.08,3.19,4.78,5.63,7.18l.07.08v.1a4.17,4.17,0,0,0,.93,2.82l.07.08v.1c0,2.83.92,3.81.93,3.82a39.83,39.83,0,0,0,7,7c4.1,3.07,1.21,11.9,1.09,12.28l-.16.48-.29-.42c-3.54-5.32-6.17-4.2-6.6-4-.84,1.92.89,9.1,1,9.72,4,6,5.94,22.38,6,23.07l0,.2-.19.07a2.81,2.81,0,0,0-1.87,1.4,1.6,1.6,0,0,0,0,1.22,12.29,12.29,0,0,1,3,4.06,1.49,1.49,0,0,1,.05,1.06c1.08,1.51,10,14.1,10,17a77.37,77.37,0,0,0,1,9c0,.09,2,9.94,3.93,11.86s2.86,8.6,3,9.93h.78c.16,0,5.22-.91,8.24,10.18,2.56,9.4,4.38,10.64,4.72,10.8A6.59,6.59,0,0,1,369.63,184.37Z"/><path class="cls-1" d="M313.5,90.5s-4,10-1,13,12,7,14,10,2-3,2-3,3-9,0-12-7-6-9-10c0,0,2-5-6-7,0,0,2-4-3-10,0,0,3-8,6-8s5,5,5,5,2,1,3,0c0,0,1-1-3-3s-2-3-5-4-2-3-2-3,1-3-7,5c0,0-9-2,4-8,0,0,3-2,5,0l1,1s3,0-2-5c0,0-7-2-9-5,0,0,11,1,2-5,0,0-4.21-4.54-3.11-5.27s-37.11-20.71-37.11-20.71-7.1,2.76-7.94-3.13c0,0-94.55-41.42-186.41,29.6,0,0-1.43,2.51,3.57,2.51,0,0,1,0,1,4s10-9,10-9,4-5,4,1-8,14-8,14-4,2,1,5c0,0,2,1-1,3s-1,3-1,3h2s1,2-2,2c0,0-6-5-7-6s-11,1-13,4,7,5,7,5a13.38,13.38,0,0,0,5-1c2-1,3,4,3,4s-3,7,7,7h4s3,0,1,4,5,1,5,1,2-7,11-14c0,0,0-5-1-7s2-5,2-5,9-12,17-14c0,0,2-1-1-3s9-4,9-4,7-1,7-4,9-1,9-1-1,3,3,2,11,5,11,5,6,4,4-2c0,0-4-3-7-3,0,0-2-2,3-2s8-6,8-6,1-1,5.69-1h.31c5,0-4-3,7-3,0,0,0,4,3,3s8-5,8-5,3-1,6,3c0,0,1,1,5-1,0,0,1-1,5,2a6.93,6.93,0,0,0,5,0s1,5,3,4,4,1,4,1,1,4,0,6a13.38,13.38,0,0,0-1,5s3,4,7,4,8,3,8,3a42.92,42.92,0,0,1,23,11s6,6,11,0c0,0,1-2-3-4s8-1,8-1,3-4-7-6c0,0-2-3-10-1s-9-5-9-5a17.52,17.52,0,0,1,10-1,68,68,0,0,1,13,4s6,4,7,8c0,0-4,4-8,3s6,4,6,4,3,2,5,2,10,11,10,11,6,6,3,7c0,0-1,1,4,3,0,0-3,7,2,4,0,0,0-4,7-2C308.5,85.5,310.5,89.5,313.5,90.5Z"/><path class="cls-1" d="M327.48,114.59c-.55,0-1-.7-1.19-1-1.07-1.61-4.31-3.57-7.44-5.47a39.9,39.9,0,0,1-6.53-4.49c-2.85-2.86.25-11.44.85-13-2.69-1.06-4.51-4.31-4.84-4.94-2.62-.73-4.58-.69-5.67.13a2.24,2.24,0,0,0-.91,1.66v.14l-.12.07c-1.38.83-2.3,1-2.84.53-1-.87,0-3.71.38-4.6-2.48-1-3.82-1.94-4-2.73a.66.66,0,0,1,.13-.59l.1-.06a.86.86,0,0,0,.64-.62c.35-1.47-2.58-4.8-3.74-6-3.09-4.25-8.46-10.93-9.82-10.93-2.05,0-5-2-5.14-2-7.3-3.65-7.12-4.14-7-4.37s.52-.26,1.23-.08c3.47.87,7-2.24,7.66-2.84-1.07-3.82-6.8-7.67-6.86-7.71a68.31,68.31,0,0,0-12.9-4,17.81,17.81,0,0,0-9.68.9,6.66,6.66,0,0,0,2.57,4c1.54,1,3.59,1.24,6.09.62,7.4-1.85,9.79.51,10.2,1,4.21.86,6.69,2.18,7.36,3.93a2.69,2.69,0,0,1-.3,2.45l-.08.11h-.14c-3.84-.32-8.18-.37-8.55.09h0a3,3,0,0,0,.68.44c1.72.86,2.77,1.83,3.13,2.89a1.9,1.9,0,0,1,0,1.44,6.85,6.85,0,0,1-5,2.8c-3.45.15-6.27-2.62-6.39-2.73a43,43,0,0,0-22.84-10.93h-.07l-.06,0s-4-3-7.85-3c-4.08,0-7.07-3.93-7.2-4.1l-.05-.07V41.5a13.39,13.39,0,0,1,1-5.11c.87-1.75.12-5.22,0-5.76-.31-.28-2-1.73-3.66-.91a1.28,1.28,0,0,1-1.2,0c-1.22-.6-1.9-3.09-2.09-3.93a7,7,0,0,1-4.93-.1c-3.72-2.78-4.71-2-4.72-2l-.06,0c-4.05,2-5.17,1.07-5.29,1-2.71-3.62-5.34-3.06-5.7-2.95-.51.4-5.14,4-8,5a2.24,2.24,0,0,1-2.12-.19,3.89,3.89,0,0,1-1.2-2.8c-3.95,0-5,.45-5.27.81-.11.18,0,.42.18.76s.35.65.16,1-.73.47-1.83.47h-.31c-4.11,0-5.31.78-5.49.91-.32.62-3.29,6.09-8.2,6.09-2.53,0-3,.53-3.11.75s.11.61.22.75c3,.07,6.88,2.93,7,3l.06.05,0,.07c.59,1.77.56,2.88-.09,3.37-1.21.92-4-.87-4.29-1.08-.09-.08-7-5.93-10.8-5-1.46.37-2.47.26-3-.32a2,2,0,0,1-.36-1.73c-1.21-.24-6.5-1.22-8.05,0a1,1,0,0,0-.39.79c0,3.18-6.92,4.21-7.21,4.25-3.45.57-9,1.91-9.27,3,0,.16.09.33.37.51,1.21.81,1.81,1.59,1.76,2.31a1.47,1.47,0,0,1-.79,1.12c-7.87,2-16.82,13.81-16.91,13.93s-2.88,2.92-2,4.74c1,2,1,6.9,1,7.11v.12l-.1.08c-8.82,6.86-10.89,13.8-10.91,13.87l0,.11-.11,0c-.45.19-4.38,1.83-5.44.7q-.59-.63.12-2c.67-1.36.83-2.4.46-3a1.59,1.59,0,0,0-1.24-.63h-4c-3.51,0-5.86-.85-7-2.54a5.43,5.43,0,0,1-.29-4.73c-.2-1-.88-3.29-1.87-3.78a.82.82,0,0,0-.76,0,13.36,13.36,0,0,1-5.11,1c-.32-.06-6.49-1.46-7.42-3.77a1.7,1.7,0,0,1,.21-1.62c1.51-2.26,7.24-4,10.8-4.31,1.4-.14,2.27,0,2.59.27.92.93,6.23,5.37,6.91,5.93.88,0,1.47-.22,1.7-.59a1.08,1.08,0,0,0,0-.91l-1.94,0a1.47,1.47,0,0,1-.79-1.12c0-.72.55-1.5,1.76-2.31s1.56-1.49,1.54-1.85a1,1,0,0,0-.51-.72c-1.81-1.08-2.7-2.17-2.65-3.25a2.93,2.93,0,0,1,1.61-2.17c.5-.52,7.9-8.14,7.9-13.8,0-2-.43-2.54-.79-2.67-.84-.29-2.31,1.26-2.76,1.83-1.35,1.74-8.15,10.44-10,9.82-.33-.12-.5-.44-.5-1,0-3.47-.77-3.75-.78-3.75h0c-2,0-3.29-.42-3.77-1.24a1.76,1.76,0,0,1,0-1.64l.07-.08a198.6,198.6,0,0,1,68-34.63A191.55,191.55,0,0,1,201.6.31c34.76,1.46,58.6,11.75,58.84,11.85l.13.06,0,.13a3.86,3.86,0,0,0,1.77,3c2.24,1.32,5.8,0,5.83-.05l.11,0,.1.05c11.18,5.85,37.2,19.58,37.27,20.87v.14l-.14.13a.16.16,0,0,0-.07.13c-.1.83,1.92,3.36,3.22,4.76,2.73,1.81,3.9,3.19,3.55,4.19-.49,1.38-3.81,1.34-5.2,1.27,2.27,2.65,8.47,4.45,8.54,4.47l.06,0,.05,0c2.31,2.32,3.26,3.89,2.88,4.79a1,1,0,0,1-.77.6l-.22.22-1.25-1.25c-1.83-1.83-4.65,0-4.68,0-5.92,2.73-7,4.5-6.92,5.5.14,1.25,2.16,1.87,2.7,2,6.1-6.08,6.83-5.64,7.14-5.44a.67.67,0,0,1,.18.8,1.67,1.67,0,0,0,0,1.29,2.85,2.85,0,0,0,1.87,1.39,3.28,3.28,0,0,1,2.22,1.66c.37.64.8,1.35,2.81,2.36s3.11,1.92,3.24,2.73a.8.8,0,0,1-.17.67c-1.12,1.11-3.2.09-3.29,0l-.09,0,0-.09s-2-4.84-4.77-4.84c-2.27,0-4.84,5.43-5.71,7.7,4.25,5.17,3.41,8.86,3,9.88,2.87.76,4.76,2,5.63,3.7a4.62,4.62,0,0,1,.3,3.45c1.5,2.94,4.07,5.32,6.56,7.62.83.76,1.61,1.48,2.35,2.22,3,3,.31,11.49.07,12.22,0,.92-.09,3.72-1.09,4A.57.57,0,0,1,327.48,114.59Zm-22.4-29.9a13,13,0,0,1,3.49.57l.1,0,.05.1s2,3.92,4.86,4.87l.25.09-.1.24c0,.1-3.9,9.88-1.05,12.73a39.47,39.47,0,0,0,6.43,4.43c3.18,1.92,6.46,3.91,7.6,5.61.39.59.67.76.81.72.45-.13.73-2,.73-3.58v-.08c0-.09,2.92-8.89.06-11.74-.73-.73-1.51-1.45-2.33-2.22-2.55-2.35-5.18-4.79-6.71-7.85l0-.1,0-.1a4.16,4.16,0,0,0-.25-3.16c-.83-1.61-2.71-2.79-5.58-3.51l-.3-.07.14-.28s1.85-3.94-3-9.73l-.1-.11.06-.14c.12-.33,3.09-8.16,6.23-8.16,2.94,0,4.89,4.35,5.19,5.06.37.17,1.88.77,2.63,0h0a.3.3,0,0,0,0-.26c-.08-.36-.56-1.14-3-2.34a6,6,0,0,1-3-2.54,2.81,2.81,0,0,0-1.95-1.44,3.26,3.26,0,0,1-2.17-1.69,2.1,2.1,0,0,1,0-1.66.45.45,0,0,0,0-.2c-.06,0-.95-.16-6.6,5.49l-.1.09-.13,0c-.13,0-3-.69-3.22-2.47s2.16-3.69,7.17-6c0,0,3.15-2.07,5.28,0l.91.92a.61.61,0,0,0,.51-.32c.13-.31.11-1.34-2.73-4.2-.75-.22-7.13-2.16-9.08-5.08L306,46.2l.52,0c1.84.17,4.89.07,5.24-.9.14-.42-.1-1.44-3.4-3.64-.4-.43-3.56-3.87-3.4-5.2a.66.66,0,0,1,.15-.35c-1.54-1.61-22.65-12.94-36.85-20.36-.64.23-3.9,1.29-6.15,0a4.3,4.3,0,0,1-2-3.21c-1.91-.8-25.18-10.35-58.56-11.75-32-1.35-80.05,4.74-127.42,41.34a1.22,1.22,0,0,0,0,1.11c.26.45,1.06,1,3.37,1,.29,0,1.25.31,1.25,4.25,0,.14,0,.45.16.5,1.07.38,6.14-5.42,9.39-9.65.21-.26,2-2.45,3.32-2,.76.27,1.13,1.29,1.13,3.14,0,6-7.74,13.85-8.07,14.18l-.07,0s-1.33.69-1.37,1.77c0,.87.79,1.84,2.39,2.8a1.46,1.46,0,0,1,.77,1.11c0,.72-.55,1.5-1.76,2.31s-1.56,1.49-1.54,1.85a.92.92,0,0,0,.47.69h2.08l.07.14a1.69,1.69,0,0,1,0,1.53,2.45,2.45,0,0,1-2.22.83h-.09l-.07-.06c-.25-.2-6-5-7-6,0,0-.36-.31-2.18-.13-3.37.33-9,2-10.43,4.09a1.14,1.14,0,0,0-.16,1.15c.83,2.07,6.94,3.45,7,3.47a13.51,13.51,0,0,0,4.84-1,1.28,1.28,0,0,1,1.2,0c1.44.71,2.13,4.06,2.16,4.2v.08l0,.07A5.12,5.12,0,0,0,79,77.94c1,1.53,3.22,2.31,6.55,2.31h4a2.06,2.06,0,0,1,1.66.87c.48.78.33,1.95-.44,3.49-.25.5-.49,1.17-.2,1.48.61.64,3.21-.12,4.78-.78.31-.94,2.7-7.48,11-13.93,0-.77-.1-5-1-6.77-1.07-2.13,1.92-5.16,2-5.29.35-.46,9.12-12.06,17.12-14.06a1,1,0,0,0,.46-.7c0-.36-.23-1-1.54-1.85-.46-.31-.65-.66-.57-1,.38-1.79,8.12-3.17,9.67-3.43.07,0,6.79-1,6.79-3.75a1.45,1.45,0,0,1,.57-1.18c1.94-1.55,8.46-.13,8.73-.06l.27.06-.08.26a1.7,1.7,0,0,0,.18,1.5c.4.43,1.27.49,2.52.18,4.08-1,10.93,4.8,11.22,5.05,1,.69,3,1.62,3.68,1.09.44-.34.42-1.29-.05-2.75-.52-.37-4.11-2.9-6.79-2.9h-.1l-.08-.07s-.67-.69-.4-1.37,1.47-1.06,3.58-1.06c4.79,0,7.75-5.8,7.78-5.86l0-.07c.11-.1,1.17-1,5.87-1.07h.31c1.2,0,1.38-.19,1.4-.22s-.09-.32-.17-.48a1.22,1.22,0,0,1-.16-1.25c.31-.52,1.26-1.05,5.93-1.05h.25v.25s0,1.94,1,2.65a1.8,1.8,0,0,0,1.67.11c2.92-1,7.87-4.92,7.92-5l.08,0c.13,0,3.21-1,6.28,3.09h0s1,.75,4.66-1.06c.25-.19,1.51-.83,5.29,2h0a6.83,6.83,0,0,0,4.77,0l.27-.09.06.28c.18.9.87,3.35,1.88,3.85a.82.82,0,0,0,.76,0c2.14-1.07,4.2,1,4.29,1l0,.05v.07c0,.17,1,4.11,0,6.17a12.94,12.94,0,0,0-1,4.81c.41.51,3.2,3.83,6.75,3.83,3.83,0,7.57,2.63,8.09,3a43.75,43.75,0,0,1,23.08,11.05s2.77,2.75,6,2.6a6.37,6.37,0,0,0,4.62-2.57s.78-1.77-2.92-3.62c-.5-.25-1.06-.59-.94-1,.28-1,5.64-.73,8.92-.46a2.15,2.15,0,0,0,.16-1.87c-.42-1.09-2-2.61-7.08-3.62l-.1,0-.06-.08s-2-2.82-9.73-.9c-2.64.66-4.83.43-6.49-.69a7.08,7.08,0,0,1-2.82-4.51l0-.18.16-.08a17.51,17.51,0,0,1,10.15-1,69.3,69.3,0,0,1,13.06,4c.29.19,6.13,4.12,7.14,8.17l0,.14-.1.1c-.17.16-4.16,4.08-8.24,3.06l-.35-.08a66.66,66.66,0,0,0,6.52,3.62c.06,0,3,2,4.89,2,2.07,0,9.38,10,10.2,11.1.42.42,4.32,4.39,3.85,6.41a1.32,1.32,0,0,1-.88.94.88.88,0,0,0,0,.14c.09.29.64,1.12,3.91,2.43l.24.09-.1.24c-.58,1.35-1.26,3.7-.61,4.26.32.29,1.08.11,2.14-.51a2.79,2.79,0,0,1,1.09-1.9A4.4,4.4,0,0,1,305.08,84.69ZM305.26,36h0Z"/><path class="cls-1" d="M212.84,385.54s55.66-7,50.66-32h-16a33.75,33.75,0,0,1-14-8s-2-2-7-3,1-7,1-7h-7s5-14,13-18c0,0,4-12-8-15,0,0-3,0-5,5s-24-10-24-10-2-3-7-2-14-3-14-3-2-7-9-3-34-13-34-13a1.39,1.39,0,0,1,0-2c1-1,7-2-8-15,0,0-5-2-2-6,0,0-9-7-5,2s3,9,3,9-2,1-7-6c0,0,2-4-4-10s-12-21-12-21-12-23-1-38c0,0,6-12-1-20,0,0-1-1,2-10s-3-1-3-1a13.51,13.51,0,0,1,1-14c5-7-5-21-5-21s-2-3-17-1,2-3,2-3-40-14,0-5c0,0,5-20,11-17s4-5,4-5,3-5,7,0c0,0,6-12,15-1l7,13s11-1,17,9,15,7,15,7,6,0,7-4c0,0,3-4,1-6l-4-4s-1-5,8-4c0,0,5-1,2,6s7,10,7,10,5-2-4-10c0,0-3-10,10-6s20,6,26,12-2,5-2,5-5,0,5,6-9,5-9,5-2,0-8-9c0,0,4-5-8-9,0,0-4,0-2,4s-2,11-2,11,10,4,3,5c0,0-7,1-9,3s-17,7-6,20l20,5s12,25,5,0c0,0,9-5,0-8,0,0-6-10-2-17,0,0,5-6,15,2s6-2,6-2,4-5,11,8c0,0,8,6,15,4s-3,16-3,16-9,6-3,11,8-3,8-3,7-4-1,9-6,8-6,8,1-12-5,1-7,14-7,14-6,8-4,21c0,0-2,8-11,16,0,0,11,8,4,20,0,0-2,3-11-12,0,0-35-5-40,12s15,21,15,21,7,1,9-9c0,0,14-6,10,6s3,10,3,10,15-7,14,7,26,3,26,3-1-10,14-13,14,1,14,1,11-9,17-7,17,3,17,3,16-12,20,3c0,0,10-1,23-10s14,0,14,0-12,36-26,50-36,33-36,33l-7.25,5.38S250.17,383.59,212.84,385.54Z"/><path class="cls-1" d="M212.85,385.79l0-.5c.36,0,37-4.83,47.76-19.83a14.7,14.7,0,0,0,2.72-11.71H247.5a34.15,34.15,0,0,1-14.18-8.07s-2-2-6.87-2.93a2.43,2.43,0,0,1-2.1-1.54c-.54-1.78,1.63-4.43,2.57-5.46h-6.77l.11-.33c.21-.58,5.09-14,13-18.09.22-.75,1.54-5.6-.66-9.59-1.35-2.46-3.77-4.14-7.19-5,0,0-2.8.09-4.71,4.85a1.74,1.74,0,0,1-1.18,1.05c-4.9,1.49-22.45-10.43-23.19-10.93l-.07-.07c-.08-.12-2-2.84-6.74-1.89-5,1-13.78-2.86-14.15-3l-.11-.05,0-.11a6.28,6.28,0,0,0-3.14-3.74c-1.53-.62-3.38-.32-5.5.89-7.05,4-33.15-12.31-34.25-13a1.76,1.76,0,0,1-.48-.76,1.52,1.52,0,0,1,.43-1.63,3,3,0,0,1,.53-.38,2.47,2.47,0,0,0,1.42-1.89c.17-2.34-3.17-6.49-9.9-12.33-.33-.14-2.45-1.1-3-3a3.78,3.78,0,0,1,.75-3.22c-1.66-1.26-4.38-2.89-5.17-2.26-.3.23-.6,1.08.75,4.11,2.43,5.46,3.45,8.56,3,9.19a.34.34,0,0,1-.19.15c-.35.14-2.49.62-7.28-6.09l-.09-.13.07-.13s1.82-3.93-4-9.71c-6-6-12-20.94-12-21.09s-11.94-23.29-1-38.24c0-.08,5.82-11.91-1-19.69-.17-.17-1-1.53,2-10.24,1.21-3.63.74-3.93.72-3.94-.34-.17-1.88,1.3-3.28,3.17l-.23.3-.19-.33a13.86,13.86,0,0,1,1-14.27c4.84-6.77-4.9-20.57-5-20.7s-2.25-2.84-16.77-.9c-6.29.84-6.38.38-6.46,0-.13-.64,2.43-1.75,7.62-3.31-6.92-2.44-17.59-6.44-17.2-7.8.14-.49.4-1.39,17.83,2.52.51-2,4-14.83,8.63-17a2.9,2.9,0,0,1,2.66,0c1.47.73,2.53.84,3.17.33,1.43-1.15.49-5,.48-5l0-.1.06-.09A4.93,4.93,0,0,1,93.7,90c1.27-.07,2.53.6,3.76,2,.66-1.17,3.09-5,6.87-5.4,2.74-.32,5.56,1.27,8.36,4.69l7,12.9c1.42-.07,11.47-.21,17.07,9.13,5.83,9.72,14.62,6.92,14.71,6.89h.08c.06,0,5.82,0,6.76-3.81l0-.09s2.85-3.85,1-5.67l-4-4.06,0-.07a3.4,3.4,0,0,1,.86-2.79c1.28-1.4,3.77-1.91,7.38-1.51a2.93,2.93,0,0,1,2.68.8c.84,1,.69,2.9-.44,5.55a5.38,5.38,0,0,0-.06,4.57c1.5,3.22,6.11,4.83,6.81,5.06a2.13,2.13,0,0,0,1.12-1.54c.22-1.32-.51-3.77-5.27-8l-.05,0,0-.07c0-.15-1.12-3.83,1-5.92,1.67-1.65,4.8-1.78,9.33-.39l1.35.41c12.2,3.75,18.92,5.82,24.76,11.65,1.93,1.94,2.64,3.35,2.16,4.33-.75,1.53-4.22,1.12-4.37,1.1s-.87.08-1,.41.29,1.63,6.12,5.13c2.29,1.37,3.27,2.5,3,3.45-.77,2.53-11,2.07-12.12,2h0c-.21,0-2.3-.26-8.2-9.11l-.1-.15.11-.15a3.19,3.19,0,0,0,.45-2.81c-.46-1.53-2.26-3.76-8.29-5.78a2.68,2.68,0,0,0-2.05.94c-.38.62-.27,1.52.31,2.7,1.85,3.69-1.16,9.67-1.87,11,1.38.57,5.57,2.44,5.38,4-.08.7-1,1.16-2.69,1.41-.07,0-6.95,1-8.86,2.93a12.85,12.85,0,0,1-2,1.33c-2.67,1.59-7.13,4.25-7.84,8.56-.48,2.89.79,6.15,3.78,9.71l20,5,.06.1c2.92,6.1,5.84,11,6.56,11h0c.13-.08.68-1-2.06-10.79l0-.19.17-.1s4.07-2.29,3.86-4.54c-.11-1.18-1.39-2.19-3.82-3l-.09,0,0-.08c-.25-.41-6-10.21-2-17.25.08-.1,5.3-6.13,15.38,1.92,4.13,3.31,5.51,3.23,6,2.89.93-.69.06-3.55-.36-4.6l-.06-.13.09-.12a3.2,3.2,0,0,1,2.71-1c2.66.24,5.59,3.27,8.68,9,.64.47,8.2,5.8,14.74,3.93,1.1-.32,1.9-.18,2.36.41,2.21,2.78-4.77,15.41-5.07,16l-.08.09s-4.76,3.21-4.95,6.75a4.68,4.68,0,0,0,2,3.85c1.64,1.37,3.11,1.85,4.37,1.44,2.31-.75,3.22-4.28,3.23-4.31l0-.1.1-.06c.2-.12,2-1.13,2.86-.27,1,1-.17,4.16-3.53,9.62-5.78,9.4-6.18,9.19-6.5,9-.12-.06-.36-.18,0-1.22.15-1.82.06-4.56-.61-4.73-.24-.07-1.27.17-3.91,5.89-5.95,12.9-7,14-7,14.08s-5.89,8-3.93,20.78v.1c0,.08-2.09,8-10.85,15.93,1.59,1.29,10.27,9.09,3.83,20.14a1,1,0,0,1-.83.37h0c-1.46,0-4.46-2.19-10.51-12.26-2.23-.29-34.87-4.27-39.61,11.84-1.33,4.54-1,8.55,1.06,11.92,4.08,6.76,13.65,8.75,13.75,8.76.26,0,6.78.84,8.7-8.8l0-.13.12-.05c.29-.12,7.17-3,9.95-.47,1.34,1.23,1.48,3.52.39,6.78-1.91,5.72-1.23,8.06-.32,9a3.32,3.32,0,0,0,3,.67c.27-.13,7.54-3.47,11.67-.63,2,1.4,2.92,4.06,2.65,7.89-.17,2.43.52,4.24,2.07,5.37,5.79,4.19,21.63-1.85,23.42-2.56,0-1.42.31-10.29,14.21-13.08,9.58-1.91,12.83-1,13.87.08a1.59,1.59,0,0,1,.4.68c2-1.58,11.35-8.58,16.86-6.75s15.76,2.88,16.85,3c.91-.67,8.65-6.13,14.59-4.08,2.72.94,4.62,3.32,5.66,7.06,1.51-.2,10.91-1.78,22.68-9.93,5.17-3.58,9.11-4.79,11.71-3.6a5,5,0,0,1,2.68,3.78v.11c-.12.36-12.18,36.22-26.06,50.1s-35.8,32.82-36,33l-7.26,5.39C284,364.29,249.82,383.85,212.85,385.79Zm50.65-32.54h.21l0,.2a15.28,15.28,0,0,1-2.77,12.3c-8.29,11.52-31.5,17.07-42.36,19.1,34.55-3.49,65.18-21,65.51-21.19l7.22-5.36c.21-.18,22.14-19.14,36-33,13.55-13.54,25.38-48.23,25.92-49.84a4.49,4.49,0,0,0-2.38-3.34c-2.4-1.09-6.28.14-11.22,3.57-12.9,8.93-23,10-23.12,10l-.21,0-.05-.21c-1-3.69-2.8-6-5.4-6.93-5.94-2.06-14.13,4-14.21,4.07l-.08.06h-.09c-.11,0-11.1-1-17.06-3-5.8-1.93-16.65,6.86-16.76,6.95l-.59.48.19-.73a.94.94,0,0,0-.32-.78c-.79-.81-3.59-1.87-13.39.09-14.59,2.91-13.84,12.33-13.8,12.73l0,.18-.18.07c-.72.3-17.73,7.15-24.06,2.56-1.7-1.23-2.47-3.19-2.28-5.81.26-3.64-.56-6.14-2.44-7.43-3.89-2.68-11.13.64-11.2.68a3.78,3.78,0,0,1-3.55-.79c-1.46-1.53-1.39-4.73.2-9.52,1-3.06.94-5.16-.25-6.26-2.35-2.16-8.36.15-9.29.52-2.06,10-9.18,9.08-9.26,9.07s-9.89-2.05-14.09-9c-2.11-3.5-2.49-7.64-1.11-12.32,5-17,39.92-12.23,40.28-12.18l.11,0,.06.1c6.47,10.78,9.24,12.07,10.12,12.12a.51.51,0,0,0,.47-.14c6.79-11.64-3.51-19.33-4-19.65l-.25-.18.23-.21c8.48-7.53,10.73-15.16,10.92-15.82-2-12.93,4-21.06,4.05-21.14s1.16-1.37,7-13.95c2.72-5.88,3.87-6.34,4.5-6.17,1.32.34,1,4.47,1,5.29l0,.07-.12.34c.57-.63,2-2.6,5.68-8.56,4.16-6.77,4-8.56,3.59-9s-1.66.05-2.17.32c-.17.63-1.16,3.79-3.52,4.56-1.44.46-3.07,0-4.85-1.54a5.13,5.13,0,0,1-2.15-4.26c.2-3.62,4.57-6.72,5.12-7.1,2-3.62,6.74-13.27,5.09-15.35q-.5-.61-1.83-.24c-7,2-14.89-3.79-15.22-4l-.07-.08c-3.76-7-6.59-8.64-8.3-8.8a2.72,2.72,0,0,0-2.19.73c.31.82,1.44,4.08.14,5-1,.77-3.19-.18-6.59-2.89-9.67-7.74-14.45-2.28-14.65-2-3.67,6.43,1.44,15.69,2,16.63,2.57.88,3.94,2,4.07,3.4.21,2.31-3.13,4.45-4,4.93,3,10.72,2.12,11,1.7,11.21-1.39.51-5.43-7.51-7.16-11.12l-20-5-.05-.06c-3.13-3.69-4.45-7.12-3.95-10.17.76-4.54,5.34-7.28,8.08-8.91a11.52,11.52,0,0,0,1.88-1.26c2-2,8.86-3,9.14-3.07,1.91-.27,2.25-.72,2.27-1,.12-1-3.2-2.7-5.32-3.55l-.27-.1.14-.25c0-.07,3.91-6.93,2-10.77-.67-1.34-.77-2.41-.29-3.19a3.18,3.18,0,0,1,2.51-1.17h.08c5,1.68,7.94,3.74,8.65,6.14a3.72,3.72,0,0,1-.43,3.1c5.66,8.46,7.69,8.75,7.71,8.75,3.05.16,11.06.18,11.62-1.65.2-.67-.78-1.7-2.76-2.89-6.79-4.07-6.45-5.29-6.34-5.69.21-.75,1.34-.77,1.47-.77.94.11,3.4.19,3.89-.82.25-.52.1-1.59-2.07-3.75-5.74-5.75-12.42-7.8-24.55-11.53l-1.34-.41c-4.34-1.34-7.31-1.25-8.83.26-1.75,1.74-1,4.87-.88,5.36,3.93,3.5,5.74,6.34,5.37,8.42a2.61,2.61,0,0,1-1.5,2l-.08,0-.08,0c-.23-.07-5.5-1.69-7.22-5.36a5.9,5.9,0,0,1,.06-5c1-2.42,1.22-4.17.51-5a2.51,2.51,0,0,0-2.23-.61h-.08c-3.41-.38-5.83.08-7,1.34a3,3,0,0,0-.75,2.29l4,3.94c2,2-.61,5.83-1,6.29-1,4-6.62,4.13-7.19,4.14-.68.2-9.43,2.59-15.25-7.12s-16.66-8.89-16.77-8.88h-.16l-.08-.14-7-13c-2.66-3.24-5.33-4.77-7.9-4.48-4.1.46-6.63,5.42-6.66,5.47l-.17.35-.25-.3c-1.18-1.49-2.39-2.2-3.57-2.13a4.4,4.4,0,0,0-3,2c.15.67.87,4.21-.67,5.45-.81.64-2.06.55-3.71-.28a2.47,2.47,0,0,0-2.23,0c-4.69,2.16-8.38,16.71-8.42,16.86l-.06.24-.23-.06c-15-3.37-17.23-3.14-17.5-2.89.23.83,9.14,4.44,17.63,7.41l.74.26-.75.22c-3.53,1-7.31,2.37-7.94,2.92.34.09,1.53.17,5.84-.41,15-2,17.15,1,17.24,1.11.41.57,10,14.22,5,21.29A13.28,13.28,0,0,0,94.54,158c1-1.26,2.82-3.44,3.68-3,.43.23.72.94-.48,4.54-2.81,8.43-2.08,9.71-2,9.76,7,8,1.08,20.15,1,20.27-10.8,14.74.88,37.55,1,37.77s6.06,15.05,12,20.94c5.5,5.51,4.41,9.36,4.11,10.15,4.3,6,6.27,5.88,6.57,5.81,0-.25,0-1.68-3.09-8.68-1.16-2.62-1.35-4.11-.6-4.7,1.4-1.1,5.52,2,6,2.4l.2.15-.15.2a3.39,3.39,0,0,0-.81,3c.48,1.73,2.68,2.63,2.7,2.64l.07,0c7,6.05,10.29,10.23,10.11,12.77a3,3,0,0,1-1.65,2.28,2.28,2.28,0,0,0-.44.32,1.1,1.1,0,0,0,0,1.64c.22.14,26.91,16.84,33.7,13,2.25-1.29,4.25-1.59,5.93-.91a6.52,6.52,0,0,1,3.39,3.95c1,.43,9.17,3.85,13.75,2.93,4.84-1,7,1.68,7.23,2.07.93.63,18.17,12.24,22.72,10.84a1.27,1.27,0,0,0,.87-.75c2-5.1,5.1-5.16,5.23-5.16,3.62.9,6.15,2.66,7.57,5.25,2.48,4.51.74,9.85.67,10.08l0,.1-.09,0c-7.13,3.57-11.93,15.39-12.75,17.53h7.24l-.42.43s-3.44,3.46-2.85,5.39c.18.59.75,1,1.72,1.18,5,1,7,3,7.13,3.07a33.67,33.67,0,0,0,13.88,7.94Zm-143-89h0Z"/><path class="cls-1" d="M216.5,111.5s10,11,23,7a9.46,9.46,0,0,0-4-7c-4-3-5-26-5-26s2-9-31-19c0,0-13-2-19,9,0,0-14-4-16,11,0,0-10-3-21,7,0,0,3,9,31,6,0,0,3,1,4-10s29,10,29,10A36.41,36.41,0,0,1,216.5,111.5Z"/><path class="cls-1" d="M233.79,119.62c-10.11,0-17.39-7.86-17.47-8l0-.07a36.35,36.35,0,0,0-8.93-11.91c-.2-.15-20.83-15.53-27-12.81a2.87,2.87,0,0,0-1.63,2.64c-.63,6.94-2.07,9.24-3.16,10a1.43,1.43,0,0,1-1.11.27c-27.84,3-31.09-5.8-31.22-6.17l0-.16.12-.11c10-9,19.25-7.51,21-7.12.65-4.45,2.43-7.66,5.29-9.54,4.34-2.85,9.7-1.72,10.8-1.44,6.05-10.83,19-9,19.16-9C231.72,76,230.88,84.8,230.75,85.52c0,.94,1.1,22.93,4.9,25.78a9.64,9.64,0,0,1,4.1,7.2v.18l-.18.06A19.44,19.44,0,0,1,233.79,119.62Zm-17.08-8.26c.59.63,10.26,10.6,22.53,7a9.42,9.42,0,0,0-3.89-6.62c-4-3-5.06-25.25-5.1-26.19v-.06c0-.09,1.43-8.93-30.83-18.71-.1,0-12.87-1.84-18.71,8.88l-.1.18-.19-.06c-.06,0-6-1.66-10.57,1.33-2.8,1.83-4.52,5-5.11,9.46l0,.29-.28-.08c-.1,0-9.92-2.81-20.63,6.82.57,1.13,5.24,8.42,30.67,5.69h.11a.94.94,0,0,0,.77-.22c.81-.56,2.26-2.54,2.9-9.56a3.41,3.41,0,0,1,1.92-3.06c6.4-2.84,26.62,12.24,27.48,12.88A37,37,0,0,1,216.71,111.36Z"/><path class="cls-1" d="M146.5,116.5s17,2,6-10-14-7-14-7S124.5,108.5,146.5,116.5Z"/><path class="cls-1" d="M149,116.88a24.94,24.94,0,0,1-2.53-.13l-.06,0c-7.89-2.87-12.1-6.2-12.52-9.92-.46-4.12,3.91-7.14,4.43-7.49a2.84,2.84,0,0,1,2.09-1.08c2-.21,5.8,1,12.27,8.09,3.23,3.52,4.39,6.23,3.46,8.06C155.06,116.49,151.49,116.88,149,116.88Zm-2.44-.63c.51.06,7.67.77,9.13-2.09.83-1.62-.3-4.14-3.37-7.49-6.32-6.89-9.92-8.12-11.84-7.94a2.32,2.32,0,0,0-1.77.9l-.07.08s-4.7,3.07-4.25,7.05C134.78,110.26,138.88,113.46,146.56,116.25Z"/><path class="cls-1" d="M238.5,154.5s-1,12,2,13c0,0,0-3,13-3s-11-8-11-8S239.5,150.5,238.5,154.5Z"/><path class="cls-1" d="M240.73,167.83l-.31-.09c-3.1-1-2.27-12-2.17-13.26v0c.24-1,.64-1.5,1.18-1.56,1.31-.13,2.9,2.76,3.24,3.42,2.78.93,15.27,5.23,14.92,7.37-.12.75-1.38,1.08-4.1,1.08-12.4,0-12.75,2.73-12.75,2.76Zm-2-13.29c-.26,3.18-.46,11.33,1.59,12.61.38-.87,2.41-2.9,13.16-2.9,3.33,0,3.59-.55,3.61-.66.19-1.16-7.32-4.4-14.69-6.85l-.1,0,0-.09c-.65-1.3-2-3.31-2.78-3.23C239.11,153.42,238.88,154,238.75,154.54Z"/><path class="cls-1" d="M247.5,87.5s6-6,0-9c0,0-11,3-6,7C241.5,85.5,245.5,85.5,247.5,87.5Z"/><path class="cls-1" d="M247.5,87.85l-.18-.17c-1.9-1.91-5.78-1.93-5.82-1.93h-.09l-.07,0c-1.09-.88-1.54-1.79-1.35-2.72.58-2.82,7.16-4.65,7.44-4.72l.1,0,.08,0a4.5,4.5,0,0,1,2.76,3.25c.47,2.94-2.56,6-2.69,6.15Zm-5.91-2.6c.61,0,4,.16,5.9,1.9.62-.69,2.76-3.23,2.38-5.54a4,4,0,0,0-2.4-2.84c-.79.23-6.5,2-7,4.32C240.33,83.79,240.71,84.52,241.59,85.25Z"/><path class="cls-1" d="M294.5,84.5s-2-8-2-9-16-1-16-1-16,1,0,5c0,0,5,0,7-1s9,6,9,6S294.5,88.5,294.5,84.5Z"/><path class="cls-1" d="M294,86.53c-.67,0-1.39-1.27-1.7-1.88-2.66-2.66-7.33-6.6-8.68-5.93-2,1-6.9,1-7.11,1-6.65-1.66-7.42-2.68-7.36-3.39.15-1.58,6.14-2,7.34-2.11.06,0,4.07,0,8,.13,8.24.25,8.24.75,8.24,1.12,0,.79,1.44,6.72,2,8.94v.06c0,1.29-.2,1.91-.65,2Zm-10.05-8.37c2.5,0,8.06,5.49,8.74,6.16l0,.07c.48,1,1.09,1.67,1.27,1.64,0,0,.26-.1.26-1.5-.15-.6-1.93-7.74-2-9-.76-.53-8.63-.82-15.75-.82-3.24.2-6.79.89-6.86,1.66,0,.25.41,1.22,6.92,2.85,0,0,4.9,0,6.83-1A1.2,1.2,0,0,1,283.94,78.16Z"/><path class="cls-1" d="M286.5,84.5s10,15-3,3S286.5,84.5,286.5,84.5Z"/><path class="cls-1" d="M289.79,92.41c-.73,0-2.33-.91-6.46-4.73-5.13-4.73-5.44-5.89-5.06-6.4.79-1.09,6.1,1.74,8.35,3l.09.08c1.39,2.09,4.51,7,3.49,7.9A.59.59,0,0,1,289.79,92.41ZM278.94,81.49c-.13,0-.23,0-.27.08s-.34.82,5,5.75,6.14,4.62,6.21,4.56c.42-.36-1.2-3.65-3.55-7.19C283,82.81,279.89,81.49,278.94,81.49Z"/><path class="cls-1" d="M199.5,267.5s4-9,23-3l10,1s4,2-7,4C225.5,269.5,219.5,261.5,199.5,267.5Z"/><path class="cls-1" d="M225.39,269.77l-.09-.12c-.06-.08-6.16-7.78-25.73-1.91l-.52.16.22-.5c.17-.38,4.31-9.14,23.31-3.14l10,1s.95.48.84,1.26c-.17,1.22-2.76,2.27-7.91,3.21ZM213,265c8.59,0,12,3.5,12.62,4.23,6.44-1.19,7.29-2.32,7.36-2.75s-.4-.66-.54-.74l-9.94-1c-15.84-5-21.18.53-22.43,2.33A46.72,46.72,0,0,1,213,265Z"/><path class="cls-1" d="M233.5,271.5s6-3,3-6,17-1,17-1,23-13,24,7c0,0,2,12-3-3,0,0-2-10-30,0C244.5,268.5,246.5,271.5,233.5,271.5Z"/><path class="cls-1" d="M277.63,276.3c-.37,0-1-.67-3.37-7.72a4.81,4.81,0,0,0-2.52-2.83c-3.32-1.86-10.69-2.86-26.91,2.9a1.16,1.16,0,0,1-.12.84c-.79,1.48-4.67,2.26-11.21,2.26h-1.06l.95-.47s3.35-1.7,3.68-3.7a2.16,2.16,0,0,0-.75-1.9c-.44-.45-.42-.8-.31-1,.92-1.94,14.5-.71,17.44-.42,1.09-.61,12.43-6.71,19.3-2.93,3.06,1.69,4.75,5.12,5,10.18.77,4.61.22,4.74,0,4.79Zm-12.91-12.49a14.65,14.65,0,0,1,7.29,1.53,5.25,5.25,0,0,1,2.74,3.11c1.85,5.55,2.6,6.93,2.87,7.26a19.29,19.29,0,0,0-.37-4.17c-.24-4.9-1.84-8.19-4.75-9.79-6.82-3.76-18.76,2.9-18.88,3l-.07,0h-.07c-6.26-.63-16.42-1.15-17,.13-.06.12.08.31.22.44a2.65,2.65,0,0,1,.88,2.34c-.26,1.58-2,2.91-3.11,3.58,7.61-.09,9.42-1.26,9.81-2a.62.62,0,0,0,0-.63l-.16-.27.29-.11C253.75,264.93,260.23,263.81,264.72,263.81Z"/><path class="cls-1" d="M184.5,332.5s1,4,8,2S184.5,332.5,184.5,332.5Z"/><path class="cls-1" d="M189,335.31a5.84,5.84,0,0,1-3-.71,3.56,3.56,0,0,1-1.71-2l-.08-.31h.32c3.71,0,9.95.16,10.11,1.26.06.45-.51.79-2,1.23A13.36,13.36,0,0,1,189,335.31Zm-4.1-2.56a3.37,3.37,0,0,0,1.36,1.43c1.44.82,3.52.84,6.2.08,1.52-.43,1.67-.69,1.68-.72C193.8,333.09,189.14,332.77,184.87,332.75Z"/><path class="cls-1" d="M202.5,53.5s15-6-2-5S202.5,53.5,202.5,53.5Z"/><path class="cls-1" d="M202.52,53.76l-.07,0c-2.21-.46-9.39-2.1-9.27-3.71,0-.63.92-1.4,7.31-1.78,7.17-.42,8.2.44,8.35,1.13.36,1.62-5.14,3.91-6.25,4.35Zm1.37-5.12c-.93,0-2,0-3.38.11-6.43.38-6.82,1.17-6.83,1.32-.06.8,4.51,2.26,8.8,3.17,2.58-1,6.07-2.87,5.87-3.75C208.29,49.2,207.68,48.64,203.89,48.64Z"/><path class="cls-1" d="M205.5,27.5s-10,8-22,6S205.5,27.5,205.5,27.5Z"/><path class="cls-1" d="M187.37,34.07a24,24,0,0,1-3.91-.32c-2-.33-2.79-.71-2.77-1.28.05-2.14,19-4.54,24.78-5.22l.87-.1-.68.55C205.57,27.77,197.56,34.07,187.37,34.07Zm17.21-6.21c-11.64,1.41-23.37,3.48-23.39,4.62,0,0,.05.39,2.35.77C193.42,34.9,202,29.63,204.58,27.86Z"/></g></g></svg>