<svg xmlns="http://www.w3.org/2000/svg" xmlns:xlink="http://www.w3.org/1999/xlink" viewBox="0 0 220.93 587.1"><defs><style>.cls-1{fill:none;}.cls-2{clip-path:url(#clip-path);}.cls-3{fill:#ccc;}.cls-4{fill:#cdcdcd;}.cls-5{fill:#cecece;}.cls-6{fill:#cfcfcf;}.cls-7{fill:#d0d0d0;}.cls-8{fill:#d1d1d1;}.cls-9{fill:#d2d2d2;}.cls-10{fill:#d3d3d3;}.cls-11{fill:#d4d4d4;}.cls-12{fill:#d5d5d5;}.cls-13{fill:#d6d6d6;}.cls-14{fill:#d7d7d7;}.cls-15{fill:#d8d8d8;}.cls-16{fill:#d9d9d9;}.cls-17{fill:#dadada;}.cls-18{fill:#dbdbdb;}.cls-19{fill:#dcdcdc;}.cls-20{fill:#ddd;}.cls-21{fill:#dedede;}.cls-22{fill:#dfdfdf;}.cls-23{fill:#e0e0e0;}.cls-24{fill:#e2e2e2;}.cls-25{fill:#e3e3e3;}.cls-26{fill:#e4e4e4;}.cls-27{fill:#e5e5e5;}.cls-28{fill:#e6e6e6;}.cls-29{fill:#e7e7e7;}.cls-30{fill:#e8e8e8;}.cls-31{fill:#e9e9e9;}.cls-32{fill:#eaeaea;}.cls-33{fill:#ebebeb;}.cls-34{fill:#ececec;}.cls-35{fill:#ededed;}.cls-36{fill:#eee;}.cls-37{fill:#efefef;}.cls-38{fill:#f0f0f0;}.cls-39{fill:#f1f1f1;}.cls-40{fill:#f2f2f2;}.cls-41{fill:#f3f3f3;}.cls-42{fill:#f4f4f4;}.cls-43{fill:#f5f5f5;}.cls-44{fill:#f6f6f6;}.cls-45{fill:#f7f7f7;}.cls-46{clip-path:url(#clip-path-2);}.cls-47{fill:#e1e1e1;}.cls-48{clip-path:url(#clip-path-3);}.cls-49{clip-path:url(#clip-path-4);}.cls-50{clip-path:url(#clip-path-5);}.cls-51{clip-path:url(#clip-path-6);}.cls-52{clip-path:url(#clip-path-7);}.cls-53{clip-path:url(#clip-path-8);}.cls-54{clip-path:url(#clip-path-9);}.cls-55{clip-path:url(#clip-path-10);}.cls-56{clip-path:url(#clip-path-11);}.cls-57{clip-path:url(#clip-path-12);}.cls-58{clip-path:url(#clip-path-13);}</style><clipPath id="clip-path" transform="translate(0 82.75)"><path class="cls-1" d="M151.65,308.4s-39.83-391.15-81.7,0c0,0-.34,8.17-58.9,63.32L2.54,402.36h76.6l7.15-14.3,48-.68,9.19,15h73.87l-8.17-29.62S153.12,321.71,151.65,308.4Z"/></clipPath><clipPath id="clip-path-2" transform="translate(0 82.75)"><polygon class="cls-1" points="79.14 402.36 79.14 433.51 143.73 433.51 143.73 402.36 134.29 387.38 86.29 388.06 79.14 402.36"/></clipPath><clipPath id="clip-path-3" transform="translate(0 82.75)"><polygon class="cls-1" points="137.69 433.51 137.69 447.3 136.46 451 144.75 451 143.73 447.3 143.73 433.51 137.69 433.51"/></clipPath><clipPath id="clip-path-4" transform="translate(0 82.75)"><polygon class="cls-1" points="85.66 433.51 85.66 447.3 86.9 451 78.6 451 79.62 447.3 79.62 433.51 85.66 433.51"/></clipPath><clipPath id="clip-path-5" transform="translate(0 82.75)"><polygon class="cls-1" points="187.14 426.3 187.14 464.15 195.56 488.91 181.27 488.91 187.14 503.85 146.8 503.85 152.8 488.91 138.75 488.91 147.75 464.15 147.54 432.87 187.14 426.3"/></clipPath><clipPath id="clip-path-6" transform="translate(0 82.75)"><polygon class="cls-1" points="35.6 426.3 35.6 464.15 27.18 488.91 41.47 488.91 35.6 503.85 75.94 503.85 69.94 488.91 83.98 488.91 74.99 464.15 75.2 432.87 35.6 426.3"/></clipPath><clipPath id="clip-path-7" transform="translate(0 82.75)"><path class="cls-1" d="M152.94,312.16l1.77-177.6S158.8,43.21,110.29.66c0,0-49.88,41.42-44.09,133.9v180.7l3.41-5.92s35.7-391.49,82.87,0Z"/></clipPath><clipPath id="clip-path-8" transform="translate(0 82.75)"><path class="cls-1" d="M189.53,354.1,153.4,313.05l1.4-192,14-42.27s4.09-9.36,7.15,0,13.54,42.27,13.54,42.27Z"/></clipPath><clipPath id="clip-path-9" transform="translate(0 82.75)"><path class="cls-1" d="M31.13,352.45l36.12-39.4-1.39-192-14-42.27s-4.09-9.36-7.15,0-13.54,42.27-13.54,42.27Z"/></clipPath><clipPath id="clip-path-10" transform="translate(0 82.75)"><path class="cls-1" d="M2.54,403.13s-2-.52-2,17.36l78.64,13V403.12Z"/></clipPath><clipPath id="clip-path-11" transform="translate(0 82.75)"><path class="cls-1" d="M217.35,403s3.58,1.7,2.89,17.7l-76.51,12.77V403Z"/></clipPath><clipPath id="clip-path-12" transform="translate(0 82.75)"><polygon class="cls-1" points="133.9 433.51 133.9 457.76 137.69 463 113.22 463 117.05 457.76 116.92 433.51 133.9 433.51"/></clipPath><clipPath id="clip-path-13" transform="translate(0 82.75)"><polygon class="cls-1" points="89.45 433.51 89.45 457.76 85.66 463 110.13 463 106.3 457.76 106.43 433.51 89.45 433.51"/></clipPath></defs><title>Rocket Frontpage</title><g id="Layer_2" data-name="Layer 2"><g id="Rocket"><g class="cls-2"><rect class="cls-3" x="2.54" height="485.11"/><rect class="cls-3" x="2.54" width="1.26" height="485.11"/><rect class="cls-4" x="3.81" width="1.26" height="485.11"/><rect class="cls-5" x="5.07" width="1.26" height="485.11"/><rect class="cls-6" x="6.33" width="1.26" height="485.11"/><rect class="cls-7" x="7.6" width="1.26" height="485.11"/><rect class="cls-8" x="8.86" width="1.26" height="485.11"/><rect class="cls-9" x="10.12" width="1.26" height="485.11"/><rect class="cls-10" x="11.39" width="1.26" height="485.11"/><rect class="cls-11" x="12.65" width="1.26" height="485.11"/><rect class="cls-12" x="13.91" width="1.26" height="485.11"/><rect class="cls-13" x="15.18" width="1.26" height="485.11"/><rect class="cls-14" x="16.44" width="1.26" height="485.11"/><rect class="cls-15" x="17.7" width="1.26" height="485.11"/><rect class="cls-16" x="18.97" width="1.26" height="485.11"/><rect class="cls-17" x="20.23" width="1.26" height="485.11"/><rect class="cls-18" x="21.49" width="1.26" height="485.11"/><rect class="cls-19" x="22.75" width="1.26" height="485.11"/><rect class="cls-20" x="24.02" width="1.26" height="485.11"/><rect class="cls-21" x="25.28" width="1.26" height="485.11"/><rect class="cls-22" x="26.54" width="1.26" height="485.11"/><rect class="cls-23" x="27.81" width="1.26" height="485.11"/><rect class="cls-24" x="29.07" width="1.26" height="485.11"/><rect class="cls-25" x="30.33" width="1.26" height="485.11"/><rect class="cls-26" x="31.6" width="1.26" height="485.11"/><rect class="cls-27" x="32.86" width="1.26" height="485.11"/><rect class="cls-28" x="34.12" width="1.26" height="485.11"/><rect class="cls-29" x="35.39" width="1.26" height="485.11"/><rect class="cls-30" x="36.65" width="1.26" height="485.11"/><rect class="cls-31" x="37.91" width="1.26" height="485.11"/><rect class="cls-32" x="39.18" width="1.26" height="485.11"/><rect class="cls-33" x="40.44" width="1.26" height="485.11"/><rect class="cls-34" x="41.7" width="1.26" height="485.11"/><rect class="cls-35" x="42.97" width="1.26" height="485.11"/><rect class="cls-36" x="44.23" width="1.26" height="485.11"/><rect class="cls-37" x="45.49" width="1.26" height="485.11"/><rect class="cls-38" x="46.76" width="1.26" height="485.11"/><rect class="cls-39" x="48.02" width="1.26" height="485.11"/><rect class="cls-40" x="49.28" width="1.26" height="485.11"/><rect class="cls-41" x="50.55" width="1.26" height="485.11"/><rect class="cls-42" x="51.81" width="1.26" height="485.11"/><rect class="cls-43" x="53.07" width="1.26" height="485.11"/><rect class="cls-44" x="54.34" width="1.26" height="485.11"/><rect class="cls-45" x="55.6" width="1.26" height="485.11"/><rect class="cls-45" x="56.86" width="65.68" height="485.11"/><rect class="cls-45" x="122.54" width="1.95" height="485.11"/><rect class="cls-44" x="124.49" width="1.95" height="485.11"/><rect class="cls-43" x="126.43" width="1.95" height="485.11"/><rect class="cls-42" x="128.38" width="1.95" height="485.11"/><rect class="cls-41" x="130.33" width="1.95" height="485.11"/><rect class="cls-39" x="132.27" width="1.95" height="485.11"/><rect class="cls-38" x="134.22" width="1.95" height="485.11"/><rect class="cls-37" x="136.16" width="1.95" height="485.11"/><rect class="cls-36" x="138.11" width="1.95" height="485.11"/><rect class="cls-35" x="140.05" width="1.95" height="485.11"/><rect class="cls-35" x="142" width="1.65" height="485.11"/><rect class="cls-36" x="143.65" width="1.65" height="485.11"/><rect class="cls-37" x="145.31" width="1.65" height="485.11"/><rect class="cls-38" x="146.96" width="1.65" height="485.11"/><rect class="cls-39" x="148.61" width="1.65" height="485.11"/><rect class="cls-41" x="150.27" width="1.65" height="485.11"/><rect class="cls-42" x="151.92" width="1.65" height="485.11"/><rect class="cls-43" x="153.57" width="1.65" height="485.11"/><rect class="cls-44" x="155.23" width="1.65" height="485.11"/><rect class="cls-45" x="156.88" width="1.65" height="485.11"/><rect class="cls-45" x="158.53" width="58.82" height="485.11"/></g><path d="M218.66,403.36H142.92l-9.19-15-46.82.66-7.15,14.31H1.23l8.93-32.18.21-.19C66.56,318.07,68.88,308.65,69,308.28c12.58-117.56,25.92-174.72,40.78-174.72h0c10.75,0,20.89,28.74,31,87.77,7.35,42.87,11.81,86.28,11.88,87,1.14,10.23,37.92,46.14,57.21,63.7l.22.2Zm-74.62-2h72l-7.75-28.07c-4.34-4-56.17-51.54-57.64-64.78h0c-4.89-48.08-21.79-172.89-40.9-172.94h0c-9.26,0-23.5,30-38.8,173,0,.81-2,10-59,63.75l-8.08,29.1H78.52l7.14-14.29,49.18-.7Z" transform="translate(0 82.75)"/><path d="M2.9,403.05l-1-.1C2,402.42,3.5,389.48,40,356.37c35.95-32.61,29.57-47.61,29.5-47.75l.91-.43c.3.62,6.89,15.69-29.73,48.92C4.61,389.83,2.91,402.92,2.9,403.05Z" transform="translate(0 82.75)"/><path d="M217,403.17c0-.16-4.84-16.31-38-46.74-33.56-30.81-28-46.86-27.7-47.53l.93.36c-.05.16-5.52,16.17,27.45,46.43,33.42,30.68,38.09,46.56,38.27,47.22Z" transform="translate(0 82.75)"/><path d="M82.46,214.25l-.24-1c38-9.47,55.54-.05,55.71.05l-.48.87C137.28,214.11,120.05,204.89,82.46,214.25Z" transform="translate(0 82.75)"/><rect x="109.52" y="292.34" width="1" height="178.11"/><polygon points="85.79 471.31 85.79 295.15 86.79 295.15 86.79 470.3 133.79 469.63 133.79 295.15 134.79 295.15 134.79 470.62 85.79 471.31"/><path d="M86.42,256l-.26-1c28.93-7.87,48.13-.06,48.32,0l-.39.92C133.91,255.93,115,248.26,86.42,256Z" transform="translate(0 82.75)"/><path d="M86.42,297.82l-.26-1c28.93-7.87,48.13-.06,48.32,0l-.39.92C133.91,297.72,115,290.05,86.42,297.82Z" transform="translate(0 82.75)"/><path d="M86.42,342.63l-.26-1c28.93-7.87,48.13-.06,48.32,0l-.39.92C133.91,342.53,115,334.86,86.42,342.63Z" transform="translate(0 82.75)"/><path d="M86.42,384.3l-.26-1c28.93-7.87,48.13-.06,48.32,0l-.39.92C133.91,384.2,115,376.52,86.42,384.3Z" transform="translate(0 82.75)"/><g class="cls-46"><rect class="cls-9" x="79.14" y="470.13" height="46.13"/><rect class="cls-9" x="79.14" y="470.13" width="0.44" height="46.13"/><rect class="cls-10" x="79.58" y="470.13" width="0.44" height="46.13"/><rect class="cls-11" x="80.02" y="470.13" width="0.44" height="46.13"/><rect class="cls-12" x="80.46" y="470.13" width="0.44" height="46.13"/><rect class="cls-13" x="80.9" y="470.13" width="0.44" height="46.13"/><rect class="cls-14" x="81.35" y="470.13" width="0.44" height="46.13"/><rect class="cls-15" x="81.79" y="470.13" width="0.44" height="46.13"/><rect class="cls-16" x="82.23" y="470.13" width="0.44" height="46.13"/><rect class="cls-17" x="82.67" y="470.13" width="0.44" height="46.13"/><rect class="cls-18" x="83.11" y="470.13" width="0.44" height="46.13"/><rect class="cls-19" x="83.55" y="470.13" width="0.44" height="46.13"/><rect class="cls-20" x="83.99" y="470.13" width="0.44" height="46.13"/><rect class="cls-21" x="84.44" y="470.13" width="0.44" height="46.13"/><rect class="cls-22" x="84.88" y="470.13" width="0.44" height="46.13"/><rect class="cls-23" x="85.32" y="470.13" width="0.44" height="46.13"/><rect class="cls-47" x="85.76" y="470.13" width="0.44" height="46.13"/><rect class="cls-24" x="86.2" y="470.13" width="0.44" height="46.13"/><rect class="cls-25" x="86.64" y="470.13" width="0.44" height="46.13"/><rect class="cls-27" x="87.08" y="470.13" width="0.44" height="46.13"/><rect class="cls-28" x="87.53" y="470.13" width="0.44" height="46.13"/><rect class="cls-29" x="87.97" y="470.13" width="0.44" height="46.13"/><rect class="cls-30" x="88.41" y="470.13" width="0.44" height="46.13"/><rect class="cls-31" x="88.85" y="470.13" width="0.44" height="46.13"/><rect class="cls-32" x="89.29" y="470.13" width="0.44" height="46.13"/><rect class="cls-33" x="89.73" y="470.13" width="0.44" height="46.13"/><rect class="cls-34" x="90.18" y="470.13" width="0.44" height="46.13"/><rect class="cls-35" x="90.62" y="470.13" width="0.44" height="46.13"/><rect class="cls-36" x="91.06" y="470.13" width="0.44" height="46.13"/><rect class="cls-37" x="91.5" y="470.13" width="0.44" height="46.13"/><rect class="cls-38" x="91.94" y="470.13" width="0.44" height="46.13"/><rect class="cls-39" x="92.38" y="470.13" width="0.44" height="46.13"/><rect class="cls-40" x="92.82" y="470.13" width="0.44" height="46.13"/><rect class="cls-41" x="93.27" y="470.13" width="0.44" height="46.13"/><rect class="cls-42" x="93.71" y="470.13" width="0.44" height="46.13"/><rect class="cls-43" x="94.15" y="470.13" width="0.44" height="46.13"/><rect class="cls-44" x="94.59" y="470.13" width="0.44" height="46.13"/><rect class="cls-45" x="95.03" y="470.13" width="0.44" height="46.13"/><rect class="cls-45" x="95.47" y="470.13" width="48.26" height="46.13"/></g><path d="M144.23,434H78.64V402.24L86,387.57h.3l48.28-.68,9.67,15.33Zm-64.59-1h63.59V402.5L134,387.88l-47.41.68-7,13.92Z" transform="translate(0 82.75)"/><rect x="109.52" y="470.45" width="1" height="45.8"/><g class="cls-48"><rect class="cls-9" x="136.46" y="516.26" height="17.49"/><rect class="cls-9" x="136.46" y="516.26" width="0.06" height="17.49"/><rect class="cls-10" x="136.51" y="516.26" width="0.06" height="17.49"/><rect class="cls-11" x="136.57" y="516.26" width="0.06" height="17.49"/><rect class="cls-12" x="136.63" y="516.26" width="0.06" height="17.49"/><rect class="cls-13" x="136.68" y="516.26" width="0.06" height="17.49"/><rect class="cls-14" x="136.74" y="516.26" width="0.06" height="17.49"/><rect class="cls-15" x="136.8" y="516.26" width="0.06" height="17.49"/><rect class="cls-16" x="136.85" y="516.26" width="0.06" height="17.49"/><rect class="cls-17" x="136.91" y="516.26" width="0.06" height="17.49"/><rect class="cls-18" x="136.97" y="516.26" width="0.06" height="17.49"/><rect class="cls-19" x="137.02" y="516.26" width="0.06" height="17.49"/><rect class="cls-20" x="137.08" y="516.26" width="0.06" height="17.49"/><rect class="cls-21" x="137.14" y="516.26" width="0.06" height="17.49"/><rect class="cls-22" x="137.19" y="516.26" width="0.06" height="17.49"/><rect class="cls-23" x="137.25" y="516.26" width="0.06" height="17.49"/><rect class="cls-47" x="137.31" y="516.26" width="0.06" height="17.49"/><rect class="cls-24" x="137.36" y="516.26" width="0.06" height="17.49"/><rect class="cls-25" x="137.42" y="516.26" width="0.06" height="17.49"/><rect class="cls-27" x="137.48" y="516.26" width="0.06" height="17.49"/><rect class="cls-28" x="137.53" y="516.26" width="0.06" height="17.49"/><rect class="cls-29" x="137.59" y="516.26" width="0.06" height="17.49"/><rect class="cls-30" x="137.65" y="516.26" width="0.06" height="17.49"/><rect class="cls-31" x="137.71" y="516.26" width="0.06" height="17.49"/><rect class="cls-32" x="137.76" y="516.26" width="0.06" height="17.49"/><rect class="cls-33" x="137.82" y="516.26" width="0.06" height="17.49"/><rect class="cls-34" x="137.88" y="516.26" width="0.06" height="17.49"/><rect class="cls-35" x="137.93" y="516.26" width="0.06" height="17.49"/><rect class="cls-36" x="137.99" y="516.26" width="0.06" height="17.49"/><rect class="cls-37" x="138.05" y="516.26" width="0.06" height="17.49"/><rect class="cls-38" x="138.1" y="516.26" width="0.06" height="17.49"/><rect class="cls-39" x="138.16" y="516.26" width="0.06" height="17.49"/><rect class="cls-40" x="138.22" y="516.26" width="0.06" height="17.49"/><rect class="cls-41" x="138.27" y="516.26" width="0.06" height="17.49"/><rect class="cls-42" x="138.33" y="516.26" width="0.06" height="17.49"/><rect class="cls-43" x="138.39" y="516.26" width="0.06" height="17.49"/><rect class="cls-44" x="138.44" y="516.26" width="0.06" height="17.49"/><rect class="cls-45" x="138.5" y="516.26" width="0.06" height="17.49"/><rect class="cls-45" x="138.56" y="516.26" width="6.2" height="17.49"/></g><path d="M145.41,451.5h-9.65l1.43-4.29V433h7v14.22Zm-8.26-1h6.95l-.87-3.2V434h-5l0,13.44Z" transform="translate(0 82.75)"/><g class="cls-49"><rect class="cls-9" x="78.6" y="516.26" height="17.49"/><rect class="cls-9" x="78.6" y="516.26" width="0.06" height="17.49"/><rect class="cls-10" x="78.66" y="516.26" width="0.06" height="17.49"/><rect class="cls-11" x="78.71" y="516.26" width="0.06" height="17.49"/><rect class="cls-12" x="78.77" y="516.26" width="0.06" height="17.49"/><rect class="cls-13" x="78.83" y="516.26" width="0.06" height="17.49"/><rect class="cls-14" x="78.88" y="516.26" width="0.06" height="17.49"/><rect class="cls-15" x="78.94" y="516.26" width="0.06" height="17.49"/><rect class="cls-16" x="79" y="516.26" width="0.06" height="17.49"/><rect class="cls-17" x="79.05" y="516.26" width="0.06" height="17.49"/><rect class="cls-18" x="79.11" y="516.26" width="0.06" height="17.49"/><rect class="cls-19" x="79.17" y="516.26" width="0.06" height="17.49"/><rect class="cls-20" x="79.22" y="516.26" width="0.06" height="17.49"/><rect class="cls-21" x="79.28" y="516.26" width="0.06" height="17.49"/><rect class="cls-22" x="79.34" y="516.26" width="0.06" height="17.49"/><rect class="cls-23" x="79.39" y="516.26" width="0.06" height="17.49"/><rect class="cls-47" x="79.45" y="516.26" width="0.06" height="17.49"/><rect class="cls-24" x="79.51" y="516.26" width="0.06" height="17.49"/><rect class="cls-25" x="79.56" y="516.26" width="0.06" height="17.49"/><rect class="cls-27" x="79.62" y="516.26" width="0.06" height="17.49"/><rect class="cls-28" x="79.68" y="516.26" width="0.06" height="17.49"/><rect class="cls-29" x="79.73" y="516.26" width="0.06" height="17.49"/><rect class="cls-30" x="79.79" y="516.26" width="0.06" height="17.49"/><rect class="cls-31" x="79.85" y="516.26" width="0.06" height="17.49"/><rect class="cls-32" x="79.9" y="516.26" width="0.06" height="17.49"/><rect class="cls-33" x="79.96" y="516.26" width="0.06" height="17.49"/><rect class="cls-34" x="80.02" y="516.26" width="0.06" height="17.49"/><rect class="cls-35" x="80.08" y="516.26" width="0.06" height="17.49"/><rect class="cls-36" x="80.13" y="516.26" width="0.06" height="17.49"/><rect class="cls-37" x="80.19" y="516.26" width="0.06" height="17.49"/><rect class="cls-38" x="80.25" y="516.26" width="0.06" height="17.49"/><rect class="cls-39" x="80.3" y="516.26" width="0.06" height="17.49"/><rect class="cls-40" x="80.36" y="516.26" width="0.06" height="17.49"/><rect class="cls-41" x="80.42" y="516.26" width="0.06" height="17.49"/><rect class="cls-42" x="80.47" y="516.26" width="0.06" height="17.49"/><rect class="cls-43" x="80.53" y="516.26" width="0.06" height="17.49"/><rect class="cls-44" x="80.59" y="516.26" width="0.06" height="17.49"/><rect class="cls-45" x="80.64" y="516.26" width="0.06" height="17.49"/><rect class="cls-45" x="80.7" y="516.26" width="6.2" height="17.49"/></g><path d="M87.59,451.5H77.94l1.18-4.27V433h7v14.2Zm-8.33-1H86.2l-1-3.2V434h-5l0,13.42Z" transform="translate(0 82.75)"/><g class="cls-50"><rect class="cls-9" x="138.76" y="509.04" height="77.55"/><rect class="cls-9" x="138.76" y="509.04" width="0.39" height="77.55"/><rect class="cls-10" x="139.14" y="509.04" width="0.39" height="77.55"/><rect class="cls-11" x="139.53" y="509.04" width="0.39" height="77.55"/><rect class="cls-12" x="139.92" y="509.04" width="0.39" height="77.55"/><rect class="cls-13" x="140.31" y="509.04" width="0.39" height="77.55"/><rect class="cls-14" x="140.7" y="509.04" width="0.39" height="77.55"/><rect class="cls-15" x="141.08" y="509.04" width="0.39" height="77.55"/><rect class="cls-16" x="141.47" y="509.04" width="0.39" height="77.55"/><rect class="cls-17" x="141.86" y="509.04" width="0.39" height="77.55"/><rect class="cls-18" x="142.25" y="509.04" width="0.39" height="77.55"/><rect class="cls-19" x="142.64" y="509.04" width="0.39" height="77.55"/><rect class="cls-20" x="143.03" y="509.04" width="0.39" height="77.55"/><rect class="cls-21" x="143.41" y="509.04" width="0.39" height="77.55"/><rect class="cls-22" x="143.8" y="509.04" width="0.39" height="77.55"/><rect class="cls-23" x="144.19" y="509.04" width="0.39" height="77.55"/><rect class="cls-47" x="144.58" y="509.04" width="0.39" height="77.55"/><rect class="cls-24" x="144.97" y="509.04" width="0.39" height="77.55"/><rect class="cls-25" x="145.36" y="509.04" width="0.39" height="77.55"/><rect class="cls-27" x="145.74" y="509.04" width="0.39" height="77.55"/><rect class="cls-28" x="146.13" y="509.04" width="0.39" height="77.55"/><rect class="cls-29" x="146.52" y="509.04" width="0.39" height="77.55"/><rect class="cls-30" x="146.91" y="509.04" width="0.39" height="77.55"/><rect class="cls-31" x="147.3" y="509.04" width="0.39" height="77.55"/><rect class="cls-32" x="147.69" y="509.04" width="0.39" height="77.55"/><rect class="cls-33" x="148.07" y="509.04" width="0.39" height="77.55"/><rect class="cls-34" x="148.46" y="509.04" width="0.39" height="77.55"/><rect class="cls-35" x="148.85" y="509.04" width="0.39" height="77.55"/><rect class="cls-36" x="149.24" y="509.04" width="0.39" height="77.55"/><rect class="cls-37" x="149.63" y="509.04" width="0.39" height="77.55"/><rect class="cls-38" x="150.01" y="509.04" width="0.39" height="77.55"/><rect class="cls-39" x="150.4" y="509.04" width="0.39" height="77.55"/><rect class="cls-40" x="150.79" y="509.04" width="0.39" height="77.55"/><rect class="cls-41" x="151.18" y="509.04" width="0.39" height="77.55"/><rect class="cls-42" x="151.57" y="509.04" width="0.39" height="77.55"/><rect class="cls-43" x="151.96" y="509.04" width="0.39" height="77.55"/><rect class="cls-44" x="152.34" y="509.04" width="0.39" height="77.55"/><rect class="cls-45" x="152.73" y="509.04" width="0.39" height="77.55"/><rect class="cls-45" x="153.12" y="509.04" width="42.44" height="77.55"/></g><path d="M187.87,504.35H146.06l6-14.94H138l9.21-25.35L147,432.45l.42-.07,40.18-6.67v38.35l8.62,25.35H182Zm-40.33-1h38.87l-5.88-14.94h14.34l-8.23-24.26V426.89l-38.59,6.41.2,30.93,0,.09-8.75,24.09h14.07Z" transform="translate(0 82.75)"/><rect x="152.8" y="571.16" width="28.47" height="1"/><path d="M147.64,464.64l-.16-1a126.74,126.74,0,0,1,39.75,0l-.19,1A125.78,125.78,0,0,0,147.64,464.64Z" transform="translate(0 82.75)"/><path d="M147.64,453l-.16-1a126.74,126.74,0,0,1,39.75,0l-.19,1A125.78,125.78,0,0,0,147.64,453Z" transform="translate(0 82.75)"/><path d="M147.64,442.75l-.16-1a127.29,127.29,0,0,1,39.75,0l-.19,1A126,126,0,0,0,147.64,442.75Z" transform="translate(0 82.75)"/><path d="M147.64,434l-.16-1a126.74,126.74,0,0,1,39.75,0l-.19,1A125.78,125.78,0,0,0,147.64,434Z" transform="translate(0 82.75)"/><g class="cls-51"><rect class="cls-9" x="27.17" y="509.04" height="77.55"/><rect class="cls-9" x="27.17" y="509.04" width="0.39" height="77.55"/><rect class="cls-10" x="27.56" y="509.04" width="0.39" height="77.55"/><rect class="cls-11" x="27.95" y="509.04" width="0.39" height="77.55"/><rect class="cls-12" x="28.34" y="509.04" width="0.39" height="77.55"/><rect class="cls-13" x="28.73" y="509.04" width="0.39" height="77.55"/><rect class="cls-14" x="29.12" y="509.04" width="0.39" height="77.55"/><rect class="cls-15" x="29.5" y="509.04" width="0.39" height="77.55"/><rect class="cls-16" x="29.89" y="509.04" width="0.39" height="77.55"/><rect class="cls-17" x="30.28" y="509.04" width="0.39" height="77.55"/><rect class="cls-18" x="30.67" y="509.04" width="0.39" height="77.55"/><rect class="cls-19" x="31.06" y="509.04" width="0.39" height="77.55"/><rect class="cls-20" x="31.45" y="509.04" width="0.39" height="77.55"/><rect class="cls-21" x="31.83" y="509.04" width="0.39" height="77.55"/><rect class="cls-22" x="32.22" y="509.04" width="0.39" height="77.55"/><rect class="cls-23" x="32.61" y="509.04" width="0.39" height="77.55"/><rect class="cls-47" x="33" y="509.04" width="0.39" height="77.55"/><rect class="cls-24" x="33.39" y="509.04" width="0.39" height="77.55"/><rect class="cls-25" x="33.78" y="509.04" width="0.39" height="77.55"/><rect class="cls-27" x="34.16" y="509.04" width="0.39" height="77.55"/><rect class="cls-28" x="34.55" y="509.04" width="0.39" height="77.55"/><rect class="cls-29" x="34.94" y="509.04" width="0.39" height="77.55"/><rect class="cls-30" x="35.33" y="509.04" width="0.39" height="77.55"/><rect class="cls-31" x="35.72" y="509.04" width="0.39" height="77.55"/><rect class="cls-32" x="36.11" y="509.04" width="0.39" height="77.55"/><rect class="cls-33" x="36.49" y="509.04" width="0.39" height="77.55"/><rect class="cls-34" x="36.88" y="509.04" width="0.39" height="77.55"/><rect class="cls-35" x="37.27" y="509.04" width="0.39" height="77.55"/><rect class="cls-36" x="37.66" y="509.04" width="0.39" height="77.55"/><rect class="cls-37" x="38.05" y="509.04" width="0.39" height="77.55"/><rect class="cls-38" x="38.43" y="509.04" width="0.39" height="77.55"/><rect class="cls-39" x="38.82" y="509.04" width="0.39" height="77.55"/><rect class="cls-40" x="39.21" y="509.04" width="0.39" height="77.55"/><rect class="cls-41" x="39.6" y="509.04" width="0.39" height="77.55"/><rect class="cls-42" x="39.99" y="509.04" width="0.39" height="77.55"/><rect class="cls-43" x="40.38" y="509.04" width="0.39" height="77.55"/><rect class="cls-44" x="40.76" y="509.04" width="0.39" height="77.55"/><rect class="cls-45" x="41.15" y="509.04" width="0.39" height="77.55"/><rect class="cls-45" x="41.54" y="509.04" width="42.44" height="77.55"/></g><path d="M76.68,504.35H34.87l5.87-14.94H26.48l8.62-25.35V425.71l40.6,6.74-.21,31.61,9.21,25.35h-14Zm-40.35-1H75.2l-6-14.94H83.27l-8.78-24.18.2-30.93L36.1,426.89v37.34l0,.08-8.2,24.1H42.21Z" transform="translate(0 82.75)"/><rect x="41.47" y="571.16" width="28.47" height="1"/><path d="M75.1,464.64a125.76,125.76,0,0,0-39.4,0l-.2-1a126.76,126.76,0,0,1,39.75,0Z" transform="translate(0 82.75)"/><path d="M75.1,453a125.76,125.76,0,0,0-39.4,0l-.2-1a126.76,126.76,0,0,1,39.75,0Z" transform="translate(0 82.75)"/><path d="M75.1,442.75a126,126,0,0,0-39.4,0l-.2-1a127.31,127.31,0,0,1,39.75,0Z" transform="translate(0 82.75)"/><path d="M75.1,434a125.76,125.76,0,0,0-39.4,0l-.2-1a126.76,126.76,0,0,1,39.75,0Z" transform="translate(0 82.75)"/><g class="cls-52"><rect class="cls-9" x="60.41" y="0.6" width="5.32" height="397.41"/><rect class="cls-9" x="65.73" y="0.6" width="0.61" height="397.41"/><rect class="cls-10" x="66.34" y="0.6" width="0.61" height="397.41"/><rect class="cls-11" x="66.95" y="0.6" width="0.61" height="397.41"/><rect class="cls-12" x="67.56" y="0.6" width="0.61" height="397.41"/><rect class="cls-13" x="68.17" y="0.6" width="0.61" height="397.41"/><rect class="cls-14" x="68.78" y="0.6" width="0.61" height="397.41"/><rect class="cls-15" x="69.39" y="0.6" width="0.61" height="397.41"/><rect class="cls-16" x="70" y="0.6" width="0.61" height="397.41"/><rect class="cls-17" x="70.6" y="0.6" width="0.61" height="397.41"/><rect class="cls-18" x="71.21" y="0.6" width="0.61" height="397.41"/><rect class="cls-19" x="71.82" y="0.6" width="0.61" height="397.41"/><rect class="cls-20" x="72.43" y="0.6" width="0.61" height="397.41"/><rect class="cls-21" x="73.04" y="0.6" width="0.61" height="397.41"/><rect class="cls-22" x="73.65" y="0.6" width="0.61" height="397.41"/><rect class="cls-23" x="74.26" y="0.6" width="0.61" height="397.41"/><rect class="cls-47" x="74.87" y="0.6" width="0.61" height="397.41"/><rect class="cls-24" x="75.47" y="0.6" width="0.61" height="397.41"/><rect class="cls-25" x="76.08" y="0.6" width="0.61" height="397.41"/><rect class="cls-27" x="76.69" y="0.6" width="0.61" height="397.41"/><rect class="cls-28" x="77.3" y="0.6" width="0.61" height="397.41"/><rect class="cls-29" x="77.91" y="0.6" width="0.61" height="397.41"/><rect class="cls-30" x="78.52" y="0.6" width="0.61" height="397.41"/><rect class="cls-31" x="79.13" y="0.6" width="0.61" height="397.41"/><rect class="cls-32" x="79.74" y="0.6" width="0.61" height="397.41"/><rect class="cls-33" x="80.34" y="0.6" width="0.61" height="397.41"/><rect class="cls-34" x="80.95" y="0.6" width="0.61" height="397.41"/><rect class="cls-35" x="81.56" y="0.6" width="0.61" height="397.41"/><rect class="cls-36" x="82.17" y="0.6" width="0.61" height="397.41"/><rect class="cls-37" x="82.78" y="0.6" width="0.61" height="397.41"/><rect class="cls-38" x="83.39" y="0.6" width="0.61" height="397.41"/><rect class="cls-39" x="84" y="0.6" width="0.61" height="397.41"/><rect class="cls-40" x="84.6" y="0.6" width="0.61" height="397.41"/><rect class="cls-41" x="85.21" y="0.6" width="0.61" height="397.41"/><rect class="cls-42" x="85.82" y="0.6" width="0.61" height="397.41"/><rect class="cls-43" x="86.43" y="0.6" width="0.61" height="397.41"/><rect class="cls-44" x="87.04" y="0.6" width="0.61" height="397.41"/><rect class="cls-45" x="87.65" y="0.6" width="0.61" height="397.41"/><rect class="cls-45" x="88.26" y="0.6" width="70.54" height="397.41"/></g><path d="M65.7,317.14V134.56c-3-47.86,9.19-81.82,19.93-101.87C97.29,10.94,109.84.38,110,.27L110.3,0l.32.28c25.16,22.08,35.95,57.43,40.56,83.2a259.32,259.32,0,0,1,4,51.1l-1.77,177.59-1,.07-.45-2.82c-7.41-61.45-15-107.22-22.56-136-6.52-24.9-13.05-37.52-19.4-37.52H110c-23.78.34-39.69,171.8-39.85,173.54l-.06.2ZM110.28,1.32c-2,1.8-13.27,12.24-23.79,31.89C75.82,53.14,63.72,86.9,66.7,134.53V313.39l2.42-4.2c.79-8.55,16.27-174,40.83-174.34H110c14.59,0,28.49,55.8,42.47,170.55l1.71-170.85C154.25,133.63,157.72,43.35,110.28,1.32Z" transform="translate(0 82.75)"/><path d="M137.66,205.94h-1c0-1.72-.12-172.12-26.76-205l.78-.63C137.54,33.46,137.66,204.22,137.66,205.94Z" transform="translate(0 82.75)"/><path d="M70.6,76l-.29-1c42.05-12.47,78.59-.11,79,0l-.33,1C148.58,75.84,112.32,63.6,70.6,76Z" transform="translate(0 82.75)"/><path d="M154.61,124.12c-.48-.11-48.07-11.45-88.57,0l-.27-1c40.76-11.53,88.59-.13,89.07,0Z" transform="translate(0 82.75)"/><g class="cls-53"><rect class="cls-9" x="153.4" y="152.17" height="284.67"/><rect class="cls-9" x="153.4" y="152.17" width="0.25" height="284.67"/><rect class="cls-10" x="153.65" y="152.17" width="0.25" height="284.67"/><rect class="cls-11" x="153.9" y="152.17" width="0.25" height="284.67"/><rect class="cls-12" x="154.14" y="152.17" width="0.25" height="284.67"/><rect class="cls-13" x="154.39" y="152.17" width="0.25" height="284.67"/><rect class="cls-14" x="154.64" y="152.17" width="0.25" height="284.67"/><rect class="cls-15" x="154.88" y="152.17" width="0.25" height="284.67"/><rect class="cls-16" x="155.13" y="152.17" width="0.25" height="284.67"/><rect class="cls-17" x="155.38" y="152.17" width="0.25" height="284.67"/><rect class="cls-18" x="155.62" y="152.17" width="0.25" height="284.67"/><rect class="cls-19" x="155.87" y="152.17" width="0.25" height="284.67"/><rect class="cls-20" x="156.12" y="152.17" width="0.25" height="284.67"/><rect class="cls-21" x="156.37" y="152.17" width="0.25" height="284.67"/><rect class="cls-22" x="156.61" y="152.17" width="0.25" height="284.67"/><rect class="cls-23" x="156.86" y="152.17" width="0.25" height="284.67"/><rect class="cls-47" x="157.11" y="152.17" width="0.25" height="284.67"/><rect class="cls-24" x="157.35" y="152.17" width="0.25" height="284.67"/><rect class="cls-25" x="157.6" y="152.17" width="0.25" height="284.67"/><rect class="cls-27" x="157.85" y="152.17" width="0.25" height="284.67"/><rect class="cls-28" x="158.09" y="152.17" width="0.25" height="284.67"/><rect class="cls-29" x="158.34" y="152.17" width="0.25" height="284.67"/><rect class="cls-30" x="158.59" y="152.17" width="0.25" height="284.67"/><rect class="cls-31" x="158.83" y="152.17" width="0.25" height="284.67"/><rect class="cls-32" x="159.08" y="152.17" width="0.25" height="284.67"/><rect class="cls-33" x="159.33" y="152.17" width="0.25" height="284.67"/><rect class="cls-34" x="159.58" y="152.17" width="0.25" height="284.67"/><rect class="cls-35" x="159.82" y="152.17" width="0.25" height="284.67"/><rect class="cls-36" x="160.07" y="152.17" width="0.25" height="284.67"/><rect class="cls-37" x="160.32" y="152.17" width="0.25" height="284.67"/><rect class="cls-38" x="160.56" y="152.17" width="0.25" height="284.67"/><rect class="cls-39" x="160.81" y="152.17" width="0.25" height="284.67"/><rect class="cls-40" x="161.06" y="152.17" width="0.25" height="284.67"/><rect class="cls-41" x="161.3" y="152.17" width="0.25" height="284.67"/><rect class="cls-42" x="161.55" y="152.17" width="0.25" height="284.67"/><rect class="cls-43" x="161.8" y="152.17" width="0.25" height="284.67"/><rect class="cls-44" x="162.04" y="152.17" width="0.25" height="284.67"/><rect class="cls-45" x="162.29" y="152.17" width="0.25" height="284.67"/><rect class="cls-45" x="162.54" y="152.17" width="26.99" height="284.67"/></g><path d="M190,355.42,152.9,313.24v-.19L154.3,121l0-.07,14.05-42.27c.21-.51,2-4.51,4.4-4.51h.11c1.44.07,2.62,1.54,3.58,4.5,3,9.26,13.44,41.94,13.54,42.27l0,.15ZM153.9,312.86,189,352.77V121.13c-.56-1.75-10.56-33.15-13.52-42.19-.8-2.45-1.73-3.77-2.68-3.81-1.47-.08-3.08,2.83-3.53,3.86l-14,42.15Z" transform="translate(0 82.75)"/><path d="M189.19,124.92c-.18-.11-18.54-10.56-34.22,0l-.56-.83c16.21-10.9,35.1-.12,35.29,0Z" transform="translate(0 82.75)"/><path d="M189.19,156c-.18-.11-18.54-10.56-34.22,0l-.56-.83c16.21-10.9,35.1-.12,35.29,0Z" transform="translate(0 82.75)"/><path d="M189.2,194.38c-.19-.11-19-10.57-34.74,0l-.55-.83c16.2-10.9,35.59-.13,35.78,0Z" transform="translate(0 82.75)"/><path d="M189.2,235.71c-.19-.11-19.35-10.58-35,0l-.55-.83c16.2-10.89,35.88-.13,36.08,0Z" transform="translate(0 82.75)"/><path d="M189.2,272.37c-.19-.1-19.74-10.57-35.43,0l-.56-.83c16.2-10.89,36.27-.13,36.47,0Z" transform="translate(0 82.75)"/><path d="M189.2,310.16c-.19-.11-19.74-10.58-35.43,0l-.56-.83c16.2-10.89,36.27-.13,36.47,0Z" transform="translate(0 82.75)"/><g class="cls-54"><rect class="cls-9" x="31.13" y="152.17" height="283.02"/><rect class="cls-9" x="31.13" y="152.17" width="0.25" height="283.02"/><rect class="cls-10" x="31.38" y="152.17" width="0.25" height="283.02"/><rect class="cls-11" x="31.62" y="152.17" width="0.25" height="283.02"/><rect class="cls-12" x="31.87" y="152.17" width="0.25" height="283.02"/><rect class="cls-13" x="32.12" y="152.17" width="0.25" height="283.02"/><rect class="cls-14" x="32.36" y="152.17" width="0.25" height="283.02"/><rect class="cls-15" x="32.61" y="152.17" width="0.25" height="283.02"/><rect class="cls-16" x="32.86" y="152.17" width="0.25" height="283.02"/><rect class="cls-17" x="33.11" y="152.17" width="0.25" height="283.02"/><rect class="cls-18" x="33.35" y="152.17" width="0.25" height="283.02"/><rect class="cls-19" x="33.6" y="152.17" width="0.25" height="283.02"/><rect class="cls-20" x="33.85" y="152.17" width="0.25" height="283.02"/><rect class="cls-21" x="34.09" y="152.17" width="0.25" height="283.02"/><rect class="cls-22" x="34.34" y="152.17" width="0.25" height="283.02"/><rect class="cls-23" x="34.59" y="152.17" width="0.25" height="283.02"/><rect class="cls-47" x="34.83" y="152.17" width="0.25" height="283.02"/><rect class="cls-24" x="35.08" y="152.17" width="0.25" height="283.02"/><rect class="cls-25" x="35.33" y="152.17" width="0.25" height="283.02"/><rect class="cls-27" x="35.57" y="152.17" width="0.25" height="283.02"/><rect class="cls-28" x="35.82" y="152.17" width="0.25" height="283.02"/><rect class="cls-29" x="36.07" y="152.17" width="0.25" height="283.02"/><rect class="cls-30" x="36.31" y="152.17" width="0.25" height="283.02"/><rect class="cls-31" x="36.56" y="152.17" width="0.25" height="283.02"/><rect class="cls-32" x="36.81" y="152.17" width="0.25" height="283.02"/><rect class="cls-33" x="37.06" y="152.17" width="0.25" height="283.02"/><rect class="cls-34" x="37.3" y="152.17" width="0.25" height="283.02"/><rect class="cls-35" x="37.55" y="152.17" width="0.25" height="283.02"/><rect class="cls-36" x="37.8" y="152.17" width="0.25" height="283.02"/><rect class="cls-37" x="38.04" y="152.17" width="0.25" height="283.02"/><rect class="cls-38" x="38.29" y="152.17" width="0.25" height="283.02"/><rect class="cls-39" x="38.54" y="152.17" width="0.25" height="283.02"/><rect class="cls-40" x="38.78" y="152.17" width="0.25" height="283.02"/><rect class="cls-41" x="39.03" y="152.17" width="0.25" height="283.02"/><rect class="cls-42" x="39.28" y="152.17" width="0.25" height="283.02"/><rect class="cls-43" x="39.52" y="152.17" width="0.25" height="283.02"/><rect class="cls-44" x="39.77" y="152.17" width="0.25" height="283.02"/><rect class="cls-45" x="40.02" y="152.17" width="0.25" height="283.02"/><rect class="cls-45" x="40.27" y="152.17" width="26.99" height="283.02"/></g><path d="M30.63,353.73l0-232.83c.11-.33,10.51-33,13.54-42.27,1-3,2.15-4.43,3.59-4.5,2.43-.12,4.29,4,4.5,4.45L66.36,121v.08l1.4,192.19-.14.15Zm1-232.6v230l35.12-38.3L65.36,121.14l-14-42.2c-.43-1-2-3.85-3.51-3.81-1,0-1.88,1.36-2.69,3.81C42.19,88,32.19,119.38,31.63,121.13Z" transform="translate(0 82.75)"/><path d="M31.47,124.92l-.51-.86c.19-.11,19.08-10.89,35.29,0l-.56.83C50,114.36,31.65,124.81,31.47,124.92Z" transform="translate(0 82.75)"/><path d="M31.47,156,31,155.1c.19-.11,19.08-10.89,35.29,0l-.56.83C50,145.4,31.65,155.85,31.47,156Z" transform="translate(0 82.75)"/><path d="M31.46,194.38l-.49-.87c.19-.11,19.58-10.88,35.78,0l-.56.83C50.51,183.81,31.65,194.27,31.46,194.38Z" transform="translate(0 82.75)"/><path d="M31.46,235.71l-.49-.88c.2-.11,19.88-10.87,36.08,0l-.56.83C50.79,225.13,31.65,235.6,31.46,235.71Z" transform="translate(0 82.75)"/><path d="M31.45,272.37,31,271.5c.21-.11,20.28-10.87,36.48,0l-.56.83C51.2,261.8,31.65,272.27,31.45,272.37Z" transform="translate(0 82.75)"/><path d="M31.45,310.16l-.48-.88c.21-.11,20.28-10.87,36.48,0l-.56.83C51.2,299.58,31.65,310.05,31.45,310.16Z" transform="translate(0 82.75)"/><g class="cls-55"><rect class="cls-9" x="0.5" y="485.36" height="30.89"/><rect class="cls-9" x="0.5" y="485.36" width="0.54" height="30.89"/><rect class="cls-10" x="1.04" y="485.36" width="0.54" height="30.89"/><rect class="cls-11" x="1.57" y="485.36" width="0.54" height="30.89"/><rect class="cls-12" x="2.11" y="485.36" width="0.54" height="30.89"/><rect class="cls-13" x="2.65" y="485.36" width="0.54" height="30.89"/><rect class="cls-14" x="3.19" y="485.36" width="0.54" height="30.89"/><rect class="cls-15" x="3.72" y="485.36" width="0.54" height="30.89"/><rect class="cls-16" x="4.26" y="485.36" width="0.54" height="30.89"/><rect class="cls-17" x="4.8" y="485.36" width="0.54" height="30.89"/><rect class="cls-18" x="5.34" y="485.36" width="0.54" height="30.89"/><rect class="cls-19" x="5.87" y="485.36" width="0.54" height="30.89"/><rect class="cls-20" x="6.41" y="485.36" width="0.54" height="30.89"/><rect class="cls-21" x="6.95" y="485.36" width="0.54" height="30.89"/><rect class="cls-22" x="7.49" y="485.36" width="0.54" height="30.89"/><rect class="cls-23" x="8.02" y="485.36" width="0.54" height="30.89"/><rect class="cls-47" x="8.56" y="485.36" width="0.54" height="30.89"/><rect class="cls-24" x="9.1" y="485.36" width="0.54" height="30.89"/><rect class="cls-25" x="9.64" y="485.36" width="0.54" height="30.89"/><rect class="cls-27" x="10.17" y="485.36" width="0.54" height="30.89"/><rect class="cls-28" x="10.71" y="485.36" width="0.54" height="30.89"/><rect class="cls-29" x="11.25" y="485.36" width="0.54" height="30.89"/><rect class="cls-30" x="11.79" y="485.36" width="0.54" height="30.89"/><rect class="cls-31" x="12.32" y="485.36" width="0.54" height="30.89"/><rect class="cls-32" x="12.86" y="485.36" width="0.54" height="30.89"/><rect class="cls-33" x="13.4" y="485.36" width="0.54" height="30.89"/><rect class="cls-34" x="13.94" y="485.36" width="0.54" height="30.89"/><rect class="cls-35" x="14.47" y="485.36" width="0.54" height="30.89"/><rect class="cls-36" x="15.01" y="485.36" width="0.54" height="30.89"/><rect class="cls-37" x="15.55" y="485.36" width="0.54" height="30.89"/><rect class="cls-38" x="16.09" y="485.36" width="0.54" height="30.89"/><rect class="cls-39" x="16.62" y="485.36" width="0.54" height="30.89"/><rect class="cls-40" x="17.16" y="485.36" width="0.54" height="30.89"/><rect class="cls-41" x="17.7" y="485.36" width="0.54" height="30.89"/><rect class="cls-42" x="18.24" y="485.36" width="0.54" height="30.89"/><rect class="cls-43" x="18.77" y="485.36" width="0.54" height="30.89"/><rect class="cls-44" x="19.31" y="485.36" width="0.54" height="30.89"/><rect class="cls-45" x="19.85" y="485.36" width="0.54" height="30.89"/><rect class="cls-45" x="20.39" y="485.36" width="58.75" height="30.89"/></g><path d="M79.64,434.1l-.58-.1L0,420.91v-.42c0-7.34.35-16.37,2-17.68a.73.73,0,0,1,.53-.18H79.64ZM1,420.06l77.64,12.86v-29.3h-76C2.38,403.88,1,406,1,420.06Z" transform="translate(0 82.75)"/><rect x="1.25" y="492.35" width="77.89" height="2"/><rect x="35.23" y="493.35" width="1" height="15.69"/><g class="cls-56"><rect class="cls-9" x="143.73" y="485.79" height="30.47"/><rect class="cls-9" x="143.73" y="485.79" width="0.52" height="30.47"/><rect class="cls-10" x="144.26" y="485.79" width="0.52" height="30.47"/><rect class="cls-11" x="144.78" y="485.79" width="0.52" height="30.47"/><rect class="cls-12" x="145.3" y="485.79" width="0.52" height="30.47"/><rect class="cls-13" x="145.83" y="485.79" width="0.52" height="30.47"/><rect class="cls-14" x="146.35" y="485.79" width="0.52" height="30.47"/><rect class="cls-15" x="146.88" y="485.79" width="0.52" height="30.47"/><rect class="cls-16" x="147.4" y="485.79" width="0.52" height="30.47"/><rect class="cls-17" x="147.92" y="485.79" width="0.52" height="30.47"/><rect class="cls-18" x="148.45" y="485.79" width="0.52" height="30.47"/><rect class="cls-19" x="148.97" y="485.79" width="0.52" height="30.47"/><rect class="cls-20" x="149.49" y="485.79" width="0.52" height="30.47"/><rect class="cls-21" x="150.02" y="485.79" width="0.52" height="30.47"/><rect class="cls-22" x="150.54" y="485.79" width="0.52" height="30.47"/><rect class="cls-23" x="151.06" y="485.79" width="0.52" height="30.47"/><rect class="cls-47" x="151.59" y="485.79" width="0.52" height="30.47"/><rect class="cls-24" x="152.11" y="485.79" width="0.52" height="30.47"/><rect class="cls-25" x="152.63" y="485.79" width="0.52" height="30.47"/><rect class="cls-27" x="153.16" y="485.79" width="0.52" height="30.47"/><rect class="cls-28" x="153.68" y="485.79" width="0.52" height="30.47"/><rect class="cls-29" x="154.2" y="485.79" width="0.52" height="30.47"/><rect class="cls-30" x="154.73" y="485.79" width="0.52" height="30.47"/><rect class="cls-31" x="155.25" y="485.79" width="0.52" height="30.47"/><rect class="cls-32" x="155.77" y="485.79" width="0.52" height="30.47"/><rect class="cls-33" x="156.3" y="485.79" width="0.52" height="30.47"/><rect class="cls-34" x="156.82" y="485.79" width="0.52" height="30.47"/><rect class="cls-35" x="157.35" y="485.79" width="0.52" height="30.47"/><rect class="cls-36" x="157.87" y="485.79" width="0.52" height="30.47"/><rect class="cls-37" x="158.39" y="485.79" width="0.52" height="30.47"/><rect class="cls-38" x="158.92" y="485.79" width="0.52" height="30.47"/><rect class="cls-39" x="159.44" y="485.79" width="0.52" height="30.47"/><rect class="cls-40" x="159.96" y="485.79" width="0.52" height="30.47"/><rect class="cls-41" x="160.49" y="485.79" width="0.52" height="30.47"/><rect class="cls-42" x="161.01" y="485.79" width="0.52" height="30.47"/><rect class="cls-43" x="161.53" y="485.79" width="0.52" height="30.47"/><rect class="cls-44" x="162.06" y="485.79" width="0.52" height="30.47"/><rect class="cls-45" x="162.58" y="485.79" width="0.52" height="30.47"/><rect class="cls-45" x="163.1" y="485.79" width="57.82" height="30.47"/></g><path d="M143.23,434.1V402.54l74.34,0c.39.19,3.85,2.3,3.17,18.17v.41l-.4.07Zm1-30.56v29.38l75.53-12.6c.52-13.53-2.08-16.37-2.57-16.78Z" transform="translate(0 82.75)"/><rect x="143.73" y="492.35" width="75.74" height="2"/><rect x="186.64" y="493.35" width="1" height="15.69"/><g class="cls-57"><rect class="cls-9" x="113.22" y="516.26" height="29.49"/><rect class="cls-9" x="113.22" y="516.26" width="0.17" height="29.49"/><rect class="cls-10" x="113.39" y="516.26" width="0.17" height="29.49"/><rect class="cls-11" x="113.56" y="516.26" width="0.17" height="29.49"/><rect class="cls-12" x="113.73" y="516.26" width="0.17" height="29.49"/><rect class="cls-13" x="113.89" y="516.26" width="0.17" height="29.49"/><rect class="cls-14" x="114.06" y="516.26" width="0.17" height="29.49"/><rect class="cls-15" x="114.23" y="516.26" width="0.17" height="29.49"/><rect class="cls-16" x="114.39" y="516.26" width="0.17" height="29.49"/><rect class="cls-17" x="114.56" y="516.26" width="0.17" height="29.49"/><rect class="cls-18" x="114.73" y="516.26" width="0.17" height="29.49"/><rect class="cls-19" x="114.9" y="516.26" width="0.17" height="29.49"/><rect class="cls-20" x="115.06" y="516.26" width="0.17" height="29.49"/><rect class="cls-21" x="115.23" y="516.26" width="0.17" height="29.49"/><rect class="cls-22" x="115.4" y="516.26" width="0.17" height="29.49"/><rect class="cls-23" x="115.56" y="516.26" width="0.17" height="29.49"/><rect class="cls-47" x="115.73" y="516.26" width="0.17" height="29.49"/><rect class="cls-24" x="115.9" y="516.26" width="0.17" height="29.49"/><rect class="cls-25" x="116.07" y="516.26" width="0.17" height="29.49"/><rect class="cls-27" x="116.23" y="516.26" width="0.17" height="29.49"/><rect class="cls-28" x="116.4" y="516.26" width="0.17" height="29.49"/><rect class="cls-29" x="116.57" y="516.26" width="0.17" height="29.49"/><rect class="cls-30" x="116.74" y="516.26" width="0.17" height="29.49"/><rect class="cls-31" x="116.9" y="516.26" width="0.17" height="29.49"/><rect class="cls-32" x="117.07" y="516.26" width="0.17" height="29.49"/><rect class="cls-33" x="117.24" y="516.26" width="0.17" height="29.49"/><rect class="cls-34" x="117.4" y="516.26" width="0.17" height="29.49"/><rect class="cls-35" x="117.57" y="516.26" width="0.17" height="29.49"/><rect class="cls-36" x="117.74" y="516.26" width="0.17" height="29.49"/><rect class="cls-37" x="117.91" y="516.26" width="0.17" height="29.49"/><rect class="cls-38" x="118.07" y="516.26" width="0.17" height="29.49"/><rect class="cls-39" x="118.24" y="516.26" width="0.17" height="29.49"/><rect class="cls-40" x="118.41" y="516.26" width="0.17" height="29.49"/><rect class="cls-41" x="118.57" y="516.26" width="0.17" height="29.49"/><rect class="cls-42" x="118.74" y="516.26" width="0.17" height="29.49"/><rect class="cls-43" x="118.91" y="516.26" width="0.17" height="29.49"/><rect class="cls-44" x="119.08" y="516.26" width="0.17" height="29.49"/><rect class="cls-45" x="119.24" y="516.26" width="0.17" height="29.49"/><rect class="cls-45" x="119.41" y="516.26" width="18.28" height="29.49"/></g><path d="M138.67,463.5H112.24l4.31-5.9L116.42,433h18V457.6Zm-24.46-1h22.5l-3.31-4.57V434h-16l.12,23.92Z" transform="translate(0 82.75)"/><rect x="117.05" y="540.01" width="16.85" height="1"/><rect x="117.05" y="535.03" width="16.85" height="1"/><rect x="117.05" y="530.5" width="16.85" height="1"/><rect x="117.05" y="525.39" width="16.85" height="1"/><rect x="117.05" y="521.37" width="16.85" height="1"/><path d="M130.28,451.5h-9.64l1.42-4.29V433h7.05v14.22Zm-8.26-1h7l-.86-3.2V434h-5.05l0,13.44Z" transform="translate(0 82.75)"/><g class="cls-58"><rect class="cls-9" x="85.66" y="516.26" height="29.49"/><rect class="cls-9" x="85.66" y="516.26" width="0.17" height="29.49"/><rect class="cls-10" x="85.83" y="516.26" width="0.17" height="29.49"/><rect class="cls-11" x="86" y="516.26" width="0.17" height="29.49"/><rect class="cls-12" x="86.17" y="516.26" width="0.17" height="29.49"/><rect class="cls-13" x="86.33" y="516.26" width="0.17" height="29.49"/><rect class="cls-14" x="86.5" y="516.26" width="0.17" height="29.49"/><rect class="cls-15" x="86.67" y="516.26" width="0.17" height="29.49"/><rect class="cls-16" x="86.83" y="516.26" width="0.17" height="29.49"/><rect class="cls-17" x="87" y="516.26" width="0.17" height="29.49"/><rect class="cls-18" x="87.17" y="516.26" width="0.17" height="29.49"/><rect class="cls-19" x="87.34" y="516.26" width="0.17" height="29.49"/><rect class="cls-20" x="87.5" y="516.26" width="0.17" height="29.49"/><rect class="cls-21" x="87.67" y="516.26" width="0.17" height="29.49"/><rect class="cls-22" x="87.84" y="516.26" width="0.17" height="29.49"/><rect class="cls-23" x="88.01" y="516.26" width="0.17" height="29.49"/><rect class="cls-47" x="88.17" y="516.26" width="0.17" height="29.49"/><rect class="cls-24" x="88.34" y="516.26" width="0.17" height="29.49"/><rect class="cls-25" x="88.51" y="516.26" width="0.17" height="29.49"/><rect class="cls-27" x="88.67" y="516.26" width="0.17" height="29.49"/><rect class="cls-28" x="88.84" y="516.26" width="0.17" height="29.49"/><rect class="cls-29" x="89.01" y="516.26" width="0.17" height="29.49"/><rect class="cls-30" x="89.18" y="516.26" width="0.17" height="29.49"/><rect class="cls-31" x="89.34" y="516.26" width="0.17" height="29.49"/><rect class="cls-32" x="89.51" y="516.26" width="0.17" height="29.49"/><rect class="cls-33" x="89.68" y="516.26" width="0.17" height="29.49"/><rect class="cls-34" x="89.85" y="516.26" width="0.17" height="29.49"/><rect class="cls-35" x="90.01" y="516.26" width="0.17" height="29.49"/><rect class="cls-36" x="90.18" y="516.26" width="0.17" height="29.49"/><rect class="cls-37" x="90.35" y="516.26" width="0.17" height="29.49"/><rect class="cls-38" x="90.51" y="516.26" width="0.17" height="29.49"/><rect class="cls-39" x="90.68" y="516.26" width="0.17" height="29.49"/><rect class="cls-40" x="90.85" y="516.26" width="0.17" height="29.49"/><rect class="cls-41" x="91.02" y="516.26" width="0.17" height="29.49"/><rect class="cls-42" x="91.18" y="516.26" width="0.17" height="29.49"/><rect class="cls-43" x="91.35" y="516.26" width="0.17" height="29.49"/><rect class="cls-44" x="91.52" y="516.26" width="0.17" height="29.49"/><rect class="cls-45" x="91.68" y="516.26" width="0.17" height="29.49"/><rect class="cls-45" x="91.85" y="516.26" width="18.28" height="29.49"/></g><path d="M111.12,463.5H84.69L89,457.6V433h18l-.13,24.59Zm-24.48-1h22.51l-3.35-4.57.13-23.92H90v23.92Z" transform="translate(0 82.75)"/><rect x="89.45" y="540.01" width="16.85" height="1"/><rect x="89.45" y="535.03" width="16.85" height="1"/><rect x="89.45" y="530.5" width="16.85" height="1"/><rect x="89.45" y="525.39" width="16.85" height="1"/><path d="M102.72,451.5H93.07l1.18-4.27V433h7v14.2Zm-8.34-1h7l-1-3.2V434h-5l0,13.42Z" transform="translate(0 82.75)"/></g></g></svg>